<?xml version="1.0" encoding="UTF-8"?><svg id="_レイヤー_2" xmlns="http://www.w3.org/2000/svg" viewBox="0 0 689.11 652.13"><defs><style>.cls-1{stroke-miterlimit:10;}.cls-1,.cls-2{fill:none;stroke:#b19552;stroke-width:2.38px;}.cls-2{stroke-dasharray:0 9.51;stroke-linecap:round;stroke-linejoin:round;}.cls-3{fill:#b19552;}</style></defs><g id="_飾り"><path class="cls-3" d="M106.75,486.93c-1.37-.21-2.63-.4-3.78-.57q-11.64-1.73-13.36-13.36c-.17-1.15-.36-2.4-.57-3.78-.07-.44-.45-.77-.89-.77s-.82.32-.89.77c-.21,1.37-.4,2.63-.57,3.78q-1.73,11.64-13.37,13.36c-1.15.17-2.4.36-3.78.57-.44.07-.77.45-.77.89s.32.83.77.89c1.37.21,2.63.4,3.78.57q11.64,1.73,13.37,13.36c.17,1.15.36,2.4.57,3.78.07.44.45.77.89.77s.83-.32.89-.77c.21-1.37.4-2.63.57-3.78q1.73-11.64,13.36-13.36c1.15-.17,2.4-.36,3.78-.57.44-.07.77-.45.77-.89s-.33-.82-.77-.89Z"/><path class="cls-3" d="M572.36,193.41l-.84-24.94c-.05-1.4-.66-2.55-1.46-2.65-.87-.1-1.62,1.08-1.68,2.64l-.97,24.94c0,.18,0,.4,0,.58.02.47.08.92.17,1.34-.09.42-.16.86-.18,1.34,0,.19,0,.4,0,.58l.84,24.94c.05,1.56.8,2.75,1.66,2.65.8-.09,1.42-1.24,1.47-2.64l.97-24.94c.03-.68-.04-1.33-.17-1.92.13-.59.2-1.24.18-1.92Z"/><path class="cls-3" d="M570.28,192.22l-18.23-17.04c-1.02-.96-2.27-1.34-2.9-.84-.69.54-.38,1.9.68,3.05l16.95,18.32c.13.13.27.29.41.41.35.32.71.59,1.07.82.23.36.49.72.82,1.07.13.14.28.29.41.41l18.23,17.04c1.14,1.07,2.51,1.38,3.05.7.5-.63.12-1.88-.83-2.91l-16.95-18.32c-.46-.5-.97-.91-1.48-1.24-.33-.51-.74-1.02-1.23-1.48Z"/><path class="cls-3" d="M567.97,192.85l-24.94.84c-1.4.05-2.55.66-2.65,1.46-.1.87,1.08,1.62,2.64,1.68l24.94.97c.18,0,.4,0,.58,0,.47-.02.92-.08,1.34-.17.42.09.86.16,1.34.18.19,0,.4,0,.58,0l24.94-.84c1.56-.05,2.75-.8,2.65-1.66-.09-.8-1.24-1.42-2.64-1.47l-24.94-.97c-.68-.03-1.33.04-1.92.17-.59-.13-1.24-.2-1.92-.18Z"/><path class="cls-3" d="M566.78,194.93l-17.04,18.23c-.96,1.02-1.34,2.27-.84,2.9.54.69,1.9.38,3.05-.68l18.32-16.95c.13-.13.28-.27.41-.41.32-.35.59-.71.82-1.07.36-.23.72-.49,1.07-.82.14-.13.29-.28.41-.41l17.04-18.23c1.07-1.14,1.38-2.51.7-3.05-.63-.5-1.88-.12-2.91.83l-18.32,16.95c-.5.46-.91.97-1.24,1.48-.51.33-1.02.74-1.48,1.23Z"/><path class="cls-3" d="M666.43,179.2c-.82-.13-1.57-.24-2.26-.34q-6.96-1.03-7.99-7.99c-.1-.69-.21-1.44-.34-2.26-.04-.26-.27-.46-.53-.46s-.49.19-.53.46c-.13.82-.24,1.57-.34,2.26q-1.03,6.96-7.99,7.99c-.69.1-1.44.21-2.26.34-.26.04-.46.27-.46.53s.19.49.46.53c.82.13,1.57.24,2.26.34q6.96,1.03,7.99,7.99c.1.69.21,1.44.34,2.26.04.26.27.46.53.46s.49-.19.53-.46c.13-.82.24-1.57.34-2.26q1.03-6.96,7.99-7.99c.69-.1,1.44-.21,2.26-.34.26-.04.46-.27.46-.53s-.19-.49-.46-.53Z"/><path class="cls-3" d="M527.84,474.27l-.37-10.86c-.02-.61-.29-1.11-.63-1.15-.38-.05-.7.47-.73,1.15l-.42,10.85c0,.08,0,.17,0,.25,0,.21.04.4.08.58-.04.18-.07.38-.08.58,0,.08,0,.17,0,.25l.37,10.86c.02.68.35,1.2.72,1.15.35-.04.62-.54.64-1.15l.42-10.85c.01-.3-.02-.58-.07-.84.06-.26.09-.54.08-.84Z"/><path class="cls-3" d="M526.93,473.76l-7.93-7.42c-.45-.42-.99-.58-1.26-.37-.3.23-.17.83.3,1.33l7.38,7.97c.05.06.12.12.18.18.15.14.31.26.46.36.1.16.22.31.36.47.06.06.12.13.18.18l7.93,7.42c.5.46,1.09.6,1.33.3.22-.27.05-.82-.36-1.27l-7.38-7.97c-.2-.22-.42-.4-.64-.54-.14-.22-.32-.44-.54-.65Z"/><path class="cls-3" d="M525.93,474.03l-10.86.37c-.61.02-1.11.29-1.15.63-.05.38.47.7,1.15.73l10.85.42c.08,0,.17,0,.25,0,.21,0,.4-.04.58-.08.18.04.38.07.58.08.08,0,.17,0,.25,0l10.86-.37c.68-.02,1.2-.35,1.15-.72-.04-.35-.54-.62-1.15-.64l-10.85-.42c-.3-.01-.58.02-.84.07-.26-.06-.54-.09-.84-.08Z"/><path class="cls-3" d="M525.41,474.93l-7.42,7.93c-.42.45-.58.99-.37,1.26.23.3.83.17,1.33-.3l7.97-7.38c.06-.05.12-.12.18-.18.14-.15.26-.31.36-.46.16-.1.32-.22.47-.36.06-.06.12-.12.18-.18l7.42-7.93c.46-.5.6-1.09.3-1.33-.27-.22-.82-.05-1.27.36l-7.97,7.38c-.22.2-.4.42-.54.64-.22.14-.44.32-.65.54Z"/><path class="cls-3" d="M578.22,577.83c-1.37-.21-2.63-.4-3.78-.57q-11.64-1.73-13.36-13.36c-.17-1.15-.36-2.4-.57-3.78-.07-.44-.45-.77-.89-.77s-.83.32-.89.77c-.21,1.37-.4,2.63-.57,3.78q-1.73,11.64-13.37,13.36c-1.15.17-2.4.36-3.78.57-.44.07-.77.45-.77.89s.33.82.77.89c1.37.21,2.63.4,3.78.57q11.64,1.73,13.37,13.36c.17,1.15.36,2.4.57,3.78.07.44.45.77.89.77s.82-.32.89-.77c.21-1.37.4-2.63.57-3.78q1.73-11.64,13.36-13.36c1.15-.17,2.4-.36,3.78-.57.44-.07.77-.45.77-.89s-.33-.83-.77-.89Z"/><path class="cls-3" d="M186.8,594.35l-.84-24.94c-.05-1.4-.66-2.55-1.46-2.65-.87-.1-1.62,1.08-1.68,2.64l-.97,24.94c0,.18,0,.4,0,.58.02.47.08.92.17,1.34-.09.42-.16.86-.18,1.34,0,.19,0,.4,0,.58l.84,24.94c.05,1.56.8,2.75,1.66,2.65.8-.09,1.42-1.24,1.47-2.64l.97-24.94c.03-.68-.04-1.33-.17-1.92.13-.59.2-1.24.18-1.92Z"/><path class="cls-3" d="M184.72,593.16l-18.23-17.04c-1.02-.96-2.27-1.34-2.9-.84-.69.54-.38,1.9.68,3.05l16.95,18.32c.13.13.27.28.41.41.35.32.71.59,1.07.82.23.36.49.72.82,1.07.13.14.28.29.41.41l18.23,17.04c1.14,1.07,2.51,1.38,3.05.7.5-.63.12-1.88-.83-2.91l-16.95-18.32c-.46-.5-.97-.91-1.48-1.24-.33-.51-.74-1.02-1.23-1.48Z"/><path class="cls-3" d="M182.41,593.78l-24.94.84c-1.4.05-2.55.66-2.65,1.46-.1.87,1.08,1.62,2.64,1.68l24.94.97c.18,0,.4,0,.58,0,.47-.02.92-.08,1.34-.17.42.09.86.16,1.34.18.19,0,.4,0,.58,0l24.94-.84c1.56-.05,2.75-.8,2.65-1.66-.09-.8-1.24-1.42-2.64-1.47l-24.94-.97c-.68-.03-1.33.04-1.92.17-.59-.13-1.24-.2-1.92-.18Z"/><path class="cls-3" d="M181.22,595.86l-17.04,18.23c-.96,1.02-1.34,2.27-.84,2.9.54.69,1.9.38,3.05-.68l18.32-16.95c.13-.13.29-.27.41-.41.32-.35.59-.71.82-1.07.36-.23.72-.49,1.07-.82.14-.13.29-.28.41-.41l17.04-18.23c1.07-1.14,1.38-2.51.7-3.05-.63-.5-1.88-.12-2.91.83l-18.32,16.95c-.5.46-.91.97-1.24,1.48-.51.33-1.02.74-1.48,1.23Z"/><path class="cls-3" d="M100.6,291.53c-.96-.15-1.84-.28-2.65-.4q-8.16-1.21-9.37-9.37c-.12-.81-.25-1.69-.4-2.65-.05-.31-.31-.54-.63-.54s-.58.23-.63.54c-.15.96-.28,1.84-.4,2.65q-1.21,8.16-9.37,9.37c-.8.12-1.69.25-2.65.4-.31.05-.54.31-.54.63s.23.58.54.63c.96.15,1.84.28,2.65.4q8.16,1.21,9.37,9.37c.12.81.25,1.69.4,2.65.05.31.31.54.63.54s.58-.23.63-.54c.15-.96.28-1.84.4-2.65q1.21-8.15,9.37-9.37c.8-.12,1.69-.25,2.65-.4.31-.05.54-.31.54-.63s-.23-.58-.54-.63Z"/><path class="cls-3" d="M578.39,71.69l-.4-12.02c-.02-.68-.32-1.23-.7-1.28-.42-.05-.78.52-.81,1.27l-.47,12.02c0,.09,0,.19,0,.28,0,.23.04.44.08.64-.04.2-.08.42-.09.64,0,.09,0,.19,0,.28l.4,12.02c.03.75.38,1.33.8,1.28.38-.04.68-.6.71-1.27l.47-12.02c.01-.33-.02-.64-.08-.93.06-.29.1-.6.09-.92Z"/><path class="cls-3" d="M577.39,71.12l-8.79-8.22c-.49-.46-1.1-.64-1.4-.41-.33.26-.18.92.33,1.47l8.17,8.83c.06.06.13.14.2.2.17.16.34.28.51.4.11.17.24.35.39.52.06.07.13.14.2.2l8.79,8.22c.55.51,1.21.67,1.47.34.24-.3.06-.91-.4-1.4l-8.17-8.83c-.22-.24-.47-.44-.71-.6-.16-.25-.35-.49-.59-.71Z"/><path class="cls-3" d="M576.28,71.42l-12.02.4c-.68.02-1.23.32-1.28.7-.05.42.52.78,1.27.81l12.02.47c.09,0,.19,0,.28,0,.23,0,.44-.04.64-.08.2.04.42.08.64.09.09,0,.19,0,.28,0l12.02-.4c.75-.03,1.33-.38,1.28-.8-.04-.38-.6-.68-1.27-.71l-12.02-.47c-.33-.01-.64.02-.93.08-.29-.06-.6-.1-.92-.09Z"/><path class="cls-3" d="M575.7,72.42l-8.22,8.79c-.46.49-.64,1.1-.41,1.4.26.33.92.18,1.47-.33l8.83-8.17c.06-.06.14-.13.2-.2.16-.17.28-.34.4-.51.17-.11.35-.24.52-.39.07-.06.14-.13.2-.2l8.22-8.79c.51-.55.67-1.21.34-1.47-.3-.24-.91-.06-1.4.4l-8.83,8.17c-.24.22-.44.47-.6.71-.25.16-.49.35-.71.59Z"/><path class="cls-3" d="M180.91,106.41c-1.37-.21-2.63-.4-3.78-.57q-11.64-1.73-13.36-13.36c-.17-1.15-.36-2.4-.57-3.78-.07-.44-.45-.77-.89-.77s-.82.32-.89.77c-.21,1.37-.4,2.63-.57,3.78q-1.73,11.64-13.37,13.36c-1.15.17-2.4.36-3.78.57-.44.07-.77.45-.77.89s.32.82.77.89c1.37.21,2.63.4,3.78.57q11.64,1.73,13.37,13.36c.17,1.15.36,2.4.57,3.78.07.44.45.77.89.77s.83-.32.89-.77c.21-1.37.4-2.63.57-3.78q1.73-11.64,13.36-13.36c1.15-.17,2.4-.36,3.78-.57.44-.07.77-.45.77-.89s-.32-.83-.77-.89Z"/><path class="cls-3" d="M96.89,101.97c-.82-.13-1.57-.24-2.26-.34q-6.96-1.03-7.99-7.99c-.1-.69-.21-1.44-.34-2.26-.04-.26-.27-.46-.53-.46s-.49.19-.53.46c-.13.82-.24,1.57-.34,2.26q-1.03,6.96-7.99,7.99c-.69.1-1.44.21-2.26.34-.26.04-.46.27-.46.53s.19.49.46.53c.82.13,1.57.24,2.26.34q6.96,1.03,7.99,7.99c.1.69.21,1.44.34,2.26.04.26.27.46.53.46s.49-.19.53-.46c.13-.82.24-1.57.34-2.26q1.03-6.96,7.99-7.99c.69-.1,1.44-.21,2.26-.34.26-.04.46-.27.46-.53s-.19-.49-.46-.53Z"/><path class="cls-3" d="M478.38,631.86c-1.37-.21-2.63-.4-3.78-.57q-11.64-1.73-13.36-13.36c-.17-1.15-.36-2.4-.57-3.78-.07-.44-.45-.77-.89-.77s-.82.32-.89.77c-.21,1.37-.4,2.63-.57,3.78q-1.73,11.64-13.37,13.36c-1.15.17-2.4.36-3.78.57-.44.07-.77.45-.77.89s.32.82.77.89c1.37.21,2.63.4,3.78.57q11.64,1.73,13.37,13.36c.17,1.15.36,2.4.57,3.78.07.44.45.77.89.77s.82-.32.89-.77c.21-1.37.4-2.63.57-3.78q1.73-11.64,13.36-13.36c1.15-.17,2.4-.36,3.78-.57.44-.07.77-.45.77-.89s-.33-.83-.77-.89Z"/><path class="cls-3" d="M521.33,86.47c-.86-.13-1.65-.25-2.37-.36q-7.28-1.08-8.37-8.36c-.11-.72-.22-1.51-.36-2.37-.04-.28-.28-.48-.56-.48s-.52.2-.56.48c-.13.86-.25,1.65-.36,2.36q-1.08,7.28-8.37,8.36c-.72.11-1.51.22-2.37.36-.28.04-.48.28-.48.56s.2.52.48.56c.86.13,1.65.25,2.37.36q7.28,1.08,8.37,8.37c.11.72.22,1.51.36,2.36.04.28.28.48.56.48s.52-.2.56-.48c.13-.86.25-1.65.36-2.36q1.08-7.28,8.37-8.37c.72-.11,1.51-.22,2.37-.36.28-.04.48-.28.48-.56s-.2-.52-.48-.56Z"/><path class="cls-3" d="M135.22,64.38c-1.17-.18-2.24-.34-3.22-.49q-9.92-1.47-11.4-11.4c-.15-.98-.3-2.05-.49-3.22-.06-.38-.38-.65-.76-.65s-.7.28-.76.65c-.18,1.17-.34,2.24-.49,3.22q-1.47,9.92-11.4,11.4c-.98.15-2.05.3-3.22.49-.38.06-.65.38-.65.76s.28.7.65.76c1.17.18,2.24.34,3.22.49q9.92,1.47,11.4,11.4c.14.98.3,2.05.49,3.22.06.38.38.65.76.65s.7-.28.76-.65c.18-1.17.34-2.24.49-3.22q1.47-9.92,11.4-11.4c.98-.15,2.05-.3,3.22-.49.38-.06.65-.38.65-.76s-.28-.7-.65-.76Z"/><path class="cls-3" d="M67.27,461.75c-.47-.07-.91-.14-1.31-.2q-4.02-.6-4.62-4.62c-.06-.4-.12-.83-.2-1.31-.02-.15-.16-.26-.31-.26s-.29.11-.31.26c-.07.47-.14.91-.2,1.31q-.6,4.02-4.62,4.62c-.4.06-.83.12-1.31.2-.15.02-.26.15-.26.31s.11.29.26.31c.47.07.91.14,1.31.2q4.02.6,4.62,4.62c.06.4.12.83.2,1.31.02.15.16.26.31.26s.29-.11.31-.26c.07-.47.14-.91.2-1.31q.6-4.02,4.62-4.62c.4-.06.83-.12,1.31-.2.15-.02.26-.15.26-.31s-.11-.29-.26-.31Z"/><path class="cls-3" d="M600.24,547.74c-.79-.12-1.52-.23-2.18-.33q-6.72-1-7.72-7.72c-.1-.66-.21-1.39-.33-2.18-.04-.25-.26-.44-.52-.44s-.48.19-.52.44c-.12.79-.23,1.52-.33,2.18q-1,6.72-7.72,7.72c-.66.1-1.39.21-2.18.33-.25.04-.44.26-.44.52s.19.48.44.52c.79.12,1.52.23,2.18.33q6.72,1,7.72,7.72c.1.66.21,1.39.33,2.18.04.25.26.44.52.44s.48-.19.52-.44c.12-.79.23-1.52.33-2.18q1-6.72,7.72-7.72c.66-.1,1.39-.21,2.18-.33.25-.04.44-.26.44-.52s-.19-.48-.44-.52Z"/><path class="cls-3" d="M40.17,298.24c-.56-.09-1.07-.16-1.53-.23q-4.71-.7-5.41-5.41c-.07-.47-.14-.97-.23-1.53-.03-.18-.18-.31-.36-.31s-.33.13-.36.31c-.09.56-.16,1.07-.23,1.53q-.7,4.71-5.41,5.41c-.47.07-.97.14-1.53.23-.18.03-.31.18-.31.36s.13.33.31.36c.56.09,1.07.16,1.53.23q4.71.7,5.41,5.41c.07.46.14.97.23,1.53.03.18.18.31.36.31s.33-.13.36-.31c.09-.56.16-1.07.23-1.53q.7-4.71,5.41-5.41c.47-.07.97-.14,1.53-.23.18-.03.31-.18.31-.36s-.13-.33-.31-.36Z"/><path class="cls-3" d="M99.01,326.69c-.49-.08-.93-.14-1.34-.2q-4.14-.61-4.75-4.75c-.06-.41-.13-.85-.2-1.34-.02-.16-.16-.27-.32-.27s-.29.12-.32.27c-.08.49-.14.93-.2,1.34q-.61,4.14-4.75,4.75c-.41.06-.85.13-1.34.2-.16.02-.27.16-.27.32s.12.29.27.32c.49.08.94.14,1.34.2q4.14.61,4.75,4.75c.06.41.13.85.2,1.34.02.16.16.27.32.27s.29-.12.32-.27c.08-.49.14-.93.2-1.34q.61-4.13,4.75-4.75c.41-.06.85-.13,1.34-.2.16-.02.27-.16.27-.32s-.12-.29-.27-.32Z"/><path class="cls-3" d="M632.89,425.38c-.29-.05-.56-.09-.8-.12q-2.47-.37-2.84-2.84c-.04-.24-.08-.51-.12-.8-.01-.09-.1-.16-.19-.16s-.18.07-.19.16c-.05.29-.09.56-.12.8q-.37,2.47-2.84,2.84c-.24.04-.51.08-.8.12-.09.01-.16.1-.16.19s.07.18.16.19c.29.05.56.08.8.12q2.47.37,2.84,2.84c.04.24.08.51.12.8.01.09.1.16.19.16s.18-.07.19-.16c.05-.29.08-.56.12-.8q.37-2.47,2.84-2.84c.24-.04.51-.08.8-.12.09-.01.16-.1.16-.19s-.07-.18-.16-.19Z"/><path class="cls-3" d="M520.28,509.56c-.49-.08-.93-.14-1.34-.2q-4.14-.61-4.75-4.75c-.06-.41-.13-.85-.2-1.34-.02-.16-.16-.27-.32-.27s-.29.12-.32.27c-.08.49-.14.93-.2,1.34q-.61,4.14-4.75,4.75c-.41.06-.85.13-1.34.2-.16.02-.27.16-.27.32s.12.29.27.32c.49.08.94.14,1.34.2q4.14.61,4.75,4.75c.06.41.13.85.2,1.34.02.16.16.27.32.27s.29-.12.32-.27c.08-.49.14-.93.2-1.34q.61-4.13,4.75-4.75c.41-.06.85-.13,1.34-.2.16-.02.27-.16.27-.32s-.12-.29-.27-.32Z"/><path class="cls-3" d="M242.22,599.38c-.34-.05-.66-.1-.94-.14q-2.9-.43-3.33-3.33c-.04-.29-.09-.6-.14-.94-.02-.11-.11-.19-.22-.19s-.21.08-.22.19c-.05.34-.1.66-.14.94q-.43,2.9-3.33,3.33c-.29.04-.6.09-.94.14-.11.02-.19.11-.19.22s.08.21.19.22c.34.05.66.1.94.14q2.9.43,3.33,3.33c.04.29.09.6.14.94.02.11.11.19.22.19s.21-.08.22-.19c.05-.34.1-.66.14-.94q.43-2.9,3.33-3.33c.29-.04.6-.09.94-.14.11-.02.19-.11.19-.22s-.08-.21-.19-.22Z"/><path class="cls-3" d="M145.64,552.41c-.29-.05-.56-.09-.8-.12q-2.47-.37-2.84-2.84c-.04-.24-.08-.51-.12-.8-.01-.09-.1-.16-.19-.16s-.18.07-.19.16c-.05.29-.09.56-.12.8q-.37,2.47-2.84,2.84c-.24.04-.51.08-.8.12-.09.01-.16.1-.16.19s.07.18.16.19c.29.05.56.08.8.12q2.47.37,2.84,2.84c.04.24.08.51.12.8.01.09.1.16.19.16s.18-.07.19-.16c.05-.29.08-.56.12-.8q.37-2.47,2.84-2.84c.24-.04.51-.08.8-.12.09-.01.16-.1.16-.19s-.07-.18-.16-.19Z"/><circle class="cls-2" cx="345.14" cy="298.01" r="295.14"/><circle class="cls-1" cx="370.11" cy="313.9" r="295.14"/><circle class="cls-1" cx="308.81" cy="327.52" r="295.14" transform="translate(-141.14 314.29) rotate(-45)"/><path class="cls-3" d="M137.78,122.44c-.63-.1-1.2-.18-1.72-.26q-5.3-.79-6.08-6.08c-.08-.52-.16-1.09-.26-1.72-.03-.2-.2-.35-.41-.35s-.38.15-.41.35c-.1.62-.18,1.2-.26,1.72q-.79,5.3-6.08,6.08c-.52.08-1.09.16-1.72.26-.2.03-.35.2-.35.41s.15.38.35.41c.63.1,1.2.18,1.72.26q5.3.79,6.08,6.08c.08.52.16,1.09.26,1.72.03.2.2.35.41.35s.38-.15.41-.35c.1-.62.18-1.2.26-1.72q.79-5.29,6.08-6.08c.52-.08,1.09-.16,1.72-.26.2-.03.35-.2.35-.41s-.15-.38-.35-.41Z"/><path class="cls-3" d="M541.73,53.02c-.49-.08-.93-.14-1.34-.2q-4.14-.61-4.75-4.75c-.06-.41-.13-.85-.2-1.34-.02-.16-.16-.27-.32-.27s-.29.12-.32.27c-.08.49-.14.93-.2,1.34q-.61,4.14-4.75,4.75c-.41.06-.85.13-1.34.2-.16.02-.27.16-.27.32s.12.29.27.32c.49.08.94.14,1.34.2q4.14.61,4.75,4.75c.06.41.13.85.2,1.34.02.16.16.27.32.27s.29-.12.32-.27c.08-.49.14-.93.2-1.34q.61-4.13,4.75-4.75c.41-.06.85-.13,1.34-.2.16-.02.27-.16.27-.32s-.12-.29-.27-.32Z"/><path class="cls-3" d="M13.5,378.9c-.49-.08-.94-.14-1.34-.2q-4.14-.61-4.75-4.75c-.06-.41-.13-.85-.2-1.34-.02-.16-.16-.27-.32-.27s-.29.12-.32.27c-.08.49-.14.93-.2,1.34q-.61,4.14-4.75,4.75c-.41.06-.85.13-1.34.2-.16.02-.27.16-.27.32s.12.29.27.32c.49.08.93.14,1.34.2q4.14.61,4.75,4.75c.06.41.13.85.2,1.34.02.16.16.27.32.27s.29-.12.32-.27c.08-.49.14-.93.2-1.34q.61-4.13,4.75-4.75c.41-.06.85-.13,1.34-.2.16-.02.27-.16.27-.32s-.12-.29-.27-.32Z"/><path class="cls-3" d="M635.31,271.23c-.49-.08-.94-.14-1.34-.2q-4.14-.61-4.75-4.75c-.06-.41-.13-.85-.2-1.34-.02-.16-.16-.27-.32-.27s-.29.12-.32.27c-.08.49-.14.93-.2,1.34q-.61,4.14-4.75,4.75c-.41.06-.85.13-1.34.2-.16.02-.27.16-.27.32s.12.29.27.32c.49.08.94.14,1.34.2q4.14.61,4.75,4.75c.06.41.13.85.2,1.34.02.16.16.27.32.27s.29-.12.32-.27c.08-.49.14-.93.2-1.34q.61-4.14,4.75-4.75c.41-.06.85-.13,1.34-.2.16-.02.27-.16.27-.32s-.12-.29-.27-.32Z"/><path class="cls-3" d="M246.59,6.57c-.49-.08-.94-.14-1.34-.2q-4.14-.61-4.75-4.75c-.06-.41-.13-.85-.2-1.34-.02-.16-.16-.27-.32-.27s-.29.12-.32.27c-.08.49-.14.93-.2,1.34q-.61,4.14-4.75,4.75c-.41.06-.85.13-1.34.2-.16.02-.27.16-.27.32s.12.29.27.32c.49.08.93.14,1.34.2q4.14.61,4.75,4.75c.06.41.13.85.2,1.34.02.16.16.27.32.27s.29-.12.32-.27c.08-.49.14-.93.2-1.34q.61-4.14,4.75-4.75c.41-.06.85-.13,1.34-.2.16-.02.27-.16.27-.32s-.12-.29-.27-.32Z"/><path class="cls-3" d="M257.91,562.57c-.49-.08-.94-.14-1.34-.2q-4.14-.61-4.75-4.75c-.06-.41-.13-.85-.2-1.34-.02-.16-.16-.27-.32-.27s-.29.12-.32.27c-.08.49-.14.93-.2,1.34q-.61,4.14-4.75,4.75c-.41.06-.85.13-1.34.2-.16.02-.27.16-.27.32s.12.29.27.32c.49.08.94.14,1.34.2q4.14.61,4.75,4.75c.06.41.13.85.2,1.34.02.16.16.27.32.27s.29-.12.32-.27c.08-.49.14-.93.2-1.34q.61-4.13,4.75-4.75c.41-.06.85-.13,1.34-.2.16-.02.27-.16.27-.32s-.12-.29-.27-.32Z"/><path class="cls-3" d="M408.76,630.06c-.61-.09-1.17-.18-1.68-.25q-5.17-.77-5.94-5.94c-.08-.51-.16-1.07-.25-1.68-.03-.2-.2-.34-.4-.34s-.37.14-.4.34c-.1.61-.18,1.17-.25,1.68q-.77,5.17-5.94,5.94c-.51.08-1.07.16-1.68.25-.2.03-.34.2-.34.4s.14.37.34.4c.61.1,1.17.18,1.68.25q5.17.77,5.94,5.94c.08.51.16,1.07.25,1.68.03.2.2.34.4.34s.37-.14.4-.34c.09-.61.18-1.17.25-1.68q.77-5.17,5.94-5.94c.51-.08,1.07-.16,1.68-.25.2-.03.34-.2.34-.4s-.14-.37-.34-.4Z"/><path class="cls-3" d="M688.77,353.08c-.61-.1-1.17-.18-1.68-.25q-5.17-.77-5.94-5.94c-.08-.51-.16-1.07-.25-1.68-.03-.2-.2-.34-.4-.34s-.37.14-.4.34c-.1.61-.18,1.17-.25,1.68q-.77,5.17-5.94,5.94c-.51.08-1.07.16-1.68.25-.2.03-.34.2-.34.4s.14.37.34.4c.61.09,1.17.18,1.68.25q5.17.77,5.94,5.94c.08.51.16,1.07.25,1.68.03.2.2.34.4.34s.37-.14.4-.34c.09-.61.18-1.17.25-1.68q.77-5.17,5.94-5.94c.51-.08,1.07-.16,1.68-.25.2-.03.34-.2.34-.4s-.14-.37-.34-.4Z"/><path class="cls-3" d="M682,395.23c-.86-.13-1.64-.25-2.36-.36q-7.28-1.08-8.36-8.36c-.11-.72-.22-1.5-.36-2.36-.04-.28-.28-.48-.56-.48s-.52.2-.56.48c-.13.86-.25,1.64-.36,2.36q-1.08,7.28-8.36,8.36c-.72.11-1.5.22-2.36.36-.28.04-.48.28-.48.56s.2.52.48.56c.86.13,1.65.25,2.36.36q7.28,1.08,8.36,8.36c.11.72.22,1.5.36,2.36.04.28.28.48.56.48s.52-.2.56-.48c.13-.86.25-1.64.36-2.36q1.08-7.28,8.36-8.36c.72-.11,1.5-.22,2.36-.36.28-.04.48-.28.48-.56s-.2-.52-.48-.56Z"/><path class="cls-3" d="M224.97,14.21c-.77-.12-1.48-.23-2.13-.32q-6.55-.97-7.52-7.52c-.1-.65-.2-1.35-.32-2.13-.04-.25-.25-.43-.5-.43s-.46.18-.5.43c-.12.77-.23,1.48-.32,2.13q-.97,6.55-7.52,7.52c-.65.1-1.35.2-2.13.32-.25.04-.43.25-.43.5s.18.46.43.5c.77.12,1.48.23,2.13.32q6.55.97,7.52,7.52c.1.65.2,1.35.32,2.13.04.25.25.43.5.43s.46-.18.5-.43c.12-.77.22-1.48.32-2.13q.97-6.55,7.52-7.52c.65-.1,1.35-.2,2.13-.32.25-.04.43-.25.43-.5s-.18-.46-.43-.5Z"/><path class="cls-3" d="M29.58,237.13l-.31-9.21c-.02-.52-.24-.94-.54-.98-.32-.04-.6.4-.62.98l-.36,9.21c0,.07,0,.15,0,.22,0,.18.03.34.06.49-.03.16-.06.32-.07.49,0,.07,0,.15,0,.22l.31,9.21c.02.58.29,1.02.61.98.29-.03.52-.46.54-.98l.36-9.21c0-.25-.01-.49-.06-.71.05-.22.07-.46.07-.71Z"/><path class="cls-3" d="M28.81,236.69l-6.73-6.29c-.38-.35-.84-.49-1.07-.31-.25.2-.14.7.25,1.13l6.26,6.76s.1.1.15.15c.13.12.26.22.39.3.09.13.18.27.3.4.05.05.1.11.15.15l6.73,6.29c.42.39.93.51,1.13.26.18-.23.05-.69-.31-1.07l-6.26-6.76c-.17-.18-.36-.34-.54-.46-.12-.19-.27-.38-.45-.55Z"/><path class="cls-3" d="M27.96,236.92l-9.21.31c-.52.02-.94.24-.98.54-.04.32.4.6.98.62l9.21.36c.07,0,.15,0,.22,0,.18,0,.34-.03.49-.06.16.03.32.06.49.07.07,0,.15,0,.22,0l9.21-.31c.58-.02,1.02-.29.98-.61-.03-.29-.46-.52-.98-.54l-9.21-.36c-.25,0-.49.01-.71.06-.22-.05-.46-.07-.71-.07Z"/><path class="cls-3" d="M27.52,237.69l-6.29,6.73c-.35.38-.49.84-.31,1.07.2.25.7.14,1.13-.25l6.76-6.26s.11-.1.15-.15c.12-.13.22-.26.3-.39.13-.09.27-.18.4-.3.05-.05.11-.1.15-.15l6.29-6.73c.39-.42.51-.93.26-1.13-.23-.18-.69-.05-1.07.31l-6.76,6.26c-.18.17-.34.36-.46.54-.19.12-.38.27-.55.45Z"/><path class="cls-3" d="M459.07,89.67l-.16-4.9c0-.28-.13-.5-.29-.52-.17-.02-.32.21-.33.52l-.19,4.9s0,.08,0,.11c0,.09.02.18.03.26-.02.08-.03.17-.04.26,0,.04,0,.08,0,.11l.16,4.9c.01.31.16.54.33.52.16-.02.28-.24.29-.52l.19-4.9c0-.13,0-.26-.03-.38.03-.12.04-.24.03-.38Z"/><path class="cls-3" d="M458.66,89.43l-3.58-3.35c-.2-.19-.45-.26-.57-.17-.13.11-.07.37.13.6l3.33,3.6s.05.06.08.08c.07.06.14.12.21.16.05.07.1.14.16.21.03.03.05.06.08.08l3.58,3.35c.22.21.49.27.6.14.1-.12.02-.37-.16-.57l-3.33-3.6c-.09-.1-.19-.18-.29-.24-.06-.1-.14-.2-.24-.29Z"/><path class="cls-3" d="M458.21,89.56l-4.9.16c-.28,0-.5.13-.52.29-.02.17.21.32.52.33l4.9.19s.08,0,.11,0c.09,0,.18-.02.26-.03.08.02.17.03.26.04.04,0,.08,0,.11,0l4.9-.16c.31-.01.54-.16.52-.33-.02-.16-.24-.28-.52-.29l-4.9-.19c-.13,0-.26,0-.38.03-.12-.03-.24-.04-.38-.03Z"/><path class="cls-3" d="M457.97,89.96l-3.35,3.58c-.19.2-.26.45-.17.57.11.13.37.07.6-.13l3.6-3.33s.06-.05.08-.08c.06-.07.12-.14.16-.21.07-.05.14-.1.21-.16.03-.03.06-.05.08-.08l3.35-3.58c.21-.22.27-.49.14-.6-.12-.1-.37-.02-.57.16l-3.6,3.33c-.1.09-.18.19-.24.29-.1.06-.2.14-.29.24Z"/><path class="cls-3" d="M589.23,387.08c-.62-.1-1.19-.18-1.71-.26q-5.25-.78-6.03-6.03c-.08-.52-.16-1.08-.26-1.71-.03-.2-.2-.35-.4-.35s-.37.15-.4.35c-.1.62-.18,1.19-.26,1.7q-.78,5.25-6.03,6.03c-.52.08-1.08.16-1.71.26-.2.03-.35.2-.35.4s.15.37.35.4c.62.1,1.19.18,1.71.26q5.25.78,6.03,6.03c.08.52.16,1.08.26,1.7.03.2.2.35.4.35s.37-.15.4-.35c.1-.62.18-1.19.26-1.7q.78-5.25,6.03-6.03c.52-.08,1.08-.16,1.71-.26.2-.03.35-.2.35-.4s-.15-.37-.35-.4Z"/><path class="cls-3" d="M116.76,407.46c-.62-.1-1.19-.18-1.71-.26q-5.25-.78-6.03-6.03c-.08-.52-.16-1.08-.26-1.71-.03-.2-.2-.35-.4-.35s-.37.15-.4.35c-.1.62-.18,1.19-.26,1.7q-.78,5.25-6.03,6.03c-.52.08-1.08.16-1.71.26-.2.03-.34.2-.34.4s.15.37.34.4c.62.1,1.19.18,1.71.26q5.25.78,6.03,6.03c.08.52.16,1.08.26,1.7.03.2.2.35.4.35s.37-.15.4-.35c.1-.62.18-1.19.26-1.7q.78-5.25,6.03-6.03c.52-.08,1.09-.16,1.71-.26.2-.03.35-.2.35-.4s-.15-.37-.35-.4Z"/><path class="cls-3" d="M584.36,498.77c-.36-.06-.69-.1-.99-.15q-3.03-.45-3.48-3.48c-.04-.3-.09-.63-.15-.99-.02-.11-.12-.2-.23-.2s-.22.08-.23.2c-.06.36-.1.69-.15.99q-.45,3.03-3.48,3.48c-.3.04-.63.09-.99.15-.11.02-.2.12-.2.23s.08.21.2.23c.36.06.69.1.99.15q3.03.45,3.48,3.48c.04.3.09.63.15.99.02.11.12.2.23.2s.21-.08.23-.2c.06-.36.1-.69.15-.99q.45-3.03,3.48-3.48c.3-.04.63-.09.99-.15.11-.02.2-.12.2-.23s-.08-.22-.2-.23Z"/><path class="cls-3" d="M137.74,158.54c-.22-.03-.42-.06-.61-.09q-1.87-.28-2.14-2.14c-.03-.18-.06-.39-.09-.61-.01-.07-.07-.12-.14-.12s-.13.05-.14.12c-.03.22-.06.42-.09.61q-.28,1.87-2.14,2.14c-.18.03-.39.06-.61.09-.07.01-.12.07-.12.14s.05.13.12.14c.22.03.42.06.61.09q1.87.28,2.14,2.14c.03.18.06.39.09.61.01.07.07.12.14.12s.13-.05.14-.12c.03-.22.06-.42.09-.61q.28-1.87,2.14-2.14c.18-.03.39-.06.61-.09.07-.01.12-.07.12-.14s-.05-.13-.12-.14Z"/><path class="cls-3" d="M76.13,444.59c-.28-.04-.53-.08-.76-.11q-2.33-.35-2.68-2.68c-.03-.23-.07-.48-.11-.76-.01-.09-.09-.15-.18-.15s-.17.06-.18.15c-.04.28-.08.53-.11.76q-.35,2.33-2.68,2.68c-.23.03-.48.07-.76.11-.09.01-.15.09-.15.18s.07.17.15.18c.28.04.53.08.76.11q2.33.35,2.68,2.68c.03.23.07.48.11.76.01.09.09.15.18.15s.17-.07.18-.15c.04-.28.08-.53.11-.76q.35-2.33,2.68-2.68c.23-.03.48-.07.76-.11.09-.01.15-.09.15-.18s-.06-.17-.15-.18Z"/><path class="cls-3" d="M490.77,76.43l-.13-3.81c0-.21-.1-.39-.22-.4-.13-.02-.25.16-.26.4l-.15,3.81s0,.06,0,.09c0,.07.01.14.03.2-.01.06-.02.13-.03.2,0,.03,0,.06,0,.09l.13,3.81c0,.24.12.42.25.4.12-.01.22-.19.22-.4l.15-3.81c0-.1,0-.2-.03-.29.02-.09.03-.19.03-.29Z"/><path class="cls-3" d="M490.45,76.25l-2.78-2.6c-.16-.15-.35-.2-.44-.13-.1.08-.06.29.1.47l2.59,2.8s.04.04.06.06c.05.05.11.09.16.13.04.06.08.11.12.16.02.02.04.04.06.06l2.78,2.6c.17.16.38.21.47.11.08-.1.02-.29-.13-.44l-2.59-2.8c-.07-.08-.15-.14-.23-.19-.05-.08-.11-.16-.19-.23Z"/><path class="cls-3" d="M490.1,76.35l-3.81.13c-.21,0-.39.1-.4.22-.02.13.16.25.4.26l3.81.15s.06,0,.09,0c.07,0,.14-.01.2-.03.06.01.13.02.2.03.03,0,.06,0,.09,0l3.81-.13c.24,0,.42-.12.4-.25-.01-.12-.19-.22-.4-.22l-3.81-.15c-.1,0-.2,0-.29.03-.09-.02-.19-.03-.29-.03Z"/><path class="cls-3" d="M489.92,76.67l-2.6,2.78c-.15.16-.2.35-.13.44.08.1.29.06.47-.1l2.8-2.59s.04-.04.06-.06c.05-.05.09-.11.13-.16.06-.04.11-.08.16-.12.02-.02.04-.04.06-.06l2.6-2.78c.16-.17.21-.38.11-.47-.1-.08-.29-.02-.44.13l-2.8,2.59c-.08.07-.14.15-.19.23-.08.05-.16.11-.23.19Z"/><path class="cls-3" d="M627.89,290.43c-.81-.13-1.55-.24-2.23-.34q-6.86-1.02-7.88-7.88c-.1-.68-.21-1.42-.34-2.23-.04-.26-.26-.45-.53-.45s-.49.19-.53.45c-.13.81-.24,1.55-.34,2.23q-1.02,6.86-7.88,7.88c-.68.1-1.42.21-2.23.34-.26.04-.45.26-.45.53s.19.49.45.53c.81.13,1.55.24,2.23.34q6.86,1.02,7.88,7.88c.1.68.21,1.42.34,2.23.04.26.26.45.53.45s.49-.19.53-.45c.13-.81.24-1.55.34-2.23q1.02-6.86,7.88-7.88c.68-.1,1.42-.21,2.23-.34.26-.04.45-.26.45-.53s-.19-.49-.45-.53Z"/><path class="cls-3" d="M16.51,255.83c-.48-.08-.92-.14-1.33-.2q-4.09-.61-4.69-4.69c-.06-.4-.13-.84-.2-1.33-.02-.15-.16-.27-.31-.27s-.29.11-.31.27c-.07.48-.14.92-.2,1.33q-.61,4.08-4.69,4.69c-.4.06-.84.13-1.33.2-.15.02-.27.16-.27.31s.11.29.27.31c.48.08.92.14,1.33.2q4.08.61,4.69,4.69c.06.4.13.84.2,1.33.02.15.16.27.31.27s.29-.11.31-.27c.07-.48.14-.92.2-1.33q.61-4.08,4.69-4.69c.4-.06.84-.13,1.33-.2.15-.02.27-.16.27-.31s-.11-.29-.27-.31Z"/><path class="cls-3" d="M475.31,546.23c-.28-.04-.53-.08-.77-.12q-2.36-.35-2.71-2.71c-.03-.23-.07-.49-.12-.77-.01-.09-.09-.16-.18-.16s-.17.07-.18.16c-.04.28-.08.53-.12.77q-.35,2.36-2.71,2.71c-.23.03-.49.07-.77.12-.09.01-.16.09-.16.18s.07.17.16.18c.28.04.53.08.77.12q2.36.35,2.71,2.71c.03.23.07.49.12.77.01.09.09.16.18.16s.17-.07.18-.16c.04-.28.08-.53.12-.77q.35-2.36,2.71-2.71c.23-.03.49-.07.77-.12.09-.01.16-.09.16-.18s-.07-.17-.16-.18Z"/><path class="cls-3" d="M441.48,49.34c-.17-.03-.33-.05-.47-.07q-1.45-.22-1.67-1.67c-.02-.14-.04-.3-.07-.47,0-.05-.06-.1-.11-.1s-.1.04-.11.1c-.03.17-.05.33-.07.47q-.22,1.45-1.67,1.67c-.14.02-.3.04-.47.07-.05,0-.1.06-.1.11s.04.1.1.11c.17.03.33.05.47.07q1.45.22,1.67,1.67c.02.14.04.3.07.47,0,.05.06.1.11.1s.1-.04.11-.1c.03-.17.05-.33.07-.47q.22-1.45,1.67-1.67c.14-.02.3-.04.47-.07.05,0,.1-.06.1-.11s-.04-.1-.1-.11Z"/><path class="cls-3" d="M273.08,566c-.21-.03-.41-.06-.59-.09q-1.81-.27-2.08-2.08c-.03-.18-.06-.38-.09-.59-.01-.07-.07-.12-.14-.12s-.13.05-.14.12c-.03.21-.06.41-.09.59q-.27,1.81-2.08,2.08c-.18.03-.38.06-.59.09-.07.01-.12.07-.12.14s.05.13.12.14c.21.03.41.06.59.09q1.81.27,2.08,2.08c.03.18.06.37.09.59.01.07.07.12.14.12s.13-.05.14-.12c.03-.21.06-.41.09-.59q.27-1.81,2.08-2.08c.18-.03.38-.06.59-.09.07-.01.12-.07.12-.14s-.05-.13-.12-.14Z"/><polygon class="cls-3" points="206.37 223.55 171.22 220.54 193.94 193.55 166.96 216.27 163.94 181.12 160.92 216.27 133.93 193.55 156.65 220.54 121.51 223.55 156.65 226.57 133.93 253.56 160.92 230.84 163.94 265.99 166.96 230.84 193.94 253.56 171.22 226.57 206.37 223.55"/><path class="cls-3" d="M127.46,213.24c2.22.92,4.77-.14,5.69-2.37.92-2.22-.14-4.77-2.37-5.68-2.22-.92-4.77.14-5.68,2.37-.92,2.22.14,4.77,2.37,5.68Z"/><path class="cls-3" d="M151.12,192.82h0c2.22-.93,3.27-3.48,2.34-5.7-.93-2.22-3.48-3.27-5.69-2.34h0c-2.22.93-3.27,3.47-2.34,5.69.92,2.22,3.47,3.27,5.69,2.34Z"/><path class="cls-3" d="M194.66,210.71s.02.03.03.05c0,.02,0,.03.01.05h0c.92,2.22,3.47,3.28,5.69,2.36,2.22-.92,3.28-3.47,2.36-5.69h0s-.02-.04-.03-.06c0-.02-.01-.05-.02-.07h0c-.93-2.22-3.48-3.27-5.7-2.34-2.22.93-3.27,3.48-2.34,5.7h0Z"/><path class="cls-3" d="M176.6,192.75c2.22.91,4.77-.15,5.68-2.37.91-2.22-.15-4.77-2.37-5.68-2.22-.91-4.77.15-5.68,2.37-.91,2.22.15,4.77,2.37,5.68Z"/><path class="cls-3" d="M176.71,254.31h0c-2.22.92-3.27,3.47-2.35,5.69.92,2.22,3.47,3.27,5.69,2.35h0c2.22-.92,3.27-3.47,2.35-5.69-.92-2.22-3.47-3.27-5.69-2.35Z"/><path class="cls-3" d="M127.5,234c-2.22.92-3.27,3.47-2.35,5.69.92,2.22,3.47,3.27,5.69,2.35,2.22-.92,3.27-3.47,2.35-5.69-.92-2.22-3.47-3.27-5.69-2.35Z"/><path class="cls-3" d="M200.4,233.93c-2.22-.92-4.77.14-5.69,2.36h0c-.92,2.22.14,4.77,2.36,5.69,2.22.92,4.77-.14,5.69-2.36h0c.92-2.22-.14-4.77-2.36-5.69Z"/><path class="cls-3" d="M151.23,254.34h0c-2.22-.92-4.77.14-5.69,2.36-.92,2.22.14,4.77,2.36,5.69h0c2.22.92,4.77-.14,5.69-2.36.92-2.22-.14-4.77-2.36-5.69Z"/></g></svg>