<?xml version="1.0" encoding="UTF-8"?><svg id="_レイヤー_2" xmlns="http://www.w3.org/2000/svg" viewBox="0 0 4407.46 4141.19"><defs><style>.cls-1{stroke-dasharray:0 20.92;}.cls-1,.cls-2,.cls-3,.cls-4{fill:none;stroke:#b19552;}.cls-1,.cls-3{stroke-width:5.23px;}.cls-1,.cls-4{stroke-linecap:round;stroke-linejoin:round;}.cls-2,.cls-3{stroke-miterlimit:10;}.cls-2,.cls-4{stroke-width:6.6px;}.cls-4{stroke-dasharray:0 26.39;}.cls-5{fill:#b19552;}</style></defs><g id="_飾り"><path class="cls-5" d="M492.53,2300.32c-3.81-.59-7.3-1.11-10.49-1.58q-32.29-4.79-37.08-37.08c-.48-3.19-.99-6.67-1.58-10.49-.19-1.22-1.25-2.12-2.48-2.12s-2.29.9-2.48,2.12c-.59,3.81-1.11,7.3-1.58,10.49q-4.79,32.29-37.09,37.08c-3.19.47-6.67.99-10.49,1.58-1.22.19-2.12,1.24-2.12,2.48s.9,2.29,2.12,2.48c3.81.59,7.3,1.11,10.49,1.58q32.29,4.8,37.09,37.08c.47,3.19.99,6.67,1.58,10.48.19,1.22,1.25,2.13,2.48,2.13s2.29-.9,2.48-2.13c.59-3.81,1.11-7.3,1.58-10.48q4.79-32.29,37.08-37.08c3.19-.47,6.67-.99,10.49-1.58,1.22-.19,2.12-1.24,2.12-2.48s-.9-2.29-2.12-2.48Z"/><path class="cls-5" d="M1784.48,1485.86l-2.33-69.21c-.13-3.89-1.84-7.08-4.05-7.35-2.4-.29-4.48,2.99-4.65,7.33l-2.68,69.2c-.02.51-.02,1.1,0,1.62.04,1.32.23,2.54.48,3.71-.26,1.16-.45,2.39-.5,3.71-.02.52-.02,1.11,0,1.62l2.33,69.21c.15,4.34,2.21,7.63,4.61,7.35,2.21-.26,3.93-3.44,4.08-7.33l2.68-69.2c.07-1.88-.11-3.68-.46-5.33.36-1.65.56-3.44.49-5.32Z"/><path class="cls-5" d="M1778.72,1482.56l-50.58-47.29c-2.84-2.66-6.31-3.71-8.06-2.34-1.9,1.49-1.05,5.28,1.89,8.47l47.03,50.82c.35.37.76.79,1.14,1.15.96.9,1.96,1.64,2.96,2.28.64,1.01,1.37,2.01,2.27,2.98.35.38.77.8,1.14,1.15l50.58,47.29c3.17,2.96,6.96,3.83,8.46,1.94,1.38-1.74.35-5.22-2.3-8.07l-47.03-50.82c-1.28-1.38-2.68-2.52-4.1-3.44-.91-1.42-2.04-2.83-3.42-4.11Z"/><path class="cls-5" d="M1772.31,1484.3l-69.21,2.33c-3.89.13-7.08,1.84-7.35,4.05-.29,2.4,2.99,4.48,7.33,4.65l69.2,2.68c.51.02,1.1.02,1.62,0,1.32-.04,2.54-.23,3.71-.48,1.16.26,2.39.45,3.71.5.52.02,1.11.02,1.62,0l69.21-2.33c4.34-.15,7.63-2.21,7.35-4.61-.26-2.21-3.44-3.93-7.33-4.08l-69.2-2.68c-1.88-.07-3.68.11-5.33.46-1.65-.36-3.44-.56-5.33-.49Z"/><path class="cls-5" d="M1769.01,1490.07l-47.29,50.58c-2.66,2.84-3.71,6.31-2.34,8.06,1.49,1.9,5.28,1.05,8.47-1.89l50.82-47.03c.37-.35.79-.76,1.15-1.14.9-.96,1.64-1.96,2.28-2.96,1.01-.64,2.01-1.37,2.98-2.27.38-.35.8-.77,1.15-1.14l47.29-50.58c2.96-3.17,3.83-6.96,1.94-8.46-1.74-1.38-5.22-.35-8.07,2.3l-50.82,47.03c-1.38,1.28-2.52,2.68-3.44,4.1-1.42.91-2.82,2.04-4.11,3.42Z"/><path class="cls-5" d="M2045.51,1446.43c-2.28-.35-4.36-.66-6.27-.95q-19.31-2.87-22.17-22.17c-.29-1.91-.59-3.99-.95-6.27-.11-.73-.74-1.27-1.48-1.27s-1.37.54-1.48,1.27c-.36,2.28-.67,4.36-.95,6.27q-2.87,19.31-22.17,22.17c-1.91.28-3.99.59-6.27.95-.73.11-1.27.74-1.27,1.48s.54,1.37,1.27,1.48c2.28.35,4.36.66,6.27.95q19.31,2.87,22.17,22.17c.28,1.91.59,3.99.95,6.27.11.73.74,1.27,1.48,1.27s1.37-.54,1.48-1.27c.35-2.28.66-4.36.95-6.27q2.86-19.3,22.17-22.17c1.91-.28,3.99-.59,6.27-.95.73-.11,1.27-.74,1.27-1.48s-.54-1.37-1.27-1.48Z"/><path class="cls-5" d="M1660.95,2265.2l-1.01-30.12c-.06-1.69-.8-3.08-1.76-3.2-1.04-.13-1.95,1.3-2.02,3.19l-1.17,30.12c0,.22,0,.48,0,.7.02.57.1,1.11.21,1.61-.11.51-.2,1.04-.22,1.61,0,.23,0,.48,0,.7l1.01,30.12c.06,1.89.96,3.32,2.01,3.2.96-.11,1.71-1.5,1.78-3.19l1.17-30.12c.03-.82-.05-1.6-.2-2.32.16-.72.24-1.5.21-2.32Z"/><path class="cls-5" d="M1658.44,2263.76l-22.02-20.58c-1.24-1.16-2.75-1.61-3.51-1.02-.83.65-.46,2.3.82,3.69l20.47,22.12c.15.16.33.34.5.5.42.39.85.71,1.29.99.28.44.6.87.99,1.29.15.17.34.35.5.5l22.02,20.58c1.38,1.29,3.03,1.67,3.68.84.6-.76.15-2.27-1-3.51l-20.47-22.12c-.56-.6-1.17-1.1-1.78-1.5-.4-.62-.89-1.23-1.49-1.79Z"/><path class="cls-5" d="M1655.65,2264.52l-30.12,1.01c-1.69.06-3.08.8-3.2,1.76-.13,1.04,1.3,1.95,3.19,2.02l30.12,1.17c.22,0,.48,0,.7,0,.57-.02,1.11-.1,1.61-.21.51.11,1.04.2,1.61.22.23,0,.48,0,.7,0l30.12-1.01c1.89-.06,3.32-.96,3.2-2.01-.11-.96-1.5-1.71-3.19-1.78l-30.12-1.17c-.82-.03-1.6.05-2.32.2-.72-.16-1.5-.24-2.32-.21Z"/><path class="cls-5" d="M1654.21,2267.03l-20.58,22.02c-1.16,1.24-1.62,2.75-1.02,3.51.65.83,2.3.46,3.69-.82l22.12-20.47c.16-.15.34-.33.5-.5.39-.42.71-.85.99-1.29.44-.28.87-.6,1.3-.99.17-.15.35-.34.5-.5l20.58-22.02c1.29-1.38,1.67-3.03.84-3.68-.76-.6-2.27-.15-3.51,1l-22.12,20.47c-.6.56-1.1,1.17-1.5,1.78-.62.4-1.23.89-1.79,1.49Z"/><path class="cls-5" d="M1800.76,2552.55c-3.81-.59-7.3-1.11-10.49-1.58q-32.29-4.79-37.08-37.08c-.48-3.19-.99-6.67-1.58-10.49-.19-1.22-1.25-2.13-2.48-2.13s-2.29.9-2.48,2.13c-.59,3.81-1.11,7.3-1.58,10.48q-4.79,32.29-37.09,37.08c-3.19.47-6.67.99-10.49,1.58-1.22.19-2.12,1.24-2.12,2.48s.9,2.29,2.12,2.48c3.81.59,7.3,1.11,10.49,1.58q32.29,4.8,37.09,37.08c.47,3.19.99,6.67,1.58,10.49.19,1.22,1.25,2.12,2.48,2.12s2.29-.9,2.48-2.12c.59-3.81,1.11-7.3,1.58-10.49q4.79-32.29,37.08-37.08c3.19-.47,6.67-.99,10.49-1.58,1.22-.19,2.12-1.24,2.12-2.48s-.9-2.29-2.12-2.48Z"/><path class="cls-5" d="M714.64,2598.37l-2.33-69.21c-.13-3.89-1.84-7.08-4.05-7.35-2.4-.29-4.48,2.99-4.65,7.33l-2.68,69.2c-.02.51-.02,1.1,0,1.62.04,1.32.23,2.54.48,3.71-.26,1.16-.45,2.39-.5,3.71-.02.52-.02,1.11,0,1.62l2.33,69.21c.15,4.34,2.21,7.63,4.61,7.35,2.21-.26,3.93-3.44,4.08-7.33l2.68-69.2c.07-1.88-.11-3.68-.47-5.33.36-1.65.56-3.44.49-5.33Z"/><path class="cls-5" d="M708.88,2595.07l-50.58-47.29c-2.84-2.66-6.31-3.71-8.06-2.34-1.9,1.49-1.05,5.29,1.89,8.47l47.03,50.82c.35.37.76.79,1.14,1.15.96.9,1.96,1.64,2.96,2.28.64,1.01,1.37,2.01,2.27,2.98.35.38.77.8,1.14,1.15l50.58,47.29c3.17,2.96,6.96,3.83,8.46,1.94,1.38-1.74.35-5.22-2.3-8.07l-47.03-50.82c-1.28-1.38-2.68-2.52-4.1-3.44-.91-1.42-2.04-2.82-3.42-4.11Z"/><path class="cls-5" d="M702.47,2596.82l-69.21,2.33c-3.89.13-7.08,1.84-7.35,4.05-.29,2.4,2.99,4.48,7.33,4.65l69.2,2.68c.51.02,1.1.02,1.62,0,1.32-.04,2.54-.23,3.71-.48,1.16.26,2.39.45,3.71.5.52.02,1.11.02,1.62,0l69.21-2.33c4.34-.15,7.63-2.21,7.35-4.61-.26-2.21-3.44-3.93-7.33-4.08l-69.2-2.68c-1.88-.07-3.68.11-5.33.46-1.65-.36-3.44-.55-5.32-.49Z"/><path class="cls-5" d="M699.17,2602.58l-47.29,50.58c-2.66,2.84-3.71,6.31-2.34,8.06,1.49,1.9,5.29,1.05,8.47-1.89l50.82-47.03c.37-.35.79-.76,1.15-1.14.9-.96,1.64-1.96,2.28-2.96,1-.64,2.01-1.37,2.97-2.27.38-.35.8-.77,1.15-1.14l47.29-50.58c2.96-3.17,3.83-6.96,1.94-8.46-1.74-1.38-5.22-.35-8.07,2.3l-50.82,47.03c-1.38,1.28-2.52,2.68-3.44,4.1-1.42.91-2.83,2.04-4.11,3.42Z"/><path class="cls-5" d="M475.47,1758.12c-2.67-.42-5.12-.78-7.35-1.11q-22.63-3.36-25.99-25.99c-.33-2.23-.69-4.68-1.11-7.35-.13-.86-.87-1.49-1.74-1.49s-1.6.63-1.74,1.49c-.42,2.67-.78,5.11-1.11,7.35q-3.36,22.63-25.99,25.99c-2.23.33-4.68.69-7.35,1.11-.86.13-1.49.87-1.49,1.74s.63,1.6,1.49,1.74c2.67.42,5.12.78,7.35,1.11q22.63,3.36,25.99,25.99c.33,2.23.69,4.68,1.11,7.35.13.86.87,1.49,1.74,1.49s1.6-.63,1.74-1.49c.42-2.67.78-5.11,1.11-7.35q3.36-22.63,25.99-25.99c2.23-.33,4.68-.69,7.35-1.11.86-.13,1.49-.87,1.49-1.74s-.63-1.6-1.49-1.74Z"/><path class="cls-5" d="M1801.23,1148.12l-1.12-33.36c-.06-1.87-.89-3.42-1.95-3.54-1.16-.14-2.16,1.44-2.24,3.53l-1.29,33.35c0,.25-.01.53,0,.78.02.63.11,1.23.23,1.79-.12.56-.22,1.15-.24,1.79-.01.25,0,.53,0,.78l1.12,33.36c.07,2.09,1.07,3.68,2.22,3.54,1.07-.12,1.9-1.66,1.97-3.53l1.29-33.35c.04-.91-.05-1.77-.22-2.57.17-.79.27-1.66.24-2.57Z"/><path class="cls-5" d="M1798.45,1146.53l-24.38-22.8c-1.37-1.28-3.04-1.79-3.89-1.13-.92.72-.51,2.55.91,4.08l22.67,24.5c.17.18.37.38.55.55.46.43.94.79,1.43,1.1.31.48.66.97,1.09,1.43.17.18.37.38.55.55l24.38,22.8c1.53,1.43,3.35,1.85,4.08.93.67-.84.17-2.52-1.11-3.89l-22.67-24.5c-.62-.67-1.29-1.22-1.97-1.66-.44-.68-.98-1.36-1.65-1.98Z"/><path class="cls-5" d="M1795.36,1147.37l-33.36,1.12c-1.87.06-3.42.89-3.54,1.95-.14,1.16,1.44,2.16,3.53,2.24l33.35,1.29c.25,0,.53,0,.78,0,.63-.02,1.23-.11,1.79-.23.56.12,1.15.22,1.79.24.25,0,.53,0,.78,0l33.36-1.12c2.09-.07,3.68-1.07,3.54-2.22-.12-1.07-1.66-1.9-3.53-1.97l-33.35-1.29c-.91-.03-1.77.05-2.57.22-.79-.18-1.66-.27-2.57-.24Z"/><path class="cls-5" d="M1793.77,1150.15l-22.8,24.38c-1.28,1.37-1.79,3.04-1.13,3.88.72.92,2.55.51,4.08-.91l24.5-22.67c.18-.17.38-.37.55-.55.43-.46.79-.95,1.1-1.43.48-.31.97-.66,1.43-1.09.18-.17.38-.37.55-.55l22.8-24.38c1.43-1.53,1.85-3.35.93-4.08-.84-.67-2.51-.17-3.89,1.11l-24.5,22.67c-.67.62-1.22,1.29-1.66,1.97-.68.44-1.36.98-1.98,1.65Z"/><path class="cls-5" d="M698.3,1244.44c-3.81-.59-7.3-1.11-10.49-1.58q-32.29-4.79-37.08-37.08c-.48-3.19-.99-6.67-1.58-10.49-.19-1.22-1.24-2.13-2.48-2.13s-2.29.9-2.48,2.13c-.59,3.81-1.11,7.3-1.58,10.48q-4.8,32.29-37.09,37.08c-3.19.47-6.67.99-10.49,1.58-1.22.19-2.12,1.24-2.12,2.48s.9,2.29,2.12,2.48c3.81.59,7.3,1.11,10.49,1.58q32.29,4.8,37.09,37.08c.47,3.19.99,6.67,1.58,10.48.19,1.22,1.24,2.13,2.48,2.13s2.29-.9,2.48-2.13c.59-3.81,1.11-7.3,1.58-10.48q4.79-32.29,37.08-37.08c3.19-.47,6.67-.99,10.49-1.58,1.22-.19,2.12-1.24,2.12-2.48s-.9-2.29-2.12-2.48Z"/><path class="cls-5" d="M465.15,1232.13c-2.28-.35-4.36-.66-6.27-.95q-19.31-2.87-22.17-22.17c-.28-1.91-.59-3.99-.95-6.27-.11-.73-.75-1.27-1.48-1.27s-1.37.54-1.48,1.27c-.35,2.28-.67,4.36-.95,6.27q-2.87,19.31-22.18,22.17c-1.9.28-3.99.59-6.27.95-.73.11-1.27.74-1.27,1.48s.54,1.37,1.27,1.48c2.28.35,4.36.66,6.27.95q19.31,2.87,22.18,22.17c.28,1.9.59,3.99.95,6.27.11.73.74,1.27,1.48,1.27s1.37-.54,1.48-1.27c.35-2.28.66-4.36.95-6.27q2.86-19.3,22.17-22.17c1.9-.28,3.99-.59,6.27-.95.73-.11,1.27-.74,1.27-1.48s-.54-1.37-1.27-1.48Z"/><path class="cls-5" d="M1523.71,2702.48c-3.81-.59-7.3-1.11-10.49-1.58q-32.29-4.79-37.08-37.08c-.48-3.19-.99-6.67-1.58-10.49-.19-1.22-1.25-2.13-2.48-2.13s-2.29.9-2.48,2.13c-.59,3.81-1.11,7.3-1.58,10.48q-4.79,32.29-37.09,37.08c-3.19.47-6.67.99-10.49,1.58-1.22.19-2.12,1.24-2.12,2.48s.9,2.29,2.12,2.48c3.81.59,7.3,1.11,10.49,1.58q32.29,4.8,37.09,37.08c.47,3.19.99,6.67,1.58,10.49.19,1.22,1.25,2.12,2.48,2.12s2.29-.9,2.48-2.12c.59-3.81,1.11-7.3,1.58-10.49q4.79-32.29,37.08-37.08c3.19-.47,6.67-.99,10.49-1.58,1.22-.19,2.12-1.24,2.12-2.48s-.9-2.29-2.12-2.48Z"/><path class="cls-5" d="M1642.89,1189.12c-2.39-.37-4.57-.7-6.56-.99q-20.21-3-23.21-23.21c-.3-2-.62-4.18-.99-6.56-.12-.77-.78-1.33-1.55-1.33s-1.43.56-1.55,1.33c-.37,2.39-.7,4.57-.99,6.56q-3,20.21-23.21,23.21c-1.99.3-4.18.62-6.56.99-.76.12-1.33.78-1.33,1.55s.56,1.43,1.33,1.55c2.39.37,4.57.7,6.56.99q20.21,3,23.21,23.21c.29,1.99.62,4.18.99,6.56.12.77.78,1.33,1.55,1.33s1.43-.56,1.55-1.33c.37-2.39.69-4.57.99-6.56q3-20.21,23.21-23.21c1.99-.3,4.18-.62,6.56-.99.76-.12,1.33-.78,1.33-1.55s-.56-1.43-1.33-1.55Z"/><path class="cls-5" d="M571.52,1127.82c-3.25-.51-6.22-.95-8.94-1.35q-27.54-4.09-31.62-31.62c-.41-2.72-.84-5.69-1.35-8.94-.16-1.04-1.06-1.81-2.11-1.81s-1.95.77-2.11,1.81c-.51,3.25-.95,6.22-1.35,8.94q-4.09,27.54-31.63,31.62c-2.72.4-5.69.84-8.94,1.35-1.04.16-1.81,1.06-1.81,2.11s.77,1.95,1.81,2.11c3.25.51,6.22.95,8.94,1.35q27.54,4.09,31.63,31.62c.4,2.72.84,5.69,1.35,8.94.16,1.04,1.06,1.81,2.11,1.81s1.95-.77,2.11-1.81c.51-3.25.94-6.22,1.35-8.94q4.08-27.53,31.62-31.62c2.72-.4,5.69-.84,8.94-1.35,1.04-.16,1.81-1.06,1.81-2.11s-.77-1.95-1.81-2.11Z"/><path class="cls-5" d="M382.96,2230.44c-1.32-.2-2.52-.38-3.62-.55q-11.16-1.66-12.81-12.81c-.16-1.1-.34-2.31-.55-3.62-.07-.42-.43-.73-.86-.73s-.79.31-.86.73c-.2,1.32-.38,2.52-.55,3.62q-1.66,11.15-12.81,12.81c-1.1.16-2.31.34-3.62.55-.42.07-.73.43-.73.86s.31.79.73.86c1.32.2,2.52.38,3.62.55q11.16,1.66,12.81,12.81c.16,1.1.34,2.31.55,3.62.07.42.43.73.86.73s.79-.31.86-.73c.2-1.32.38-2.52.55-3.62q1.65-11.15,12.81-12.81c1.1-.16,2.31-.34,3.62-.55.42-.07.73-.43.73-.86s-.31-.79-.73-.86Z"/><path class="cls-5" d="M1861.86,2469.06c-2.2-.34-4.22-.64-6.06-.91q-18.66-2.77-21.43-21.43c-.27-1.84-.57-3.86-.91-6.06-.11-.71-.72-1.23-1.43-1.23s-1.32.52-1.43,1.23c-.34,2.2-.64,4.22-.91,6.06q-2.77,18.66-21.43,21.43c-1.84.27-3.86.57-6.06.91-.71.11-1.23.72-1.23,1.43s.52,1.32,1.23,1.43c2.2.34,4.22.64,6.06.91q18.66,2.77,21.43,21.43c.27,1.84.57,3.86.91,6.06.11.71.72,1.23,1.43,1.23s1.32-.52,1.43-1.23c.34-2.2.64-4.22.91-6.06q2.77-18.65,21.43-21.43c1.84-.27,3.86-.57,6.06-.91.71-.11,1.23-.72,1.23-1.43s-.52-1.32-1.23-1.43Z"/><path class="cls-5" d="M307.78,1776.74c-1.54-.24-2.96-.45-4.25-.64q-13.08-1.94-15.02-15.02c-.19-1.29-.4-2.7-.64-4.25-.08-.5-.5-.86-1-.86s-.93.37-1,.86c-.24,1.54-.45,2.96-.64,4.24q-1.94,13.08-15.02,15.02c-1.29.19-2.7.4-4.25.64-.49.08-.86.5-.86,1s.37.93.86,1c1.54.24,2.96.45,4.25.64q13.08,1.94,15.02,15.02c.19,1.29.4,2.7.64,4.24.08.5.5.86,1,.86s.93-.37,1-.86c.24-1.54.45-2.96.64-4.24q1.94-13.07,15.02-15.02c1.29-.19,2.7-.4,4.25-.64.49-.08.86-.5.86-1s-.37-.93-.86-1Z"/><path class="cls-5" d="M471.05,1855.67c-1.35-.21-2.59-.39-3.73-.56q-11.48-1.7-13.18-13.18c-.17-1.13-.35-2.37-.56-3.73-.07-.43-.44-.75-.88-.75s-.81.32-.88.75c-.21,1.35-.4,2.59-.56,3.73q-1.7,11.48-13.18,13.18c-1.13.17-2.37.35-3.73.56-.43.07-.75.44-.75.88s.32.81.75.88c1.36.21,2.59.4,3.73.56q11.48,1.71,13.18,13.18c.17,1.13.35,2.37.56,3.73.07.43.44.75.88.75s.81-.32.88-.75c.21-1.35.39-2.59.56-3.73q1.7-11.47,13.18-13.18c1.13-.17,2.37-.35,3.73-.56.43-.07.75-.44.75-.88s-.32-.81-.75-.88Z"/><path class="cls-5" d="M1952.44,2129.54c-.81-.13-1.55-.24-2.23-.34q-6.86-1.02-7.88-7.88c-.1-.68-.21-1.42-.34-2.23-.04-.26-.26-.45-.53-.45s-.49.19-.53.45c-.13.81-.24,1.55-.34,2.23q-1.02,6.86-7.88,7.88c-.68.1-1.42.21-2.23.34-.26.04-.45.26-.45.53s.19.49.45.53c.81.13,1.55.24,2.23.34q6.86,1.02,7.88,7.88c.1.68.21,1.42.34,2.23.04.26.26.45.53.45s.49-.19.53-.45c.13-.81.24-1.55.34-2.23q1.02-6.86,7.88-7.88c.68-.1,1.42-.21,2.23-.34.26-.04.45-.26.45-.53s-.19-.49-.45-.53Z"/><path class="cls-5" d="M1639.97,2363.12c-1.35-.21-2.59-.39-3.73-.56q-11.48-1.7-13.18-13.18c-.17-1.13-.35-2.37-.56-3.73-.07-.44-.44-.76-.88-.76s-.81.32-.88.76c-.21,1.35-.4,2.59-.56,3.72q-1.7,11.48-13.18,13.18c-1.13.17-2.37.35-3.73.56-.43.07-.75.44-.75.88s.32.81.75.88c1.36.21,2.59.4,3.73.56q11.48,1.71,13.18,13.18c.17,1.13.35,2.37.56,3.73.07.43.44.75.88.75s.81-.32.88-.75c.21-1.35.39-2.59.56-3.73q1.7-11.47,13.18-13.18c1.13-.17,2.37-.35,3.73-.56.43-.07.75-.44.75-.88s-.32-.81-.75-.88Z"/><path class="cls-5" d="M868.42,2612.34c-.95-.15-1.82-.28-2.61-.39q-8.04-1.19-9.24-9.24c-.12-.79-.25-1.66-.4-2.61-.05-.3-.31-.53-.62-.53s-.57.23-.62.53c-.15.95-.28,1.82-.39,2.61q-1.19,8.04-9.24,9.24c-.79.12-1.66.25-2.61.39-.3.05-.53.31-.53.62s.22.57.53.62c.95.15,1.82.28,2.61.39q8.04,1.19,9.24,9.24c.12.79.25,1.66.39,2.61.05.3.31.53.62.53s.57-.23.62-.53c.15-.95.28-1.82.4-2.61q1.19-8.04,9.24-9.24c.79-.12,1.66-.25,2.61-.39.3-.05.53-.31.53-.62s-.22-.57-.53-.62Z"/><path class="cls-5" d="M600.44,2482.01c-.81-.13-1.55-.24-2.23-.34q-6.86-1.02-7.88-7.88c-.1-.68-.21-1.42-.34-2.23-.04-.26-.26-.45-.53-.45s-.49.19-.53.45c-.13.81-.24,1.55-.34,2.23q-1.02,6.86-7.88,7.88c-.68.1-1.42.21-2.23.34-.26.04-.45.26-.45.53s.19.49.45.53c.81.13,1.55.24,2.23.34q6.86,1.02,7.88,7.88c.1.68.21,1.42.34,2.23.04.26.26.45.53.45s.49-.19.53-.45c.13-.81.24-1.55.34-2.23q1.02-6.86,7.88-7.88c.68-.1,1.42-.21,2.23-.34.26-.04.45-.26.45-.53s-.19-.49-.45-.53Z"/><circle class="cls-4" cx="1154" cy="1776.1" r="818.97"/><circle class="cls-2" cx="1223.3" cy="1820.2" r="818.97"/><circle class="cls-2" cx="1053.2" cy="1858" r="818.97" transform="translate(-1005.33 1288.92) rotate(-45)"/><path class="cls-5" d="M578.62,1288.92c-1.73-.27-3.32-.5-4.77-.72q-14.69-2.18-16.87-16.87c-.22-1.45-.45-3.04-.72-4.77-.09-.56-.57-.97-1.13-.97s-1.04.41-1.13.97c-.27,1.73-.51,3.32-.72,4.77q-2.18,14.69-16.88,16.87c-1.45.22-3.04.45-4.77.72-.56.09-.97.57-.97,1.13s.41,1.04.97,1.13c1.74.27,3.32.5,4.77.72q14.69,2.18,16.88,16.87c.21,1.45.45,3.04.72,4.77.09.56.57.97,1.13.97s1.04-.41,1.13-.97c.27-1.73.5-3.32.72-4.77q2.18-14.69,16.87-16.87c1.45-.22,3.04-.45,4.77-.72.56-.09.97-.57.97-1.13s-.41-1.04-.97-1.13Z"/><path class="cls-5" d="M1699.5,1096.29c-1.35-.21-2.59-.4-3.73-.56q-11.48-1.7-13.18-13.18c-.17-1.13-.35-2.37-.56-3.73-.07-.43-.44-.76-.88-.76s-.81.32-.88.76c-.21,1.35-.4,2.59-.56,3.73q-1.7,11.47-13.18,13.18c-1.13.17-2.37.35-3.73.56-.43.07-.75.44-.75.88s.32.81.75.88c1.36.21,2.59.39,3.73.56q11.48,1.71,13.18,13.18c.17,1.13.35,2.37.56,3.73.07.43.44.76.88.76s.81-.32.88-.76c.21-1.35.39-2.59.56-3.73q1.7-11.47,13.18-13.18c1.13-.17,2.37-.35,3.73-.56.43-.07.75-.44.75-.88s-.32-.81-.75-.88Z"/><path class="cls-5" d="M233.76,2000.56c-1.36-.21-2.59-.39-3.73-.56q-11.48-1.7-13.18-13.18c-.17-1.13-.35-2.37-.56-3.73-.07-.43-.44-.75-.88-.75s-.81.32-.88.75c-.21,1.35-.4,2.59-.56,3.73q-1.7,11.48-13.18,13.18c-1.13.17-2.37.35-3.73.56-.43.07-.75.44-.75.88s.32.81.75.88c1.36.21,2.59.4,3.73.56q11.48,1.71,13.18,13.18c.17,1.13.35,2.37.56,3.73.07.43.44.75.88.75s.81-.32.88-.75c.21-1.35.39-2.59.56-3.73q1.7-11.47,13.18-13.18c1.13-.17,2.37-.35,3.73-.56.43-.07.75-.44.75-.88s-.32-.81-.75-.88Z"/><path class="cls-5" d="M1959.16,1701.8c-1.36-.21-2.59-.4-3.73-.56q-11.48-1.7-13.18-13.18c-.17-1.13-.35-2.37-.56-3.73-.07-.43-.44-.75-.88-.75s-.81.32-.88.75c-.21,1.35-.4,2.59-.56,3.73q-1.7,11.47-13.18,13.18c-1.13.17-2.37.35-3.73.56-.43.07-.75.44-.75.88s.32.81.75.88c1.36.21,2.59.39,3.73.56q11.48,1.71,13.18,13.18c.17,1.13.35,2.37.56,3.72.07.44.44.76.88.76s.81-.32.88-.76c.21-1.35.39-2.59.56-3.72q1.7-11.47,13.18-13.18c1.13-.17,2.37-.35,3.73-.56.43-.07.75-.44.75-.88s-.32-.81-.75-.88Z"/><path class="cls-5" d="M880.54,967.41c-1.36-.21-2.59-.4-3.73-.56q-11.48-1.7-13.18-13.18c-.17-1.13-.35-2.37-.56-3.73-.07-.43-.44-.75-.88-.75s-.81.32-.88.75c-.21,1.35-.4,2.59-.56,3.73q-1.7,11.48-13.18,13.18c-1.13.17-2.37.35-3.73.56-.43.07-.75.44-.75.88s.32.81.75.88c1.35.21,2.59.4,3.73.56q11.48,1.7,13.18,13.18c.17,1.13.35,2.37.56,3.73.07.43.44.75.88.75s.81-.32.88-.75c.21-1.35.39-2.59.56-3.73q1.7-11.47,13.18-13.18c1.13-.17,2.37-.35,3.73-.56.43-.07.75-.44.75-.88s-.32-.81-.75-.88Z"/><path class="cls-5" d="M911.96,2510.19c-1.36-.21-2.59-.39-3.73-.56q-11.48-1.7-13.18-13.18c-.17-1.13-.35-2.37-.56-3.73-.07-.43-.44-.76-.88-.76s-.81.32-.88.76c-.21,1.35-.4,2.59-.56,3.73q-1.7,11.47-13.18,13.18c-1.13.17-2.37.35-3.73.56-.43.07-.75.44-.75.88s.32.81.75.88c1.36.21,2.59.4,3.73.56q11.48,1.71,13.18,13.18c.17,1.13.35,2.37.56,3.73.07.43.44.76.88.76s.81-.32.88-.76c.21-1.35.39-2.59.56-3.73q1.7-11.47,13.18-13.18c1.13-.17,2.37-.35,3.73-.56.43-.07.75-.44.75-.88s-.32-.81-.75-.88Z"/><path class="cls-5" d="M1330.52,2697.48c-1.69-.26-3.24-.49-4.66-.7q-14.34-2.13-16.47-16.47c-.21-1.42-.44-2.96-.7-4.66-.09-.54-.55-.94-1.1-.94s-1.02.4-1.1.94c-.26,1.69-.49,3.24-.7,4.66q-2.13,14.34-16.47,16.47c-1.42.21-2.96.44-4.66.7-.54.09-.94.55-.94,1.1s.4,1.02.94,1.1c1.69.26,3.24.49,4.66.7q14.34,2.13,16.47,16.47c.21,1.42.44,2.96.7,4.66.08.54.55.94,1.1.94s1.02-.4,1.1-.94c.26-1.69.49-3.24.7-4.66q2.13-14.34,16.47-16.47c1.42-.21,2.96-.44,4.66-.7.54-.08.94-.55.94-1.1s-.4-1.02-.94-1.1Z"/><path class="cls-5" d="M2107.49,1928.91c-1.69-.26-3.24-.49-4.66-.7q-14.34-2.13-16.47-16.47c-.21-1.42-.44-2.96-.7-4.66-.09-.54-.55-.94-1.1-.94s-1.02.4-1.1.94c-.26,1.69-.49,3.24-.7,4.66q-2.13,14.34-16.47,16.47c-1.42.21-2.96.44-4.66.7-.54.08-.94.55-.94,1.1s.4,1.02.94,1.1c1.69.26,3.24.49,4.66.7q14.34,2.13,16.47,16.47c.21,1.42.44,2.96.7,4.66.08.54.55.94,1.1.94s1.02-.4,1.1-.94c.26-1.69.49-3.24.7-4.66q2.13-14.34,16.47-16.47c1.42-.21,2.96-.44,4.66-.7.54-.09.94-.55.94-1.1s-.4-1.02-.94-1.1Z"/><path class="cls-5" d="M2088.72,2045.88c-2.39-.37-4.56-.69-6.56-.99q-20.19-3-23.19-23.19c-.3-1.99-.62-4.17-.99-6.56-.12-.76-.78-1.33-1.55-1.33s-1.43.56-1.55,1.33c-.37,2.38-.7,4.56-.99,6.56q-3,20.19-23.19,23.19c-1.99.3-4.17.62-6.56.99-.76.12-1.33.78-1.33,1.55s.56,1.43,1.33,1.55c2.39.37,4.57.7,6.56.99q20.19,3,23.19,23.19c.29,1.99.62,4.17.99,6.56.12.76.78,1.33,1.55,1.33s1.43-.56,1.55-1.33c.37-2.38.69-4.56.99-6.56q2.99-20.19,23.19-23.19c1.99-.3,4.17-.62,6.56-.99.76-.12,1.33-.78,1.33-1.55s-.56-1.43-1.33-1.55Z"/><path class="cls-5" d="M820.57,988.6c-2.15-.33-4.11-.63-5.9-.89q-18.18-2.7-20.87-20.87c-.27-1.79-.56-3.76-.89-5.9-.11-.69-.7-1.2-1.4-1.2s-1.29.51-1.4,1.2c-.33,2.15-.63,4.11-.89,5.9q-2.7,18.18-20.88,20.87c-1.79.27-3.76.56-5.9.89-.69.11-1.19.7-1.19,1.4s.51,1.29,1.19,1.4c2.15.33,4.11.63,5.9.89q18.18,2.7,20.88,20.87c.26,1.79.56,3.76.89,5.9.11.69.7,1.2,1.4,1.2s1.29-.51,1.4-1.2c.33-2.15.62-4.11.89-5.9q2.7-18.17,20.87-20.87c1.79-.27,3.76-.56,5.9-.89.69-.11,1.2-.7,1.2-1.4s-.51-1.29-1.2-1.4Z"/><path class="cls-5" d="M278.38,1607.17l-.86-25.55c-.05-1.43-.68-2.62-1.49-2.71-.89-.11-1.65,1.11-1.72,2.71l-.99,25.55c0,.19,0,.4,0,.6.02.49.09.94.18,1.37-.1.43-.17.88-.18,1.37,0,.19,0,.41,0,.6l.86,25.55c.05,1.6.82,2.82,1.7,2.71.82-.09,1.45-1.27,1.51-2.71l.99-25.55c.03-.7-.04-1.36-.17-1.97.13-.61.2-1.27.18-1.97Z"/><path class="cls-5" d="M276.25,1605.95l-18.68-17.46c-1.05-.98-2.33-1.37-2.98-.86-.7.55-.39,1.95.7,3.13l17.37,18.77c.13.14.28.29.42.42.36.33.72.6,1.09.84.24.37.51.74.84,1.1.13.14.29.29.42.42l18.68,17.46c1.17,1.09,2.57,1.41,3.12.71.51-.64.13-1.93-.85-2.98l-17.37-18.76c-.47-.51-.99-.93-1.51-1.27-.34-.52-.75-1.04-1.26-1.52Z"/><path class="cls-5" d="M273.88,1606.59l-25.55.86c-1.44.05-2.62.68-2.71,1.49-.11.89,1.11,1.65,2.71,1.72l25.55.99c.19,0,.4,0,.6,0,.49-.02.94-.09,1.37-.18.43.1.88.17,1.37.18.19,0,.41,0,.6,0l25.55-.86c1.6-.05,2.82-.82,2.71-1.7-.09-.82-1.27-1.45-2.71-1.51l-25.55-.99c-.7-.03-1.36.04-1.97.17-.61-.13-1.27-.2-1.97-.18Z"/><path class="cls-5" d="M272.67,1608.72l-17.46,18.68c-.98,1.05-1.37,2.33-.86,2.98.55.7,1.95.39,3.13-.7l18.76-17.37c.14-.13.29-.28.42-.42.33-.36.6-.72.84-1.09.37-.24.74-.51,1.1-.84.14-.13.29-.29.42-.42l17.46-18.68c1.09-1.17,1.41-2.57.72-3.12-.64-.51-1.93-.13-2.98.85l-18.76,17.37c-.51.47-.93.99-1.27,1.51-.53.34-1.04.75-1.52,1.26Z"/><path class="cls-5" d="M1470.13,1197.99l-.46-13.59c-.03-.76-.36-1.39-.79-1.44-.47-.06-.88.59-.91,1.44l-.53,13.59c0,.1,0,.21,0,.32,0,.26.04.5.09.73-.05.23-.09.47-.1.73,0,.1,0,.22,0,.32l.46,13.59c.03.85.43,1.5.91,1.44.43-.05.77-.68.8-1.44l.53-13.59c.01-.37-.02-.72-.09-1.05.07-.32.11-.68.1-1.05Z"/><path class="cls-5" d="M1469,1197.34l-9.93-9.29c-.56-.52-1.24-.73-1.58-.46-.37.29-.21,1.04.37,1.66l9.24,9.98c.07.07.15.15.22.23.19.18.39.32.58.45.13.2.27.39.45.58.07.08.15.16.22.23l9.93,9.29c.62.58,1.37.75,1.66.38.27-.34.07-1.02-.45-1.59l-9.24-9.98c-.25-.27-.53-.5-.8-.68-.18-.28-.4-.56-.67-.81Z"/><path class="cls-5" d="M1467.74,1197.68l-13.59.46c-.76.02-1.39.36-1.44.79-.06.47.59.88,1.44.91l13.59.53c.1,0,.21,0,.32,0,.26,0,.5-.04.73-.09.23.05.47.09.73.1.1,0,.22,0,.32,0l13.59-.46c.85-.03,1.5-.43,1.44-.91-.05-.43-.68-.77-1.44-.8l-13.59-.53c-.37-.01-.72.02-1.05.09-.32-.07-.68-.11-1.05-.1Z"/><path class="cls-5" d="M1467.09,1198.82l-9.29,9.93c-.52.56-.73,1.24-.46,1.58.29.37,1.04.21,1.66-.37l9.98-9.24c.07-.07.16-.15.23-.22.18-.19.32-.39.45-.58.2-.13.39-.27.58-.45.08-.07.16-.15.23-.22l9.29-9.93c.58-.62.75-1.37.38-1.66-.34-.27-1.02-.07-1.59.45l-9.98,9.24c-.27.25-.5.53-.67.8-.28.18-.56.4-.81.67Z"/><path class="cls-5" d="M1831.3,2023.26c-1.72-.27-3.29-.5-4.73-.71q-14.57-2.16-16.73-16.73c-.21-1.44-.45-3.01-.71-4.73-.09-.55-.56-.96-1.12-.96s-1.03.41-1.12.96c-.27,1.72-.5,3.29-.71,4.73q-2.16,14.57-16.74,16.73c-1.44.21-3.01.45-4.73.71-.55.09-.96.56-.96,1.12s.41,1.03.96,1.12c1.72.27,3.29.5,4.73.71q14.57,2.16,16.74,16.73c.21,1.44.45,3.01.71,4.73.09.55.56.96,1.12.96s1.03-.41,1.12-.96c.27-1.72.5-3.29.71-4.73q2.16-14.57,16.73-16.73c1.44-.21,3.01-.45,4.73-.71.55-.09.96-.56.96-1.12s-.41-1.03-.96-1.12Z"/><path class="cls-5" d="M520.29,2079.8c-1.72-.27-3.29-.5-4.73-.71q-14.57-2.16-16.73-16.73c-.21-1.44-.45-3.01-.71-4.73-.09-.55-.56-.96-1.12-.96s-1.03.41-1.12.96c-.27,1.72-.5,3.29-.72,4.73q-2.16,14.57-16.74,16.73c-1.44.21-3.01.45-4.73.71-.55.09-.96.56-.96,1.12s.41,1.03.96,1.12c1.72.27,3.29.5,4.73.71q14.57,2.16,16.74,16.73c.21,1.44.45,3.01.72,4.73.09.55.56.96,1.12.96s1.03-.41,1.12-.96c.27-1.72.5-3.29.71-4.73q2.16-14.57,16.73-16.73c1.44-.21,3.01-.45,4.73-.71.55-.09.96-.56.96-1.12s-.41-1.03-.96-1.12Z"/><path class="cls-5" d="M1817.79,2333.17c-.99-.15-1.9-.29-2.73-.41q-8.42-1.25-9.67-9.67c-.12-.83-.26-1.74-.41-2.73-.05-.32-.32-.55-.65-.55s-.6.23-.65.55c-.15.99-.29,1.9-.41,2.73q-1.25,8.42-9.67,9.67c-.83.12-1.74.26-2.73.41-.32.05-.55.32-.55.65s.23.6.55.65c.99.15,1.9.29,2.73.41q8.42,1.25,9.67,9.67c.12.83.26,1.74.41,2.73.05.32.32.55.65.55s.6-.23.65-.55c.15-.99.29-1.9.41-2.73q1.25-8.42,9.67-9.67c.83-.12,1.74-.26,2.73-.41.32-.05.55-.32.55-.65s-.23-.6-.55-.65Z"/><path class="cls-5" d="M578.5,1389.1c-.61-.1-1.17-.18-1.68-.25q-5.18-.77-5.95-5.95c-.08-.51-.16-1.07-.25-1.68-.03-.2-.2-.34-.4-.34s-.37.15-.4.34c-.1.61-.18,1.17-.25,1.68q-.77,5.18-5.95,5.95c-.51.08-1.07.16-1.68.25-.2.03-.34.2-.34.4s.15.37.34.4c.61.1,1.17.18,1.68.25q5.18.77,5.95,5.95c.08.51.16,1.07.25,1.68.03.2.2.34.4.34s.37-.14.4-.34c.1-.61.18-1.17.25-1.68q.77-5.18,5.95-5.95c.51-.08,1.07-.16,1.68-.25.2-.03.34-.2.34-.4s-.14-.37-.34-.4Z"/><path class="cls-5" d="M407.56,2182.83c-.76-.12-1.46-.22-2.1-.32q-6.47-.96-7.43-7.43c-.1-.64-.2-1.34-.32-2.1-.04-.25-.25-.43-.5-.43s-.46.18-.5.43c-.12.76-.22,1.46-.32,2.1q-.96,6.47-7.43,7.43c-.64.1-1.34.2-2.1.32-.24.04-.43.25-.43.5s.18.46.43.5c.76.12,1.46.22,2.1.32q6.47.96,7.43,7.43c.09.64.2,1.34.32,2.1.04.25.25.43.5.43s.46-.18.5-.43c.12-.76.22-1.46.32-2.1q.96-6.47,7.43-7.43c.64-.1,1.34-.2,2.1-.32.25-.04.43-.25.43-.5s-.18-.46-.43-.5Z"/><path class="cls-5" d="M1558.09,1161.27l-.36-10.57c-.02-.59-.28-1.08-.62-1.12-.37-.04-.68.46-.71,1.12l-.41,10.57c0,.08,0,.17,0,.25,0,.2.04.39.07.57-.04.18-.07.37-.08.57,0,.08,0,.17,0,.25l.36,10.57c.02.66.34,1.17.7,1.12.34-.04.6-.53.62-1.12l.41-10.57c.01-.29-.02-.56-.07-.81.06-.25.09-.53.08-.81Z"/><path class="cls-5" d="M1557.21,1160.77l-7.73-7.22c-.43-.41-.96-.57-1.23-.36-.29.23-.16.81.29,1.29l7.18,7.76c.05.06.12.12.17.18.15.14.3.25.45.35.1.15.21.31.35.45.05.06.12.12.17.18l7.73,7.22c.48.45,1.06.59,1.29.3.21-.27.05-.8-.35-1.23l-7.19-7.76c-.2-.21-.41-.39-.63-.53-.14-.22-.31-.43-.52-.63Z"/><path class="cls-5" d="M1556.23,1161.03l-10.57.36c-.59.02-1.08.28-1.12.62-.04.37.46.69,1.12.71l10.57.41c.08,0,.17,0,.25,0,.2,0,.39-.04.57-.07.18.04.37.07.57.08.08,0,.17,0,.25,0l10.57-.36c.66-.02,1.17-.34,1.12-.7-.04-.34-.53-.6-1.12-.62l-10.57-.41c-.29-.01-.56.02-.81.07-.25-.06-.53-.08-.81-.07Z"/><path class="cls-5" d="M1555.73,1161.92l-7.22,7.73c-.41.43-.57.96-.36,1.23.23.29.81.16,1.29-.29l7.76-7.18c.06-.05.12-.12.18-.18.14-.15.25-.3.35-.45.15-.1.31-.21.45-.35.06-.05.12-.12.18-.17l7.22-7.73c.45-.48.59-1.06.3-1.29-.27-.21-.8-.05-1.23.35l-7.76,7.18c-.21.2-.39.41-.53.63-.22.14-.43.31-.63.52Z"/><path class="cls-5" d="M1938.57,1755.06c-2.25-.35-4.3-.65-6.18-.93q-19.04-2.83-21.87-21.86c-.28-1.88-.58-3.93-.93-6.18-.11-.72-.73-1.25-1.46-1.25s-1.35.53-1.46,1.25c-.35,2.25-.66,4.3-.93,6.18q-2.83,19.04-21.87,21.87c-1.88.28-3.93.58-6.18.93-.72.11-1.25.73-1.25,1.46s.53,1.35,1.25,1.46c2.25.35,4.3.65,6.18.93q19.04,2.83,21.87,21.87c.28,1.88.58,3.93.93,6.18.11.72.73,1.25,1.46,1.25s1.35-.53,1.46-1.25c.35-2.25.65-4.3.93-6.18q2.82-19.04,21.87-21.87c1.88-.28,3.93-.58,6.18-.93.72-.11,1.25-.73,1.25-1.46s-.53-1.35-1.25-1.46Z"/><path class="cls-5" d="M242.12,1659.06c-1.34-.21-2.56-.39-3.68-.56q-11.34-1.68-13.02-13.01c-.17-1.12-.35-2.34-.56-3.68-.07-.43-.44-.75-.87-.75s-.8.32-.87.75c-.21,1.34-.39,2.56-.56,3.68q-1.68,11.33-13.02,13.02c-1.12.17-2.34.35-3.68.56-.43.07-.75.44-.75.87s.32.8.75.87c1.34.21,2.56.39,3.68.56q11.33,1.68,13.02,13.02c.17,1.12.35,2.34.56,3.68.07.43.44.75.87.75s.8-.32.87-.75c.21-1.34.39-2.56.56-3.68q1.68-11.33,13.02-13.02c1.12-.17,2.34-.35,3.68-.56.43-.07.75-.44.75-.87s-.32-.8-.75-.87Z"/><path class="cls-5" d="M1515.19,2464.87c-.77-.12-1.48-.23-2.13-.32q-6.55-.97-7.52-7.52c-.1-.65-.2-1.35-.32-2.13-.04-.25-.25-.43-.5-.43s-.46.18-.5.43c-.12.77-.23,1.48-.32,2.13q-.97,6.55-7.52,7.52c-.65.1-1.35.2-2.13.32-.25.04-.43.25-.43.5s.18.46.43.5c.77.12,1.48.23,2.13.32q6.55.97,7.52,7.52c.1.65.2,1.35.32,2.13.04.25.25.43.5.43s.46-.18.5-.43c.12-.77.22-1.48.32-2.13q.97-6.55,7.52-7.52c.65-.1,1.35-.2,2.13-.32.25-.04.43-.25.43-.5s-.18-.46-.43-.5Z"/><path class="cls-5" d="M1421.34,1086.09c-.48-.07-.91-.14-1.31-.2q-4.03-.6-4.62-4.62c-.06-.4-.12-.83-.2-1.31-.02-.15-.16-.26-.31-.26s-.29.11-.31.26c-.07.48-.14.91-.2,1.31q-.6,4.03-4.63,4.63c-.4.06-.83.12-1.31.2-.15.02-.26.15-.26.31s.11.29.26.31c.48.07.91.14,1.31.2q4.03.6,4.63,4.62c.06.4.12.83.2,1.31.02.15.16.26.31.26s.29-.11.31-.26c.07-.48.14-.91.2-1.31q.6-4.03,4.62-4.62c.4-.06.83-.12,1.31-.2.15-.02.26-.15.26-.31s-.11-.29-.26-.31Z"/><path class="cls-5" d="M954.04,2519.72c-.59-.09-1.14-.17-1.64-.25q-5.03-.75-5.78-5.78c-.07-.5-.15-1.04-.25-1.64-.03-.19-.19-.33-.39-.33s-.36.14-.39.33c-.09.59-.17,1.14-.25,1.63q-.75,5.03-5.78,5.78c-.5.07-1.04.15-1.64.25-.19.03-.33.19-.33.39s.14.36.33.39c.59.09,1.14.17,1.64.25q5.03.75,5.78,5.78c.07.5.15,1.04.25,1.63.03.19.19.33.39.33s.36-.14.39-.33c.09-.59.17-1.14.25-1.63q.75-5.03,5.78-5.78c.5-.07,1.04-.15,1.64-.25.19-.03.33-.19.33-.39s-.14-.36-.33-.39Z"/><polygon class="cls-5" points="768.94 1569.5 671.42 1561.13 734.46 1486.25 659.58 1549.28 651.2 1451.76 642.83 1549.28 567.95 1486.25 630.98 1561.13 533.46 1569.5 630.98 1577.88 567.95 1652.76 642.83 1589.72 651.2 1687.24 659.58 1589.72 734.46 1652.76 671.42 1577.88 768.94 1569.5"/><path class="cls-5" d="M549.98,1540.87c6.17,2.54,13.23-.4,15.78-6.57,2.54-6.17-.4-13.23-6.57-15.77-6.17-2.54-13.23.4-15.77,6.57-2.54,6.17.4,13.23,6.57,15.77Z"/><path class="cls-5" d="M615.63,1484.21h0c6.16-2.57,9.07-9.64,6.5-15.8-2.57-6.16-9.64-9.07-15.8-6.5h0c-6.16,2.57-9.07,9.64-6.5,15.8,2.57,6.16,9.64,9.07,15.8,6.5Z"/><path class="cls-5" d="M736.46,1533.87c.02.05.05.09.07.14.02.04.02.09.04.13h0c2.55,6.17,9.62,9.1,15.79,6.54,6.16-2.55,9.1-9.62,6.54-15.79h0c-.02-.06-.06-.1-.08-.16-.03-.06-.03-.12-.06-.19h0c-2.57-6.16-9.65-9.06-15.81-6.49-6.16,2.57-9.06,9.65-6.49,15.81h0Z"/><path class="cls-5" d="M686.33,1484.03c6.17,2.54,13.23-.41,15.77-6.58,2.54-6.17-.41-13.23-6.58-15.77-6.17-2.54-13.23.41-15.77,6.58-2.54,6.17.41,13.23,6.58,15.77Z"/><path class="cls-5" d="M686.63,1654.85h0c-6.16,2.56-9.09,9.63-6.53,15.79,2.56,6.16,9.63,9.08,15.79,6.53h0c6.16-2.56,9.09-9.63,6.53-15.79-2.56-6.16-9.63-9.09-15.79-6.53Z"/><path class="cls-5" d="M550.09,1598.49c-6.16,2.56-9.08,9.63-6.52,15.8,2.56,6.16,9.63,9.08,15.8,6.52,6.16-2.56,9.08-9.63,6.52-15.8-2.56-6.16-9.63-9.08-15.8-6.52Z"/><path class="cls-5" d="M752.37,1598.29c-6.17-2.55-13.24.38-15.79,6.55h0c-2.55,6.17.38,13.23,6.54,15.78,6.17,2.55,13.23-.38,15.79-6.54h0c2.55-6.17-.38-13.23-6.55-15.79Z"/><path class="cls-5" d="M615.93,1654.92h0c-6.17-2.55-13.23.39-15.78,6.56-2.55,6.17.39,13.23,6.56,15.78h0c6.17,2.55,13.23-.39,15.78-6.56,2.55-6.17-.39-13.23-6.56-15.78Z"/><path class="cls-5" d="M4400.96,1248.13c-3.02-.47-5.79-.88-8.31-1.26q-25.59-3.8-29.39-29.39c-.38-2.53-.79-5.29-1.26-8.31-.15-.97-.99-1.68-1.97-1.68s-1.81.71-1.97,1.68c-.47,3.02-.88,5.78-1.26,8.31q-3.8,25.59-29.39,29.39c-2.53.38-5.29.79-8.31,1.26-.97.15-1.68.98-1.68,1.97s.71,1.81,1.68,1.97c3.02.47,5.79.88,8.31,1.26q25.59,3.8,29.39,29.39c.37,2.53.78,5.29,1.26,8.31.15.97.99,1.68,1.97,1.68s1.81-.71,1.97-1.68c.47-3.02.88-5.78,1.26-8.31q3.8-25.59,29.39-29.39c2.53-.37,5.29-.78,8.31-1.26.97-.15,1.68-.98,1.68-1.97s-.71-1.81-1.68-1.97Z"/><path class="cls-5" d="M4216.19,1238.37c-1.81-.28-3.46-.53-4.97-.75q-15.3-2.27-17.57-17.57c-.23-1.51-.47-3.16-.75-4.97-.09-.58-.59-1.01-1.18-1.01s-1.08.43-1.18,1.01c-.28,1.81-.53,3.46-.75,4.97q-2.27,15.3-17.57,17.57c-1.51.22-3.16.47-4.97.75-.58.09-1.01.59-1.01,1.18s.43,1.08,1.01,1.18c1.81.28,3.46.53,4.97.75q15.3,2.27,17.57,17.57c.22,1.51.47,3.16.75,4.97.09.58.59,1.01,1.18,1.01s1.08-.43,1.18-1.01c.28-1.81.53-3.46.75-4.97q2.27-15.3,17.57-17.57c1.51-.22,3.16-.47,4.97-.75.58-.09,1.01-.59,1.01-1.18s-.43-1.08-1.01-1.18Z"/><path class="cls-5" d="M4300.49,1155.71c-2.58-.4-4.93-.75-7.09-1.07q-21.82-3.24-25.06-25.06c-.32-2.16-.67-4.51-1.07-7.09-.13-.83-.84-1.44-1.68-1.44s-1.55.61-1.68,1.44c-.4,2.58-.75,4.93-1.07,7.09q-3.24,21.82-25.06,25.06c-2.15.32-4.51.67-7.09,1.07-.83.13-1.43.84-1.43,1.68s.61,1.55,1.43,1.68c2.58.4,4.93.75,7.09,1.07q21.82,3.24,25.06,25.06c.32,2.15.67,4.51,1.07,7.08.13.83.84,1.44,1.68,1.44s1.55-.61,1.68-1.44c.4-2.58.75-4.93,1.07-7.08q3.24-21.82,25.06-25.06c2.15-.32,4.51-.67,7.09-1.07.82-.13,1.43-.84,1.43-1.68s-.61-1.55-1.43-1.68Z"/><path class="cls-5" d="M4306.12,1283.38c-1.37-.21-2.63-.4-3.78-.57q-11.65-1.73-13.37-13.37c-.17-1.15-.36-2.41-.57-3.78-.07-.44-.45-.77-.89-.77s-.83.32-.89.77c-.21,1.37-.4,2.63-.57,3.78q-1.73,11.64-13.37,13.37c-1.15.17-2.41.36-3.78.57-.44.07-.77.45-.77.89s.32.83.77.89c1.38.21,2.63.4,3.78.57q11.65,1.73,13.37,13.37c.17,1.15.36,2.41.57,3.78.07.44.45.77.89.77s.83-.33.89-.77c.21-1.37.4-2.63.57-3.78q1.73-11.64,13.37-13.37c1.15-.17,2.41-.36,3.78-.57.44-.07.77-.45.77-.89s-.32-.83-.77-.89Z"/><path class="cls-5" d="M813.34,3068.3c-3.02-.47-5.79-.88-8.31-1.26q-25.59-3.8-29.39-29.39c-.38-2.53-.79-5.29-1.26-8.31-.15-.97-.99-1.68-1.97-1.68s-1.81.71-1.97,1.68c-.47,3.02-.88,5.78-1.26,8.31q-3.8,25.59-29.39,29.39c-2.53.38-5.29.79-8.31,1.26-.97.15-1.68.98-1.68,1.97s.71,1.81,1.68,1.97c3.02.47,5.79.88,8.31,1.26q25.59,3.8,29.39,29.39c.37,2.53.78,5.29,1.26,8.31.15.97.99,1.68,1.97,1.68s1.81-.71,1.97-1.68c.47-3.02.88-5.78,1.26-8.31q3.8-25.59,29.39-29.39c2.53-.37,5.29-.78,8.31-1.26.97-.15,1.68-.98,1.68-1.97s-.71-1.81-1.68-1.97Z"/><path class="cls-5" d="M628.58,3058.54c-1.81-.28-3.46-.53-4.97-.75q-15.3-2.27-17.57-17.57c-.23-1.51-.47-3.16-.75-4.97-.09-.58-.59-1.01-1.18-1.01s-1.08.43-1.18,1.01c-.28,1.81-.53,3.46-.75,4.97q-2.27,15.3-17.57,17.57c-1.51.22-3.16.47-4.97.75-.58.09-1.01.59-1.01,1.18s.43,1.08,1.01,1.18c1.81.28,3.46.53,4.97.75q15.3,2.27,17.57,17.57c.22,1.51.47,3.16.75,4.97.09.58.59,1.01,1.18,1.01s1.08-.43,1.18-1.01c.28-1.81.53-3.46.75-4.97q2.27-15.3,17.57-17.57c1.51-.22,3.16-.47,4.97-.75.58-.09,1.01-.59,1.01-1.18s-.43-1.08-1.01-1.18Z"/><path class="cls-5" d="M712.87,2975.88c-2.58-.4-4.93-.75-7.09-1.07q-21.82-3.24-25.06-25.06c-.32-2.16-.67-4.51-1.07-7.09-.13-.83-.84-1.44-1.68-1.44s-1.55.61-1.68,1.44c-.4,2.58-.75,4.93-1.07,7.09q-3.24,21.82-25.06,25.06c-2.15.32-4.51.67-7.09,1.07-.83.13-1.43.84-1.43,1.68s.61,1.55,1.43,1.68c2.58.4,4.93.75,7.09,1.07q21.82,3.24,25.06,25.06c.32,2.15.67,4.51,1.07,7.08.13.83.84,1.44,1.68,1.44s1.55-.61,1.68-1.44c.4-2.58.75-4.93,1.07-7.08q3.24-21.82,25.06-25.06c2.15-.32,4.51-.67,7.09-1.07.82-.13,1.43-.84,1.43-1.68s-.61-1.55-1.43-1.68Z"/><path class="cls-5" d="M718.5,3103.55c-1.37-.21-2.63-.4-3.78-.57q-11.65-1.73-13.37-13.37c-.17-1.15-.36-2.41-.57-3.78-.07-.44-.45-.77-.89-.77s-.83.32-.89.77c-.21,1.37-.4,2.63-.57,3.78q-1.73,11.64-13.37,13.37c-1.15.17-2.41.36-3.78.57-.44.07-.77.45-.77.89s.32.83.77.89c1.38.21,2.63.4,3.78.57q11.65,1.73,13.37,13.37c.17,1.15.36,2.41.57,3.78.07.44.45.77.89.77s.83-.33.89-.77c.21-1.37.4-2.63.57-3.78q1.73-11.64,13.37-13.37c1.15-.17,2.41-.36,3.78-.57.44-.07.77-.45.77-.89s-.32-.83-.77-.89Z"/><path class="cls-5" d="M1169.37,2788.56c-1.36-.21-2.59-.4-3.73-.56q-11.48-1.7-13.18-13.18c-.17-1.13-.35-2.37-.56-3.73-.07-.43-.44-.75-.88-.75s-.81.32-.88.75c-.21,1.35-.4,2.59-.56,3.73q-1.7,11.48-13.18,13.18c-1.13.17-2.37.35-3.73.56-.43.07-.75.44-.75.88s.32.81.75.88c1.35.21,2.59.4,3.73.56q11.48,1.7,13.18,13.18c.17,1.13.35,2.37.56,3.73.07.43.44.75.88.75s.81-.32.88-.75c.21-1.35.39-2.59.56-3.73q1.7-11.47,13.18-13.18c1.13-.17,2.37-.35,3.73-.56.43-.07.75-.44.75-.88s-.32-.81-.75-.88Z"/><path class="cls-5" d="M1109.4,2809.76c-2.15-.33-4.11-.63-5.9-.89q-18.18-2.7-20.87-20.87c-.27-1.79-.56-3.76-.89-5.9-.11-.69-.7-1.2-1.4-1.2s-1.29.51-1.4,1.2c-.33,2.15-.63,4.11-.89,5.9q-2.7,18.18-20.88,20.87c-1.79.27-3.76.56-5.9.89-.69.11-1.19.7-1.19,1.4s.51,1.29,1.19,1.4c2.15.33,4.11.63,5.9.89q18.18,2.7,20.88,20.87c.26,1.79.56,3.76.89,5.9.11.69.7,1.2,1.4,1.2s1.29-.51,1.4-1.2c.33-2.15.62-4.11.89-5.9q2.7-18.17,20.87-20.87c1.79-.27,3.76-.56,5.9-.89.69-.11,1.2-.7,1.2-1.4s-.51-1.29-1.2-1.4Z"/><path class="cls-5" d="M718.4,3182.94c-.48-.08-.93-.14-1.33-.2q-4.1-.61-4.71-4.71c-.06-.41-.13-.85-.2-1.33-.02-.16-.16-.27-.32-.27s-.29.12-.32.27c-.08.48-.14.93-.2,1.33q-.61,4.1-4.71,4.71c-.4.06-.85.13-1.33.2-.15.02-.27.16-.27.32s.12.29.27.32c.48.08.93.14,1.33.2q4.1.61,4.71,4.71c.06.41.13.85.2,1.33.02.16.16.27.32.27s.29-.11.32-.27c.08-.48.14-.93.2-1.33q.61-4.1,4.71-4.71c.41-.06.85-.13,1.33-.2.16-.02.27-.16.27-.32s-.11-.29-.27-.32Z"/><path class="cls-5" d="M164.3,3780.87l-.8-23.87c-.04-1.34-.63-2.44-1.4-2.54-.83-.1-1.55,1.03-1.6,2.53l-.92,23.87c0,.18,0,.38,0,.56.01.45.08.88.17,1.28-.09.4-.16.82-.17,1.28,0,.18,0,.38,0,.56l.8,23.87c.05,1.5.76,2.63,1.59,2.54.76-.09,1.36-1.19,1.41-2.53l.92-23.87c.03-.65-.04-1.27-.16-1.84.13-.57.19-1.19.17-1.84Z"/><path class="cls-5" d="M162.31,3779.73l-17.45-16.31c-.98-.92-2.18-1.28-2.78-.81-.66.51-.36,1.82.65,2.92l16.22,17.53c.12.13.26.27.39.4.33.31.68.56,1.02.79.22.35.47.69.78,1.03.12.13.27.28.39.4l17.45,16.31c1.09,1.02,2.4,1.32,2.92.67.48-.6.12-1.8-.79-2.78l-16.22-17.53c-.44-.48-.92-.87-1.41-1.19-.31-.49-.7-.97-1.18-1.42Z"/><path class="cls-5" d="M160.1,3780.33l-23.87.8c-1.34.04-2.44.63-2.54,1.4-.1.83,1.03,1.55,2.53,1.6l23.87.92c.18,0,.38,0,.56,0,.45-.01.88-.08,1.28-.17.4.09.82.16,1.28.17.18,0,.38,0,.56,0l23.87-.8c1.5-.05,2.63-.76,2.54-1.59-.09-.76-1.19-1.36-2.53-1.41l-23.87-.92c-.65-.03-1.27.04-1.84.16-.57-.13-1.19-.19-1.84-.17Z"/><path class="cls-5" d="M158.96,3782.32l-16.31,17.45c-.92.98-1.28,2.18-.81,2.78.52.66,1.82.36,2.92-.65l17.53-16.22c.13-.12.27-.26.4-.39.31-.33.56-.68.79-1.02.35-.22.69-.47,1.03-.78.13-.12.27-.27.4-.39l16.31-17.45c1.02-1.09,1.32-2.4.67-2.92-.6-.48-1.8-.12-2.78.79l-17.53,16.22c-.48.44-.87.92-1.19,1.41-.49.31-.97.7-1.42,1.18Z"/><path class="cls-5" d="M275.1,4008.6c-3.02-.47-5.79-.88-8.31-1.26q-25.59-3.8-29.39-29.39c-.38-2.53-.79-5.29-1.26-8.31-.15-.97-.99-1.68-1.97-1.68s-1.81.71-1.97,1.68c-.47,3.02-.88,5.78-1.26,8.31q-3.8,25.59-29.39,29.39c-2.53.38-5.29.79-8.31,1.26-.97.15-1.68.99-1.68,1.97s.71,1.81,1.68,1.97c3.02.47,5.78.88,8.31,1.26q25.59,3.8,29.39,29.39c.37,2.53.79,5.29,1.26,8.31.15.97.99,1.68,1.97,1.68s1.81-.71,1.97-1.68c.47-3.02.88-5.78,1.26-8.31q3.8-25.59,29.39-29.39c2.53-.37,5.29-.78,8.31-1.26.97-.15,1.68-.98,1.68-1.97s-.72-1.81-1.68-1.97Z"/><path class="cls-5" d="M323.52,3942.43c-1.75-.27-3.34-.51-4.8-.73q-14.79-2.19-16.98-16.98c-.22-1.46-.45-3.06-.73-4.8-.09-.56-.57-.97-1.14-.97s-1.05.41-1.14.97c-.27,1.75-.51,3.34-.73,4.8q-2.2,14.79-16.98,16.98c-1.46.22-3.06.45-4.8.73-.56.09-.97.57-.97,1.14s.41,1.05.97,1.14c1.75.27,3.34.51,4.8.73q14.79,2.2,16.98,16.98c.22,1.46.45,3.06.73,4.8.09.56.57.97,1.14.97s1.05-.41,1.14-.97c.27-1.75.51-3.34.73-4.8q2.19-14.78,16.98-16.98c1.46-.22,3.06-.45,4.8-.73.56-.09.97-.57.97-1.14s-.41-1.05-.97-1.14Z"/><path class="cls-5" d="M147.68,3858.47c-1.07-.17-2.06-.31-2.95-.45q-9.1-1.35-10.44-10.44c-.13-.9-.28-1.88-.45-2.95-.05-.35-.35-.6-.7-.6s-.64.25-.7.6c-.17,1.07-.31,2.05-.45,2.95q-1.35,9.09-10.45,10.44c-.9.13-1.88.28-2.95.45-.34.05-.6.35-.6.7s.25.64.6.7c1.07.17,2.06.31,2.95.45q9.09,1.35,10.45,10.44c.13.9.28,1.88.45,2.95.05.34.35.6.7.6s.64-.25.7-.6c.17-1.07.31-2.06.45-2.95q1.35-9.09,10.44-10.44c.9-.13,1.88-.28,2.95-.45.34-.05.6-.35.6-.7s-.25-.64-.6-.7Z"/><path class="cls-5" d="M288.6,3834.73c-.79-.12-1.51-.23-2.17-.33q-6.67-.99-7.66-7.66c-.1-.66-.2-1.38-.33-2.17-.04-.25-.26-.44-.51-.44s-.47.19-.51.44c-.12.79-.23,1.51-.33,2.17q-.99,6.67-7.66,7.66c-.66.1-1.38.2-2.17.33-.25.04-.44.26-.44.51s.19.47.44.51c.79.12,1.51.23,2.17.33q6.67.99,7.66,7.66c.1.66.2,1.38.33,2.17.04.25.26.44.51.44s.47-.19.51-.44c.12-.79.23-1.51.33-2.17q.99-6.67,7.66-7.66c.66-.1,1.38-.2,2.17-.33.25-.04.44-.26.44-.51s-.19-.47-.44-.51Z"/><path class="cls-5" d="M48.78,3939.11c-.61-.09-1.17-.18-1.69-.25q-5.19-.77-5.96-5.96c-.08-.51-.16-1.07-.25-1.69-.03-.2-.2-.34-.4-.34s-.37.15-.4.34c-.1.61-.18,1.17-.25,1.68q-.77,5.19-5.96,5.96c-.51.08-1.07.16-1.69.25-.2.03-.34.2-.34.4s.14.37.34.4c.61.1,1.17.18,1.69.25q5.19.77,5.96,5.96c.08.51.16,1.07.25,1.68.03.2.2.34.4.34s.37-.15.4-.34c.09-.61.18-1.17.25-1.68q.77-5.19,5.96-5.96c.51-.08,1.07-.16,1.69-.25.2-.03.34-.2.34-.4s-.15-.37-.34-.4Z"/><path class="cls-5" d="M216.7,3553.38l-1.84-54.85c-.1-3.08-1.46-5.61-3.21-5.83-1.9-.23-3.55,2.37-3.69,5.81l-2.12,54.84c-.01.4-.02.87,0,1.28.03,1.04.18,2.02.38,2.94-.2.92-.36,1.9-.4,2.94-.02.41-.01.88,0,1.28l1.85,54.85c.12,3.44,1.75,6.05,3.66,5.83,1.75-.2,3.12-2.73,3.24-5.81l2.12-54.84c.06-1.49-.09-2.92-.37-4.22.29-1.31.44-2.73.39-4.22Z"/><path class="cls-5" d="M212.13,3550.76l-40.09-37.48c-2.25-2.11-5-2.94-6.39-1.85-1.51,1.18-.83,4.19,1.5,6.71l37.27,40.28c.28.29.6.63.9.91.76.71,1.55,1.3,2.35,1.81.51.8,1.09,1.59,1.8,2.36.28.3.61.63.9.91l40.09,37.48c2.51,2.35,5.52,3.04,6.71,1.54,1.1-1.38.27-4.14-1.82-6.4l-37.27-40.28c-1.02-1.1-2.12-2-3.25-2.73-.72-1.13-1.62-2.24-2.71-3.26Z"/><path class="cls-5" d="M207.05,3552.15l-54.85,1.84c-3.08.1-5.61,1.46-5.83,3.21-.23,1.9,2.37,3.55,5.81,3.69l54.84,2.12c.4.01.87.02,1.28,0,1.04-.03,2.01-.18,2.94-.38.92.2,1.89.36,2.94.4.41.02.88.01,1.28,0l54.85-1.84c3.44-.12,6.05-1.75,5.83-3.66-.2-1.75-2.73-3.12-5.81-3.24l-54.84-2.12c-1.49-.06-2.92.09-4.22.37-1.3-.29-2.73-.44-4.22-.39Z"/><path class="cls-5" d="M204.44,3556.71l-37.48,40.09c-2.11,2.25-2.94,5-1.85,6.39,1.18,1.51,4.19.83,6.71-1.5l40.28-37.27c.29-.28.63-.6.91-.9.71-.76,1.3-1.55,1.81-2.35.8-.51,1.59-1.09,2.36-1.8.3-.28.63-.61.91-.9l37.48-40.09c2.35-2.51,3.04-5.52,1.54-6.71-1.38-1.1-4.14-.27-6.4,1.82l-40.28,37.27c-1.1,1.02-2,2.12-2.73,3.25-1.13.72-2.24,1.62-3.26,2.71Z"/><path class="cls-5" d="M338.57,3564.44c-.75-.12-1.44-.22-2.07-.31q-6.37-.95-7.32-7.32c-.09-.63-.2-1.32-.31-2.07-.04-.24-.25-.42-.49-.42s-.45.18-.49.42c-.12.75-.22,1.44-.31,2.07q-.95,6.37-7.32,7.32c-.63.09-1.32.2-2.07.31-.24.04-.42.25-.42.49s.18.45.42.49c.75.12,1.44.22,2.07.31q6.37.95,7.32,7.32c.09.63.2,1.32.31,2.07.04.24.25.42.49.42s.45-.18.49-.42c.12-.75.22-1.44.31-2.07q.95-6.37,7.32-7.32c.63-.09,1.32-.2,2.07-.31.24-.04.42-.25.42-.49s-.18-.45-.42-.49Z"/><path class="cls-5" d="M126.19,3461.16c-.64-.1-1.23-.19-1.77-.27q-5.44-.81-6.24-6.24c-.08-.54-.17-1.12-.27-1.77-.03-.21-.21-.36-.42-.36s-.39.15-.42.36c-.1.64-.19,1.23-.27,1.77q-.81,5.44-6.25,6.24c-.54.08-1.12.17-1.77.27-.21.03-.36.21-.36.42s.15.39.36.42c.64.1,1.23.19,1.77.27q5.44.81,6.25,6.24c.08.54.17,1.12.27,1.77.03.21.21.36.42.36s.39-.15.42-.36c.1-.64.19-1.23.27-1.77q.81-5.44,6.24-6.24c.54-.08,1.12-.17,1.77-.27.21-.03.36-.21.36-.42s-.15-.39-.36-.42Z"/><path class="cls-5" d="M373.08,3483.49c-1.07-.17-2.06-.31-2.95-.45q-9.1-1.35-10.44-10.44c-.13-.9-.28-1.88-.45-2.95-.05-.34-.35-.6-.7-.6s-.64.25-.7.6c-.17,1.07-.31,2.05-.45,2.95q-1.35,9.09-10.45,10.44c-.9.13-1.88.28-2.95.45-.34.05-.6.35-.6.7s.25.64.6.7c1.07.17,2.06.31,2.95.45q9.1,1.35,10.45,10.44c.13.9.28,1.88.45,2.95.05.34.35.6.7.6s.64-.25.7-.6c.17-1.07.31-2.06.45-2.95q1.35-9.09,10.44-10.44c.9-.13,1.88-.28,2.95-.45.34-.05.6-.35.6-.7s-.25-.64-.6-.7Z"/><path class="cls-5" d="M406.43,3491.04c-.47-.07-.9-.14-1.3-.2q-3.99-.59-4.58-4.58c-.06-.39-.12-.82-.2-1.3-.02-.15-.15-.26-.31-.26s-.28.11-.31.26c-.07.47-.14.9-.2,1.3q-.59,3.99-4.58,4.58c-.39.06-.82.12-1.3.2-.15.02-.26.15-.26.31s.11.28.26.31c.47.07.9.14,1.3.2q3.99.59,4.58,4.58c.06.39.12.82.2,1.3.02.15.15.26.31.26s.28-.11.31-.26c.07-.47.14-.9.2-1.3q.59-3.99,4.58-4.58c.39-.06.82-.12,1.3-.2.15-.02.26-.15.26-.31s-.11-.28-.26-.31Z"/><polygon class="cls-5" points="529.59 3195.79 452.31 3189.16 502.26 3129.82 442.92 3179.77 436.28 3102.49 429.65 3179.77 370.31 3129.82 420.26 3189.16 342.98 3195.79 420.26 3202.43 370.31 3261.78 429.65 3211.82 436.28 3289.11 442.92 3211.82 502.26 3261.78 452.31 3202.43 529.59 3195.79"/><path class="cls-5" d="M356.06,3173.11c4.89,2.01,10.49-.32,12.5-5.21,2.01-4.89-.32-10.49-5.21-12.5-4.89-2.01-10.49.32-12.5,5.21-2.02,4.89.32,10.49,5.21,12.5Z"/><path class="cls-5" d="M408.09,3128.2h0c4.88-2.04,7.19-7.64,5.15-12.52-2.04-4.88-7.64-7.19-12.52-5.15h0c-4.88,2.03-7.19,7.64-5.15,12.52,2.03,4.88,7.64,7.19,12.52,5.15Z"/><path class="cls-5" d="M503.86,3167.55s.04.07.06.11c.01.03.02.07.03.1h0c2.02,4.89,7.62,7.21,12.51,5.19,4.89-2.02,7.21-7.62,5.19-12.51h0s-.05-.08-.07-.13c-.02-.05-.03-.1-.05-.15h0c-2.04-4.88-7.65-7.18-12.53-5.14-4.88,2.04-7.18,7.65-5.14,12.53h0Z"/><path class="cls-5" d="M464.12,3128.06c4.89,2.01,10.49-.32,12.5-5.22,2.01-4.89-.32-10.49-5.21-12.5-4.89-2.01-10.49.32-12.5,5.22-2.01,4.89.32,10.49,5.22,12.5Z"/><path class="cls-5" d="M464.36,3263.44h0c-4.88,2.03-7.2,7.63-5.17,12.52,2.03,4.88,7.63,7.2,12.52,5.17h0c4.88-2.03,7.2-7.63,5.17-12.51-2.03-4.88-7.63-7.2-12.51-5.17Z"/><path class="cls-5" d="M356.15,3218.77c-4.88,2.03-7.19,7.63-5.16,12.52,2.03,4.88,7.64,7.19,12.52,5.16,4.88-2.03,7.19-7.64,5.17-12.52-2.03-4.88-7.64-7.2-12.52-5.16Z"/><path class="cls-5" d="M516.46,3218.61c-4.89-2.02-10.49.3-12.51,5.19h0c-2.02,4.89.3,10.49,5.19,12.51,4.89,2.02,10.49-.3,12.51-5.19h0c2.02-4.89-.3-10.49-5.19-12.51Z"/><path class="cls-5" d="M408.33,3263.49h0c-4.89-2.02-10.49.31-12.51,5.2-2.02,4.89.31,10.49,5.2,12.51h0c4.89,2.02,10.49-.31,12.5-5.2,2.02-4.89-.31-10.49-5.2-12.5Z"/><polygon class="cls-5" points="376.41 905.85 401.55 885.7 371.53 897.4 366.65 865.55 361.76 897.4 331.74 885.7 356.88 905.85 331.74 926.01 361.76 914.31 366.65 946.16 371.53 914.31 401.55 926.01 376.41 905.85"/><polygon class="cls-5" points="419.15 1018.8 432.73 1007.92 416.52 1014.24 413.88 997.03 411.24 1014.24 395.03 1007.92 408.61 1018.8 395.03 1029.69 411.24 1023.37 413.88 1040.57 416.52 1023.37 432.73 1029.69 419.15 1018.8"/><polygon class="cls-5" points="276.63 976.52 285.12 969.72 274.98 973.67 273.33 962.92 271.69 973.67 261.55 969.72 270.04 976.52 261.55 983.33 271.69 979.38 273.33 990.13 274.98 979.38 285.12 983.33 276.63 976.52"/><polygon class="cls-5" points="223.91 872.51 237.49 861.62 221.27 867.94 218.64 850.74 216 867.94 199.78 861.62 213.36 872.51 199.78 883.39 216 877.08 218.64 894.28 221.27 877.08 237.49 883.39 223.91 872.51"/><polygon class="cls-5" points="89.9 883.69 102.42 873.66 87.48 879.48 85.05 863.63 82.62 879.48 67.67 873.66 80.19 883.69 67.67 893.72 82.62 887.9 85.05 903.75 87.48 887.9 102.42 893.72 89.9 883.69"/><polygon class="cls-5" points="493.71 937.99 507.29 927.1 491.08 933.42 488.44 916.22 485.8 933.42 469.59 927.1 483.17 937.99 469.59 948.87 485.8 942.55 488.44 959.76 491.08 942.55 507.29 948.87 493.71 937.99"/><polygon class="cls-5" points="568.26 993.92 576.75 987.11 566.61 991.06 564.97 980.31 563.32 991.06 553.18 987.11 561.67 993.92 553.18 1000.72 563.32 996.77 564.97 1007.52 566.61 996.77 576.75 1000.72 568.26 993.92"/><polygon class="cls-5" points="504.48 854.85 515.31 839.43 503.88 824.45 522.65 826.12 529.91 808.74 537.84 825.82 556.53 823.42 545.7 838.84 557.12 853.82 538.36 852.15 531.1 869.53 523.16 852.44 504.48 854.85"/><polygon class="cls-5" points="2536.12 1701.13 2561.26 1680.98 2531.24 1692.68 2526.36 1660.83 2521.47 1692.68 2491.45 1680.98 2516.59 1701.13 2491.45 1721.29 2521.47 1709.59 2526.36 1741.44 2531.24 1709.59 2561.26 1721.29 2536.12 1701.13"/><polygon class="cls-5" points="2578.87 1814.09 2592.44 1803.2 2576.23 1809.52 2573.59 1792.32 2570.95 1809.52 2554.74 1803.2 2568.32 1814.09 2554.74 1824.97 2570.95 1818.65 2573.59 1835.86 2576.23 1818.65 2592.44 1824.97 2578.87 1814.09"/><polygon class="cls-5" points="2436.34 1771.8 2444.83 1765 2434.69 1768.95 2433.05 1758.2 2431.4 1768.95 2421.26 1765 2429.75 1771.8 2421.26 1778.61 2431.4 1774.66 2433.05 1785.41 2434.69 1774.66 2444.83 1778.61 2436.34 1771.8"/><polygon class="cls-5" points="2383.62 1667.79 2397.2 1656.9 2380.99 1663.22 2378.35 1646.02 2375.71 1663.22 2359.49 1656.9 2373.08 1667.79 2359.49 1678.67 2375.71 1672.36 2378.35 1689.56 2380.99 1672.36 2397.2 1678.67 2383.62 1667.79"/><polygon class="cls-5" points="2249.62 1678.97 2262.13 1668.94 2247.19 1674.76 2244.76 1658.91 2242.33 1674.76 2227.39 1668.94 2239.9 1678.97 2227.39 1689 2242.33 1683.18 2244.76 1699.03 2247.19 1683.18 2262.13 1689 2249.62 1678.97"/><polygon class="cls-5" points="2653.43 1733.27 2667.01 1722.38 2650.79 1728.7 2648.15 1711.5 2645.52 1728.7 2629.3 1722.38 2642.88 1733.27 2629.3 1744.15 2645.52 1737.84 2648.15 1755.04 2650.79 1737.84 2667.01 1744.15 2653.43 1733.27"/><polygon class="cls-5" points="2727.97 1789.2 2736.46 1782.39 2726.33 1786.34 2724.68 1775.59 2723.03 1786.34 2712.89 1782.39 2721.38 1789.2 2712.89 1796 2723.03 1792.05 2724.68 1802.8 2726.33 1792.05 2736.46 1796 2727.97 1789.2"/><polygon class="cls-5" points="2681.88 1636.35 2690.89 1623.53 2681.39 1611.07 2697 1612.46 2703.03 1598 2709.64 1612.21 2725.17 1610.21 2716.17 1623.03 2725.67 1635.49 2710.06 1634.1 2704.02 1648.56 2697.42 1634.35 2681.88 1636.35"/><polygon class="cls-5" points="1726.04 1977.87 1628.52 1969.5 1691.56 1894.62 1616.68 1957.65 1608.3 1860.13 1599.93 1957.65 1525.05 1894.62 1588.08 1969.5 1490.56 1977.87 1588.08 1986.25 1525.05 2061.13 1599.93 1998.1 1608.3 2095.61 1616.68 1998.1 1691.56 2061.13 1628.52 1986.25 1726.04 1977.87"/><path class="cls-5" d="M1507.08,1949.24c6.17,2.54,13.23-.4,15.78-6.57,2.54-6.17-.4-13.23-6.57-15.77-6.17-2.54-13.23.4-15.77,6.57-2.54,6.17.4,13.23,6.57,15.77Z"/><path class="cls-5" d="M1572.73,1892.58h0c6.16-2.57,9.07-9.64,6.5-15.8-2.57-6.16-9.64-9.07-15.8-6.5h0c-6.16,2.57-9.07,9.64-6.5,15.8,2.57,6.16,9.64,9.07,15.8,6.5Z"/><path class="cls-5" d="M1693.56,1942.24c.02.05.05.09.07.14.02.04.02.09.04.13h0c2.55,6.17,9.62,9.1,15.79,6.54,6.16-2.55,9.1-9.62,6.54-15.79h0c-.02-.06-.06-.1-.08-.16-.03-.06-.03-.12-.06-.19h0c-2.57-6.16-9.65-9.06-15.81-6.49-6.16,2.57-9.06,9.65-6.49,15.81h0Z"/><path class="cls-5" d="M1643.43,1892.4c6.17,2.54,13.23-.41,15.77-6.58,2.54-6.17-.41-13.23-6.58-15.77-6.17-2.54-13.23.41-15.77,6.58-2.54,6.17.41,13.23,6.58,15.77Z"/><path class="cls-5" d="M1643.73,2063.22h0c-6.16,2.56-9.09,9.63-6.53,15.79,2.56,6.16,9.63,9.08,15.79,6.53h0c6.16-2.56,9.09-9.63,6.53-15.79-2.56-6.16-9.63-9.09-15.79-6.53Z"/><path class="cls-5" d="M1507.19,2006.86c-6.16,2.56-9.08,9.63-6.52,15.8,2.56,6.16,9.63,9.08,15.8,6.52,6.16-2.56,9.08-9.63,6.52-15.8-2.56-6.16-9.63-9.08-15.8-6.52Z"/><path class="cls-5" d="M1709.47,2006.66c-6.17-2.55-13.24.38-15.79,6.55h0c-2.55,6.17.38,13.23,6.54,15.78,6.17,2.55,13.23-.38,15.79-6.54h0c2.55-6.17-.38-13.23-6.55-15.79Z"/><path class="cls-5" d="M1573.03,2063.29h0c-6.17-2.55-13.23.39-15.78,6.56-2.55,6.17.39,13.23,6.56,15.78h0c6.17,2.55,13.23-.39,15.78-6.56,2.55-6.17-.39-13.23-6.56-15.78Z"/><path class="cls-3" d="M1291.96,2637.74c-358.45,0-638.79,303.89-638.79,662.34l-1.52,189.46c0,358.45-290.58,649.03-649.03,649.03"/><path class="cls-1" d="M651.65,3316.06c0,358.45-290.58,649.03-649.03,649.03"/><path class="cls-1" d="M653.17,3473.56c0-358.45,290.58-649.03,649.03-649.03"/><path class="cls-5" d="M4405.9,1607.39c-2.8-.44-5.36-.82-7.7-1.16q-23.71-3.52-27.23-27.23c-.35-2.34-.73-4.9-1.16-7.7-.14-.9-.91-1.56-1.82-1.56s-1.68.66-1.82,1.56c-.44,2.8-.82,5.36-1.16,7.7q-3.52,23.71-27.23,27.23c-2.34.35-4.9.73-7.7,1.16-.9.14-1.56.91-1.56,1.82s.66,1.68,1.56,1.82c2.8.44,5.36.82,7.7,1.16q23.71,3.52,27.23,27.23c.35,2.34.73,4.9,1.16,7.7.14.9.91,1.56,1.82,1.56s1.68-.66,1.82-1.56c.44-2.8.81-5.36,1.16-7.7q3.52-23.7,27.23-27.23c2.34-.35,4.9-.73,7.7-1.16.9-.14,1.56-.91,1.56-1.82s-.66-1.68-1.56-1.82Z"/><path class="cls-5" d="M4264.07,1603.73c-1.24-.19-2.38-.36-3.42-.52q-10.53-1.56-12.09-12.09c-.16-1.04-.32-2.18-.52-3.42-.06-.4-.41-.69-.81-.69s-.75.29-.81.69c-.19,1.24-.36,2.38-.52,3.42q-1.56,10.53-12.1,12.09c-1.04.15-2.18.32-3.42.52-.4.06-.69.41-.69.81s.29.75.69.81c1.24.19,2.38.36,3.42.52q10.53,1.56,12.1,12.09c.15,1.04.32,2.18.52,3.42.06.4.41.69.81.69s.75-.29.81-.69c.19-1.24.36-2.38.52-3.42q1.56-10.53,12.09-12.09c1.04-.15,2.18-.32,3.42-.52.4-.06.69-.4.69-.81s-.29-.75-.69-.81Z"/></g><g id="_レイヤー_9"><path class="cls-5" d="M3508.08,610.26c-1.67-2.56-3.22-4.89-4.63-7.02q-14.3-21.56,2.18-41.5c1.63-1.97,3.41-4.12,5.34-6.49.62-.76.59-1.86-.06-2.59s-1.74-.87-2.57-.33c-2.56,1.67-4.89,3.21-7.02,4.63q-21.56,14.3-41.51-2.19c-1.97-1.63-4.12-3.41-6.49-5.34-.76-.62-1.86-.59-2.59.06s-.87,1.74-.34,2.57c1.67,2.56,3.22,4.89,4.63,7.02q14.29,21.57-2.18,41.51c-1.63,1.97-3.41,4.12-5.34,6.49-.62.76-.59,1.86.06,2.59s1.74.87,2.57.34c2.56-1.67,4.89-3.22,7.02-4.63q21.56-14.3,41.51,2.18c1.97,1.63,4.12,3.41,6.49,5.34.76.62,1.86.59,2.59-.06s.87-1.75.34-2.57Z"/><path class="cls-5" d="M3418.05,731.08c3.04.38,5.81.7,8.35,1q25.7,3,30.29,28.46c.46,2.51.95,5.26,1.51,8.27.18.96,1.04,1.65,2.02,1.62s1.79-.77,1.91-1.74c.38-3.03.7-5.81,1-8.34q3-25.7,28.46-30.29c2.51-.45,5.26-.95,8.27-1.51.96-.18,1.65-1.04,1.62-2.02-.03-.98-.77-1.79-1.74-1.91-3.04-.38-5.81-.7-8.35-1q-25.7-3-30.29-28.46c-.45-2.51-.95-5.26-1.51-8.27-.18-.96-1.04-1.65-2.02-1.62-.98.03-1.79.77-1.91,1.74-.38,3.03-.7,5.81-1,8.34q-3,25.69-28.46,30.29c-2.51.45-5.26.95-8.27,1.51-.96.18-1.65,1.04-1.62,2.02s.77,1.79,1.74,1.91Z"/><path class="cls-5" d="M3344.19,597.28c1.35.17,2.58.31,3.71.44q11.42,1.33,13.45,12.64c.2,1.12.42,2.34.67,3.67.08.43.46.73.9.72s.8-.34.85-.77c.17-1.35.31-2.58.44-3.71q1.33-11.41,12.64-13.45c1.12-.2,2.34-.42,3.67-.67.43-.08.73-.46.72-.9s-.34-.8-.77-.85c-1.35-.17-2.58-.31-3.71-.44q-11.42-1.33-13.46-12.64c-.2-1.12-.42-2.34-.67-3.67-.08-.43-.46-.73-.9-.72s-.8.34-.85.77c-.17,1.35-.31,2.58-.44,3.71q-1.33,11.41-12.64,13.45c-1.12.2-2.34.42-3.67.67-.43.08-.73.46-.72.9s.34.8.77.85Z"/><path class="cls-5" d="M2673.94,1097.58c3.04.38,5.81.7,8.35,1q25.7,3,30.29,28.46c.45,2.51.95,5.26,1.51,8.27.18.96,1.04,1.65,2.02,1.62s1.79-.77,1.91-1.74c.38-3.03.7-5.81,1-8.34q3-25.7,28.47-30.29c2.51-.45,5.26-.95,8.27-1.51.96-.18,1.65-1.04,1.62-2.02s-.77-1.79-1.74-1.91c-3.04-.38-5.81-.7-8.35-1q-25.7-3-30.29-28.46c-.45-2.51-.95-5.26-1.51-8.27-.18-.96-1.04-1.65-2.02-1.62-.98.03-1.79.77-1.91,1.74-.38,3.03-.7,5.81-1,8.34q-3,25.69-28.46,30.29c-2.51.45-5.26.95-8.27,1.51-.96.18-1.65,1.04-1.62,2.02.03.98.77,1.79,1.74,1.91Z"/><path class="cls-5" d="M2858.92,1101.59c1.82.22,3.47.42,4.99.6q15.37,1.79,18.11,17.02c.27,1.5.57,3.15.9,4.94.11.58.62.99,1.21.97s1.07-.46,1.14-1.04c.22-1.81.42-3.47.6-4.99q1.8-15.36,17.02-18.11c1.5-.27,3.15-.57,4.94-.9.58-.11.99-.62.97-1.21s-.46-1.07-1.04-1.14c-1.82-.22-3.47-.42-4.99-.6q-15.37-1.8-18.11-17.02c-.27-1.5-.57-3.15-.9-4.94-.11-.58-.62-.99-1.21-.97s-1.07.46-1.14,1.04c-.22,1.81-.42,3.47-.6,4.99q-1.79,15.36-17.02,18.11c-1.5.27-3.15.57-4.94.9-.58.11-.99.62-.97,1.21.02.59.46,1.07,1.04,1.14Z"/><path class="cls-5" d="M2777.24,1186.83c2.59.32,4.95.6,7.12.85q21.91,2.56,25.83,24.27c.39,2.14.81,4.49,1.29,7.05.15.82.89,1.41,1.72,1.38s1.53-.66,1.63-1.49c.32-2.59.6-4.95.85-7.12q2.56-21.91,24.27-25.83c2.14-.39,4.49-.81,7.05-1.29.82-.15,1.41-.88,1.38-1.72s-.66-1.53-1.49-1.63c-2.59-.32-4.95-.6-7.12-.85q-21.91-2.56-25.83-24.27c-.38-2.14-.81-4.49-1.29-7.05-.15-.82-.89-1.41-1.72-1.38-.83.03-1.53.66-1.63,1.49-.32,2.59-.6,4.95-.85,7.11q-2.56,21.91-24.27,25.83c-2.14.39-4.49.81-7.05,1.29-.82.15-1.41.88-1.38,1.72s.66,1.53,1.49,1.63Z"/><path class="cls-5" d="M2767.64,1059.4c1.38.17,2.64.32,3.8.45q11.69,1.37,13.78,12.95c.21,1.14.43,2.39.69,3.76.08.44.47.75.92.74s.82-.35.87-.79c.17-1.38.32-2.64.45-3.8q1.37-11.69,12.95-13.78c1.14-.21,2.39-.43,3.76-.69.44-.08.75-.47.74-.92s-.35-.82-.79-.87c-1.38-.17-2.64-.32-3.8-.45q-11.69-1.37-13.78-12.95c-.21-1.14-.43-2.39-.69-3.76-.08-.44-.47-.75-.92-.74s-.81.35-.87.79c-.17,1.38-.32,2.64-.45,3.8q-1.36,11.69-12.95,13.78c-1.14.21-2.39.43-3.76.69-.44.08-.75.47-.74.92s.35.82.79.87Z"/><path class="cls-5" d="M2536.41,1321.51c1.08.13,2.06.25,2.97.35q9.13,1.07,10.76,10.11c.16.89.34,1.87.54,2.94.06.34.37.59.72.58s.64-.27.68-.62c.13-1.08.25-2.06.35-2.97q1.07-9.13,10.12-10.76c.89-.16,1.87-.34,2.94-.54.34-.06.59-.37.58-.72s-.27-.64-.62-.68c-1.08-.13-2.06-.25-2.97-.35q-9.13-1.07-10.77-10.11c-.16-.89-.34-1.87-.54-2.94-.06-.34-.37-.59-.72-.58s-.64.27-.68.62c-.13,1.08-.25,2.06-.35,2.97q-1.07,9.13-10.11,10.76c-.89.16-1.87.34-2.94.54-.34.06-.59.37-.58.72s.27.64.62.68Z"/><path class="cls-5" d="M2583.4,1303.25c1.71.21,3.27.39,4.7.56q14.47,1.69,17.05,16.02c.26,1.42.53,2.96.85,4.65.1.54.58.93,1.14.91s1.01-.43,1.08-.98c.21-1.71.4-3.27.56-4.7q1.69-14.46,16.02-17.05c1.41-.26,2.96-.53,4.65-.85.54-.1.93-.58.91-1.14s-.43-1.01-.98-1.08c-1.71-.21-3.27-.39-4.7-.56q-14.47-1.69-17.05-16.02c-.25-1.41-.53-2.96-.85-4.65-.1-.54-.58-.93-1.14-.91s-1.01.43-1.08.98c-.21,1.71-.39,3.27-.56,4.7q-1.69,14.46-16.02,17.05c-1.41.25-2.96.53-4.65.85-.54.1-.93.58-.91,1.14s.43,1.01.98,1.08Z"/><path class="cls-5" d="M2765.27,980.04c.49.06.93.11,1.34.16q4.12.48,4.86,4.56c.07.4.15.84.24,1.33.03.15.17.27.32.26s.29-.12.31-.28c.06-.49.11-.93.16-1.34q.48-4.12,4.56-4.86c.4-.07.84-.15,1.33-.24.15-.03.26-.17.26-.32s-.12-.29-.28-.31c-.49-.06-.93-.11-1.34-.16q-4.12-.48-4.86-4.56c-.07-.4-.15-.84-.24-1.33-.03-.15-.17-.26-.32-.26s-.29.12-.31.28c-.06.49-.11.93-.16,1.34q-.48,4.12-4.56,4.86c-.4.07-.84.15-1.33.24-.15.03-.26.17-.26.32s.12.29.28.31Z"/><path class="cls-5" d="M3300.51,1028.17l1.55,23.84c.09,1.34.71,2.42,1.47,2.49.83.07,1.51-1.08,1.52-2.58l.18-23.88c0-.18,0-.38-.02-.56-.03-.45-.11-.87-.21-1.27.08-.4.13-.83.13-1.28,0-.18,0-.38-.02-.56l-1.55-23.83c-.1-1.49-.84-2.61-1.67-2.49-.76.11-1.32,1.23-1.33,2.57l-.18,23.88c0,.65.08,1.27.22,1.83-.11.57-.15,1.19-.11,1.84Z"/><path class="cls-5" d="M3302.54,1029.25l17.95,15.76c1.01.89,2.21,1.21,2.8.72.64-.53.31-1.83-.74-2.9l-16.76-17.02c-.12-.12-.27-.26-.41-.38-.34-.3-.69-.54-1.05-.76-.23-.34-.49-.68-.81-1-.13-.13-.27-.27-.41-.38l-17.95-15.76c-1.13-.99-2.44-1.25-2.94-.58-.46.62-.06,1.8.88,2.76l16.76,17.02c.46.46.95.84,1.45,1.14.33.48.73.95,1.22,1.38Z"/><path class="cls-5" d="M3304.73,1028.58l23.83-1.55c1.34-.09,2.42-.71,2.49-1.47.07-.83-1.08-1.51-2.58-1.52l-23.88-.18c-.18,0-.38,0-.56.02-.45.03-.87.11-1.27.21-.4-.08-.83-.13-1.28-.13-.18,0-.38,0-.56.02l-23.84,1.55c-1.49.1-2.61.84-2.49,1.67.11.76,1.23,1.32,2.57,1.33l23.88.18c.65,0,1.27-.08,1.83-.22.57.11,1.19.15,1.84.11Z"/><path class="cls-5" d="M3305.8,1026.56l15.76-17.95c.89-1.01,1.21-2.21.72-2.8-.54-.64-1.83-.31-2.9.74l-17.02,16.76c-.12.12-.26.27-.38.41-.3.34-.54.69-.76,1.05-.34.23-.68.49-1,.81-.13.13-.27.27-.38.41l-15.76,17.95c-.99,1.13-1.25,2.44-.58,2.94.62.46,1.8.06,2.76-.88l17.02-16.76c.46-.46.84-.95,1.14-1.45.48-.33.95-.73,1.38-1.22Z"/><path class="cls-5" d="M3182.68,804c3.04.38,5.81.7,8.35,1q25.7,3,30.29,28.46c.46,2.51.95,5.26,1.51,8.27.18.96,1.04,1.65,2.02,1.62.98-.03,1.79-.77,1.91-1.74.38-3.03.7-5.81,1-8.34q3-25.7,28.46-30.29c2.51-.45,5.26-.95,8.27-1.51.96-.18,1.65-1.04,1.62-2.02-.03-.98-.77-1.79-1.74-1.91-3.04-.38-5.81-.7-8.35-1q-25.7-3-30.29-28.46c-.45-2.51-.95-5.26-1.51-8.27-.18-.96-1.04-1.65-2.02-1.62s-1.79.77-1.91,1.74c-.38,3.03-.7,5.81-1,8.34q-3,25.69-28.46,30.29c-2.51.45-5.26.95-8.27,1.51-.96.18-1.65,1.04-1.62,2.02s.77,1.79,1.74,1.91Z"/><path class="cls-5" d="M3136.35,871.64c1.75.22,3.36.4,4.82.58q14.85,1.73,17.5,16.44c.26,1.45.55,3.04.87,4.78.11.56.6.96,1.17.94s1.04-.45,1.11-1.01c.22-1.75.4-3.36.58-4.82q1.73-14.85,16.45-17.5c1.45-.26,3.04-.55,4.78-.87.56-.1.95-.6.94-1.17s-.45-1.03-1.01-1.1c-1.75-.22-3.36-.4-4.82-.58q-14.85-1.74-17.5-16.44c-.26-1.45-.55-3.04-.87-4.78-.11-.56-.6-.96-1.17-.94s-1.03.45-1.1,1.01c-.22,1.75-.4,3.36-.58,4.82q-1.73,14.84-16.44,17.5c-1.45.26-3.04.55-4.78.87-.56.11-.95.6-.94,1.17s.45,1.04,1.01,1.1Z"/><path class="cls-5" d="M3314.72,950.09c1.08.13,2.06.25,2.97.35q9.13,1.07,10.76,10.11c.16.89.34,1.87.54,2.94.06.34.37.59.72.58s.64-.27.68-.62c.13-1.08.25-2.06.35-2.96q1.07-9.13,10.12-10.76c.89-.16,1.87-.34,2.94-.54.34-.06.59-.37.58-.72s-.27-.64-.62-.68c-1.08-.13-2.06-.25-2.97-.35q-9.13-1.07-10.76-10.11c-.16-.89-.34-1.87-.54-2.94-.06-.34-.37-.59-.72-.58s-.64.27-.68.62c-.13,1.08-.25,2.06-.35,2.97q-1.07,9.13-10.11,10.76c-.89.16-1.87.34-2.94.54-.34.06-.59.37-.58.72s.27.64.62.68Z"/><path class="cls-5" d="M3174.6,978.2c.79.1,1.51.18,2.18.26q6.7.78,7.9,7.42c.12.66.25,1.37.39,2.16.05.25.27.43.53.42s.47-.2.5-.45c.1-.79.18-1.51.26-2.18q.78-6.7,7.42-7.9c.65-.12,1.37-.25,2.16-.39.25-.05.43-.27.42-.53s-.2-.47-.45-.5c-.79-.1-1.51-.18-2.18-.26q-6.7-.78-7.9-7.42c-.12-.65-.25-1.37-.39-2.16-.05-.25-.27-.43-.53-.42s-.47.2-.5.45c-.1.79-.18,1.51-.26,2.18q-.78,6.7-7.42,7.9c-.66.12-1.37.25-2.16.39-.25.05-.43.27-.42.53s.2.47.45.5Z"/><path class="cls-5" d="M3411.05,866.42c.62.08,1.18.14,1.69.2q5.21.61,6.14,5.77c.09.51.19,1.07.31,1.68.04.2.21.34.41.33s.36-.16.39-.35c.08-.61.14-1.18.2-1.69q.61-5.21,5.77-6.14c.51-.09,1.07-.19,1.68-.31.2-.04.33-.21.33-.41s-.16-.36-.35-.39c-.62-.08-1.18-.14-1.69-.2q-5.21-.61-6.14-5.77c-.09-.51-.19-1.07-.31-1.68-.04-.2-.21-.34-.41-.33s-.36.16-.39.35c-.08.61-.14,1.18-.2,1.69q-.61,5.21-5.77,6.14c-.51.09-1.07.19-1.68.31-.19.04-.33.21-.33.41s.16.36.35.39Z"/><path class="cls-5" d="M3248.21,601.18l3.55,54.76c.2,3.08,1.63,5.57,3.39,5.72,1.91.17,3.48-2.48,3.5-5.92l.42-54.88c0-.4,0-.87-.04-1.28-.07-1.04-.24-2.01-.47-2.93.18-.93.3-1.91.31-2.95,0-.41-.01-.88-.04-1.28l-3.55-54.76c-.22-3.43-1.94-5.99-3.84-5.71-1.74.26-3.03,2.83-3.05,5.91l-.42,54.88c-.01,1.49.18,2.91.5,4.21-.25,1.31-.35,2.74-.26,4.23Z"/><path class="cls-5" d="M3252.86,603.65l41.23,36.21c2.32,2.03,5.09,2.78,6.44,1.65,1.47-1.23.7-4.21-1.71-6.66l-38.51-39.1c-.29-.29-.62-.61-.93-.88-.78-.69-1.59-1.25-2.4-1.73-.53-.78-1.14-1.56-1.87-2.3-.29-.29-.63-.61-.93-.88l-41.23-36.21c-2.58-2.27-5.61-2.86-6.75-1.33-1.05,1.42-.15,4.14,2.02,6.34l38.51,39.1c1.05,1.06,2.19,1.93,3.33,2.62.75,1.1,1.69,2.19,2.81,3.17Z"/><path class="cls-5" d="M3257.89,602.11l54.76-3.55c3.08-.2,5.57-1.63,5.72-3.39.17-1.91-2.48-3.48-5.92-3.5l-54.88-.42c-.4,0-.87.01-1.28.04-1.04.07-2.01.24-2.93.47-.93-.17-1.9-.3-2.95-.31-.41,0-.88.01-1.28.04l-54.76,3.55c-3.43.22-5.99,1.94-5.71,3.84.26,1.74,2.83,3.03,5.91,3.05l54.88.42c1.49.01,2.91-.18,4.21-.5,1.31.25,2.74.35,4.23.26Z"/><path class="cls-5" d="M3260.37,597.47l36.21-41.23c2.04-2.32,2.78-5.09,1.65-6.44-1.23-1.47-4.21-.7-6.66,1.71l-39.1,38.51c-.29.29-.61.62-.88.93-.69.78-1.25,1.59-1.74,2.4-.78.53-1.56,1.14-2.3,1.87-.3.29-.61.63-.88.93l-36.21,41.23c-2.27,2.59-2.86,5.61-1.33,6.75,1.42,1.05,4.14.15,6.34-2.02l39.1-38.51c1.06-1.05,1.93-2.18,2.62-3.33,1.1-.75,2.19-1.69,3.17-2.81Z"/><path class="cls-5" d="M3133.06,586.91c.76.09,1.45.17,2.08.25q6.4.75,7.54,7.09c.11.63.24,1.31.38,2.06.05.24.26.41.5.4s.45-.19.48-.43c.09-.76.17-1.45.25-2.08q.75-6.4,7.09-7.54c.63-.11,1.31-.24,2.06-.38.24-.05.41-.26.4-.5s-.19-.45-.43-.48c-.76-.09-1.45-.17-2.08-.25q-6.4-.75-7.54-7.09c-.11-.63-.24-1.31-.38-2.06-.05-.24-.26-.41-.5-.4s-.45.19-.48.43c-.09.76-.17,1.45-.25,2.08q-.75,6.4-7.09,7.54c-.63.11-1.31.24-2.06.38-.24.05-.41.26-.4.5s.19.45.43.48Z"/><path class="cls-5" d="M3348.54,683.54c.64.08,1.23.15,1.77.21q5.46.64,6.44,6.05c.1.53.2,1.12.32,1.76.04.2.22.35.43.34s.38-.16.41-.37c.08-.64.15-1.23.21-1.77q.64-5.46,6.05-6.44c.53-.1,1.12-.2,1.76-.32.2-.04.35-.22.34-.43s-.16-.38-.37-.41c-.64-.08-1.23-.15-1.77-.21q-5.46-.64-6.44-6.05c-.1-.53-.2-1.12-.32-1.76-.04-.2-.22-.35-.43-.34s-.38.16-.41.37c-.08.64-.15,1.23-.21,1.77q-.64,5.46-6.05,6.44c-.53.1-1.12.2-1.76.32-.2.04-.35.22-.34.43s.16.38.37.41Z"/><path class="cls-5" d="M3101.08,668.89c1.08.13,2.06.25,2.97.35q9.13,1.07,10.76,10.11c.16.89.34,1.87.54,2.94.06.34.37.59.72.58s.64-.27.68-.62c.13-1.08.25-2.06.35-2.97q1.07-9.13,10.12-10.76c.89-.16,1.87-.34,2.94-.54.34-.07.59-.37.58-.72s-.27-.64-.62-.68c-1.08-.13-2.06-.25-2.97-.35q-9.13-1.07-10.76-10.11c-.16-.89-.34-1.87-.54-2.94-.06-.34-.37-.59-.72-.58s-.64.27-.68.62c-.13,1.08-.25,2.06-.35,2.97q-1.07,9.13-10.11,10.76c-.89.16-1.87.34-2.94.54-.34.06-.59.37-.58.72s.27.64.62.68Z"/><path class="cls-5" d="M3067.52,662.38c.47.06.91.11,1.3.16q4.01.47,4.72,4.44c.07.39.15.82.24,1.29.03.15.16.26.31.25s.28-.12.3-.27c.06-.47.11-.91.16-1.3q.47-4.01,4.44-4.72c.39-.07.82-.15,1.29-.24.15-.03.26-.16.25-.31s-.12-.28-.27-.3c-.47-.06-.91-.11-1.3-.15q-4.01-.47-4.72-4.44c-.07-.39-.15-.82-.24-1.29-.03-.15-.16-.26-.31-.25s-.28.12-.3.27c-.06.47-.11.91-.16,1.3q-.47,4.01-4.44,4.72c-.39.07-.82.15-1.29.24-.15.03-.26.16-.25.31s.12.28.27.3Z"/><polygon class="cls-5" points="2532.54 760.02 2609.99 764.25 2561.91 825.12 2619.67 773.34 2628.71 850.38 2632.93 772.93 2693.8 821.01 2642.03 763.25 2719.07 754.22 2641.61 749.99 2689.7 689.12 2631.94 740.89 2622.9 663.85 2618.67 741.31 2557.8 693.22 2609.58 750.98 2532.54 760.02"/><path class="cls-5" d="M2706.69,777.3c-4.95-1.86-10.47.64-12.33,5.59-1.86,4.95.64,10.47,5.59,12.33,4.95,1.86,10.47-.64,12.33-5.59,1.86-4.95-.64-10.47-5.59-12.33Z"/><path class="cls-5" d="M2656.08,823.8h0c-4.81,2.19-6.95,7.86-4.76,12.68,2.19,4.82,7.86,6.95,12.68,4.76h0c4.82-2.19,6.95-7.86,4.76-12.68-2.18-4.82-7.86-6.95-12.68-4.76Z"/><path class="cls-5" d="M2559.14,787.45s-.04-.07-.06-.11c-.02-.03-.02-.07-.03-.1h0c-2.17-4.82-7.84-6.97-12.67-4.79-4.82,2.17-6.97,7.85-4.79,12.67h0s.05.08.07.12c.02.05.03.1.05.15h0c2.19,4.81,7.87,6.94,12.68,4.75,4.81-2.19,6.94-7.87,4.75-12.68h0Z"/><path class="cls-5" d="M2600.09,825.69c-4.95-1.86-10.47.65-12.33,5.6-1.86,4.95.65,10.47,5.6,12.33,4.95,1.86,10.47-.65,12.33-5.6,1.86-4.95-.65-10.47-5.6-12.33Z"/><path class="cls-5" d="M2595.63,690.38h0c4.82-2.18,6.96-7.85,4.78-12.67-2.18-4.82-7.85-6.96-12.67-4.78h0c-4.82,2.18-6.96,7.85-4.78,12.67,2.18,4.82,7.85,6.96,12.67,4.78Z"/><path class="cls-5" d="M2705.18,731.67c4.82-2.18,6.95-7.85,4.77-12.67-2.18-4.82-7.86-6.95-12.67-4.77-4.82,2.18-6.95,7.86-4.77,12.67,2.18,4.82,7.86,6.95,12.67,4.77Z"/><path class="cls-5" d="M2544.96,736.81c4.95,1.87,10.47-.63,12.34-5.58h0c1.87-4.95-.63-10.47-5.57-12.34-4.95-1.87-10.47.63-12.34,5.57h0c-1.87,4.95.63,10.47,5.57,12.34Z"/><path class="cls-5" d="M2651.64,688.59h0c4.95,1.87,10.47-.63,12.34-5.58,1.86-4.95-.63-10.47-5.58-12.34h0c-4.95-1.86-10.47.64-12.34,5.58-1.86,4.95.64,10.47,5.58,12.34Z"/><path class="cls-1" d="M2827.86,844.91c-11.15-358.28,270.26-657.75,628.54-668.9"/><path class="cls-1" d="M2827.96,842.74c-56,405-664.79,844.43-1167.33,286.06"/><path class="cls-3" d="M3451,2.61c-358.28,11.15-639.68,310.62-628.54,668.9l4.37,189.42c-31.51,598.76-710.06,954.26-1165.87,447.81"/><line class="cls-1" x1="2827.86" y1="844.91" x2="2826.83" y2="860.93"/></g></svg>