<?xml version="1.0" encoding="UTF-8"?><svg id="_レイヤー_2" xmlns="http://www.w3.org/2000/svg" viewBox="0 0 4561.69 3029.37"><defs><style>.cls-1{stroke-miterlimit:10;}.cls-1,.cls-2{fill:none;stroke:#b19552;stroke-width:5.31px;}.cls-3{fill:#b19552;}.cls-2{stroke-dasharray:0 21.24;stroke-linecap:round;stroke-linejoin:round;}.cls-4{fill:#ffffe1;}</style></defs><g id="_レイヤー_13"><rect class="cls-4" width="4553" height="3012"/></g><g id="_レイヤー_12"><path class="cls-3" d="M2158.64,1769.67c-2.06-.32-3.95-.6-5.67-.86q-17.46-2.59-20.05-20.05c-.26-1.72-.54-3.61-.86-5.67-.1-.66-.67-1.15-1.34-1.15s-1.24.49-1.34,1.15c-.32,2.06-.6,3.95-.86,5.67q-2.59,17.46-20.06,20.05c-1.72.26-3.61.54-5.67.86-.66.1-1.15.67-1.15,1.34s.49,1.24,1.15,1.34c2.06.32,3.95.6,5.67.86q17.46,2.59,20.06,20.05c.25,1.72.54,3.61.86,5.67.1.66.67,1.15,1.34,1.15s1.24-.49,1.34-1.15c.32-2.06.6-3.95.86-5.67q2.59-17.46,20.05-20.05c1.72-.26,3.61-.54,5.67-.86.66-.1,1.15-.67,1.15-1.34s-.49-1.24-1.15-1.34Z"/><path class="cls-3" d="M2857.31,1329.23l-1.26-37.43c-.07-2.1-.99-3.83-2.19-3.98-1.3-.16-2.42,1.62-2.52,3.96l-1.45,37.42c0,.28-.01.59,0,.87.02.71.12,1.38.26,2.01-.14.63-.24,1.29-.27,2-.01.28,0,.6,0,.87l1.26,37.43c.08,2.35,1.2,4.13,2.5,3.98,1.19-.14,2.13-1.86,2.21-3.96l1.45-37.42c.04-1.02-.06-1.99-.25-2.88.2-.89.3-1.86.27-2.88Z"/><path class="cls-3" d="M2854.19,1327.44l-27.35-25.57c-1.54-1.44-3.41-2.01-4.36-1.26-1.03.81-.57,2.86,1.02,4.58l25.44,27.48c.19.2.41.43.62.62.52.49,1.06.88,1.6,1.23.35.54.74,1.09,1.23,1.61.19.21.42.43.62.62l27.35,25.57c1.72,1.6,3.76,2.07,4.58,1.05.75-.94.19-2.82-1.24-4.36l-25.44-27.48c-.69-.75-1.45-1.36-2.21-1.86-.49-.77-1.1-1.53-1.85-2.22Z"/><path class="cls-3" d="M2850.73,1328.38l-37.43,1.26c-2.1.07-3.83.99-3.98,2.19-.16,1.3,1.62,2.42,3.96,2.52l37.42,1.45c.28,0,.59.01.87,0,.71-.02,1.38-.12,2.01-.26.63.14,1.29.24,2,.27.28.01.6,0,.87,0l37.43-1.26c2.35-.08,4.13-1.2,3.98-2.49-.14-1.2-1.86-2.13-3.96-2.21l-37.42-1.45c-1.02-.04-1.99.06-2.88.25-.89-.2-1.86-.3-2.88-.27Z"/><path class="cls-3" d="M2848.94,1331.5l-25.58,27.36c-1.44,1.54-2.01,3.41-1.26,4.36.81,1.03,2.86.57,4.58-1.02l27.48-25.44c.2-.19.43-.41.62-.62.49-.52.88-1.06,1.23-1.6.54-.35,1.09-.74,1.61-1.23.21-.19.43-.42.62-.62l25.57-27.36c1.6-1.71,2.07-3.76,1.05-4.58-.94-.75-2.82-.19-4.36,1.24l-27.48,25.44c-.75.69-1.36,1.45-1.86,2.22-.77.49-1.53,1.1-2.22,1.85Z"/><path class="cls-3" d="M2998.47,1307.9c-1.23-.19-2.36-.36-3.39-.51q-10.44-1.55-11.99-11.99c-.15-1.03-.32-2.16-.51-3.39-.06-.4-.4-.69-.8-.69s-.74.29-.8.69c-.19,1.23-.36,2.36-.51,3.39q-1.55,10.44-11.99,11.99c-1.03.15-2.16.32-3.39.51-.39.06-.69.4-.69.8s.29.74.69.8c1.23.19,2.36.36,3.39.51q10.44,1.55,11.99,11.99c.15,1.03.32,2.16.51,3.39.06.4.4.69.8.69s.74-.29.8-.69c.19-1.23.36-2.36.51-3.39q1.55-10.44,11.99-11.99c1.03-.15,2.16-.32,3.39-.51.39-.06.69-.4.69-.8s-.29-.74-.69-.8Z"/><path class="cls-3" d="M2790.5,1750.68l-.55-16.29c-.03-.91-.43-1.67-.95-1.73-.56-.07-1.05.7-1.09,1.72l-.63,16.29c0,.12,0,.26,0,.38,0,.31.05.6.11.87-.06.27-.11.56-.12.87,0,.12,0,.26,0,.38l.55,16.29c.03,1.02.52,1.8,1.09,1.73.52-.06.93-.81.96-1.73l.63-16.29c.02-.44-.03-.87-.11-1.25.09-.39.13-.81.12-1.25Z"/><path class="cls-3" d="M2789.15,1749.9l-11.91-11.13c-.67-.63-1.48-.87-1.9-.55-.45.35-.25,1.24.45,1.99l11.07,11.96c.08.09.18.19.27.27.23.21.46.38.7.54.15.24.32.47.53.7.08.09.18.19.27.27l11.91,11.13c.75.7,1.64.9,1.99.46.33-.41.08-1.23-.54-1.9l-11.07-11.96c-.3-.33-.63-.59-.96-.81-.21-.33-.48-.67-.8-.97Z"/><path class="cls-3" d="M2787.64,1750.31l-16.29.55c-.91.03-1.67.43-1.73.95-.07.56.7,1.05,1.73,1.09l16.29.63c.12,0,.26,0,.38,0,.31,0,.6-.05.87-.11.27.06.56.11.87.12.12,0,.26,0,.38,0l16.29-.55c1.02-.03,1.8-.52,1.73-1.09-.06-.52-.81-.93-1.73-.96l-16.29-.63c-.44-.02-.87.03-1.25.11-.39-.09-.81-.13-1.25-.12Z"/><path class="cls-3" d="M2786.86,1751.67l-11.13,11.91c-.63.67-.87,1.48-.55,1.9.35.45,1.24.25,1.99-.45l11.96-11.07c.09-.08.19-.18.27-.27.21-.23.38-.46.54-.7.24-.15.47-.32.7-.53.09-.08.19-.18.27-.27l11.13-11.91c.7-.75.9-1.64.46-1.99-.41-.33-1.23-.08-1.9.54l-11.96,11.07c-.33.3-.59.63-.81.96-.33.21-.67.48-.97.8Z"/><path class="cls-3" d="M2866.11,1906.08c-2.06-.32-3.95-.6-5.67-.86q-17.46-2.59-20.05-20.05c-.26-1.72-.54-3.61-.86-5.67-.1-.66-.67-1.15-1.34-1.15s-1.24.49-1.34,1.15c-.32,2.06-.6,3.95-.86,5.67q-2.59,17.46-20.06,20.05c-1.72.26-3.61.54-5.67.86-.66.1-1.15.67-1.15,1.34s.49,1.24,1.15,1.34c2.06.32,3.95.6,5.67.86q17.46,2.59,20.06,20.05c.25,1.72.54,3.61.86,5.67.1.66.67,1.15,1.34,1.15s1.24-.49,1.34-1.15c.32-2.06.6-3.95.86-5.67q2.59-17.46,20.05-20.05c1.72-.26,3.61-.54,5.67-.86.66-.1,1.15-.67,1.15-1.34s-.49-1.24-1.15-1.34Z"/><path class="cls-3" d="M2278.76,1930.86l-1.26-37.43c-.07-2.1-.99-3.83-2.19-3.98-1.3-.16-2.42,1.62-2.52,3.96l-1.45,37.42c0,.28-.01.59,0,.87.02.71.12,1.38.26,2.01-.14.63-.24,1.29-.27,2-.01.28,0,.6,0,.87l1.26,37.43c.08,2.35,1.2,4.13,2.49,3.98,1.2-.14,2.13-1.86,2.21-3.96l1.45-37.42c.04-1.02-.06-1.99-.25-2.88.2-.89.3-1.86.27-2.88Z"/><path class="cls-3" d="M2275.64,1929.07l-27.36-25.57c-1.54-1.44-3.41-2.01-4.36-1.26-1.03.81-.57,2.86,1.02,4.58l25.44,27.48c.19.2.41.43.62.62.52.49,1.06.88,1.6,1.23.35.54.74,1.09,1.23,1.61.19.21.42.43.62.62l27.36,25.57c1.71,1.6,3.76,2.07,4.58,1.05.75-.94.19-2.82-1.24-4.36l-25.44-27.48c-.69-.75-1.45-1.36-2.22-1.86-.49-.77-1.1-1.53-1.85-2.22Z"/><path class="cls-3" d="M2272.17,1930.01l-37.43,1.26c-2.1.07-3.83.99-3.98,2.19-.16,1.3,1.62,2.42,3.96,2.52l37.42,1.45c.28,0,.59.01.88,0,.71-.02,1.37-.12,2.01-.26.63.14,1.29.24,2,.27.28.01.6,0,.88,0l37.43-1.26c2.35-.08,4.13-1.2,3.98-2.49-.14-1.2-1.86-2.13-3.96-2.21l-37.42-1.45c-1.02-.04-1.99.06-2.88.25-.89-.2-1.86-.3-2.88-.27Z"/><path class="cls-3" d="M2270.39,1933.13l-25.57,27.36c-1.44,1.54-2.01,3.41-1.26,4.36.81,1.03,2.86.57,4.58-1.02l27.48-25.44c.2-.19.43-.41.62-.62.49-.52.88-1.06,1.23-1.6.54-.35,1.09-.74,1.61-1.23.21-.19.43-.42.62-.62l25.57-27.36c1.6-1.72,2.07-3.76,1.05-4.58-.94-.75-2.82-.19-4.36,1.24l-27.48,25.44c-.75.69-1.36,1.45-1.86,2.22-.77.49-1.53,1.1-2.22,1.85Z"/><path class="cls-3" d="M2149.41,1476.46c-1.45-.23-2.77-.42-3.97-.6q-12.24-1.82-14.05-14.05c-.18-1.21-.38-2.53-.6-3.97-.07-.46-.47-.81-.94-.81s-.87.34-.94.81c-.22,1.44-.42,2.77-.6,3.97q-1.82,12.24-14.06,14.05c-1.21.18-2.53.38-3.97.6-.46.07-.81.47-.81.94s.34.87.81.94c1.45.22,2.77.42,3.97.6q12.24,1.82,14.06,14.05c.18,1.21.38,2.53.6,3.97.07.46.47.81.94.81s.87-.34.94-.81c.22-1.44.42-2.77.6-3.97q1.82-12.24,14.05-14.05c1.21-.18,2.53-.38,3.97-.6.46-.07.8-.47.8-.94s-.34-.87-.8-.94Z"/><path class="cls-3" d="M2866.37,1146.58l-.61-18.04c-.03-1.01-.48-1.85-1.05-1.92-.63-.08-1.17.78-1.21,1.91l-.7,18.04c0,.13,0,.29,0,.42.01.34.06.66.13.97-.07.3-.12.62-.13.97,0,.14,0,.29,0,.42l.61,18.04c.04,1.13.58,1.99,1.2,1.92.58-.07,1.03-.9,1.06-1.91l.7-18.04c.02-.49-.03-.96-.12-1.39.09-.43.14-.9.13-1.39Z"/><path class="cls-3" d="M2864.86,1145.72l-13.19-12.33c-.74-.69-1.64-.97-2.1-.61-.5.39-.27,1.38.49,2.21l12.26,13.25c.09.1.2.21.3.3.25.23.51.43.77.6.17.26.36.52.59.78.09.1.2.21.3.3l13.19,12.33c.83.77,1.81,1,2.21.5.36-.45.09-1.36-.6-2.1l-12.26-13.25c-.33-.36-.7-.66-1.07-.9-.24-.37-.53-.74-.89-1.07Z"/><path class="cls-3" d="M2863.19,1146.18l-18.04.61c-1.01.03-1.85.48-1.92,1.05-.08.63.78,1.17,1.91,1.21l18.04.7c.13,0,.29,0,.42,0,.34-.01.66-.06.97-.13.3.07.62.12.97.13.14,0,.29,0,.42,0l18.04-.61c1.13-.04,1.99-.58,1.92-1.2-.07-.58-.9-1.03-1.91-1.06l-18.04-.7c-.49-.02-.96.03-1.39.12-.43-.09-.9-.14-1.39-.13Z"/><path class="cls-3" d="M2862.33,1147.68l-12.33,13.19c-.69.74-.97,1.64-.61,2.1.39.5,1.38.27,2.21-.49l13.25-12.26c.1-.09.21-.2.3-.3.23-.25.43-.51.6-.77.26-.17.52-.36.78-.59.1-.09.21-.2.3-.3l12.33-13.19c.77-.83,1-1.81.5-2.21-.45-.36-1.36-.09-2.1.6l-13.25,12.26c-.36.33-.66.7-.9,1.07-.37.24-.74.53-1.07.89Z"/><path class="cls-3" d="M2269.92,1198.67c-2.06-.32-3.95-.6-5.67-.86q-17.46-2.59-20.05-20.05c-.26-1.72-.54-3.61-.86-5.67-.1-.66-.67-1.15-1.34-1.15s-1.24.49-1.34,1.15c-.32,2.06-.6,3.95-.86,5.67q-2.59,17.46-20.06,20.05c-1.72.26-3.61.54-5.67.86-.66.1-1.15.67-1.15,1.34s.49,1.24,1.15,1.34c2.06.32,3.95.6,5.67.86q17.46,2.59,20.06,20.05c.25,1.72.54,3.61.86,5.67.1.66.67,1.15,1.34,1.15s1.24-.49,1.34-1.15c.32-2.06.6-3.95.86-5.67q2.59-17.46,20.05-20.05c1.72-.26,3.61-.54,5.67-.86.66-.1,1.15-.67,1.15-1.34s-.49-1.24-1.15-1.34Z"/><path class="cls-3" d="M2143.84,1192.01c-1.23-.19-2.36-.36-3.39-.51q-10.44-1.55-11.99-11.99c-.15-1.03-.32-2.16-.51-3.39-.06-.4-.4-.69-.8-.69s-.74.29-.8.69c-.19,1.23-.36,2.36-.51,3.39q-1.55,10.44-11.99,11.99c-1.03.15-2.16.32-3.39.51-.39.06-.69.4-.69.8s.29.74.69.8c1.23.19,2.36.36,3.39.51q10.44,1.55,11.99,11.99c.15,1.03.32,2.16.51,3.39.06.4.4.69.8.69s.74-.29.8-.69c.19-1.23.36-2.36.51-3.39q1.55-10.44,11.99-11.99c1.03-.15,2.16-.32,3.39-.51.39-.06.69-.4.69-.8s-.29-.74-.69-.8Z"/><path class="cls-3" d="M2716.29,1987.16c-2.06-.32-3.95-.6-5.67-.86q-17.46-2.59-20.05-20.05c-.26-1.72-.54-3.61-.86-5.67-.1-.66-.67-1.15-1.34-1.15s-1.24.49-1.34,1.15c-.32,2.06-.6,3.95-.86,5.67q-2.59,17.46-20.06,20.05c-1.72.26-3.61.54-5.67.86-.66.1-1.15.67-1.15,1.34s.49,1.24,1.15,1.34c2.06.32,3.95.6,5.67.86q17.46,2.59,20.06,20.05c.25,1.72.54,3.61.86,5.67.1.66.67,1.15,1.34,1.15s1.24-.49,1.34-1.15c.32-2.06.6-3.95.86-5.67q2.59-17.46,20.05-20.05c1.72-.26,3.61-.54,5.67-.86.66-.1,1.15-.67,1.15-1.34s-.49-1.24-1.15-1.34Z"/><path class="cls-3" d="M2780.74,1168.75c-1.29-.2-2.47-.38-3.55-.54q-10.93-1.62-12.55-12.55c-.16-1.08-.33-2.26-.54-3.55-.06-.41-.42-.72-.84-.72s-.78.31-.84.72c-.2,1.29-.38,2.47-.54,3.55q-1.62,10.93-12.55,12.55c-1.08.16-2.26.34-3.55.54-.41.06-.72.42-.72.84s.31.78.72.84c1.29.2,2.47.38,3.55.54q10.93,1.62,12.55,12.55c.16,1.08.34,2.26.54,3.55.06.41.42.72.84.72s.77-.31.84-.72c.2-1.29.38-2.47.54-3.55q1.62-10.93,12.55-12.55c1.08-.16,2.26-.33,3.55-.54.41-.06.72-.42.72-.84s-.31-.78-.72-.84Z"/><path class="cls-3" d="M2201.36,1135.6c-1.76-.27-3.37-.51-4.84-.73q-14.89-2.21-17.1-17.1c-.22-1.47-.46-3.08-.73-4.84-.09-.56-.57-.98-1.14-.98s-1.06.42-1.14.98c-.27,1.76-.51,3.37-.73,4.83q-2.21,14.89-17.1,17.1c-1.47.22-3.08.46-4.84.73-.56.09-.98.57-.98,1.14s.42,1.06.98,1.14c1.76.27,3.37.51,4.84.73q14.89,2.21,17.1,17.1c.22,1.47.46,3.08.73,4.83.09.56.57.98,1.14.98s1.06-.42,1.14-.98c.27-1.76.51-3.37.73-4.83q2.21-14.89,17.1-17.1c1.47-.22,3.08-.46,4.84-.73.56-.09.98-.57.98-1.14s-.42-1.06-.98-1.14Z"/><path class="cls-3" d="M2099.39,1731.88c-.71-.11-1.36-.21-1.96-.3q-6.03-.9-6.93-6.93c-.09-.6-.19-1.25-.3-1.96-.04-.23-.23-.4-.46-.4s-.43.17-.46.4c-.11.71-.21,1.36-.3,1.96q-.9,6.03-6.93,6.93c-.6.09-1.25.19-1.96.3-.23.04-.4.23-.4.46s.17.43.4.46c.71.11,1.36.21,1.96.3q6.03.9,6.93,6.93c.09.6.19,1.25.3,1.96.04.23.23.4.46.4s.43-.17.46-.4c.11-.71.21-1.36.3-1.96q.89-6.03,6.93-6.93c.6-.09,1.25-.18,1.96-.3.23-.04.4-.23.4-.46s-.17-.43-.4-.46Z"/><path class="cls-3" d="M2899.15,1860.93c-1.19-.19-2.28-.35-3.28-.49q-10.09-1.5-11.59-11.59c-.15-1-.31-2.08-.49-3.28-.06-.38-.39-.66-.78-.66s-.72.28-.78.66c-.19,1.19-.35,2.28-.49,3.28q-1.5,10.09-11.59,11.59c-1,.15-2.08.31-3.28.49-.38.06-.66.39-.66.78s.28.72.66.78c1.19.19,2.28.35,3.28.49q10.09,1.5,11.59,11.59c.15,1,.31,2.09.49,3.28.06.38.39.66.78.66s.72-.28.78-.66c.19-1.19.35-2.28.49-3.28q1.5-10.09,11.59-11.59c1-.15,2.08-.31,3.28-.49.38-.06.66-.39.66-.78s-.28-.72-.66-.78Z"/><path class="cls-3" d="M2058.73,1486.53c-.84-.13-1.6-.24-2.3-.35q-7.07-1.05-8.12-8.12c-.1-.7-.22-1.46-.35-2.3-.04-.27-.27-.47-.54-.47s-.5.2-.54.47c-.13.83-.24,1.6-.35,2.3q-1.05,7.07-8.12,8.12c-.7.1-1.46.22-2.3.35-.27.04-.46.27-.46.54s.2.5.46.54c.83.13,1.6.24,2.3.35q7.07,1.05,8.12,8.12c.1.7.22,1.46.35,2.3.04.27.27.47.54.47s.5-.2.54-.47c.13-.83.24-1.6.35-2.3q1.05-7.07,8.12-8.12c.7-.1,1.46-.22,2.3-.35.27-.04.46-.27.46-.54s-.2-.5-.46-.54Z"/><path class="cls-3" d="M2147.03,1529.21c-.73-.11-1.4-.21-2.02-.3q-6.21-.92-7.13-7.13c-.09-.61-.19-1.28-.3-2.02-.04-.24-.24-.41-.48-.41s-.44.17-.48.41c-.11.73-.21,1.4-.3,2.01q-.92,6.21-7.13,7.13c-.61.09-1.28.19-2.02.3-.23.04-.41.24-.41.48s.17.44.41.48c.73.11,1.4.21,2.02.3q6.21.92,7.13,7.13c.09.61.19,1.28.3,2.01.04.24.24.41.48.41s.44-.17.48-.41c.11-.73.21-1.4.3-2.01q.92-6.2,7.13-7.13c.61-.09,1.28-.19,2.02-.3.23-.04.41-.24.41-.48s-.17-.44-.41-.48Z"/><path class="cls-3" d="M2948.14,1677.32c-.44-.07-.84-.13-1.21-.18q-3.71-.55-4.26-4.26c-.05-.37-.11-.77-.18-1.21-.02-.14-.14-.24-.29-.24s-.26.1-.28.24c-.07.44-.13.84-.18,1.2q-.55,3.71-4.26,4.26c-.37.05-.77.11-1.21.18-.14.02-.24.14-.24.28s.1.26.24.28c.44.07.84.13,1.21.18q3.71.55,4.26,4.26c.05.37.11.77.18,1.2.02.14.14.24.28.24s.26-.1.29-.24c.07-.44.13-.84.18-1.2q.55-3.71,4.26-4.26c.37-.05.77-.11,1.21-.18.14-.02.24-.14.24-.28s-.1-.26-.24-.28Z"/><path class="cls-3" d="M2779.16,1803.63c-.73-.11-1.4-.21-2.01-.3q-6.21-.92-7.13-7.13c-.09-.61-.19-1.28-.3-2.01-.04-.24-.24-.41-.48-.41s-.44.17-.48.41c-.11.73-.21,1.4-.3,2.01q-.92,6.21-7.13,7.13c-.61.09-1.28.19-2.02.3-.23.04-.41.24-.41.48s.17.44.41.48c.73.11,1.4.21,2.02.3q6.21.92,7.13,7.13c.09.61.19,1.28.3,2.01.04.24.24.41.48.41s.44-.17.48-.41c.11-.73.21-1.4.3-2.01q.92-6.2,7.13-7.13c.61-.09,1.28-.19,2.01-.3.24-.04.41-.24.41-.48s-.17-.44-.41-.48Z"/><path class="cls-3" d="M2361.92,1938.41c-.51-.08-.98-.15-1.41-.21q-4.35-.65-4.99-4.99c-.06-.43-.13-.9-.21-1.41-.03-.16-.17-.29-.33-.29s-.31.12-.33.29c-.08.51-.15.98-.21,1.41q-.65,4.35-5,4.99c-.43.06-.9.13-1.41.21-.16.03-.29.17-.29.33s.12.31.29.33c.51.08.98.15,1.41.21q4.35.65,5,4.99c.06.43.13.9.21,1.41.03.16.17.29.33.29s.31-.12.33-.29c.08-.51.15-.98.21-1.41q.65-4.35,4.99-4.99c.43-.06.9-.13,1.41-.21.16-.03.29-.17.29-.33s-.12-.31-.29-.33Z"/><path class="cls-3" d="M2217,1867.93c-.44-.07-.84-.13-1.21-.18q-3.71-.55-4.26-4.26c-.05-.37-.11-.77-.18-1.21-.02-.14-.14-.24-.28-.24s-.26.1-.28.24c-.07.44-.13.84-.18,1.2q-.55,3.71-4.26,4.26c-.37.05-.77.11-1.2.18-.14.02-.24.14-.24.28s.1.26.24.28c.44.07.84.13,1.2.18q3.71.55,4.26,4.26c.05.37.11.77.18,1.2.02.14.14.24.28.24s.26-.1.28-.24c.07-.44.13-.84.18-1.2q.55-3.71,4.26-4.26c.37-.05.77-.11,1.21-.18.14-.02.24-.14.24-.28s-.1-.26-.24-.28Z"/><circle class="cls-2" cx="2516.35" cy="1486.18" r="442.89"/><circle class="cls-1" cx="2553.83" cy="1510.03" r="442.89"/><circle class="cls-1" cx="2461.85" cy="1530.47" r="442.89" transform="translate(-361.15 2189.05) rotate(-45)"/><path class="cls-3" d="M2205.2,1222.72c-.94-.15-1.8-.27-2.58-.39q-7.95-1.18-9.13-9.12c-.12-.79-.24-1.64-.39-2.58-.05-.3-.31-.52-.61-.52s-.56.22-.61.52c-.15.94-.27,1.8-.39,2.58q-1.18,7.95-9.13,9.13c-.78.12-1.64.24-2.58.39-.3.05-.52.31-.52.61s.22.56.52.61c.94.15,1.8.27,2.58.39q7.95,1.18,9.13,9.13c.12.78.24,1.64.39,2.58.05.3.31.52.61.52s.56-.22.61-.52c.15-.94.27-1.8.39-2.58q1.18-7.94,9.13-9.13c.78-.12,1.64-.24,2.58-.39.3-.05.52-.31.52-.61s-.22-.56-.52-.61Z"/><path class="cls-3" d="M2811.36,1118.55c-.73-.11-1.4-.21-2.02-.3q-6.21-.92-7.13-7.13c-.09-.61-.19-1.28-.3-2.02-.04-.24-.24-.41-.48-.41s-.44.17-.48.41c-.11.73-.21,1.4-.3,2.01q-.92,6.21-7.13,7.13c-.61.09-1.28.19-2.02.3-.23.04-.41.24-.41.48s.17.44.41.48c.73.11,1.4.21,2.02.3q6.21.92,7.13,7.13c.09.61.19,1.28.3,2.01.04.24.24.41.48.41s.44-.17.48-.41c.11-.73.21-1.4.3-2.01q.92-6.2,7.13-7.13c.61-.09,1.28-.19,2.02-.3.23-.04.41-.24.41-.48s-.17-.44-.41-.48Z"/><path class="cls-3" d="M2018.7,1607.57c-.73-.11-1.4-.21-2.02-.3q-6.21-.92-7.13-7.13c-.09-.61-.19-1.28-.3-2.02-.04-.24-.24-.41-.48-.41s-.44.17-.48.41c-.11.73-.21,1.4-.3,2.01q-.92,6.21-7.13,7.13c-.61.09-1.28.19-2.02.3-.23.04-.41.24-.41.48s.17.44.41.48c.73.11,1.4.21,2.02.3q6.21.92,7.13,7.13c.09.61.19,1.28.3,2.01.04.24.24.41.48.41s.44-.17.48-.41c.11-.73.21-1.4.3-2.01q.92-6.2,7.13-7.13c.61-.09,1.28-.19,2.02-.3.23-.04.41-.24.41-.48s-.17-.44-.41-.48Z"/><path class="cls-3" d="M2951.77,1446c-.73-.11-1.4-.21-2.02-.3q-6.21-.92-7.13-7.13c-.09-.61-.19-1.28-.3-2.02-.04-.24-.24-.41-.48-.41s-.44.17-.48.41c-.11.73-.21,1.4-.3,2.01q-.92,6.21-7.13,7.13c-.61.09-1.28.19-2.02.3-.23.04-.41.24-.41.48s.17.44.41.48c.73.11,1.4.21,2.02.3q6.21.92,7.13,7.13c.09.61.19,1.28.3,2.01.04.24.24.41.48.41s.44-.17.48-.41c.11-.73.21-1.4.3-2.01q.92-6.21,7.13-7.13c.61-.09,1.28-.19,2.02-.3.23-.04.41-.24.41-.48s-.17-.44-.41-.48Z"/><path class="cls-3" d="M2368.47,1048.85c-.73-.11-1.4-.21-2.02-.3q-6.21-.92-7.13-7.13c-.09-.61-.19-1.28-.3-2.02-.04-.24-.24-.41-.48-.41s-.44.17-.48.41c-.11.73-.21,1.4-.3,2.01q-.92,6.21-7.13,7.13c-.61.09-1.28.19-2.01.3-.24.04-.41.24-.41.48s.17.44.41.48c.73.11,1.4.21,2.01.3q6.21.92,7.13,7.13c.09.61.19,1.28.3,2.01.04.24.24.41.48.41s.44-.17.48-.41c.11-.73.21-1.4.3-2.01q.92-6.21,7.13-7.13c.61-.09,1.28-.19,2.02-.3.23-.04.41-.24.41-.48s-.17-.44-.41-.48Z"/><path class="cls-3" d="M2385.46,1883.17c-.73-.11-1.4-.21-2.02-.3q-6.21-.92-7.13-7.13c-.09-.61-.19-1.28-.3-2.02-.04-.24-.24-.41-.48-.41s-.44.17-.48.41c-.11.73-.21,1.4-.3,2.01q-.92,6.21-7.13,7.13c-.61.09-1.28.19-2.02.3-.23.04-.41.24-.41.48s.17.44.41.48c.73.11,1.4.21,2.02.3q6.21.92,7.13,7.13c.09.61.19,1.28.3,2.01.04.24.24.41.48.41s.44-.17.48-.41c.11-.73.21-1.4.3-2.01q.92-6.2,7.13-7.13c.61-.09,1.28-.19,2.02-.3.23-.04.41-.24.41-.48s-.17-.44-.41-.48Z"/><path class="cls-3" d="M2611.82,1984.45c-.92-.14-1.75-.27-2.52-.38q-7.76-1.15-8.91-8.91c-.11-.77-.24-1.6-.38-2.52-.05-.29-.3-.51-.6-.51s-.55.22-.6.51c-.14.92-.27,1.75-.38,2.52q-1.15,7.76-8.91,8.91c-.77.11-1.6.24-2.52.38-.29.05-.51.3-.51.6s.22.55.51.6c.92.14,1.75.27,2.52.38q7.76,1.15,8.91,8.91c.11.77.24,1.6.38,2.52.05.29.3.51.6.51s.55-.22.6-.51c.14-.92.27-1.75.38-2.52q1.15-7.76,8.91-8.91c.77-.11,1.6-.24,2.52-.38.29-.05.51-.3.51-.6s-.22-.55-.51-.6Z"/><path class="cls-3" d="M3031.99,1568.82c-.92-.14-1.75-.27-2.52-.38q-7.76-1.15-8.91-8.91c-.11-.77-.24-1.6-.38-2.52-.05-.29-.3-.51-.6-.51s-.55.22-.6.51c-.14.92-.27,1.75-.38,2.52q-1.15,7.76-8.91,8.91c-.77.11-1.6.24-2.52.38-.29.05-.51.3-.51.6s.22.55.51.6c.92.14,1.75.27,2.52.38q7.76,1.15,8.91,8.91c.11.77.24,1.6.38,2.52.05.29.3.51.6.51s.55-.22.6-.51c.14-.92.27-1.75.38-2.52q1.15-7.76,8.91-8.91c.77-.11,1.6-.24,2.52-.38.29-.05.51-.3.51-.6s-.22-.55-.51-.6Z"/><path class="cls-3" d="M3021.84,1632.08c-1.29-.2-2.47-.38-3.55-.54q-10.92-1.62-12.54-12.54c-.16-1.08-.33-2.26-.54-3.55-.06-.41-.42-.72-.84-.72s-.77.3-.84.72c-.2,1.29-.38,2.47-.54,3.55q-1.62,10.92-12.54,12.54c-1.08.16-2.26.33-3.55.54-.41.06-.72.42-.72.84s.3.77.72.84c1.29.2,2.47.38,3.55.54q10.92,1.62,12.54,12.54c.16,1.08.33,2.26.54,3.55.06.41.42.72.84.72s.77-.31.84-.72c.2-1.29.37-2.47.54-3.55q1.62-10.92,12.54-12.54c1.08-.16,2.26-.33,3.55-.54.41-.06.72-.42.72-.84s-.3-.77-.72-.84Z"/><path class="cls-3" d="M2336.04,1060.32c-1.16-.18-2.22-.34-3.19-.48q-9.83-1.46-11.29-11.29c-.14-.97-.3-2.03-.48-3.19-.06-.37-.38-.65-.76-.65s-.7.27-.76.65c-.18,1.16-.34,2.22-.48,3.19q-1.46,9.83-11.29,11.29c-.97.14-2.03.3-3.19.48-.37.06-.65.38-.65.76s.27.7.65.76c1.16.18,2.22.34,3.19.48q9.83,1.46,11.29,11.29c.14.97.3,2.03.48,3.19.06.37.38.65.76.65s.7-.27.76-.65c.18-1.16.34-2.22.48-3.19q1.46-9.83,11.29-11.29c.97-.14,2.03-.3,3.19-.48.37-.06.65-.38.65-.76s-.27-.7-.65-.76Z"/><path class="cls-3" d="M2042.83,1394.83l-.46-13.82c-.03-.78-.37-1.41-.81-1.47-.48-.06-.89.6-.93,1.46l-.54,13.82c0,.1,0,.22,0,.32,0,.26.05.51.1.74-.05.23-.09.48-.1.74,0,.1,0,.22,0,.32l.46,13.82c.03.87.44,1.52.92,1.47.44-.05.79-.69.82-1.46l.53-13.82c.01-.38-.02-.73-.09-1.06.07-.33.11-.69.1-1.06Z"/><path class="cls-3" d="M2041.68,1394.17l-10.1-9.44c-.57-.53-1.26-.74-1.61-.47-.38.3-.21,1.06.38,1.69l9.39,10.15c.07.07.15.16.23.23.19.18.39.33.59.46.13.2.27.4.45.59.07.08.15.16.23.23l10.1,9.44c.63.59,1.39.76,1.69.39.28-.35.07-1.04-.46-1.61l-9.39-10.15c-.26-.28-.53-.5-.82-.69-.18-.28-.41-.56-.68-.82Z"/><path class="cls-3" d="M2040.4,1394.52l-13.82.46c-.78.03-1.41.37-1.47.81-.06.48.6.89,1.46.93l13.82.54c.1,0,.22,0,.32,0,.26,0,.51-.05.74-.1.23.05.48.09.74.1.1,0,.22,0,.32,0l13.82-.46c.87-.03,1.52-.44,1.47-.92-.05-.44-.69-.79-1.46-.82l-13.82-.53c-.38-.01-.73.02-1.06.09-.33-.07-.69-.11-1.06-.1Z"/><path class="cls-3" d="M2039.74,1395.67l-9.44,10.1c-.53.57-.74,1.26-.47,1.61.3.38,1.06.21,1.69-.38l10.15-9.39c.07-.07.16-.15.23-.23.18-.19.33-.39.46-.59.2-.13.4-.27.59-.45.08-.07.16-.15.23-.23l9.44-10.1c.59-.63.77-1.39.39-1.69-.35-.28-1.04-.07-1.61.46l-10.15,9.39c-.28.26-.5.53-.69.82-.28.18-.56.41-.82.68Z"/><path class="cls-3" d="M2687.31,1173.55l-.25-7.35c-.01-.41-.2-.75-.43-.78-.26-.03-.48.32-.49.78l-.28,7.35c0,.05,0,.12,0,.17,0,.14.02.27.05.39-.03.12-.05.25-.05.39,0,.06,0,.12,0,.17l.25,7.35c.02.46.24.81.49.78.23-.03.42-.37.43-.78l.28-7.35c0-.2-.01-.39-.05-.57.04-.17.06-.37.05-.57Z"/><path class="cls-3" d="M2686.7,1173.2l-5.37-5.02c-.3-.28-.67-.39-.86-.25-.2.16-.11.56.2.9l4.99,5.4s.08.08.12.12c.1.1.21.17.31.24.07.11.15.21.24.32.04.04.08.08.12.12l5.37,5.02c.34.31.74.41.9.21.15-.19.04-.55-.24-.86l-5-5.4c-.14-.15-.28-.27-.43-.37-.1-.15-.22-.3-.36-.44Z"/><path class="cls-3" d="M2686.02,1173.38l-7.35.25c-.41.01-.75.2-.78.43-.03.26.32.48.78.49l7.35.28c.05,0,.12,0,.17,0,.14,0,.27-.02.39-.05.12.03.25.05.39.05.06,0,.12,0,.17,0l7.35-.25c.46-.02.81-.24.78-.49-.03-.24-.37-.42-.78-.43l-7.35-.28c-.2,0-.39.01-.57.05-.18-.04-.37-.06-.57-.05Z"/><path class="cls-3" d="M2685.67,1174l-5.02,5.37c-.28.3-.39.67-.25.86.16.2.56.11.9-.2l5.4-5s.08-.08.12-.12c.1-.1.17-.21.24-.31.11-.07.21-.15.32-.24.04-.04.08-.08.12-.12l5.02-5.37c.31-.34.41-.74.21-.9-.19-.15-.55-.04-.86.24l-5.4,5c-.15.14-.27.28-.36.43-.15.1-.3.22-.44.36Z"/><path class="cls-3" d="M2882.63,1619.84c-.93-.14-1.78-.27-2.56-.39q-7.88-1.17-9.05-9.05c-.12-.78-.24-1.63-.39-2.56-.05-.3-.3-.52-.61-.52s-.56.22-.61.52c-.14.93-.27,1.78-.39,2.56q-1.17,7.88-9.05,9.05c-.78.12-1.63.24-2.56.39-.3.05-.52.3-.52.61s.22.56.52.61c.93.14,1.78.27,2.56.39q7.88,1.17,9.05,9.05c.11.78.24,1.63.39,2.56.05.3.3.52.61.52s.56-.22.61-.52c.14-.93.27-1.78.39-2.56q1.17-7.88,9.05-9.05c.78-.12,1.63-.24,2.56-.39.3-.05.52-.3.52-.61s-.22-.56-.52-.61Z"/><path class="cls-3" d="M2173.65,1650.42c-.93-.14-1.78-.27-2.56-.39q-7.88-1.17-9.05-9.05c-.12-.78-.24-1.63-.39-2.56-.05-.3-.3-.52-.61-.52s-.56.22-.61.52c-.15.93-.27,1.78-.39,2.56q-1.17,7.88-9.05,9.05c-.78.12-1.63.24-2.56.39-.3.05-.52.3-.52.61s.22.56.52.61c.93.14,1.78.27,2.56.39q7.88,1.17,9.05,9.05c.12.78.24,1.63.39,2.56.05.3.3.52.61.52s.56-.22.61-.52c.14-.93.27-1.78.39-2.56q1.17-7.88,9.05-9.05c.78-.12,1.63-.24,2.56-.39.3-.05.52-.3.52-.61s-.22-.56-.52-.61Z"/><path class="cls-3" d="M2875.32,1787.44c-.54-.08-1.03-.16-1.48-.22q-4.55-.68-5.23-5.23c-.07-.45-.14-.94-.22-1.48-.03-.17-.18-.3-.35-.3s-.32.13-.35.3c-.08.54-.16,1.03-.22,1.48q-.68,4.55-5.23,5.23c-.45.07-.94.14-1.48.22-.17.03-.3.18-.3.35s.13.32.3.35c.54.08,1.03.16,1.48.22q4.55.68,5.23,5.23c.07.45.14.94.22,1.48.03.17.18.3.35.3s.32-.13.35-.3c.08-.54.16-1.03.22-1.48q.68-4.55,5.23-5.23c.45-.07.94-.14,1.48-.22.17-.03.3-.18.3-.35s-.13-.32-.3-.35Z"/><path class="cls-3" d="M2205.13,1276.9c-.33-.05-.63-.1-.91-.14q-2.8-.42-3.22-3.22c-.04-.28-.09-.58-.14-.91-.02-.11-.11-.18-.22-.18s-.2.08-.22.18c-.05.33-.1.63-.14.91q-.42,2.8-3.22,3.22c-.28.04-.58.09-.91.14-.11.02-.18.11-.18.22s.08.2.18.22c.33.05.63.1.91.14q2.8.42,3.22,3.22c.04.28.09.58.14.91.02.11.11.18.22.18s.2-.08.22-.18c.05-.33.1-.63.14-.91q.42-2.8,3.22-3.22c.28-.04.58-.09.91-.14.11-.02.18-.11.18-.22s-.08-.2-.18-.22Z"/><path class="cls-3" d="M2112.69,1706.14c-.41-.06-.79-.12-1.14-.17q-3.5-.52-4.02-4.02c-.05-.35-.11-.72-.17-1.14-.02-.13-.14-.23-.27-.23s-.25.1-.27.23c-.06.41-.12.79-.17,1.14q-.52,3.5-4.02,4.02c-.35.05-.72.11-1.14.17-.13.02-.23.13-.23.27s.1.25.23.27c.41.06.79.12,1.14.17q3.5.52,4.02,4.02c.05.35.11.72.17,1.14.02.13.13.23.27.23s.25-.1.27-.23c.06-.41.12-.79.17-1.14q.52-3.5,4.02-4.02c.35-.05.72-.11,1.14-.17.13-.02.23-.13.23-.27s-.1-.25-.23-.27Z"/><path class="cls-3" d="M2734.88,1153.69l-.19-5.72c-.01-.32-.15-.59-.33-.61-.2-.02-.37.25-.38.61l-.22,5.72s0,.09,0,.13c0,.11.02.21.04.31-.02.1-.04.2-.04.31,0,.04,0,.09,0,.13l.19,5.72c.01.36.18.63.38.61.18-.02.32-.28.34-.61l.22-5.72c0-.16,0-.3-.04-.44.03-.14.05-.28.04-.44Z"/><path class="cls-3" d="M2734.41,1153.42l-4.18-3.91c-.23-.22-.52-.31-.67-.19-.16.12-.09.44.16.7l3.89,4.2s.06.07.09.1c.08.07.16.14.25.19.05.08.11.17.19.25.03.03.06.07.09.1l4.18,3.91c.26.24.57.32.7.16.11-.14.03-.43-.19-.67l-3.89-4.2c-.11-.11-.22-.21-.34-.28-.07-.12-.17-.23-.28-.34Z"/><path class="cls-3" d="M2733.88,1153.57l-5.72.19c-.32.01-.59.15-.61.33-.02.2.25.37.61.38l5.72.22s.09,0,.13,0c.11,0,.21-.02.31-.04.1.02.2.04.31.04.04,0,.09,0,.13,0l5.72-.19c.36-.01.63-.18.61-.38-.02-.18-.28-.32-.61-.34l-5.72-.22c-.16,0-.3,0-.44.04-.14-.03-.28-.05-.44-.04Z"/><path class="cls-3" d="M2733.6,1154.04l-3.91,4.18c-.22.23-.31.52-.19.67.12.16.44.09.7-.16l4.2-3.89s.07-.06.09-.09c.07-.08.14-.16.19-.24.08-.05.17-.11.25-.19.03-.03.07-.06.09-.09l3.91-4.18c.25-.26.32-.57.16-.7-.14-.11-.43-.03-.67.19l-4.2,3.89c-.11.11-.21.22-.28.34-.12.08-.23.17-.34.28Z"/><path class="cls-3" d="M2940.64,1474.81c-1.22-.19-2.33-.35-3.34-.5q-10.3-1.53-11.82-11.82c-.15-1.02-.32-2.13-.5-3.34-.06-.39-.4-.68-.79-.68s-.73.29-.79.68c-.19,1.22-.35,2.33-.5,3.34q-1.53,10.3-11.83,11.82c-1.02.15-2.13.32-3.34.5-.39.06-.68.4-.68.79s.29.73.68.79c1.22.19,2.33.35,3.34.5q10.3,1.53,11.83,11.82c.15,1.02.32,2.13.5,3.34.06.39.4.68.79.68s.73-.29.79-.68c.19-1.22.35-2.33.5-3.34q1.53-10.29,11.82-11.82c1.02-.15,2.13-.32,3.34-.5.39-.06.68-.4.68-.79s-.29-.73-.68-.79Z"/><path class="cls-3" d="M2023.22,1422.89c-.72-.11-1.39-.21-1.99-.3q-6.13-.91-7.04-7.04c-.09-.61-.19-1.27-.3-1.99-.04-.23-.24-.4-.47-.4s-.43.17-.47.4c-.11.72-.21,1.39-.3,1.99q-.91,6.13-7.04,7.04c-.6.09-1.27.19-1.99.3-.23.04-.4.24-.4.47s.17.43.4.47c.72.11,1.39.21,1.99.3q6.13.91,7.04,7.04c.09.61.19,1.27.3,1.99.04.23.24.4.47.4s.43-.17.47-.4c.11-.72.21-1.38.3-1.99q.91-6.13,7.04-7.04c.6-.09,1.27-.19,1.99-.3.23-.04.4-.24.4-.47s-.17-.43-.4-.47Z"/><path class="cls-3" d="M2711.68,1858.66c-.42-.06-.8-.12-1.15-.17q-3.54-.53-4.07-4.07c-.05-.35-.11-.73-.17-1.15-.02-.13-.14-.23-.27-.23s-.25.1-.27.23c-.07.42-.12.8-.17,1.15q-.53,3.54-4.07,4.07c-.35.05-.73.11-1.15.17-.13.02-.23.14-.23.27s.1.25.23.27c.42.07.8.12,1.15.17q3.54.53,4.07,4.07c.05.35.11.73.17,1.15.02.13.14.23.27.23s.25-.1.27-.23c.06-.42.12-.8.17-1.15q.53-3.54,4.07-4.07c.35-.05.73-.11,1.15-.17.13-.02.23-.14.23-.27s-.1-.25-.23-.27Z"/><path class="cls-3" d="M2660.93,1113.03c-.26-.04-.49-.07-.71-.11q-2.18-.32-2.5-2.5c-.03-.22-.07-.45-.11-.71-.01-.08-.08-.14-.17-.14s-.15.06-.17.14c-.04.26-.07.49-.11.71q-.32,2.18-2.5,2.5c-.22.03-.45.07-.71.11-.08.01-.14.08-.14.17s.06.15.14.17c.26.04.49.08.71.11q2.18.32,2.5,2.5c.03.22.07.45.11.71.01.08.08.14.17.14s.15-.06.17-.14c.04-.26.07-.49.11-.71q.32-2.18,2.5-2.5c.22-.03.45-.07.71-.11.08-.01.14-.08.14-.17s-.06-.15-.14-.17Z"/><path class="cls-3" d="M2408.22,1888.32c-.32-.05-.62-.09-.88-.13q-2.72-.4-3.13-3.13c-.04-.27-.08-.56-.13-.88-.02-.1-.11-.18-.21-.18s-.19.08-.21.18c-.05.32-.09.62-.13.88q-.4,2.72-3.13,3.13c-.27.04-.56.08-.88.13-.1.02-.18.1-.18.21s.08.19.18.21c.32.05.62.09.88.13q2.72.4,3.13,3.13c.04.27.08.56.13.88.02.1.11.18.21.18s.19-.08.21-.18c.05-.32.09-.62.13-.88q.4-2.72,3.13-3.13c.27-.04.56-.08.88-.13.1-.02.18-.11.18-.21s-.08-.19-.18-.21Z"/><polygon class="cls-3" points="2385.07 1675.73 2332.34 1671.2 2366.42 1630.71 2325.93 1664.79 2321.4 1612.06 2316.87 1664.79 2276.38 1630.71 2310.47 1671.2 2257.73 1675.73 2310.47 1680.26 2276.38 1720.75 2316.87 1686.66 2321.4 1739.4 2325.93 1686.66 2366.42 1720.75 2332.34 1680.26 2385.07 1675.73"/><path class="cls-3" d="M2266.66,1660.25c3.34,1.37,7.16-.22,8.53-3.55,1.37-3.34-.22-7.16-3.55-8.53-3.34-1.37-7.16.22-8.53,3.55-1.38,3.34.22,7.16,3.55,8.53Z"/><path class="cls-3" d="M2302.16,1629.6h0c3.33-1.39,4.91-5.22,3.51-8.55-1.39-3.33-5.22-4.9-8.55-3.52h0c-3.33,1.39-4.91,5.21-3.52,8.54,1.39,3.33,5.21,4.91,8.54,3.52Z"/><path class="cls-3" d="M2367.51,1656.46s.03.05.04.07c0,.02.01.05.02.07h0c1.38,3.33,5.2,4.92,8.54,3.54,3.33-1.38,4.92-5.2,3.54-8.54h0s-.03-.06-.05-.09c-.01-.03-.02-.07-.03-.1h0c-1.39-3.33-5.22-4.9-8.55-3.51-3.33,1.39-4.9,5.22-3.51,8.55h0Z"/><path class="cls-3" d="M2340.4,1629.51c3.34,1.37,7.16-.22,8.53-3.56,1.37-3.34-.22-7.16-3.56-8.53-3.34-1.37-7.16.22-8.53,3.56-1.37,3.34.22,7.16,3.56,8.53Z"/><path class="cls-3" d="M2340.56,1721.89h0c-3.33,1.38-4.91,5.21-3.53,8.54s5.21,4.91,8.54,3.53h0c3.33-1.38,4.91-5.21,3.53-8.54-1.38-3.33-5.21-4.91-8.54-3.53Z"/><path class="cls-3" d="M2266.72,1691.4c-3.33,1.39-4.91,5.21-3.52,8.54,1.38,3.33,5.21,4.91,8.54,3.52s4.91-5.21,3.52-8.54c-1.39-3.33-5.21-4.91-8.54-3.52Z"/><path class="cls-3" d="M2376.11,1691.3c-3.34-1.38-7.16.21-8.54,3.54h0c-1.38,3.33.2,7.16,3.54,8.54,3.34,1.38,7.16-.2,8.54-3.54h0c1.38-3.34-.21-7.16-3.54-8.54Z"/><path class="cls-3" d="M2302.33,1721.92h0c-3.34-1.38-7.16.21-8.53,3.55-1.38,3.34.21,7.16,3.55,8.53h0c3.34,1.38,7.16-.21,8.53-3.55,1.38-3.34-.21-7.16-3.55-8.53Z"/><path class="cls-3" d="M3300.36,2953.95c-3.48-.54-6.65-1.01-9.55-1.44q-29.42-4.37-33.78-33.78c-.43-2.91-.9-6.08-1.44-9.55-.17-1.11-1.13-1.94-2.26-1.94s-2.09.82-2.26,1.94c-.54,3.47-1.01,6.65-1.44,9.55q-4.37,29.42-33.79,33.78c-2.9.43-6.08.9-9.55,1.44-1.11.17-1.93,1.13-1.93,2.26s.82,2.09,1.93,2.26c3.47.54,6.65,1.01,9.55,1.44q29.42,4.37,33.79,33.78c.43,2.9.9,6.08,1.44,9.55.17,1.11,1.13,1.94,2.26,1.94s2.09-.82,2.26-1.94c.54-3.47,1.01-6.65,1.44-9.55q4.36-29.41,33.78-33.78c2.9-.43,6.08-.9,9.55-1.44,1.11-.17,1.93-1.13,1.93-2.26s-.82-2.09-1.93-2.26Z"/><path class="cls-3" d="M4477.37,2211.96l-2.12-63.05c-.12-3.54-1.67-6.45-3.69-6.7-2.19-.26-4.08,2.73-4.24,6.68l-2.44,63.04c-.02.46-.02,1,0,1.47.04,1.2.21,2.32.44,3.38-.23,1.06-.41,2.18-.46,3.38-.02.48-.02,1.01,0,1.47l2.12,63.05c.13,3.95,2.01,6.95,4.2,6.7,2.01-.23,3.58-3.14,3.72-6.68l2.44-63.04c.07-1.72-.1-3.35-.42-4.85.33-1.5.51-3.13.45-4.85Z"/><path class="cls-3" d="M4472.12,2208.96l-46.08-43.08c-2.59-2.42-5.75-3.38-7.34-2.13-1.73,1.36-.96,4.81,1.73,7.72l42.85,46.3c.32.34.69.72,1.04,1.05.88.82,1.79,1.49,2.7,2.08.59.92,1.25,1.83,2.07,2.71.32.35.7.73,1.04,1.05l46.08,43.08c2.89,2.7,6.34,3.49,7.71,1.76,1.26-1.59.32-4.75-2.09-7.35l-42.85-46.3c-1.17-1.26-2.44-2.3-3.73-3.13-.83-1.29-1.86-2.57-3.11-3.75Z"/><path class="cls-3" d="M4466.28,2210.54l-63.05,2.12c-3.54.12-6.45,1.67-6.7,3.69-.26,2.19,2.73,4.08,6.68,4.24l63.04,2.44c.46.02,1,.02,1.47,0,1.2-.04,2.32-.21,3.38-.44,1.06.23,2.18.41,3.38.46.48.02,1.01.02,1.47,0l63.05-2.12c3.95-.13,6.95-2.01,6.7-4.2-.23-2.01-3.14-3.58-6.68-3.72l-63.04-2.44c-1.72-.07-3.35.1-4.85.42-1.5-.33-3.13-.51-4.85-.45Z"/><path class="cls-3" d="M4463.27,2215.79l-43.08,46.08c-2.42,2.59-3.38,5.75-2.13,7.34,1.36,1.73,4.81.96,7.72-1.73l46.3-42.85c.34-.32.72-.69,1.05-1.04.82-.88,1.49-1.79,2.08-2.7.92-.59,1.83-1.25,2.71-2.07.35-.32.73-.7,1.05-1.04l43.08-46.08c2.7-2.89,3.49-6.34,1.76-7.71-1.59-1.26-4.75-.32-7.35,2.09l-46.3,42.85c-1.26,1.17-2.3,2.44-3.13,3.73-1.29.83-2.57,1.86-3.75,3.11Z"/><path class="cls-3" d="M4364.83,2921.96l-.92-27.44c-.05-1.54-.73-2.81-1.6-2.91-.95-.12-1.78,1.19-1.84,2.91l-1.06,27.44c0,.2,0,.44,0,.64.02.52.09,1.01.19,1.47-.1.46-.18.95-.2,1.47,0,.21,0,.44,0,.64l.92,27.44c.06,1.72.88,3.03,1.83,2.92.88-.1,1.56-1.37,1.62-2.91l1.06-27.44c.03-.75-.04-1.46-.18-2.11.14-.65.22-1.36.2-2.11Z"/><path class="cls-3" d="M4362.54,2920.65l-20.06-18.75c-1.13-1.05-2.5-1.47-3.2-.93-.75.59-.42,2.1.75,3.36l18.65,20.15c.14.15.3.31.45.46.38.36.78.65,1.18.9.25.4.54.8.9,1.18.14.15.31.32.45.46l20.06,18.75c1.26,1.18,2.76,1.52,3.36.77.55-.69.14-2.07-.91-3.2l-18.65-20.15c-.51-.55-1.06-1-1.62-1.36-.36-.56-.81-1.12-1.35-1.63Z"/><path class="cls-3" d="M4360,2921.34l-27.44.92c-1.54.05-2.81.73-2.92,1.6-.11.95,1.19,1.78,2.91,1.84l27.44,1.06c.2,0,.43,0,.64,0,.52-.02,1.01-.09,1.47-.19.46.1.95.18,1.47.2.21,0,.44,0,.64,0l27.44-.92c1.72-.06,3.02-.88,2.92-1.83-.1-.88-1.37-1.56-2.91-1.62l-27.44-1.06c-.75-.03-1.46.04-2.11.18-.65-.14-1.36-.22-2.11-.2Z"/><path class="cls-3" d="M4358.69,2923.63l-18.75,20.06c-1.05,1.13-1.47,2.5-.93,3.2.59.75,2.1.42,3.36-.75l20.15-18.65c.15-.14.31-.3.46-.45.36-.38.65-.78.9-1.18.4-.25.8-.54,1.18-.9.15-.14.32-.31.45-.45l18.75-20.06c1.18-1.26,1.52-2.76.77-3.36-.69-.55-2.07-.14-3.2.91l-20.15,18.65c-.55.51-1,1.06-1.36,1.62-.56.36-1.12.81-1.63,1.35Z"/><path class="cls-3" d="M3284.82,2460c-2.43-.38-4.66-.71-6.69-1.01q-20.62-3.06-23.68-23.67c-.3-2.04-.63-4.26-1.01-6.69-.12-.78-.8-1.36-1.58-1.36s-1.46.58-1.58,1.36c-.38,2.43-.71,4.66-1.01,6.69q-3.06,20.62-23.68,23.68c-2.03.3-4.26.63-6.69,1.01-.78.12-1.36.79-1.36,1.58s.58,1.46,1.36,1.58c2.43.38,4.66.71,6.69,1.01q20.62,3.06,23.68,23.68c.3,2.04.63,4.26,1.01,6.69.12.78.8,1.36,1.58,1.36s1.46-.58,1.58-1.36c.38-2.43.71-4.66,1.01-6.69q3.06-20.61,23.68-23.68c2.03-.3,4.26-.63,6.69-1.01.78-.12,1.36-.79,1.36-1.58s-.58-1.46-1.36-1.58Z"/><path class="cls-3" d="M4492.63,1904.27l-1.02-30.39c-.06-1.71-.81-3.11-1.78-3.23-1.05-.13-1.97,1.31-2.04,3.22l-1.18,30.39c0,.22,0,.48,0,.71.02.58.1,1.12.21,1.63-.11.51-.2,1.05-.22,1.63,0,.23,0,.49,0,.71l1.02,30.39c.06,1.9.97,3.35,2.03,3.23.97-.11,1.73-1.51,1.79-3.22l1.18-30.39c.03-.83-.05-1.62-.2-2.34.16-.72.24-1.51.22-2.34Z"/><path class="cls-3" d="M4490.1,1902.82l-22.21-20.77c-1.25-1.17-2.77-1.63-3.54-1.03-.84.66-.46,2.32.83,3.72l20.65,22.32c.15.16.33.35.5.5.42.4.86.72,1.3,1,.28.44.6.88,1,1.31.16.17.34.35.5.5l22.21,20.77c1.39,1.3,3.06,1.68,3.72.85.61-.77.15-2.29-1.01-3.54l-20.65-22.32c-.56-.61-1.18-1.11-1.8-1.51-.4-.62-.9-1.24-1.5-1.81Z"/><path class="cls-3" d="M4487.28,1903.59l-30.39,1.02c-1.71.06-3.11.81-3.23,1.78-.13,1.05,1.31,1.97,3.22,2.04l30.39,1.18c.22,0,.48,0,.71,0,.58-.02,1.12-.1,1.63-.21.51.11,1.05.2,1.63.22.23,0,.49,0,.71,0l30.39-1.02c1.91-.06,3.35-.97,3.23-2.03-.11-.97-1.51-1.73-3.22-1.79l-30.39-1.18c-.83-.03-1.62.05-2.34.2-.72-.16-1.51-.24-2.34-.22Z"/><path class="cls-3" d="M4485.83,1906.12l-20.77,22.21c-1.17,1.25-1.63,2.77-1.03,3.54.66.84,2.32.46,3.72-.83l22.32-20.65c.16-.15.35-.33.5-.5.4-.42.72-.86,1-1.3.44-.28.88-.6,1.31-1,.17-.16.35-.34.5-.5l20.77-22.21c1.3-1.39,1.68-3.06.85-3.72-.77-.61-2.29-.15-3.54,1.01l-22.32,20.65c-.61.56-1.11,1.18-1.51,1.8-.62.4-1.24.9-1.81,1.5Z"/><path class="cls-3" d="M3487.82,1992.02c-3.48-.54-6.65-1.01-9.55-1.44q-29.42-4.37-33.78-33.78c-.43-2.91-.9-6.08-1.44-9.55-.17-1.11-1.13-1.94-2.26-1.94s-2.09.82-2.26,1.94c-.54,3.47-1.01,6.65-1.44,9.55q-4.37,29.42-33.79,33.78c-2.9.43-6.08.9-9.55,1.44-1.11.17-1.93,1.13-1.93,2.26s.82,2.09,1.93,2.26c3.48.54,6.65,1.01,9.55,1.44q29.42,4.37,33.79,33.78c.43,2.9.9,6.08,1.44,9.55.17,1.11,1.13,1.94,2.26,1.94s2.09-.82,2.26-1.94c.54-3.47,1.01-6.65,1.44-9.55q4.36-29.41,33.78-33.78c2.9-.43,6.08-.9,9.55-1.44,1.11-.17,1.93-1.13,1.93-2.26s-.82-2.09-1.93-2.26Z"/><path class="cls-3" d="M3275.43,1980.8c-2.08-.32-3.98-.61-5.71-.86q-17.59-2.61-20.2-20.2c-.26-1.74-.54-3.63-.86-5.71-.1-.67-.68-1.16-1.35-1.16s-1.25.49-1.35,1.16c-.32,2.08-.61,3.97-.86,5.71q-2.61,17.59-20.2,20.2c-1.74.26-3.63.54-5.71.86-.67.1-1.16.68-1.16,1.35s.49,1.25,1.16,1.35c2.08.32,3.98.6,5.71.86q17.59,2.61,20.2,20.2c.26,1.74.54,3.63.86,5.71.1.67.68,1.16,1.35,1.16s1.25-.49,1.35-1.16c.32-2.08.6-3.98.86-5.71q2.61-17.59,20.2-20.2c1.74-.26,3.63-.54,5.71-.86.67-.1,1.16-.68,1.16-1.35s-.49-1.25-1.16-1.35Z"/><path class="cls-3" d="M4348.37,1941.62c-2.17-.34-4.16-.63-5.98-.9q-18.41-2.73-21.15-21.14c-.27-1.82-.56-3.81-.9-5.98-.11-.7-.71-1.21-1.41-1.21s-1.31.51-1.41,1.21c-.34,2.17-.63,4.16-.9,5.98q-2.73,18.41-21.15,21.15c-1.82.27-3.8.57-5.98.9-.7.11-1.21.71-1.21,1.41s.51,1.31,1.21,1.41c2.18.34,4.16.63,5.98.9q18.41,2.74,21.15,21.15c.27,1.82.57,3.8.9,5.98.11.7.71,1.21,1.41,1.21s1.3-.51,1.41-1.21c.34-2.17.63-4.16.9-5.98q2.73-18.41,21.15-21.15c1.82-.27,3.8-.56,5.98-.9.7-.11,1.21-.71,1.21-1.41s-.51-1.31-1.21-1.41Z"/><path class="cls-3" d="M3372.33,1885.78c-2.96-.46-5.67-.86-8.15-1.23q-25.09-3.72-28.81-28.81c-.37-2.48-.77-5.18-1.23-8.15-.15-.95-.97-1.65-1.93-1.65s-1.78.7-1.93,1.65c-.46,2.96-.86,5.67-1.23,8.14q-3.72,25.09-28.81,28.81c-2.48.37-5.18.77-8.15,1.23-.95.15-1.65.97-1.65,1.93s.7,1.78,1.65,1.93c2.96.46,5.67.86,8.15,1.23q25.09,3.73,28.81,28.81c.37,2.48.77,5.18,1.23,8.14.15.95.97,1.65,1.93,1.65s1.78-.7,1.93-1.65c.46-2.96.86-5.67,1.23-8.14q3.72-25.08,28.81-28.81c2.48-.37,5.18-.77,8.15-1.23.95-.15,1.65-.97,1.65-1.93s-.7-1.78-1.65-1.93Z"/><path class="cls-3" d="M3200.55,2890.29c-1.2-.19-2.3-.35-3.3-.5q-10.16-1.51-11.67-11.67c-.15-1-.31-2.1-.5-3.3-.06-.38-.39-.67-.78-.67s-.72.28-.78.67c-.19,1.2-.35,2.3-.5,3.3q-1.51,10.16-11.67,11.67c-1,.15-2.1.31-3.3.5-.38.06-.67.39-.67.78s.28.72.67.78c1.2.19,2.3.35,3.3.5q10.16,1.51,11.67,11.67c.15,1,.31,2.1.5,3.3.06.39.39.67.78.67s.72-.28.78-.67c.19-1.2.35-2.3.5-3.3q1.51-10.16,11.67-11.67c1-.15,2.1-.31,3.3-.5.38-.06.67-.39.67-.78s-.28-.72-.67-.78Z"/><path class="cls-3" d="M3132.05,2476.96c-1.41-.22-2.69-.41-3.87-.58q-11.91-1.77-13.68-13.68c-.18-1.18-.37-2.46-.58-3.87-.07-.45-.46-.78-.92-.78s-.84.33-.91.78c-.22,1.41-.41,2.69-.58,3.87q-1.77,11.91-13.68,13.68c-1.18.17-2.46.37-3.87.58-.45.07-.78.46-.78.91s.33.84.78.92c1.41.22,2.69.41,3.87.58q11.91,1.77,13.68,13.68c.17,1.18.37,2.46.58,3.87.07.45.46.78.91.78s.84-.33.92-.78c.22-1.41.41-2.69.58-3.87q1.77-11.91,13.68-13.68c1.18-.17,2.46-.37,3.87-.58.45-.07.78-.46.78-.92s-.33-.84-.78-.91Z"/><path class="cls-3" d="M3280.8,2548.87c-1.23-.19-2.36-.36-3.4-.51q-10.45-1.55-12.01-12c-.15-1.03-.32-2.16-.51-3.4-.06-.4-.4-.69-.8-.69s-.74.29-.8.69c-.19,1.23-.36,2.36-.51,3.39q-1.55,10.45-12.01,12.01c-1.03.15-2.16.32-3.4.51-.4.06-.69.4-.69.8s.29.74.69.8c1.24.19,2.36.36,3.4.51q10.45,1.55,12.01,12.01c.15,1.03.32,2.16.51,3.39.06.4.4.69.8.69s.74-.29.8-.69c.19-1.23.36-2.36.51-3.39q1.55-10.45,12.01-12.01c1.03-.15,2.16-.32,3.4-.51.4-.06.69-.4.69-.8s-.29-.74-.69-.8Z"/><path class="cls-3" d="M4345.72,3011.17c-1.23-.19-2.36-.36-3.39-.51q-10.46-1.55-12.01-12.01c-.15-1.03-.32-2.16-.51-3.39-.06-.4-.4-.69-.8-.69s-.74.29-.8.69c-.19,1.23-.36,2.36-.51,3.39q-1.55,10.45-12.01,12.01c-1.03.15-2.16.32-3.4.51-.4.06-.69.4-.69.8s.29.74.69.8c1.24.19,2.36.36,3.4.51q10.45,1.55,12.01,12.01c.15,1.03.32,2.16.51,3.39.06.4.4.69.8.69s.74-.29.8-.69c.19-1.23.36-2.36.51-3.39q1.55-10.45,12.01-12.01c1.03-.15,2.16-.32,3.39-.51.4-.06.69-.4.69-.8s-.29-.74-.69-.8Z"/><path class="cls-2" d="M3384.46,3012.85c-140.32-135.66-227.57-325.87-227.57-536.47,0-412.06,334.04-746.1,746.1-746.1,278.26,0,520.94,152.32,649.2,378.14"/><path class="cls-2" d="M4559.03,2832.01c-37.06,68.22-84.45,130.02-140.07,183.28"/><path class="cls-1" d="M3409.83,3013.77c-118.04-131.98-189.81-306.21-189.81-497.21,0-412.06,334.04-746.1,746.1-746.1,238.76,0,451.33,112.15,587.89,286.65"/><path class="cls-1" d="M4554.11,2975.87c-10.18,13.01-20.77,25.67-31.77,37.97"/><path class="cls-1" d="M3227.31,3015.57c-101.56-127.46-162.26-288.94-162.26-464.58,0-412.06,334.04-746.1,746.1-746.1s746.1,334.04,746.1,746.1c0,176.01-60.94,337.78-162.88,465.36"/><path class="cls-3" d="M3378.8,2032.54c-1.58-.25-3.03-.46-4.35-.66q-13.39-1.99-15.37-15.37c-.2-1.32-.41-2.77-.66-4.35-.08-.51-.52-.88-1.03-.88s-.95.37-1.03.88c-.25,1.58-.46,3.02-.66,4.35q-1.99,13.39-15.37,15.37c-1.32.2-2.77.41-4.35.66-.51.08-.88.52-.88,1.03s.37.95.88,1.03c1.58.25,3.03.46,4.35.66q13.39,1.99,15.37,15.37c.19,1.32.41,2.77.66,4.35.08.51.52.88,1.03.88s.95-.37,1.03-.88c.25-1.58.46-3.02.66-4.35q1.99-13.38,15.37-15.37c1.32-.2,2.77-.41,4.35-.66.51-.08.88-.52.88-1.03s-.37-.95-.88-1.03Z"/><path class="cls-3" d="M4399.95,1857.05c-1.23-.19-2.36-.36-3.4-.51q-10.45-1.55-12.01-12c-.15-1.03-.32-2.16-.51-3.4-.06-.4-.4-.69-.8-.69s-.74.29-.8.69c-.19,1.23-.36,2.36-.51,3.39q-1.55,10.45-12.01,12.01c-1.03.15-2.16.32-3.4.51-.4.06-.69.4-.69.8s.29.74.69.8c1.24.19,2.36.36,3.4.51q10.45,1.55,12.01,12.01c.15,1.03.32,2.16.51,3.39.06.4.4.69.8.69s.74-.29.8-.69c.19-1.23.36-2.36.51-3.39q1.55-10.45,12.01-12.01c1.03-.15,2.16-.32,3.4-.51.4-.06.69-.4.69-.8s-.29-.74-.69-.8Z"/><path class="cls-3" d="M3064.62,2680.87c-1.24-.19-2.36-.36-3.4-.51q-10.45-1.55-12.01-12c-.15-1.03-.32-2.16-.51-3.4-.06-.4-.4-.69-.8-.69s-.74.29-.8.69c-.19,1.23-.36,2.36-.51,3.39q-1.55,10.45-12.01,12.01c-1.03.15-2.16.32-3.4.51-.4.06-.69.4-.69.8s.29.74.69.8c1.23.19,2.36.36,3.4.51q10.46,1.55,12.01,12.01c.15,1.03.32,2.16.51,3.39.06.4.4.69.8.69s.74-.29.8-.69c.19-1.23.36-2.36.51-3.39q1.55-10.45,12.01-12.01c1.03-.15,2.16-.32,3.4-.51.4-.06.69-.4.69-.8s-.29-.74-.69-.8Z"/><path class="cls-3" d="M3653.85,1739.64c-1.24-.19-2.36-.36-3.4-.51q-10.45-1.55-12.01-12c-.15-1.03-.32-2.16-.51-3.4-.06-.4-.4-.69-.8-.69s-.74.29-.8.69c-.19,1.23-.36,2.36-.51,3.39q-1.55,10.45-12.01,12.01c-1.03.15-2.16.32-3.39.51-.4.06-.69.4-.69.8s.29.74.69.8c1.23.19,2.36.36,3.39.51q10.46,1.55,12.01,12.01c.15,1.03.32,2.16.51,3.39.06.4.4.69.8.69s.74-.29.8-.69c.19-1.23.36-2.36.51-3.39q1.55-10.45,12.01-12.01c1.03-.15,2.16-.32,3.4-.51.4-.06.69-.4.69-.8s-.29-.74-.69-.8Z"/><path class="cls-3" d="M3599.22,1758.95c-1.96-.3-3.74-.57-5.38-.81q-16.56-2.46-19.02-19.02c-.24-1.64-.51-3.42-.81-5.38-.1-.63-.64-1.09-1.27-1.09s-1.17.46-1.27,1.09c-.3,1.95-.57,3.74-.81,5.38q-2.46,16.56-19.02,19.02c-1.63.24-3.42.51-5.38.81-.63.1-1.09.64-1.09,1.27s.46,1.17,1.09,1.27c1.96.3,3.74.57,5.38.81q16.56,2.46,19.02,19.02c.24,1.63.51,3.42.81,5.38.1.63.64,1.09,1.27,1.09s1.17-.46,1.27-1.09c.3-1.95.57-3.74.81-5.38q2.46-16.56,19.02-19.02c1.63-.24,3.42-.51,5.38-.81.63-.1,1.09-.64,1.09-1.27s-.46-1.17-1.09-1.27Z"/><path class="cls-3" d="M3105.27,2322.47l-.78-23.28c-.04-1.31-.62-2.38-1.36-2.47-.81-.1-1.51,1.01-1.56,2.47l-.9,23.27c0,.17,0,.37,0,.54.02.44.08.86.16,1.25-.09.39-.15.8-.17,1.25,0,.18,0,.37,0,.54l.78,23.28c.05,1.46.74,2.57,1.55,2.47.74-.09,1.32-1.16,1.37-2.47l.9-23.28c.02-.63-.04-1.24-.16-1.79.12-.55.19-1.16.17-1.79Z"/><path class="cls-3" d="M3103.33,2321.36l-17.01-15.91c-.96-.89-2.12-1.25-2.71-.79-.64.5-.35,1.78.64,2.85l15.82,17.1c.12.13.26.27.38.39.32.3.66.55,1,.77.22.34.46.68.76,1,.12.13.26.27.38.39l17.02,15.91c1.07,1,2.34,1.29,2.85.65.46-.59.12-1.75-.77-2.71l-15.82-17.1c-.43-.46-.9-.85-1.38-1.16-.31-.48-.69-.95-1.15-1.38Z"/><path class="cls-3" d="M3101.17,2321.95l-23.28.78c-1.31.04-2.38.62-2.47,1.36-.1.81,1.01,1.51,2.47,1.56l23.28.9c.17,0,.37,0,.54,0,.44-.02.86-.08,1.25-.16.39.09.8.15,1.25.17.18,0,.37,0,.54,0l23.28-.78c1.46-.05,2.57-.74,2.47-1.55-.09-.74-1.16-1.32-2.47-1.37l-23.27-.9c-.63-.02-1.24.04-1.79.16-.55-.12-1.16-.19-1.79-.17Z"/><path class="cls-3" d="M3100.06,2323.89l-15.91,17.01c-.89.96-1.25,2.12-.79,2.71.5.64,1.78.35,2.85-.64l17.1-15.82c.13-.12.27-.26.39-.38.3-.32.55-.66.77-1,.34-.22.68-.46,1-.76.13-.12.27-.26.39-.38l15.91-17.02c1-1.07,1.29-2.34.65-2.85-.59-.46-1.76-.12-2.71.77l-17.1,15.82c-.47.43-.85.9-1.16,1.38-.48.31-.95.69-1.38,1.15Z"/><path class="cls-3" d="M4190.98,1949.7l-.42-12.38c-.02-.7-.33-1.27-.72-1.32-.43-.05-.8.54-.83,1.31l-.48,12.38c0,.09,0,.2,0,.29,0,.24.04.46.09.66-.05.21-.08.43-.09.66,0,.09,0,.2,0,.29l.42,12.38c.03.78.4,1.36.83,1.32.4-.05.7-.62.73-1.31l.48-12.38c.01-.34-.02-.66-.08-.95.06-.29.1-.62.09-.95Z"/><path class="cls-3" d="M4189.95,1949.11l-9.05-8.46c-.51-.48-1.13-.66-1.44-.42-.34.27-.19.95.34,1.52l8.41,9.09c.06.07.14.14.2.21.17.16.35.29.53.41.11.18.25.36.41.53.06.07.14.14.2.21l9.05,8.46c.57.53,1.24.69,1.51.35.25-.31.06-.93-.41-1.44l-8.41-9.09c-.23-.25-.48-.45-.73-.62-.16-.25-.37-.51-.61-.74Z"/><path class="cls-3" d="M4188.8,1949.42l-12.38.42c-.7.02-1.27.33-1.32.72-.05.43.54.8,1.31.83l12.38.48c.09,0,.2,0,.29,0,.24,0,.45-.04.66-.09.21.05.43.08.66.09.09,0,.2,0,.29,0l12.38-.42c.78-.03,1.36-.4,1.32-.83-.05-.4-.62-.7-1.31-.73l-12.38-.48c-.34-.01-.66.02-.95.08-.29-.06-.62-.1-.95-.09Z"/><path class="cls-3" d="M4188.22,1950.46l-8.46,9.05c-.48.51-.66,1.13-.42,1.44.27.34.94.19,1.52-.34l9.09-8.41c.07-.06.14-.14.21-.2.16-.17.29-.35.41-.53.18-.11.36-.25.53-.41.07-.06.14-.14.21-.2l8.46-9.05c.53-.57.69-1.24.35-1.51-.31-.25-.93-.06-1.44.41l-9.09,8.41c-.25.23-.45.48-.61.73-.25.16-.51.36-.74.61Z"/><path class="cls-3" d="M4520.02,2701.55c-1.57-.24-3-.46-4.31-.65q-13.28-1.97-15.24-15.24c-.2-1.31-.41-2.74-.65-4.31-.08-.5-.51-.87-1.02-.87s-.94.37-1.02.87c-.24,1.57-.46,3-.65,4.31q-1.97,13.27-15.25,15.24c-1.31.19-2.74.41-4.31.65-.5.08-.87.51-.87,1.02s.37.94.87,1.02c1.57.24,3,.46,4.31.65q13.28,1.97,15.25,15.24c.19,1.31.41,2.74.65,4.31.08.5.51.87,1.02.87s.94-.37,1.02-.87c.24-1.57.46-3,.65-4.31q1.97-13.27,15.24-15.24c1.31-.19,2.74-.41,4.31-.65.5-.08.87-.51.87-1.02s-.37-.94-.87-1.02Z"/><path class="cls-3" d="M3325.66,2753.06c-1.57-.24-3-.46-4.31-.65q-13.28-1.97-15.24-15.24c-.19-1.31-.41-2.74-.65-4.31-.08-.5-.51-.87-1.02-.87s-.94.37-1.02.87c-.24,1.57-.46,3-.65,4.31q-1.97,13.27-15.25,15.24c-1.31.19-2.74.41-4.31.65-.5.08-.87.51-.87,1.02s.37.94.87,1.02c1.57.24,3,.46,4.31.65q13.28,1.97,15.25,15.24c.19,1.31.41,2.74.65,4.31.08.5.51.87,1.02.87s.94-.37,1.02-.87c.24-1.57.46-3,.65-4.31q1.97-13.27,15.24-15.24c1.31-.19,2.74-.41,4.31-.65.5-.08.87-.51.87-1.02s-.37-.94-.87-1.02Z"/><path class="cls-3" d="M4507.71,2983.88c-.91-.14-1.73-.26-2.49-.38q-7.67-1.14-8.81-8.81c-.11-.76-.24-1.58-.38-2.49-.05-.29-.3-.5-.59-.5s-.54.21-.59.5c-.14.91-.26,1.73-.38,2.49q-1.14,7.67-8.81,8.81c-.76.11-1.58.23-2.49.38-.29.04-.5.29-.5.59s.21.54.5.59c.91.14,1.73.26,2.49.38q7.67,1.14,8.81,8.81c.11.76.24,1.58.38,2.49.05.29.3.5.59.5s.54-.21.59-.5c.14-.91.26-1.73.38-2.49q1.14-7.67,8.81-8.81c.76-.11,1.58-.23,2.49-.38.29-.05.5-.29.5-.59s-.21-.54-.5-.59Z"/><path class="cls-3" d="M3378.69,2123.81c-.56-.09-1.07-.16-1.53-.23q-4.72-.7-5.42-5.42c-.07-.47-.15-.97-.23-1.53-.03-.18-.18-.31-.36-.31s-.33.13-.36.31c-.09.56-.16,1.07-.23,1.53q-.7,4.72-5.42,5.42c-.46.07-.97.14-1.53.23-.18.03-.31.18-.31.36s.13.34.31.36c.56.09,1.07.16,1.53.23q4.72.7,5.42,5.42c.07.47.15.97.23,1.53.03.18.18.31.36.31s.33-.13.36-.31c.09-.56.16-1.07.23-1.53q.7-4.72,5.42-5.42c.47-.07.97-.14,1.53-.23.18-.03.31-.18.31-.36s-.13-.33-.31-.36Z"/><path class="cls-3" d="M3222.96,2846.92c-.7-.11-1.33-.2-1.91-.29q-5.9-.88-6.77-6.77c-.09-.58-.18-1.22-.29-1.91-.04-.22-.23-.39-.45-.39s-.42.16-.45.39c-.11.7-.2,1.33-.29,1.91q-.88,5.9-6.77,6.77c-.58.09-1.22.18-1.91.29-.22.04-.39.23-.39.45s.17.42.39.45c.7.11,1.33.2,1.91.29q5.9.88,6.77,6.77c.09.58.18,1.22.29,1.91.03.22.23.39.45.39s.42-.17.45-.39c.11-.7.2-1.33.29-1.91q.87-5.9,6.77-6.77c.58-.09,1.22-.18,1.91-.29.22-.03.39-.23.39-.45s-.16-.42-.39-.45Z"/><path class="cls-3" d="M4271.12,1916.25l-.32-9.63c-.02-.54-.26-.99-.56-1.02-.33-.04-.62.42-.65,1.02l-.37,9.63c0,.07,0,.15,0,.23,0,.18.03.35.07.52-.04.16-.06.33-.07.52,0,.07,0,.15,0,.23l.32,9.63c.02.6.31,1.06.64,1.02.31-.04.55-.48.57-1.02l.37-9.63c.01-.26-.02-.51-.06-.74.05-.23.08-.48.07-.74Z"/><path class="cls-3" d="M4270.32,1915.79l-7.04-6.58c-.4-.37-.88-.52-1.12-.33-.26.21-.15.74.26,1.18l6.55,7.07c.05.05.11.11.16.16.13.13.27.23.41.32.09.14.19.28.31.41.05.05.11.11.16.16l7.04,6.58c.44.41.97.53,1.18.27.19-.24.05-.73-.32-1.12l-6.55-7.07c-.18-.19-.37-.35-.57-.48-.13-.2-.28-.39-.48-.57Z"/><path class="cls-3" d="M4269.43,1916.04l-9.63.32c-.54.02-.99.26-1.02.56-.04.33.42.62,1.02.65l9.63.37c.07,0,.15,0,.23,0,.18,0,.35-.03.52-.07.16.04.33.06.52.07.07,0,.15,0,.23,0l9.63-.32c.6-.02,1.06-.31,1.02-.64-.04-.31-.48-.55-1.02-.57l-9.63-.37c-.26,0-.51.02-.74.06-.23-.05-.48-.08-.74-.07Z"/><path class="cls-3" d="M4268.97,1916.84l-6.58,7.04c-.37.4-.52.88-.33,1.12.21.26.74.15,1.18-.26l7.07-6.55c.05-.05.11-.11.16-.16.13-.13.23-.27.32-.41.14-.09.28-.19.41-.32.05-.05.11-.11.16-.16l6.58-7.04c.41-.44.53-.97.27-1.18-.24-.19-.73-.05-1.12.32l-7.07,6.55c-.19.18-.35.37-.48.57-.2.13-.39.28-.57.48Z"/><path class="cls-3" d="M3072.23,2369.75c-1.22-.19-2.33-.36-3.35-.51q-10.33-1.53-11.86-11.86c-.15-1.02-.32-2.13-.51-3.35-.06-.39-.4-.68-.79-.68s-.73.29-.79.68c-.19,1.22-.36,2.33-.51,3.35q-1.53,10.32-11.86,11.86c-1.02.15-2.13.32-3.35.51-.39.06-.68.4-.68.79s.29.73.68.79c1.22.19,2.33.36,3.35.51q10.33,1.53,11.86,11.86c.15,1.02.32,2.13.51,3.35.06.39.4.68.79.68s.73-.29.79-.68c.19-1.22.35-2.33.51-3.35q1.53-10.32,11.86-11.86c1.02-.15,2.13-.32,3.35-.51.39-.06.68-.4.68-.79s-.29-.73-.68-.79Z"/><path class="cls-3" d="M4146.53,1847.76c-.43-.07-.83-.13-1.19-.18q-3.67-.55-4.21-4.21c-.05-.36-.11-.76-.18-1.19-.02-.14-.14-.24-.28-.24s-.26.1-.28.24c-.07.43-.13.83-.18,1.19q-.55,3.67-4.21,4.21c-.36.05-.76.11-1.19.18-.14.02-.24.14-.24.28s.1.26.24.28c.43.07.83.13,1.19.18q3.67.55,4.21,4.21c.05.36.11.76.18,1.19.02.14.14.24.28.24s.26-.1.28-.24c.07-.43.13-.83.18-1.19q.54-3.67,4.21-4.21c.36-.05.76-.11,1.19-.18.14-.02.24-.14.24-.28s-.1-.26-.24-.28Z"/><polygon class="cls-3" points="4093.21 2118.59 4004.37 2110.96 4061.79 2042.74 3993.58 2100.17 3985.94 2011.33 3978.32 2100.17 3910.1 2042.74 3967.53 2110.96 3878.68 2118.59 3967.53 2126.22 3910.1 2194.44 3978.32 2137.01 3985.94 2225.86 3993.58 2137.01 4061.79 2194.44 4004.37 2126.22 4093.21 2118.59"/><path class="cls-3" d="M3893.73,2092.51c5.62,2.32,12.06-.36,14.37-5.98,2.31-5.62-.37-12.06-5.99-14.37-5.62-2.32-12.06.36-14.37,5.98-2.32,5.62.36,12.06,5.98,14.37Z"/><path class="cls-3" d="M3953.54,2040.89h0c5.61-2.34,8.26-8.79,5.92-14.4-2.34-5.61-8.79-8.26-14.4-5.92h0c-5.61,2.34-8.27,8.78-5.92,14.39,2.34,5.61,8.78,8.26,14.39,5.92Z"/><path class="cls-3" d="M4063.62,2086.12s.05.08.07.13c.02.04.02.08.04.12h0c2.33,5.62,8.76,8.29,14.38,5.96,5.62-2.33,8.29-8.77,5.96-14.38h0c-.02-.05-.06-.09-.08-.14-.02-.06-.03-.11-.05-.17h0c-2.35-5.61-8.79-8.25-14.4-5.91-5.61,2.34-8.25,8.79-5.91,14.4h0Z"/><path class="cls-3" d="M4017.95,2040.72c5.62,2.31,12.05-.37,14.37-6,2.31-5.62-.37-12.05-5.99-14.37-5.62-2.31-12.06.37-14.37,6-2.31,5.62.37,12.05,6,14.37Z"/><path class="cls-3" d="M4018.23,2196.35h0c-5.62,2.33-8.28,8.77-5.95,14.39s8.77,8.28,14.39,5.94h0c5.61-2.33,8.28-8.77,5.95-14.38-2.33-5.62-8.77-8.28-14.38-5.95Z"/><path class="cls-3" d="M3893.83,2145c-5.61,2.33-8.27,8.78-5.94,14.39,2.33,5.61,8.78,8.27,14.39,5.94s8.27-8.78,5.94-14.39c-2.33-5.61-8.78-8.27-14.39-5.94Z"/><path class="cls-3" d="M4078.11,2144.81c-5.62-2.32-12.06.35-14.38,5.96h0c-2.33,5.62.34,12.06,5.96,14.38,5.62,2.33,12.06-.34,14.38-5.96h0c2.32-5.62-.35-12.06-5.96-14.38Z"/><path class="cls-3" d="M3953.81,2196.41h0c-5.62-2.32-12.06.35-14.38,5.97-2.32,5.62.36,12.06,5.98,14.38h0c5.62,2.32,12.05-.36,14.37-5.97,2.32-5.62-.36-12.06-5.98-14.37Z"/><path class="cls-3" d="M3164.59,911.3c-.98-.15-1.88-.29-2.7-.41q-8.3-1.23-9.53-9.53c-.12-.82-.25-1.72-.41-2.7-.05-.31-.32-.55-.64-.55s-.59.23-.64.55c-.15.98-.29,1.88-.41,2.7q-1.23,8.3-9.53,9.53c-.82.12-1.72.25-2.7.41-.31.05-.55.32-.55.64s.23.59.55.64c.98.15,1.88.29,2.7.41q8.3,1.23,9.53,9.53c.12.82.25,1.72.41,2.69.05.31.32.55.64.55s.59-.23.64-.55c.15-.98.28-1.88.41-2.69q1.23-8.3,9.53-9.53c.82-.12,1.72-.25,2.7-.41.31-.05.55-.32.55-.64s-.23-.59-.55-.64Z"/><path class="cls-3" d="M3496.68,701.95l-.6-17.79c-.03-1-.47-1.82-1.04-1.89-.62-.07-1.15.77-1.2,1.88l-.69,17.79c0,.13,0,.28,0,.42.01.34.06.65.12.95-.07.3-.12.61-.13.95,0,.13,0,.29,0,.42l.6,17.79c.04,1.12.57,1.96,1.19,1.89.57-.07,1.01-.89,1.05-1.88l.69-17.79c.02-.48-.03-.95-.12-1.37.09-.42.14-.88.13-1.37Z"/><path class="cls-3" d="M3495.2,701.1l-13-12.16c-.73-.68-1.62-.95-2.07-.6-.49.38-.27,1.36.49,2.18l12.09,13.06c.09.1.2.2.29.29.25.23.5.42.76.59.17.26.35.52.58.76.09.1.2.2.29.29l13,12.16c.82.76,1.79.98,2.18.5.36-.45.09-1.34-.59-2.07l-12.09-13.06c-.33-.36-.69-.65-1.05-.88-.23-.37-.52-.73-.88-1.06Z"/><path class="cls-3" d="M3493.55,701.55l-17.79.6c-1,.03-1.82.47-1.89,1.04-.07.62.77,1.15,1.88,1.2l17.79.69c.13,0,.28,0,.42,0,.34-.01.65-.06.95-.12.3.07.61.12.95.13.13,0,.29,0,.42,0l17.79-.6c1.12-.04,1.96-.57,1.89-1.19-.07-.57-.89-1.01-1.88-1.05l-17.79-.69c-.48-.02-.95.03-1.37.12-.42-.09-.88-.14-1.37-.13Z"/><path class="cls-3" d="M3492.7,703.03l-12.16,13c-.68.73-.95,1.62-.6,2.07.38.49,1.36.27,2.18-.49l13.06-12.09c.1-.09.2-.2.29-.29.23-.25.42-.5.59-.76.26-.17.52-.35.76-.58.1-.09.2-.2.29-.29l12.16-13c.76-.82.98-1.79.5-2.18-.45-.36-1.34-.09-2.07.59l-13.06,12.09c-.36.33-.65.69-.88,1.05-.36.23-.73.52-1.06.88Z"/><path class="cls-3" d="M3563.78,691.82c-.59-.09-1.12-.17-1.61-.24q-4.96-.74-5.7-5.7c-.07-.49-.15-1.03-.24-1.61-.03-.19-.19-.33-.38-.33s-.35.14-.38.33c-.09.59-.17,1.12-.24,1.61q-.74,4.96-5.7,5.7c-.49.07-1.03.15-1.61.24-.19.03-.33.19-.33.38s.14.35.33.38c.59.09,1.12.17,1.61.24q4.96.74,5.7,5.7c.07.49.15,1.03.24,1.61.03.19.19.33.38.33s.35-.14.38-.33c.09-.59.17-1.12.24-1.61q.74-4.96,5.7-5.7c.49-.07,1.03-.15,1.61-.24.19-.03.33-.19.33-.38s-.14-.35-.33-.38Z"/><path class="cls-3" d="M3464.93,902.28l-.26-7.74c-.01-.43-.21-.79-.45-.82-.27-.03-.5.33-.52.82l-.3,7.74c0,.06,0,.12,0,.18,0,.15.03.28.05.41-.03.13-.05.27-.06.41,0,.06,0,.12,0,.18l.26,7.74c.02.49.25.85.52.82.25-.03.44-.39.46-.82l.3-7.74c0-.21-.01-.41-.05-.6.04-.18.06-.39.06-.6Z"/><path class="cls-3" d="M3464.28,901.91l-5.66-5.29c-.32-.3-.71-.41-.9-.26-.21.17-.12.59.21.95l5.26,5.69s.08.09.13.13c.11.1.22.18.33.26.07.11.15.22.25.33.04.04.09.09.13.13l5.66,5.29c.35.33.78.43.95.22.15-.2.04-.58-.26-.9l-5.26-5.69c-.14-.15-.3-.28-.46-.38-.1-.16-.23-.32-.38-.46Z"/><path class="cls-3" d="M3463.57,902.1l-7.74.26c-.43.01-.79.21-.82.45-.03.27.33.5.82.52l7.74.3c.06,0,.12,0,.18,0,.15,0,.28-.03.41-.05.13.03.27.05.41.06.06,0,.12,0,.18,0l7.74-.26c.49-.02.85-.25.82-.52-.03-.25-.39-.44-.82-.46l-7.74-.3c-.21,0-.41.01-.6.05-.18-.04-.38-.06-.6-.06Z"/><path class="cls-3" d="M3463.2,902.75l-5.29,5.66c-.3.32-.42.71-.26.9.17.21.59.12.95-.21l5.69-5.26s.09-.09.13-.13c.1-.11.18-.22.26-.33.11-.07.22-.15.33-.25.04-.04.09-.09.13-.13l5.29-5.66c.33-.35.43-.78.22-.95-.19-.15-.58-.04-.9.26l-5.69,5.26c-.15.14-.28.3-.38.46-.16.1-.32.23-.46.38Z"/><path class="cls-3" d="M3500.87,976.14c-.98-.15-1.88-.29-2.7-.41q-8.3-1.23-9.53-9.53c-.12-.82-.25-1.72-.41-2.7-.05-.31-.32-.55-.64-.55s-.59.23-.64.55c-.15.98-.29,1.88-.41,2.69q-1.23,8.3-9.53,9.53c-.82.12-1.72.25-2.7.41-.31.05-.55.32-.55.64s.23.59.55.64c.98.15,1.88.29,2.7.41q8.3,1.23,9.53,9.53c.12.82.25,1.72.41,2.7.05.31.32.55.64.55s.59-.23.64-.55c.15-.98.28-1.88.41-2.7q1.23-8.3,9.53-9.53c.82-.12,1.72-.25,2.7-.41.31-.05.55-.32.55-.64s-.23-.59-.55-.64Z"/><path class="cls-3" d="M3221.68,987.92l-.6-17.79c-.03-1-.47-1.82-1.04-1.89-.62-.07-1.15.77-1.2,1.88l-.69,17.79c0,.13,0,.28,0,.42.01.34.06.65.12.95-.07.3-.12.61-.13.95,0,.13,0,.28,0,.42l.6,17.79c.04,1.12.57,1.96,1.19,1.89.57-.07,1.01-.89,1.05-1.88l.69-17.79c.02-.48-.03-.95-.12-1.37.09-.42.14-.88.13-1.37Z"/><path class="cls-3" d="M3220.2,987.07l-13-12.16c-.73-.68-1.62-.95-2.07-.6-.49.38-.27,1.36.49,2.18l12.09,13.06c.09.1.2.2.29.29.25.23.5.42.76.59.16.26.35.52.58.76.09.1.2.2.29.29l13,12.16c.82.76,1.79.99,2.18.5.36-.45.09-1.34-.59-2.07l-12.09-13.06c-.33-.36-.69-.65-1.05-.88-.23-.36-.52-.73-.88-1.06Z"/><path class="cls-3" d="M3218.55,987.52l-17.79.6c-1,.03-1.82.47-1.89,1.04-.07.62.77,1.15,1.88,1.2l17.79.69c.13,0,.28,0,.42,0,.34-.01.65-.06.95-.12.3.07.61.12.95.13.13,0,.29,0,.42,0l17.79-.6c1.11-.04,1.96-.57,1.89-1.19-.07-.57-.89-1.01-1.88-1.05l-17.79-.69c-.48-.02-.95.03-1.37.12-.42-.09-.88-.14-1.37-.13Z"/><path class="cls-3" d="M3217.71,989l-12.16,13c-.68.73-.95,1.62-.6,2.07.38.49,1.36.27,2.18-.49l13.06-12.09c.1-.09.2-.2.29-.29.23-.25.42-.5.59-.76.26-.16.52-.35.76-.58.1-.09.21-.2.29-.29l12.16-13c.76-.82.98-1.79.5-2.18-.45-.36-1.34-.09-2.07.59l-13.06,12.09c-.36.33-.65.69-.88,1.05-.37.23-.73.52-1.06.88Z"/><path class="cls-3" d="M3160.21,771.93c-.69-.11-1.32-.2-1.89-.29q-5.82-.86-6.68-6.68c-.09-.57-.18-1.2-.29-1.89-.03-.22-.22-.38-.45-.38s-.41.16-.45.38c-.11.69-.2,1.31-.29,1.89q-.86,5.82-6.68,6.68c-.57.09-1.2.18-1.89.29-.22.03-.38.22-.38.45s.16.41.38.45c.69.11,1.32.2,1.89.29q5.82.86,6.68,6.68c.08.57.18,1.2.29,1.89.03.22.22.38.45.38s.41-.16.45-.38c.11-.69.2-1.31.29-1.89q.86-5.82,6.68-6.68c.57-.09,1.2-.18,1.89-.29.22-.03.38-.22.38-.45s-.16-.41-.38-.45Z"/><path class="cls-3" d="M3500.99,615.14l-.29-8.58c-.02-.48-.23-.88-.5-.91-.3-.04-.56.37-.58.91l-.33,8.57c0,.06,0,.14,0,.2,0,.16.03.32.06.46-.03.14-.06.3-.06.46,0,.06,0,.14,0,.2l.29,8.58c.02.54.27.95.57.91.27-.03.49-.43.51-.91l.33-8.57c0-.23-.01-.46-.06-.66.04-.2.07-.43.06-.66Z"/><path class="cls-3" d="M3500.27,614.73l-6.27-5.86c-.35-.33-.78-.46-1-.29-.24.18-.13.65.23,1.05l5.83,6.3s.09.1.14.14c.12.11.24.2.37.28.08.12.17.25.28.37.04.05.1.1.14.14l6.27,5.86c.39.37.86.47,1.05.24.17-.22.04-.65-.28-1l-5.83-6.3c-.16-.17-.33-.31-.51-.43-.11-.18-.25-.35-.42-.51Z"/><path class="cls-3" d="M3499.48,614.94l-8.58.29c-.48.02-.88.23-.91.5-.04.3.37.56.91.58l8.57.33c.06,0,.14,0,.2,0,.16,0,.32-.03.46-.06.14.03.3.06.46.06.06,0,.14,0,.2,0l8.58-.29c.54-.02.95-.27.91-.57-.03-.27-.43-.49-.91-.51l-8.57-.33c-.23,0-.46.01-.66.06-.2-.05-.43-.07-.66-.06Z"/><path class="cls-3" d="M3499.07,615.66l-5.86,6.27c-.33.35-.46.78-.29,1,.18.24.65.13,1.05-.23l6.3-5.83s.1-.09.14-.14c.11-.12.2-.24.28-.37.12-.08.25-.17.37-.28.05-.04.1-.1.14-.14l5.86-6.27c.37-.39.47-.86.24-1.05-.22-.17-.65-.04-1,.28l-6.3,5.83c-.17.16-.31.33-.43.51-.18.11-.35.25-.51.42Z"/><path class="cls-3" d="M3217.48,639.89c-.98-.15-1.88-.29-2.7-.41q-8.3-1.23-9.53-9.53c-.12-.82-.25-1.72-.41-2.7-.05-.31-.32-.55-.64-.55s-.59.23-.64.55c-.15.98-.29,1.88-.41,2.69q-1.23,8.3-9.53,9.53c-.82.12-1.72.25-2.7.41-.31.05-.55.32-.55.64s.23.59.55.64c.98.15,1.88.29,2.7.41q8.3,1.23,9.53,9.53c.12.82.25,1.72.41,2.69.05.31.32.55.64.55s.59-.23.64-.55c.15-.98.28-1.88.41-2.69q1.23-8.3,9.53-9.53c.82-.12,1.72-.25,2.7-.41.31-.05.55-.32.55-.64s-.23-.59-.55-.64Z"/><path class="cls-3" d="M3157.55,636.73c-.59-.09-1.12-.17-1.61-.24q-4.96-.74-5.7-5.7c-.07-.49-.15-1.03-.24-1.61-.03-.19-.19-.33-.38-.33s-.35.14-.38.33c-.09.59-.17,1.12-.24,1.61q-.74,4.96-5.7,5.7c-.49.07-1.03.15-1.61.24-.19.03-.33.19-.33.38s.14.35.33.38c.59.09,1.12.17,1.61.24q4.96.74,5.7,5.7c.07.49.15,1.03.24,1.61.03.19.19.33.38.33s.35-.14.38-.33c.09-.59.17-1.12.24-1.61q.74-4.96,5.7-5.7c.49-.07,1.03-.15,1.61-.24.19-.03.33-.19.33-.38s-.14-.35-.33-.38Z"/><path class="cls-3" d="M3429.65,1014.68c-.98-.15-1.88-.29-2.7-.41q-8.3-1.23-9.53-9.53c-.12-.82-.25-1.72-.41-2.7-.05-.31-.32-.55-.64-.55s-.59.23-.64.55c-.15.98-.29,1.88-.41,2.69q-1.23,8.3-9.53,9.53c-.82.12-1.72.25-2.7.41-.31.05-.55.32-.55.64s.23.59.55.64c.98.15,1.88.29,2.7.41q8.3,1.23,9.53,9.53c.12.82.25,1.72.41,2.7.05.31.32.55.64.55s.59-.23.64-.55c.15-.98.28-1.88.41-2.7q1.23-8.3,9.53-9.53c.82-.12,1.72-.25,2.7-.41.31-.05.55-.32.55-.64s-.23-.59-.55-.64Z"/><path class="cls-3" d="M3460.29,625.67c-.61-.1-1.17-.18-1.69-.25q-5.2-.77-5.97-5.97c-.08-.51-.16-1.07-.25-1.69-.03-.2-.2-.34-.4-.34s-.37.15-.4.34c-.1.61-.18,1.17-.25,1.69q-.77,5.2-5.97,5.97c-.51.08-1.07.16-1.69.25-.2.03-.34.2-.34.4s.15.37.34.4c.61.1,1.17.18,1.69.25q5.2.77,5.97,5.97c.08.51.16,1.07.25,1.69.03.2.2.34.4.34s.37-.15.4-.34c.1-.61.18-1.17.25-1.69q.77-5.19,5.97-5.97c.51-.08,1.07-.16,1.69-.25.2-.03.34-.2.34-.4s-.15-.37-.34-.4Z"/><path class="cls-3" d="M3184.9,609.92c-.84-.13-1.6-.24-2.3-.35q-7.08-1.05-8.13-8.13c-.1-.7-.22-1.46-.35-2.3-.04-.27-.27-.47-.54-.47s-.5.2-.54.47c-.13.84-.24,1.6-.35,2.3q-1.05,7.08-8.13,8.13c-.7.1-1.46.22-2.3.35-.27.04-.47.27-.47.54s.2.5.47.54c.84.13,1.6.24,2.3.35q7.08,1.05,8.13,8.13c.1.7.22,1.46.35,2.3.04.27.27.47.54.47s.5-.2.54-.47c.13-.84.24-1.6.35-2.3q1.05-7.08,8.13-8.13c.7-.1,1.46-.22,2.3-.35.27-.04.47-.27.47-.54s-.2-.5-.47-.54Z"/><path class="cls-3" d="M3136.43,893.34c-.34-.05-.65-.1-.93-.14q-2.87-.43-3.29-3.29c-.04-.28-.09-.59-.14-.93-.02-.11-.11-.19-.22-.19s-.2.08-.22.19c-.05.34-.1.65-.14.93q-.43,2.87-3.29,3.29c-.28.04-.59.09-.93.14-.11.02-.19.11-.19.22s.08.2.19.22c.34.05.65.1.93.14q2.87.43,3.29,3.29c.04.28.09.59.14.93.02.11.11.19.22.19s.2-.08.22-.19c.05-.34.1-.65.14-.93q.43-2.87,3.29-3.29c.28-.04.59-.09.93-.14.11-.02.19-.11.19-.22s-.08-.2-.19-.22Z"/><path class="cls-3" d="M3516.57,954.68c-.57-.09-1.08-.17-1.56-.24q-4.8-.71-5.51-5.51c-.07-.47-.15-.99-.24-1.56-.03-.18-.18-.32-.37-.32s-.34.13-.37.32c-.09.57-.17,1.08-.24,1.56q-.71,4.8-5.51,5.51c-.47.07-.99.15-1.56.24-.18.03-.32.18-.32.37s.13.34.32.37c.57.09,1.08.16,1.56.24q4.8.71,5.51,5.51c.07.47.15.99.24,1.56.03.18.18.32.37.32s.34-.13.37-.32c.09-.57.16-1.08.24-1.56q.71-4.79,5.51-5.51c.47-.07.99-.15,1.56-.24.18-.03.32-.18.32-.37s-.13-.34-.32-.37Z"/><path class="cls-3" d="M3117.1,776.72c-.4-.06-.76-.12-1.09-.16q-3.36-.5-3.86-3.86c-.05-.33-.1-.69-.16-1.09-.02-.13-.13-.22-.26-.22s-.24.09-.26.22c-.06.4-.12.76-.16,1.09q-.5,3.36-3.86,3.86c-.33.05-.69.1-1.09.16-.13.02-.22.13-.22.26s.09.24.22.26c.4.06.76.12,1.09.16q3.36.5,3.86,3.86c.05.33.1.69.16,1.09.02.13.13.22.26.22s.24-.09.26-.22c.06-.4.12-.76.16-1.09q.5-3.36,3.86-3.86c.33-.05.69-.1,1.09-.16.13-.02.22-.13.22-.26s-.09-.24-.22-.26Z"/><path class="cls-3" d="M3159.07,797.01c-.35-.05-.67-.1-.96-.14q-2.95-.44-3.39-3.39c-.04-.29-.09-.61-.14-.96-.02-.11-.11-.19-.23-.19s-.21.08-.23.19c-.05.35-.1.67-.14.96q-.44,2.95-3.39,3.39c-.29.04-.61.09-.96.14-.11.02-.19.11-.19.23s.08.21.19.23c.35.05.67.1.96.14q2.95.44,3.39,3.39c.04.29.09.61.14.96.02.11.11.19.23.19s.21-.08.23-.19c.05-.35.1-.67.14-.96q.44-2.95,3.39-3.39c.29-.04.61-.09.96-.14.11-.02.19-.11.19-.23s-.08-.21-.19-.23Z"/><path class="cls-3" d="M3539.85,867.4c-.21-.03-.4-.06-.57-.09q-1.76-.26-2.03-2.03c-.03-.17-.05-.36-.09-.57-.01-.07-.07-.12-.14-.12s-.13.05-.14.12c-.03.21-.06.4-.09.57q-.26,1.76-2.03,2.03c-.17.03-.36.05-.57.09-.07.01-.12.07-.12.14s.05.13.12.14c.21.03.4.06.57.09q1.76.26,2.03,2.03c.03.17.05.36.09.57.01.07.07.12.14.12s.13-.05.14-.12c.03-.21.06-.4.09-.57q.26-1.76,2.03-2.03c.17-.03.36-.05.57-.09.07-.01.12-.07.12-.14s-.05-.13-.12-.14Z"/><path class="cls-3" d="M3459.54,927.45c-.35-.05-.67-.1-.96-.14q-2.95-.44-3.39-3.39c-.04-.29-.09-.61-.14-.96-.02-.11-.11-.19-.23-.19s-.21.08-.23.19c-.05.35-.1.67-.14.96q-.44,2.95-3.39,3.39c-.29.04-.61.09-.96.14-.11.02-.19.11-.19.23s.08.21.19.23c.35.05.67.1.96.14q2.95.44,3.39,3.39c.04.29.09.61.14.96.02.11.11.19.23.19s.21-.08.23-.19c.05-.35.1-.67.14-.96q.44-2.95,3.39-3.39c.29-.04.61-.09.96-.14.11-.02.19-.11.19-.23s-.08-.21-.19-.23Z"/><path class="cls-3" d="M3261.21,991.51c-.24-.04-.47-.07-.67-.1q-2.07-.31-2.37-2.37c-.03-.2-.06-.43-.1-.67-.01-.08-.08-.14-.16-.14s-.15.06-.16.14c-.04.24-.07.47-.1.67q-.31,2.07-2.37,2.37c-.2.03-.43.06-.67.1-.08.01-.14.08-.14.16s.06.15.14.16c.24.04.47.07.67.1q2.07.31,2.37,2.37c.03.2.06.43.1.67.01.08.08.14.16.14s.15-.06.16-.14c.04-.24.07-.47.1-.67q.31-2.07,2.37-2.37c.2-.03.43-.06.67-.1.08-.01.14-.08.14-.16s-.06-.15-.14-.16Z"/><path class="cls-3" d="M3192.33,958.01c-.21-.03-.4-.06-.57-.09q-1.76-.26-2.03-2.03c-.03-.17-.05-.36-.09-.57-.01-.07-.07-.12-.14-.12s-.13.05-.14.12c-.03.21-.06.4-.09.57q-.26,1.76-2.03,2.03c-.17.03-.36.05-.57.09-.07.01-.12.07-.12.14s.05.13.12.14c.21.03.4.06.57.09q1.76.26,2.03,2.03c.03.17.05.36.09.57.01.07.07.12.14.12s.13-.05.14-.12c.03-.21.06-.4.09-.57q.26-1.76,2.03-2.03c.17-.03.36-.05.57-.09.07-.01.12-.07.12-.14s-.05-.13-.12-.14Z"/><circle class="cls-2" cx="3334.62" cy="776.56" r="210.51"/><circle class="cls-1" cx="3352.43" cy="787.89" r="210.51"/><circle class="cls-1" cx="3308.71" cy="797.61" r="210.51" transform="translate(405.11 2573.23) rotate(-45)"/><path class="cls-3" d="M3186.72,651.33c-.45-.07-.85-.13-1.23-.19q-3.78-.56-4.34-4.34c-.06-.37-.12-.78-.19-1.23-.02-.14-.15-.25-.29-.25s-.27.11-.29.25c-.07.45-.13.85-.19,1.23q-.56,3.78-4.34,4.34c-.37.06-.78.12-1.23.19-.14.02-.25.15-.25.29s.11.27.25.29c.45.07.85.13,1.23.19q3.78.56,4.34,4.34c.05.37.12.78.19,1.23.02.14.15.25.29.25s.27-.11.29-.25c.07-.45.13-.85.19-1.23q.56-3.78,4.34-4.34c.37-.06.78-.12,1.23-.19.14-.02.25-.15.25-.29s-.11-.27-.25-.29Z"/><path class="cls-3" d="M3474.84,601.81c-.35-.05-.67-.1-.96-.14q-2.95-.44-3.39-3.39c-.04-.29-.09-.61-.14-.96-.02-.11-.11-.19-.23-.19s-.21.08-.23.19c-.05.35-.1.67-.14.96q-.44,2.95-3.39,3.39c-.29.04-.61.09-.96.14-.11.02-.19.11-.19.23s.08.21.19.23c.35.05.67.1.96.14q2.95.44,3.39,3.39c.04.29.09.61.14.96.02.11.11.19.23.19s.21-.08.23-.19c.05-.35.1-.67.14-.96q.44-2.95,3.39-3.39c.29-.04.61-.09.96-.14.11-.02.19-.11.19-.23s-.08-.21-.19-.23Z"/><path class="cls-3" d="M3098.08,834.25c-.35-.05-.67-.1-.96-.14q-2.95-.44-3.39-3.39c-.04-.29-.09-.61-.14-.96-.02-.11-.11-.19-.23-.19s-.21.08-.23.19c-.05.35-.1.67-.14.96q-.44,2.95-3.39,3.39c-.29.04-.61.09-.96.14-.11.02-.19.11-.19.23s.08.21.19.23c.35.05.67.1.96.14q2.95.44,3.39,3.39c.04.29.09.61.14.96.02.11.11.19.23.19s.21-.08.23-.19c.05-.35.1-.67.14-.96q.44-2.95,3.39-3.39c.29-.04.61-.09.96-.14.11-.02.19-.11.19-.23s-.08-.21-.19-.23Z"/><path class="cls-3" d="M3541.58,757.46c-.35-.05-.67-.1-.96-.14q-2.95-.44-3.39-3.39c-.04-.29-.09-.61-.14-.96-.02-.11-.11-.19-.23-.19s-.21.08-.23.19c-.05.35-.1.67-.14.96q-.44,2.95-3.39,3.39c-.29.04-.61.09-.96.14-.11.02-.19.11-.19.23s.08.21.19.23c.35.05.67.1.96.14q2.95.44,3.39,3.39c.04.29.09.61.14.96.02.11.11.19.23.19s.21-.08.23-.19c.05-.35.1-.67.14-.96q.44-2.95,3.39-3.39c.29-.04.61-.09.96-.14.11-.02.19-.11.19-.23s-.08-.21-.19-.23Z"/><path class="cls-3" d="M3264.33,568.68c-.35-.05-.67-.1-.96-.14q-2.95-.44-3.39-3.39c-.04-.29-.09-.61-.14-.96-.02-.11-.11-.19-.23-.19s-.21.08-.23.19c-.05.35-.1.67-.14.96q-.44,2.95-3.39,3.39c-.29.04-.61.09-.96.14-.11.02-.19.11-.19.23s.08.21.19.23c.35.05.67.1.96.14q2.95.44,3.39,3.39c.04.29.09.61.14.96.02.11.11.19.23.19s.21-.08.23-.19c.05-.35.1-.67.14-.96q.44-2.95,3.39-3.39c.29-.04.61-.09.96-.14.11-.02.19-.11.19-.23s-.08-.21-.19-.23Z"/><path class="cls-3" d="M3272.4,965.25c-.35-.05-.67-.1-.96-.14q-2.95-.44-3.39-3.39c-.04-.29-.09-.61-.14-.96-.02-.11-.11-.19-.23-.19s-.21.08-.23.19c-.05.35-.1.67-.14.96q-.44,2.95-3.39,3.39c-.29.04-.61.09-.96.14-.11.02-.19.11-.19.23s.08.21.19.23c.35.05.67.1.96.14q2.95.44,3.39,3.39c.04.29.09.61.14.96.02.11.11.19.23.19s.21-.08.23-.19c.05-.35.1-.67.14-.96q.44-2.95,3.39-3.39c.29-.04.61-.09.96-.14.11-.02.19-.11.19-.23s-.08-.21-.19-.23Z"/><path class="cls-3" d="M3379.99,1013.39c-.44-.07-.83-.13-1.2-.18q-3.69-.55-4.23-4.23c-.05-.36-.11-.76-.18-1.2-.02-.14-.14-.24-.28-.24s-.26.1-.28.24c-.07.44-.13.83-.18,1.2q-.55,3.69-4.23,4.23c-.36.05-.76.11-1.2.18-.14.02-.24.14-.24.28s.1.26.24.28c.44.07.83.13,1.2.18q3.69.55,4.23,4.23c.05.36.11.76.18,1.2.02.14.14.24.28.24s.26-.1.28-.24c.07-.44.13-.83.18-1.2q.55-3.69,4.23-4.23c.36-.05.76-.11,1.2-.18.14-.02.24-.14.24-.28s-.1-.26-.24-.28Z"/><path class="cls-3" d="M3579.71,815.83c-.44-.07-.83-.13-1.2-.18q-3.69-.55-4.23-4.23c-.05-.36-.11-.76-.18-1.2-.02-.14-.14-.24-.28-.24s-.26.1-.28.24c-.07.44-.13.83-.18,1.2q-.55,3.69-4.23,4.23c-.36.05-.76.11-1.2.18-.14.02-.24.14-.24.28s.1.26.24.28c.44.07.83.13,1.2.18q3.69.55,4.23,4.23c.05.36.11.76.18,1.2.02.14.14.24.28.24s.26-.1.28-.24c.07-.44.13-.83.18-1.2q.55-3.69,4.23-4.23c.36-.05.76-.11,1.2-.18.14-.02.24-.14.24-.28s-.1-.26-.24-.28Z"/><path class="cls-3" d="M3574.89,845.9c-.61-.1-1.17-.18-1.69-.25q-5.19-.77-5.96-5.96c-.08-.51-.16-1.07-.25-1.69-.03-.2-.2-.34-.4-.34s-.37.14-.4.34c-.1.61-.18,1.17-.25,1.69q-.77,5.19-5.96,5.96c-.51.08-1.07.16-1.69.25-.2.03-.34.2-.34.4s.14.37.34.4c.61.1,1.17.18,1.69.25q5.19.77,5.96,5.96c.08.51.16,1.07.25,1.69.03.2.2.34.4.34s.37-.15.4-.34c.1-.61.18-1.17.25-1.69q.77-5.19,5.96-5.96c.51-.08,1.07-.16,1.69-.25.2-.03.34-.2.34-.4s-.14-.37-.34-.4Z"/><path class="cls-3" d="M3248.91,574.13c-.55-.09-1.06-.16-1.52-.23q-4.67-.69-5.37-5.37c-.07-.46-.14-.97-.23-1.52-.03-.18-.18-.31-.36-.31s-.33.13-.36.31c-.09.55-.16,1.06-.23,1.52q-.69,4.67-5.37,5.37c-.46.07-.97.14-1.52.23-.18.03-.31.18-.31.36s.13.33.31.36c.55.09,1.06.16,1.52.23q4.67.69,5.37,5.37c.07.46.14.97.23,1.52.03.18.18.31.36.31s.33-.13.36-.31c.09-.55.16-1.06.23-1.52q.69-4.67,5.37-5.37c.46-.07.97-.14,1.52-.23.18-.03.31-.18.31-.36s-.13-.33-.31-.36Z"/><path class="cls-3" d="M3109.55,733.13l-.22-6.57c-.01-.37-.17-.67-.38-.7-.23-.03-.43.28-.44.7l-.25,6.57s0,.1,0,.15c0,.13.02.24.05.35-.02.11-.04.23-.05.35,0,.05,0,.11,0,.15l.22,6.57c.01.41.21.72.44.7.21-.02.37-.33.39-.7l.25-6.57c0-.18-.01-.35-.04-.51.03-.16.05-.33.05-.51Z"/><path class="cls-3" d="M3109,732.82l-4.8-4.49c-.27-.25-.6-.35-.77-.22-.18.14-.1.5.18.8l4.46,4.82s.07.07.11.11c.09.09.19.16.28.22.06.1.13.19.22.28.03.04.07.08.11.11l4.8,4.49c.3.28.66.36.8.18.13-.17.03-.5-.22-.77l-4.46-4.82c-.12-.13-.25-.24-.39-.33-.09-.13-.19-.27-.32-.39Z"/><path class="cls-3" d="M3108.39,732.98l-6.57.22c-.37.01-.67.17-.7.38-.03.23.28.43.7.44l6.57.25s.1,0,.15,0c.12,0,.24-.02.35-.05.11.02.23.04.35.05.05,0,.11,0,.15,0l6.57-.22c.41-.01.72-.21.7-.44-.02-.21-.33-.37-.7-.39l-6.57-.25c-.18,0-.35.01-.51.04-.16-.03-.33-.05-.51-.05Z"/><path class="cls-3" d="M3108.08,733.53l-4.49,4.8c-.25.27-.35.6-.22.77.14.18.5.1.8-.18l4.82-4.46s.08-.07.11-.11c.09-.09.16-.19.22-.28.1-.06.19-.13.28-.22.04-.03.08-.07.11-.11l4.49-4.8c.28-.3.36-.66.18-.8-.17-.13-.5-.03-.77.22l-4.82,4.46c-.13.12-.24.25-.33.39-.14.09-.27.19-.39.32Z"/><path class="cls-3" d="M3415.88,627.95l-.12-3.49c0-.2-.09-.36-.2-.37-.12-.01-.23.15-.23.37l-.14,3.49s0,.06,0,.08c0,.07.01.13.02.19-.01.06-.02.12-.03.19,0,.03,0,.06,0,.08l.12,3.49c0,.22.11.39.23.37.11-.01.2-.17.21-.37l.14-3.49c0-.09,0-.19-.02-.27.02-.08.03-.17.02-.27Z"/><path class="cls-3" d="M3415.59,627.79l-2.55-2.39c-.14-.13-.32-.19-.41-.12-.1.08-.05.27.1.43l2.37,2.57s.04.04.06.06c.05.05.1.08.15.12.03.05.07.1.11.15.02.02.04.04.06.06l2.55,2.39c.16.15.35.19.43.1.07-.09.02-.26-.12-.41l-2.37-2.57c-.06-.07-.14-.13-.21-.17-.05-.07-.1-.14-.17-.21Z"/><path class="cls-3" d="M3415.26,627.88l-3.49.12c-.2,0-.36.09-.37.2-.01.12.15.23.37.23l3.49.14s.06,0,.08,0c.07,0,.13-.01.19-.02.06.01.12.02.19.03.03,0,.06,0,.08,0l3.49-.12c.22,0,.39-.11.37-.23-.01-.11-.17-.2-.37-.21l-3.49-.14c-.09,0-.19,0-.27.02-.08-.02-.17-.03-.27-.02Z"/><path class="cls-3" d="M3415.1,628.17l-2.39,2.55c-.13.14-.19.32-.12.41.08.1.27.05.43-.1l2.57-2.37s.04-.04.06-.06c.05-.05.08-.1.12-.15.05-.03.1-.07.15-.11.02-.02.04-.04.06-.06l2.39-2.55c.15-.16.19-.35.1-.43-.09-.07-.26-.02-.41.12l-2.57,2.37c-.07.06-.13.14-.17.21-.07.05-.14.1-.21.17Z"/><path class="cls-3" d="M3508.72,840.09c-.44-.07-.85-.13-1.22-.18q-3.75-.56-4.3-4.3c-.06-.37-.11-.77-.18-1.22-.02-.14-.14-.25-.29-.25s-.27.1-.29.25c-.07.44-.13.85-.18,1.22q-.56,3.75-4.3,4.3c-.37.05-.77.11-1.22.18-.14.02-.25.14-.25.29s.1.27.25.29c.44.07.85.13,1.22.18q3.75.56,4.3,4.3c.05.37.11.77.18,1.22.02.14.14.25.29.25s.27-.1.29-.25c.07-.44.13-.85.18-1.22q.56-3.74,4.3-4.3c.37-.05.77-.11,1.22-.18.14-.02.25-.14.25-.29s-.1-.27-.25-.29Z"/><path class="cls-3" d="M3171.73,854.62c-.44-.07-.85-.13-1.22-.18q-3.75-.56-4.3-4.3c-.05-.37-.11-.77-.18-1.22-.02-.14-.14-.25-.29-.25s-.27.1-.29.25c-.07.44-.13.85-.18,1.22q-.56,3.75-4.3,4.3c-.37.05-.77.11-1.22.18-.14.02-.25.14-.25.29s.1.27.25.29c.44.07.85.13,1.22.18q3.75.56,4.3,4.3c.05.37.11.77.18,1.22.02.14.14.25.29.25s.27-.1.29-.25c.07-.44.13-.85.18-1.22q.56-3.74,4.3-4.3c.37-.05.77-.11,1.22-.18.14-.02.25-.14.25-.29s-.1-.27-.25-.29Z"/><path class="cls-3" d="M3505.24,919.75c-.26-.04-.49-.07-.7-.11q-2.16-.32-2.49-2.49c-.03-.21-.07-.45-.11-.7-.01-.08-.08-.14-.17-.14s-.15.06-.17.14c-.04.26-.07.49-.11.7q-.32,2.16-2.49,2.49c-.21.03-.45.07-.7.11-.08.01-.14.08-.14.17s.06.15.14.17c.26.04.49.07.7.11q2.16.32,2.49,2.49c.03.21.07.45.11.7.01.08.08.14.17.14s.15-.06.17-.14c.04-.26.07-.49.11-.7q.32-2.16,2.49-2.49c.21-.03.45-.07.7-.11.08-.01.14-.08.14-.17s-.06-.15-.14-.17Z"/><path class="cls-3" d="M3186.69,677.08c-.16-.02-.3-.05-.43-.07q-1.33-.2-1.53-1.53c-.02-.13-.04-.27-.07-.43,0-.05-.05-.09-.1-.09s-.09.04-.1.09c-.02.16-.05.3-.07.43q-.2,1.33-1.53,1.53c-.13.02-.27.04-.43.07-.05,0-.09.05-.09.1s.04.09.09.1c.16.02.3.05.43.07q1.33.2,1.53,1.53c.02.13.04.27.07.43,0,.05.05.09.1.09s.09-.04.1-.09c.02-.16.05-.3.07-.43q.2-1.33,1.53-1.53c.13-.02.27-.04.43-.07.05,0,.09-.05.09-.1s-.04-.09-.09-.1Z"/><path class="cls-3" d="M3142.75,881.1c-.2-.03-.38-.06-.54-.08q-1.66-.25-1.91-1.91c-.02-.16-.05-.34-.08-.54,0-.06-.06-.11-.13-.11s-.12.05-.13.11c-.03.2-.06.38-.08.54q-.25,1.66-1.91,1.91c-.16.02-.34.05-.54.08-.06,0-.11.06-.11.13s.05.12.11.13c.2.03.38.06.54.08q1.66.25,1.91,1.91c.02.16.05.34.08.54,0,.06.06.11.13.11s.12-.05.13-.11c.03-.2.06-.38.08-.54q.25-1.66,1.91-1.91c.16-.02.34-.05.54-.08.06,0,.11-.06.11-.13s-.05-.12-.11-.13Z"/><path class="cls-3" d="M3438.49,618.52l-.09-2.72c0-.15-.07-.28-.16-.29-.09-.01-.18.12-.18.29l-.11,2.72s0,.04,0,.06c0,.05,0,.1.02.15-.01.05-.02.09-.02.15,0,.02,0,.04,0,.06l.09,2.72c0,.17.09.3.18.29.09-.01.15-.14.16-.29l.11-2.72c0-.07,0-.14-.02-.21.01-.06.02-.14.02-.21Z"/><path class="cls-3" d="M3438.26,618.39l-1.99-1.86c-.11-.1-.25-.15-.32-.09-.07.06-.04.21.07.33l1.85,2s.03.03.04.05c.04.04.08.06.12.09.03.04.05.08.09.12.01.02.03.03.04.05l1.99,1.86c.12.12.27.15.33.08.05-.07.01-.2-.09-.32l-1.85-2c-.05-.05-.11-.1-.16-.14-.04-.06-.08-.11-.13-.16Z"/><path class="cls-3" d="M3438.01,618.46l-2.72.09c-.15,0-.28.07-.29.16-.01.09.12.18.29.18l2.72.11s.04,0,.06,0c.05,0,.1,0,.15-.02.05.01.09.02.15.02.02,0,.04,0,.06,0l2.72-.09c.17,0,.3-.09.29-.18,0-.09-.14-.15-.29-.16l-2.72-.11c-.07,0-.14,0-.21.02-.06-.01-.14-.02-.21-.02Z"/><path class="cls-3" d="M3437.88,618.68l-1.86,1.99c-.1.11-.15.25-.09.32.06.07.21.04.33-.07l2-1.85s.03-.03.05-.05c.04-.04.06-.08.09-.12.04-.03.08-.05.12-.09.02-.01.03-.03.05-.04l1.86-1.99c.12-.12.15-.27.08-.33-.07-.05-.2-.01-.32.09l-2,1.85c-.05.05-.1.11-.14.16-.06.04-.11.08-.16.13Z"/><path class="cls-3" d="M3536.29,771.15c-.58-.09-1.11-.17-1.59-.24q-4.89-.73-5.62-5.62c-.07-.48-.15-1.01-.24-1.59-.03-.19-.19-.32-.38-.32s-.35.14-.38.32c-.09.58-.17,1.11-.24,1.59q-.73,4.89-5.62,5.62c-.48.07-1.01.15-1.59.24-.18.03-.32.19-.32.38s.14.35.32.38c.58.09,1.11.17,1.59.24q4.89.73,5.62,5.62c.07.48.15,1.01.24,1.59.03.19.19.32.38.32s.35-.14.38-.32c.09-.58.17-1.11.24-1.59q.73-4.89,5.62-5.62c.48-.07,1.01-.15,1.59-.24.19-.03.32-.19.32-.38s-.14-.35-.32-.38Z"/><path class="cls-3" d="M3100.22,746.47c-.34-.05-.66-.1-.95-.14q-2.91-.43-3.35-3.35c-.04-.29-.09-.6-.14-.95-.02-.11-.11-.19-.22-.19s-.21.08-.22.19c-.05.34-.1.66-.14.95q-.43,2.91-3.35,3.35c-.29.04-.6.09-.95.14-.11.02-.19.11-.19.22s.08.21.19.22c.34.05.66.1.95.14q2.91.43,3.35,3.35c.04.29.09.6.14.95.02.11.11.19.22.19s.21-.08.22-.19c.05-.34.1-.66.14-.95q.43-2.91,3.35-3.35c.29-.04.6-.09.95-.14.11-.02.19-.11.19-.22s-.08-.21-.19-.22Z"/><path class="cls-3" d="M3427.46,953.6c-.2-.03-.38-.06-.55-.08q-1.68-.25-1.93-1.93c-.02-.17-.05-.35-.08-.55,0-.06-.06-.11-.13-.11s-.12.05-.13.11c-.03.2-.06.38-.08.55q-.25,1.68-1.93,1.93c-.17.02-.35.05-.55.08-.06,0-.11.06-.11.13s.05.12.11.13c.2.03.38.06.55.08q1.68.25,1.93,1.93c.02.17.05.35.08.55,0,.06.06.11.13.11s.12-.05.13-.11c.03-.2.06-.38.08-.55q.25-1.68,1.93-1.93c.17-.02.35-.05.55-.08.06,0,.11-.06.11-.13s-.05-.12-.11-.13Z"/><path class="cls-3" d="M3403.34,599.19c-.12-.02-.23-.04-.34-.05q-1.04-.15-1.19-1.19c-.02-.1-.03-.21-.05-.34,0-.04-.04-.07-.08-.07s-.07.03-.08.07c-.02.12-.04.23-.05.34q-.15,1.04-1.19,1.19c-.1.02-.21.03-.34.05-.04,0-.07.04-.07.08s.03.07.07.08c.12.02.23.04.34.05q1.04.15,1.19,1.19c.02.1.03.21.05.34,0,.04.04.07.08.07s.07-.03.08-.07c.02-.12.04-.23.05-.34q.15-1.04,1.19-1.19c.1-.02.21-.03.34-.05.04,0,.07-.04.07-.08s-.03-.07-.07-.08Z"/><path class="cls-3" d="M3283.22,967.7c-.15-.02-.29-.04-.42-.06q-1.29-.19-1.49-1.49c-.02-.13-.04-.27-.06-.42,0-.05-.05-.09-.1-.09s-.09.04-.1.09c-.02.15-.04.29-.06.42q-.19,1.29-1.49,1.49c-.13.02-.27.04-.42.06-.05,0-.09.05-.09.1s.04.09.09.1c.15.02.29.04.42.06q1.29.19,1.49,1.49c.02.13.04.27.06.42,0,.05.05.09.1.09s.09-.04.1-.09c.02-.15.04-.29.06-.42q.19-1.29,1.49-1.49c.13-.02.27-.04.42-.06.05,0,.09-.05.09-.1s-.04-.09-.09-.1Z"/><polygon class="cls-3" points="3411.68 836.77 3386.61 834.62 3402.81 815.37 3383.57 831.57 3381.41 806.5 3379.26 831.57 3360.01 815.37 3376.22 834.62 3351.15 836.77 3376.22 838.92 3360.01 858.17 3379.26 841.97 3381.41 867.03 3383.57 841.97 3402.81 858.17 3386.61 838.92 3411.68 836.77"/><path class="cls-3" d="M3355.39,829.41c1.59.65,3.4-.1,4.05-1.69.65-1.59-.1-3.4-1.69-4.05-1.59-.65-3.4.1-4.05,1.69-.65,1.59.1,3.4,1.69,4.05Z"/><path class="cls-3" d="M3372.27,814.84h0c1.58-.66,2.33-2.48,1.67-4.06-.66-1.58-2.48-2.33-4.06-1.67h0c-1.58.66-2.33,2.48-1.67,4.06.66,1.58,2.48,2.33,4.06,1.67Z"/><path class="cls-3" d="M3403.33,827.61s.01.02.02.04c0,.01,0,.02.01.03h0c.66,1.59,2.47,2.34,4.06,1.68,1.58-.66,2.34-2.47,1.68-4.06h0s-.02-.03-.02-.04c0-.02,0-.03-.01-.05h0c-.66-1.58-2.48-2.33-4.06-1.67-1.58.66-2.33,2.48-1.67,4.06h0Z"/><path class="cls-3" d="M3390.44,814.8c1.59.65,3.4-.11,4.05-1.69.65-1.59-.11-3.4-1.69-4.05-1.59-.65-3.4.11-4.05,1.69-.65,1.59.11,3.4,1.69,4.05Z"/><path class="cls-3" d="M3390.52,858.71h0c-1.58.66-2.34,2.48-1.68,4.06s2.48,2.34,4.06,1.68h0c1.58-.66,2.34-2.47,1.68-4.06-.66-1.58-2.47-2.34-4.06-1.68Z"/><path class="cls-3" d="M3355.42,844.22c-1.58.66-2.33,2.48-1.67,4.06.66,1.58,2.48,2.33,4.06,1.68s2.33-2.48,1.68-4.06c-.66-1.58-2.48-2.33-4.06-1.68Z"/><path class="cls-3" d="M3407.42,844.17c-1.59-.66-3.4.1-4.06,1.68h0c-.66,1.58.1,3.4,1.68,4.06,1.59.66,3.4-.1,4.06-1.68h0c.66-1.59-.1-3.4-1.68-4.06Z"/><path class="cls-3" d="M3372.35,858.73h0c-1.59-.65-3.4.1-4.06,1.69-.65,1.59.1,3.4,1.69,4.06h0c1.59.65,3.4-.1,4.06-1.69.65-1.59-.1-3.4-1.69-4.06Z"/></g></svg>