<?xml version="1.0" encoding="UTF-8"?><svg id="_レイヤー_2" xmlns="http://www.w3.org/2000/svg" viewBox="0 0 324.75 115.15"><defs><style>.cls-1{fill:none;stroke:#b19552;stroke-miterlimit:10;stroke-width:1.25px;}.cls-2{fill:#b19552;}</style></defs><g id="_飾り"><circle class="cls-1" cx="162.69" cy="57.57" r="56.95"/><polygon class="cls-2" points="248.37 56.39 324.75 57.26 324.75 57.89 248.37 58.76 248.37 56.39"/><path class="cls-2" d="M150.06,15.31c-.12.22-.19.35-.26.48-.09-.02-.19-.04-.29-.06.04-.28.26-.31.55-.42Z"/><path class="cls-2" d="M139.44,17.71c-.26.09-.49.18-.72.26.31-.34.42-.37.72-.26Z"/><path class="cls-2" d="M138.96,18.89c-.08.06-.2.09-.26.16-.14.15-.22.05-.33-.06.12-.14.21-.34.36-.39.22-.08.31-.22.38-.43.17.12.14.44.44.32,0,.14,0,.24,0,.39-.22-.21-.4-.14-.58.01Z"/><path class="cls-2" d="M140.78,15.64c-.06.13-.1.21-.15.33-.11-.2-.03-.26.15-.33Z"/><path class="cls-2" d="M137.76,18.25c.08-.02.16-.05.24-.07,0,.03.02.06.03.08-.08.03-.16.05-.24.08-.01-.03-.02-.06-.03-.09Z"/><path class="cls-2" d="M137.98,19.39c-.13.06-.26.12-.42.2-.02-.12-.04-.2-.06-.29.17,0,.31,0,.45,0,0,.03.02.06.03.09Z"/><path class="cls-2" d="M148.38,14.16s.02.04.03.08c-.08.04-.16.08-.29.15.02-.24.1-.3.26-.23Z"/><path class="cls-2" d="M149.35,16.39c-.14.02-.25-.07-.24-.23.17-.1.34-.19.56-.31-.06.28-.08.5-.32.54Z"/><polygon class="cls-2" points="138.2 19.82 138.19 19.82 138.19 19.82 138.2 19.82"/><path class="cls-2" d="M140.27,17.05c.2-.09.38-.17.57-.26-.05.29-.25.38-.57.26Z"/><path class="cls-2" d="M140.94,15.59c.04-.05.09-.11.13-.16.02.02.04.03.06.05-.04.06-.08.11-.12.17-.02-.02-.05-.04-.07-.06Z"/><path class="cls-2" d="M133.16,19.72c-.13.11-.23.26-.44.3.02-.08.03-.13.04-.18q.2-.28.41-.13Z"/><path class="cls-2" d="M138.15,19.71c.11-.14.23-.27.36-.43.19.09.21.2.02.33-.11.07-.22.13-.33.2-.05-.07-.09-.13-.14-.2.03.03.06.06.09.09Z"/><path class="cls-2" d="M132.75,19.85s0,0,0,0h0s0,0,0,0c0,0,0,0,0,0,0,0,0,0,0,.01Z"/><polygon class="cls-2" points="138.2 19.82 138.19 19.82 138.2 19.81 138.2 19.82"/><path class="cls-2" d="M144.13,15.55s.1,0,.22,0c-.16.22-.34.38-.4.58-.12.39-.41.56-.78.76-.01-.29-.23-.33-.42-.4.21-.1.46-.17.6-.33.23-.25.53-.41.79-.61Z"/><path class="cls-2" d="M134.31,17.08c.33-.1.44-.47.78-.54-.09.58-.22.67-.78.54Z"/><path class="cls-2" d="M136.23,18.33s.07,0,.07.02c0,.06,0,.12,0,.18-.03,0-.07,0-.1,0,.01-.07.02-.13.03-.2Z"/><path class="cls-2" d="M135,21.86c.14-.23.35-.3.65-.26-.14.34-.38.43-.65.26Z"/><path class="cls-2" d="M118.61,77.82c-.1-.06-.27.03-.28-.16.06,0,.13.03.18,0,.25-.08.09.09.1.15Z"/><path class="cls-2" d="M121.24,79.92s.1-.07.18-.11c0,.14,0,.24,0,.34-.16-.03-.26-.07-.17-.23Z"/><path class="cls-2" d="M122.66,80.6c0,.05-.02.11-.04.16-.03,0-.06-.02-.09-.03.02-.05.04-.11.06-.16l.07.02Z"/><path class="cls-2" d="M120.65,79.78c.18.16.22.31.11.51q-.08.16-.28.11c.08-.1.15-.2.23-.32-.14-.11-.26-.2-.38-.29.18-.13.18-.13.32-.01Z"/><path class="cls-2" d="M119.26,77.96s-.05,0-.07,0c0-.06-.02-.12-.02-.19,0,0,.05-.01.07-.02,0,.06.02.13.03.19Z"/><path class="cls-2" d="M121.4,82.18c.07.16.09.34.14.56-.3.03-.29-.28-.44-.41-.11-.1-.09-.26.08-.4.08.08.18.15.22.24Z"/><path class="cls-2" d="M122.92,82.66c-.08.03-.15.05-.29.1.07-.15.12-.25.2-.42.05.16.07.24.09.32Z"/><path class="cls-2" d="M122.92,80.46c.11.18.19.31.27.43-.03.02-.06.03-.09.05-.06-.14-.3-.18-.18-.49Z"/><path class="cls-2" d="M123.32,83.31c-.03.05-.06.11-.09.16-.02-.01-.06-.03-.06-.04.01-.06.04-.11.06-.16.03.01.06.03.09.04Z"/><path class="cls-2" d="M122.92,82.66s0,0,0,0c0,0,0,0,.01,0h-.01Z"/><path class="cls-2" d="M122.92,82.66h.01s0,0,0,.01c0,0-.01,0-.02-.01Z"/><path class="cls-2" d="M122.99,82.92c-.02-.1-.04-.17-.06-.25.06.05.24.06.06.25Z"/><path class="cls-2" d="M112.09,57.03c-.3,27.64,21.94,50.36,49.58,50.66,15.57.17,29.58-6.82,38.9-17.9-6.87,5.05-15.37,7.99-24.54,7.89-22.5-.24-40.55-18.68-40.3-41.18.24-22.5,18.68-40.55,41.18-40.3,7.57.08,14.63,2.23,20.66,5.89-8.94-8.91-21.22-14.49-34.82-14.64-27.64-.3-50.37,21.94-50.66,49.58ZM180.56,99.26s-.1.08-.15.08c-.17,0-.22-.11-.23-.28.09,0,.17-.02.26-.03.03.02.06.04.09.06.04.03.06.13.04.17ZM186.2,98.39c.11-.21.19-.32.3-.38.05-.01.1-.02.14-.03.1,0,.21,0,.38.05-.08.52-.53.17-.82.36ZM182.85,99.91c.07-.03.14-.05.21-.08.01.04.02.07.03.11-.07.02-.14.03-.21.05,0-.03-.02-.05-.02-.08ZM180.8,100.01c.26-.17.43-.43.77-.39.18.46-.3.37-.41.59-.13-.07-.23-.12-.36-.2ZM179.07,101.81c.17-.04.36-.03.54-.04.1,0,.21,0,.31-.02.2-.06.39-.13.6-.2.27.3.27.34,0,.51-.1.06-.21.12-.3.2-.35.35-.78.54-1.24.68-.01-.11-.07-.24-.17-.37-.18-.24-.04-.69.25-.76ZM175.85,103.33c.2-.2.39-.41.6-.59.16-.14.26-.11.4.08-.28.26-.5.62-.93.63-.02-.04-.05-.08-.07-.11ZM174.85,101.54c-.25.07-.31-.06-.35-.28.09,0,.16.03.2,0,.31-.22.66-.26,1.02-.27.18,0,.3.08.28.31-.12-.07-.22-.12-.32-.17-.04.37-.04.38-.41.42-.14.02-.29-.04-.42,0ZM174,102.8c-.05-.25-.04-.49.06-.72.11-.03.21-.05.29-.09.09-.05.14-.2.31-.12-.1.23-.2.44-.34.74-.06-.14-.09-.22-.15-.36-.09.25.05.47-.18.54ZM173.66,102.64c.11.05.22.11.33.16-.25.07-.26.07-.33-.16ZM173.64,102.62c-.09,0-.18-.02-.29-.03-.01-.15-.02-.29-.03-.44.18.13.45.19.32.46ZM171.53,103.36c.09-.01.16-.05.21-.03.2.09.34.04.47-.13.05-.07.18-.09.27-.12.09-.03.19-.06.28-.09.1.07.21.14.32.21.02.01.05,0,.07,0,.15-.04.15-.04.25.19-.17.03-.34.07-.48.1-.06.09-.11.17-.17.24-.06.07-.15.12-.17.14-.18,0-.32,0-.46.01-.17,0-.33.01-.53.02-.02-.19-.04-.35-.06-.54ZM167.51,105.4c-.01-.24.17-.3.34-.38.14-.06.29-.12.43-.2.64-.34,1.31-.6,2.04-.73.07.13.13.24.2.37-.11.08-.21.14-.32.21.07.15.14.31.2.46-.23.07-.45.13-.68.2-.01-.04-.05-.11-.06-.19-.03-.11-.02-.28-.2-.23-.16.05-.1.19-.05.3,0,.02-.02.04-.03.07-.02,0-.05.01-.07.02-.29.09-.64-.03-.89.25-.04.05-.24.03-.29-.03-.18-.22-.39-.16-.61-.13ZM167.32,105.61c.05-.06.1-.12.16-.18l.03-.02c.08.1.06.19-.05.24-.03.01-.09-.03-.13-.04ZM114.82,44.88h-.05c0-.1,0-.2,0-.3h.05c0,.1,0,.2,0,.3ZM115.45,47.31c-.06.16-.11.29-.15.43.12.15.13.15.27.12.1.4-.03.58-.48.61-.2.01-.39-.03-.48.22-.01.04-.08.09-.12.08-.23,0-.33.19-.48.31-.09.07-.18.14-.29.22-.09-.31.05-.63-.12-.84.16-.84.34-1.68.54-2.5.2.07.26-.15.39-.25.2.24-.07.58.21.8.11-.07.22-.13.28-.17.06.19.18.4.15.59-.03.25.09.32.29.38ZM114.12,50.49s.07,0,.11.01c-.06.21-.11.43-.16.64-.03,0-.06-.02-.1-.02.05-.21.1-.42.15-.63ZM114.73,55.03c-.08.04-.16.07-.26.12-.03-.14-.05-.25-.07-.35.12.04.21.07.29.11.02.01.03.06.05.12ZM114.68,54.64c.02-.15.05-.31.08-.51.2.22.06.37.03.53-.03,0-.07,0-.1-.01ZM114.36,54.62q-.16-.25.05-.32c-.02.12-.04.22-.05.32ZM115.4,52.22c.15-.33.1-.65.29-.99.08.41-.05.86-.29.99ZM115.63,49.19c-.11-.2-.02-.38.1-.61,0,.24,0,.43,0,.61-.03,0-.06,0-.1,0ZM115.55,42.56c-.03.08-.06.16-.09.25-.02,0-.05-.02-.07-.02.03-.08.06-.17.08-.25.02,0,.05.02.07.03ZM116.01,44.07s-.04.02-.06.03c-.02-.06-.04-.11-.06-.17.02-.01.05-.02.07-.03.02.06.04.11.05.17ZM115.89,44.54c.16.25-.02.34-.15.47-.09-.21-.01-.34.15-.47ZM116.09,39.7s-.02.02-.03.03c0-.01.01-.03.02-.04,0,0,0,0,.01.01ZM117.11,42.08c-.02.06-.04.12-.06.18-.02,0-.07-.02-.07-.02.01-.06.03-.12.05-.18.03,0,.05.02.08.02ZM117.76,42.36c-.06.23-.13.47-.2.7-.08-.07-.17-.09-.17-.26,0-.27.14-.45.3-.65.05.07.08.14.07.21ZM117.75,41.85s-.02-.04-.03-.07c.15-.08.3-.16.51-.27-.03.17-.04.27-.06.37-.16-.02-.29-.03-.43-.04ZM117.91,39.83c.17-.19.34-.37.55-.61.01.3-.08.44-.21.58-.07.08-.12.18-.17.28-.14.13-.38.16-.41.4,0,0,0,0,0,0-.05.08-.1.16-.15.24-.02-.02-.05-.05-.07-.07.01-.2.03-.4.04-.63q.18-.22.41-.19ZM118.03,38.83c-.05.07-.1.13-.19.26-.04-.26-.04-.26.12-.32.01,0,.03.03.07.06ZM118.49,37.9s-.06.08-.1.11l-.05-.03c.02-.07.04-.14.06-.21.02,0,.04,0,.06,0,0,.04.03.09.02.12ZM119.15,39c-.09.14-.17.29-.3.5-.04-.32.11-.43.24-.55.02.02.04.03.06.05ZM119.16,39.7c.06.17.14.3.11.35-.15.27,0,.64-.27.87-.32-.15-.09-.36-.06-.59-.28.16-.25.44-.36.57.08.28.15.53.23.81-.14.02-.23.03-.33.04-.06-.24-.17-.44-.07-.67.07-.17-.06-.19-.19-.24-.17.31-.27.7-.74.59-.02-.33.01-.42.15-.67.04-.08.05-.19.07-.28.2-.07.41-.12.4-.4.12.05.23.1.34.14.11-.12.22-.24.36-.39.05.15.08.23.12.34.08-.16.14-.28.25-.48ZM121.89,32.9c-.2.13-.16.49-.52.37.09-.18.17-.35.27-.55.09.07.15.1.25.17ZM122.44,32.71c-.03.09-.07.18-.13.36-.09-.1-.18-.16-.19-.22,0-.15.15-.15.25-.18.01,0,.04.03.07.05ZM122.16,33.15s.07.01.11.02c-.03.12-.06.23-.09.35-.03,0-.05-.01-.08-.02.02-.12.04-.23.07-.35ZM124.39,26.9c.1-.17.06-.43.34-.51.02.13.07.24.05.35-.03.17-.06.39-.17.47-.22.16-.38.33-.46.6-.06.22-.21.3-.47.29.05-.14.1-.27.15-.41.04-.13-.23-.26,0-.38.07.04.13.07.19.1.13-.18.26-.34.36-.51ZM124.82,25.69c-.11.15-.18.25-.26.35q-.02-.24.26-.35ZM125.06,26.18s-.09-.02-.14-.02c.02-.1.05-.2.08-.35.17.18.15.28.05.38ZM125.63,25.67c-.06.22-.18.24-.36.28.06-.22.19-.24.36-.28ZM125.62,26.57c-.04.23-.17.29-.46.25.15-.2.24-.33.46-.25ZM126.11,25.06c-.09.08-.15.14-.23.21.07.17.19.35-.09.54.02-.13.06-.2.04-.27-.12-.4-.12-.4.29-.48ZM126.51,23.36s-.05.1-.08.15c-.06.12-.17.28-.28.31-.08.02-.14.07-.19.11.18-.19.37-.37.55-.56ZM127.8,22.57c.03.39-.67,1.08-1.09,1.11.35-.36.7-.72,1.09-1.11ZM127.51,24.43s.11-.02.14,0c.03.02.06.11.04.13-.06.09-.14.16-.25.29-.07-.2-.06-.32.08-.42ZM127.87,23.81s.08.04.12.06c-.04.06-.08.13-.13.18,0,0-.06-.03-.1-.05.03-.07.07-.13.1-.2ZM129.29,21.1c-.25.44-.56.76-1.03.91-.09.03-.17.07-.24.13-.13.09-.24.17-.42.18-.04,0-.09.03-.13.06.2-.2.4-.39.6-.58.31-.13.61-.3.87-.52.09-.07.15-.22.35-.18ZM128.24,22.7s-.04-.06-.06-.09c.16-.11.32-.22.47-.33.02.03.05.06.07.1-.16.11-.32.22-.48.32ZM128.67,23.21c-.07.14-.14.28-.24.49-.17-.43-.11-.52.24-.49ZM129.71,21.48c-.11.22-.22.2-.37.15.12-.05.21-.09.37-.15ZM129.85,24.75s-.08.04-.09.04c-.03-.04-.05-.09-.08-.14.03-.01.05-.03.08-.04.03.05.05.09.08.14ZM131.42,23.03c-.09.12-.17.23-.26.35-.03-.02-.05-.04-.08-.06.03-.16.08-.3.33-.29ZM132.31,22.12c-.08,0-.15-.01-.27-.02.19-.13.33-.23.47-.33.18.08.34.16.53.24.06.21.08.42-.15.56-.22.13-.43.26-.65.4-.06.04-.1.12-.16.18-.04.04-.1.06-.15.08,0-.16-.05-.37.01-.42.24-.18.25-.46.36-.69ZM132.31,19.46c-.12.14-.19.22-.26.3-.02-.02-.05-.04-.07-.07.04-.11.11-.18.33-.23ZM132.92,18.94c-.1.06-.16.11-.26.17q.09-.19.26-.17ZM149.67,10.19h-.01s0,.02,0,.02c0,0,0,0,0,0,.41-.14.47-.14.62.02-.21.16-.42.31-.63.47h0s0,0,0,0c0,0,0,0,0,0-.19.28-.46.48-.77.6-.17.06-.27.14-.37.28-.11.16-.12.15-.36.1,0-.02,0-.05.01-.07,0-.03,0-.05.01-.08-.04-.01-.08-.04-.11-.03-.29.08-.61.09-.85.32q.19.14.49-.11s.09.08.14.12c-.03.04-.05.07-.07.1-.14.15-.28.3-.41.46-.18.22-.44.27-.7.3-.12.01-.22-.02-.32.1-.05.06-.16.09-.25.1-.15.01-.3,0-.47,0,.05-.13.1-.25.15-.39.05.03.12.09.13.08.2-.2.48-.11.69-.21.2-.1.34-.31.52-.48-.34-.17-.57-.1-.89.24-.03-.05-.05-.09-.09-.16-.18.24-.55-.1-.68.28-.09-.06-.16-.11-.26-.18-.08.17-.16.35-.38.25.18-.22.56-.34.36-.8-.13.04-.26.08-.41.13.17.42-.34.44-.39.75-.18-.14-.32-.14-.48,0-.09.08-.22.12-.34.17-.02,0-.07-.06-.13-.11-.2.22-.45.29-.75.22-.09-.02-.2.04-.3.06-.17.03-.34.03-.5.07-.23.06-.45.13-.68.21-.22.08-.44.18-.6.24-.44.75-1.11,1.12-1.85,1.41-.1-.06-.2-.12-.28-.18-.26.12-.52.24-.78.36-.05-.05-.08-.1-.12-.14.36-.21.71-.41,1.07-.6-.02.01-.03.03-.05.04.04,0,.08,0,.11-.01.29-.17.58-.34.86-.52.69-.36,1.39-.7,2.09-1.02-.01.02-.02.03-.03.05.12,0,.22.03.27,0,.16-.11.31-.24.46-.35.19-.08.38-.17.58-.25.08,0,.16-.02.2-.09,1.55-.65,3.13-1.23,4.76-1.72.03.12.06.24.09.36.24.02.2-.2.27-.35.09.08.17.15.26.22.23-.08.42-.35.7-.14.02.01.1-.08.16-.09.09-.02.19-.01.29-.01ZM138.35,15.79s-.04.09-.07.14c-.28-.27-.28-.38.05-.54-.11.17-.11.3.02.4ZM139.71,15.37c-.16.08-.28.13-.4.19q.13-.22.4-.19ZM140.62,14.32s.06,0,.08,0c0,.11.02.21.03.32-.05,0-.1,0-.14,0,.01-.11.02-.22.03-.33ZM145.25,13.87c.02-.1.04-.2.11-.25.22-.18.43-.39.77-.37.16,0,.33-.13.58-.24-.31.72-.93.7-1.45.86ZM146.7,13.9c.02.1.05.15.03.18-.02.03-.07.06-.11.07l-.06-.07s.07-.09.14-.17ZM148.2,12.98c-.1.09-.2.18-.31.28-.03-.03-.09-.1-.15-.17q.23-.17.46-.1ZM148.98,11.8c.07,0,.13.01.2.02,0,.03-.01.07-.02.1-.06-.02-.13-.04-.19-.06,0-.02,0-.04.01-.06ZM149.57,11.74s0,.04,0,.06c-.08.02-.15.03-.23.05,0-.03,0-.06-.01-.09.08,0,.15-.01.23-.02ZM151.28,9.4c-.24.27-.59.09-.83.26-.23.16-.46-.02-.68.02.47-.12.94-.24,1.42-.35.03.02.06.03.09.06ZM151.02,11.31s-.03-.04-.04-.06c.06-.03.13-.05.19-.08.05-.1.11-.21.16-.31.12.26.11.27-.14.33-.06.04-.11.08-.17.11ZM151.23,11.82s.05.04.08.06c-.03.03-.07.09-.1.09-.04,0-.08-.05-.16-.11.1-.03.14-.05.18-.04ZM151.44,12.05c.1.18.17.33-.13.38.02-.13-.06-.29.13-.38ZM154.01,9.26c.38.07.76.14,1.14.12.4-.02.79-.14,1.2-.22.02.13.03.23.05.32.25,0,.46.02.67,0,.21-.02.41-.08.62-.12,0,.03.02.05.03.08-.13.07-.27.14-.39.23-.1.07-.36-.03-.28.27.12-.04.23-.08.37-.13.03.14.06.24.09.39-.22-.04-.4,0-.55-.13-.06-.05-.17-.05-.26-.04-.15.01-.31.05-.44.07-.04-.09-.06-.16-.09-.22-.11.06-.21.12-.35.2-.38-.26-.57.26-.95.29-.07-.2-.24-.09-.38-.05-.06.02-.11.05-.17.08-.1-.23-.3-.03-.43-.09.01-.07.02-.13.04-.24q-.14.22-.09.46c-.2.22-.47.26-.76.27-.24.01-.5-.13-.73.04,0,.14.02.28.03.39-.31.09-.58.16-.86.24.02-.09.02-.15.04-.22.01-.05.04-.1.06-.14q.39.03.62-.25c-.08-.02-.15-.06-.22-.06-.22,0-.45.02-.67.03-.19-.19-.18-.23.04-.57q.23.22.5.06c.06-.03.11-.07.17-.1.24-.13.48-.28.73-.37.23-.08.51-.06.61-.36,0-.02.05-.05.06-.04.25.07.38-.15.56-.21ZM152.81,14.83c-.11-.13-.1-.24.08-.42-.09.19.25.32-.08.42ZM152.89,17.44s-.13,0-.24,0c.06-.13.1-.23.16-.37.11.15.21.24.08.37ZM152.56,12.44c.1-.13.17-.3.3-.36.39-.2.73-.59,1.24-.39.02,0,.05.01.08,0,.18,0,.39-.05.55,0,.16.05.27.22.4.34.02.01.02.04.04.08-.07.02-.14.05-.15.05-.1.17-.15.33-.25.43-.12.12-.28.23-.44.26-.31.06-.63.05-.94.07-.14,0-.29.02-.39.02-.16-.18-.29-.33-.45-.51ZM153.79,14.17c-.18.01-.31.02-.44.03-.03-.08-.06-.17-.08-.24.35-.3.74-.2,1.15-.18,0,.14,0,.25,0,.34-.14.09-.26.17-.38.25-.11.08-.2.21-.45.15.07-.13.12-.22.19-.36ZM154.33,17.1c-.05.15-.09.25-.14.4-.07-.19-.13-.32.14-.4ZM154.52,10.99s0-.04,0-.08c.09,0,.17.01.32.02-.16.16-.24.15-.31.06ZM152.56,11.57s-.05-.04-.11-.09c.08-.02.12-.03.17-.03.02,0,.03.05.04.08-.03.01-.07.04-.1.04ZM156.28,18.08c-.12.04-.2.07-.29.09-.1-.13-.19-.26-.3-.42.32-.13.45-.12.53.04.04.09.04.19.06.28ZM156.15,10.45s0-.05-.01-.08c.11-.03.21-.05.32-.08,0,.04.02.07.03.11-.11.02-.22.03-.33.05ZM155.37,13.67c-.15-.33.09-.41.3-.52.12.05.22.09.35.14-.26.11-.31.48-.65.38ZM157.69,10.04c.13-.19.13-.19.27-.14.01,0,.02.04.04.1-.1.01-.19.03-.31.05ZM158,13.88c-.05.25-.14.28-.35.24.13-.09.21-.14.35-.24ZM155.68,8.53c-.05.04-.09.06-.15.1-.23-.08-.48-.02-.74.12-.16.09-.39.24-.59.02.01-.01.02-.02.03-.03.48-.08.96-.15,1.45-.22ZM156.58,8.42c-.05.06-.11.12-.16.18-.02-.02-.04-.03-.06-.05.02-.03.05-.08.08-.12.05,0,.1-.01.15-.02ZM157.17,8.35c-.13.07-.26.13-.4.2-.02-.03-.04-.06-.06-.09.02-.03.06-.04.09-.07.12-.01.24-.03.37-.04ZM158.29,8.53c-.5.25-.51.25-.94.07.35-.06.64-.1.93-.15,0,.03,0,.06,0,.09ZM159.05,8.54c-.11.03-.21.07-.32.11,0-.03-.02-.05-.02-.08.11-.03.21-.07.32-.1,0,.03.02.05.03.08ZM163.56,10.49c-.07.07-.15.14-.22.22-.1,0-.21.02-.31.03,0-.02,0-.04,0-.06.17-.07.33-.15.5-.22l.04.04ZM163.33,10.71c.04.07.08.15.12.22,0,0-.02.03-.04.06-.07-.04-.14-.08-.22-.13.06-.07.1-.11.14-.16ZM166.72,11.21c-.08.12-.15.24-.29.46.05-.4-.23-.3-.41-.39.17-.1.31-.18.46-.27.08.06.16.13.24.19ZM166.88,11.83c-.05.04-.11.08-.16.11-.03.02-.06.02-.12.04,0-.12-.02-.21-.03-.41.15.13.23.19.31.26ZM168.07,11.12c-.14-.02-.22.22-.42.07.11-.08.2-.15.3-.19.01,0,.07.08.12.13ZM168.08,11.13c.16-.01.32-.02.48-.03l-.02.02c.02.07.04.15.08.22.1.18.09.35-.08.51-.21-.13-.41-.05-.58.08-.09-.12-.17-.22-.24-.31-.31.11-.36.38-.45.67-.07-.2-.13-.25-.26-.33-.05-.03-.08-.09-.11-.13.11-.08.22-.16.35-.26,0-.04-.03-.14-.07-.3.28.09.53.18.81.27.04-.16.08-.28.11-.4ZM167.38,13.88s.04,0,.09-.02c.01.08.02.16.04.27-.23-.05-.13-.17-.13-.26ZM168.49,14.68s-.02.07-.03.1c-.17-.02-.34-.04-.53-.07,0-.11,0-.19,0-.28-.32,0-.34-.03-.25-.25.17-.02.31-.04.48-.07.02.15.04.3.06.43.08.04.17.08.27.13ZM168.27,13.24c-.08-.12-.15-.22-.23-.33.25-.21.3-.2.52.09-.1.08-.2.16-.3.24ZM168.5,10.73c.16-.06.26-.19.44-.19.04.18-.08.26-.17.35-.06.06-.11.13-.16.2-.03-.11-.07-.22-.11-.36ZM169.09,9.01c-.18,0-.29.01-.42.02.08-.29.1-.29.42-.02ZM169.63,9.86c-.1.08-.19.15-.31.01.1,0,.21,0,.31-.01ZM170.64,10.36c-.22.25-.27.25-.73-.08.2-.04.38-.06.41-.3.13.15.22.25.32.37ZM170.75,13.3c0,.12,0,.21,0,.31-.04,0-.08,0-.11-.01.07-.09-.12-.23.12-.3ZM171.05,9.34s0,.07,0,.11c-.07,0-.13,0-.2,0,0-.04,0-.1.01-.1.06,0,.13,0,.19,0ZM172.03,10.74c-.14.09-.26.17-.37.25-.21-.38-.59-.26-.94-.31.03-.36.04-.42.18-.43.17-.02.37-.05.42.21,0,.03.08.06.13.06.23-.02.4.11.59.23ZM171.69,12.25c.18-.07.25-.02.25.1,0,.02-.07.07-.08.07-.06-.05-.11-.11-.17-.17ZM171.4,14.1c-.22-.05-.45-.09-.67-.14.04-.28.32-.09.47-.19.08-.06.26.02.43.04-.1.13-.17.21-.23.29ZM170.81,14.82c-.3-.18-.3-.19-.24-.43.22.05.43.1.68.16-.18.11-.3.18-.45.27ZM168.83,14.47s-.01-.05-.02-.08c.18-.13.35-.26.57-.42,0-.06,0-.17-.02-.31.18-.05.35-.09.53-.14.06.19.11.33.15.47-.06.08-.13.17-.19.25.01.02.03.04.04.06.06-.02.12-.04.19-.06.1.08.2.16.29.26.08.08.18.18.02.29-.02.01.02.17.06.18.1.04.22.06.33.07-.18.02-.36.05-.54.07,0-.17-.07-.22-.35-.16.02.1.06.16.11.2-.14.02-.29.05-.43.07.1-.17.2-.35.32-.55-.14.04-.26.07-.39.11-.23-.08-.31-.46-.68-.33ZM158.52,15.94q.31-.32.17-.61c.39-.09.43-.24.19-.58.11-.11.21-.21.33-.32.15-.04.33-.08.54-.14-.01.18-.02.36-.04.55.03.01.07.02.1.03.13-.23.29-.46.38-.71.15-.42.26-.49.69-.31.08-.04.16-.09.25-.13.08.06.16.11.29.21-.03-.16-.05-.26-.06-.36.21-.09.43-.19.57.11.13-.06.07-.3.27-.25.02,0,.06,0,.07-.02.1-.14.21-.3.4-.14.12.1.19.25.29.4.09-.07.2-.16.36-.29-.01.18-.02.29-.03.41.15-.03.29-.07.46-.11-.07-.3.27-.25.4-.41.24.27.23.57.11.93.39-.09.69-.05.96.14-.01-.07-.02-.14-.04-.21q.19.05.07.24c.25-.05.44-.03.63.2.22.27.57.16.82.09.22-.07.33.07.49.09.19.02.33.03.42.26.06.16.28.26.46.41.15-.09.3-.19.45-.28,0-.1-.01-.18-.02-.26.14.15.41.21.39.44-3.52.64-6.89,1.71-10.05,3.17.01-.08.02-.16.04-.24.03,0,.05-.02.07,0,.08.04.16.09.29.07-.07-.14-.15-.28-.21-.41.09-.19.17-.37.27-.54.13-.23.12-.27-.16-.34.17-.13.33-.25.52-.4.01.05.01.11.04.14.04.05.1.09.15.14.03-.05.08-.11.07-.16-.01-.15-.05-.3-.08-.45-.16.08-.29.13-.41.2-.2.1-.4.1-.61.05.04-.19-.2-.25-.19-.43,0-.06-.07-.13-.11-.19ZM158.39,9.31c-.11.03-.18.05-.31.09.03-.13.04-.21.07-.37.1.12.16.19.23.28ZM157.84,18.17c.04-.09.07-.19.11-.28l.06.02c-.03.1-.07.19-.1.29-.02,0-.05-.02-.07-.03ZM157.29,17.41c.2-.08.4-.16.62-.25-.04.39-.04.4-.62.25ZM157.03,19.41c-.08-.03-.16-.06-.25-.1.09-.06.17-.09.09-.21-.03-.05.05-.16.09-.25-.07-.05-.14-.1-.21-.16.05-.14.09-.26.14-.4.21.07.41.13.65.21-.05.04-.1.08-.18.14.11.03.19.05.28.07.03.21.05.3.11.34-.24.12-.48.24-.72.36ZM153.08,21.74c-.18,0-.36.01-.57.02,0-.4,0-.73.01-1.06-.51-.09-.55-.13-1.25-1.01-.19.12-.37.27-.58.34-.14.05-.32-.06-.47.05-.05-.13-.1-.26.08-.36.07-.04.12-.13.2-.21.03.06.06.11.08.17.29,0,.16-.28.27-.4.1-.13.14-.31.22-.48.09,0,.18-.02.24,0,.32.16.59-.06.88-.11.23-.04.13-.26.04-.43.25.02.47.04.71.06.04-.11.09-.23.14-.36.16.04.16.16.19.29,0,.05.19.05.32.08-.14.11-.13.36-.37.37-.1.25-.02.43.22.59.09-.07.2-.14.32-.23-.03-.07-.06-.17-.1-.29.17-.03.31-.05.48-.08.05.09.08.2.15.27.04.04.16.06.2.03.04-.03.07-.16.04-.2-.05-.08-.15-.12-.25-.19-.03-.23.1-.41.19-.62.02,0,.05.02.07.02-.02.08-.03.16-.06.26.06.05.11.13.18.14.28.04.32.29.42.47.1.2-.01.37-.27.53.33,0,.58.1.7-.18.17.05.33.09.55.16-.04-.13-.06-.21-.08-.32.06-.05.13-.1.22-.18.13.36.37.53.66.61-.85.45-1.67.93-2.48,1.43-.05,0-.1-.04-.16-.11.13-.07.25-.14.38-.21-.09-.09-.18-.25-.31-.3-.12-.04-.3.02-.41.09-.13.09-.22.24-.28.41.05-.04.11-.08.17-.12.08.09.17.19.26.3-.02.05-.05.12-.05.19-.29.18-.59.37-.87.56ZM151.66,17.3c-.16.05-.24-.09-.29-.24.07.04.14.07.2.1.05-.07.09-.13.15-.21.09.17.1.3-.07.35ZM150.26,18.71c.1-.07.13-.12.17-.12.04,0,.09.05.18.1-.14,0-.21.01-.35.02ZM150.37,19.02s.06.02.09.03c-.03.09-.06.17-.08.26-.03,0-.05-.02-.08-.02.03-.09.05-.18.08-.26ZM150.2,20.08c-.06.11-.12.18-.27.11.06-.16.16-.13.27-.11ZM150.01,18.35c-.06,0-.11-.05-.16-.07,0-.03.02-.06.03-.09.05,0,.1-.01.14,0,.04.02.08.07.12.1-.04.02-.08.06-.12.05ZM150.99,23.23c-.1-.13-.18-.25-.26-.36.25-.11.46-.2.67-.3-.05-.21-.1-.38.07-.55.06-.06.01-.22.01-.36.25-.08.5-.16.79-.26,0,.28.2.47.3.7-.53.37-1.06.74-1.57,1.14ZM150.48,23.27c.08-.07.2-.13.31.02.01.02.05.03.1.03-.12.09-.23.18-.35.27-.02,0-.04,0-.05,0-.09-.12-.11-.24,0-.32ZM150.17,21.55c-.07.05-.21.09-.26.05-.19-.13-.38,0-.62-.06.09-.03.19-.04.19-.06.04-.33.34-.21.51-.29.05-.02.18.08.23.16.03.04-.01.17-.06.2ZM147.71,24.53c.31-.12.54-.33.77-.54.28-.25.63-.19.87.13.01.02.05.02.04.02.19-.05.36-.1.52-.15.05-.01.1-.03.14-.04-.57.46-1.14.93-1.69,1.42-.02-.01-.03-.03-.05-.04-.17-.11-.38-.21-.54.03-.07-.18-.14-.35-.21-.51-.06-.15,0-.27.13-.32ZM147.1,21.85c0-.07.04-.14.06-.24.16.26.2.28.43.1.21-.17.4-.19.64-.09-.16.28.07.47.19.69-.25.15-.47.29-.76.48-.07-.13-.18-.27-.19-.41-.02-.26-.16-.32-.37-.31,0-.09-.02-.15-.01-.22ZM146.97,21.44c-.06.12-.12.23-.21.4-.16-.36-.13-.41.21-.4ZM146.5,20.46c.32-.35.55-.44.77-.35-.12.24-.24.48-.38.76-.13-.14-.26-.27-.4-.41ZM145.98,20.27c.06.1.12.19.2.33q-.26-.11-.2-.33ZM144.5,19.25c-.04-.17.06-.26.16-.35.12.05.22.09.32.14-.09.11-.17.23-.28.32-.08.06-.17.02-.2-.1ZM144.35,17.44s-.03-.04-.04-.06c.08-.05.16-.11.23-.16.02.03.04.06.05.09-.08.05-.17.09-.25.14ZM144.08,21.03q.1-.23.3-.17c-.04.15-.14.2-.3.17ZM143.59,22.27c.11-.03.17,0,.22.11-.18.12-.17-.04-.22-.11ZM143.07,21.7c.19-.17.39-.25.63-.2.19.04.37.11.53.17-.2.18-.42.39-.64.59-.24-.13-.41-.32-.51-.56ZM142.3,29.37c.07.16,0,.23-.14.29-.13-.2.01-.23.14-.29ZM141.51,16.75c-.09.19-.24.31-.35.47-.25.37-.68.63-.71,1.14,0,.01-.04.03-.09.06-.04-.03-.09-.07-.14-.11-.13-.09-.28-.02-.28.11.08.07.16.15.22.21-.2.19-.37.35-.55.5-.04.04-.11.08-.16.08-.31,0-.5.18-.7.38-.15.15-.3.33-.56.23-.08.03-.15.06-.2.07-.06-.08-.1-.14-.16-.22-.14.18-.38.19-.48.45.19-.02.33-.03.53-.06-.18.34-.34.64-.5.93-.07.03-.23.06-.23.09,0,.21-.16.29-.35.4.11.05.17.07.22.1.07,0,.14-.02.2,0,.07.03.12.09.18.14h-.37c-.13.03-.29.04-.31.23-.02-.08-.04-.16-.07-.27-.13.17-.24.3-.36.46.14,0,.25.02.37.02q-.08.31-.43.25s-.01-.07-.03-.1c-.04-.09-.07-.22-.13-.25-.12-.05-.18.03-.18.18,0,.04-.09.1-.15.12-.28.09-.43.26-.36.56-.38.1-.23-.18-.26-.32q-.4.02-.56-.58c.09-.05.18-.1.31-.18-.16-.08-.28-.15-.36-.19-.18.14-.31.25-.45.37-.14.12-.28.26-.38.16-.18-.52.17-.78.32-1.12-.11-.09-.2-.17-.32-.27.18-.1.33-.18.47-.27.1-.07.17-.11.29-.03.02.02.1-.04.15-.06.05-.01.12-.04.14-.02.11.09.17.02.23-.05.23-.25.46-.49.68-.75.13-.15.35-.23.45-.17.17.11.3.04.41.06.11-.17.2-.31.28-.44-.12,0-.29.05-.36-.01-.15-.15-.26-.09-.38,0-.19.17-.43.25-.66.35-.1.04-.23.07-.27.15-.11.22-.31.24-.51.31.15-.65.44-1.15,1.02-1.47-.2.06-.37.16-.56.24-.25.1-.48.4-.78.03-.02.19-.04.33-.05.39-.27.24-.51.42-.69.64-.24.29-.54.47-.86.63-.13.07-.26.09-.4,0,.13-.2.4-.23.46-.46-.05-.05-.14-.11-.13-.16,0-.06.07-.15.13-.17.26-.09.52-.18.79-.25.15-.03.24-.08.27-.24.01-.05.05-.1.07-.15.07.06.12.11.18.16.09-.25.17-.47.25-.69-.22-.27.03-.28.18-.39.18-.13.34-.24.57-.32.29-.09.52-.38.77-.59-.2-.02-.39.01-.55.09-.21.1-.39.26-.6.38-.27.16-.61.26-.62.7-.45-.48-.75-.1-1.1.13-.05-.28.13-.4.25-.54.14-.16.29-.29.34-.52,0-.03.04-.06.07-.09.93-.66,1.89-1.3,2.87-1.89.14-.05.28-.11.41-.19.13-.08.28-.13.4-.18.05.18.11.33.11.47,0,.09-.07.19-.13.26-.04.04-.14.02-.25.04-.04.08-.11.22-.21.42.39-.18.71-.32.89-.62.14.18.26.34.4.49.01.01.1-.03.15-.06,0,0,0,0,0,0,.06.05.12.1.18.15.06-.13.17-.17.34-.17.21,0,.4-.06.59-.17.31-.18.62-.4,1-.43.05,0,.12-.02.14-.06.2-.3.54-.25.8-.22.24.03.38-.07.53-.18.15-.12.28-.26.4-.42.14-.19.31-.27.55-.15.02-.18.15-.32.04-.5-.5.41-1.52.79-1.94.71.07-.09.14-.17.21-.26-.06-.04-.1-.07-.13-.09.18-.25.33-.52.53-.73.21-.22.65-.4.9-.41-.2.18-.36.33-.56.51.11.12.25.27.38.42.32-.19.61-.37.9-.55-.21.03-.41.07-.65.11.14-.33.47-.28.68-.41.23-.14.47-.25.71-.37.02.03.03.05.05.08-.13.1-.26.19-.4.29-.14.1-.27.21-.41.31.12-.03.25-.06.37-.09,0,.02.02.04.03.07-.18.1-.35.2-.53.31.01.02.02.04.04.07.23-.09.46-.18.7-.27.04.06.07.13.13.22.23-.17.41-.3.59-.43.11.2,0,.29-.14.37-.17.1-.3.24-.37.49.27-.19.47-.34.64-.47.19.07.33.12.47.17.03.01.05.05.09.11-.11.02-.19.03-.27.05.16.26.1.46-.1.63.05.06.09.1.13.15-.31.11-.46.31-.41.65.06-.03.11-.04.15-.07.24-.21.49-.38.82-.43.16-.03.28-.2.16-.43.29.04.55.22.83.06-.03-.12-.05-.23-.08-.35.3.04.57.08.87.13-.04-.2.06-.41-.16-.54.06-.03.13-.05.18-.08.22-.15.41-.4.73-.23.02.01.09-.07.13-.07.29-.01.31-.43.62-.41.07-.34.46-.38.59-.65.16.05.31.16.4-.03.14-.28.25-.56.4-.89.21.12.45.26.73.14,0,0,.03.03.08.07-.09.04-.16.08-.25.12,0,.13.02.26.03.39-.13.12-.26.24-.42.39.16.03.27.05.4.07-.32.59-.42.65-1.15.69-.04,0-.08,0-.11.03-.25.14-.49.29-.75.45.16.09.31.18.48.27-.08.07-.14.12-.23.2.21.03.32,0,.41-.16.09-.17.23-.28.46-.25.06.01.13,0,.19-.03.19-.07.36-.11.56,0,.16.09.37.1.48-.11.12-.24.32-.33.57-.34.05.06.1.11.16.17q.14-.24.43-.09c-.06.09-.11.18-.19.25-.07.07-.14.12-.28.07-.23-.09-.41-.02-.51.16-.08.15,0,.35.19.51.03.02.06.04.13.09-.25.16-.47.29-.7.44.14.21.02.46-.11.48-.18.03-.29.02-.33.22,0,.02-.09.05-.13.04-.28-.06-.26.19-.34.33-.1.16-.14.37-.27.48-.21.18-.48.3-.72.44.25-.06.32.08.35.27-.2.25-.33.01-.47-.08q-.07.38-.42.58c-.07.04-.15.07-.24.12.1.1.11.19.06.31-.09.04-.07-.24-.23-.07-.04.05-.19.01-.25.02,0,.17.01.32.02.45-.17.02-.3.04-.47.06.08.3-.25.35-.32.55-.11.33-.45.22-.64.4-.15.14-.39.26-.69.2.17-.24.32-.45.45-.62-.08-.17-.16-.33-.25-.52-.1.08-.21.18-.32.27-.04.05-.07.14-.12.15-.12.02-.24,0-.37-.01.01-.07-.05-.18.12-.17.07,0,.14-.08.22-.12,0-.31.07-.51.43-.61.27-.08.51-.26.81-.11.01,0,.05-.02.07-.03.05-.16.1-.31.17-.51.14.13.27.22.33.33.02.04-.13.17-.25.31.19.02.33.03.49.05.06-.28.22-.41.43-.52.12-.06.31-.26.28-.31-.11-.23.06-.37.15-.56-.13-.11-.25-.2-.41-.33-.03.13-.05.23-.08.36-.26-.2-.6-.21-.73-.53-.28,0-.56-.14-.82.09-.04.03-.15,0-.22-.02-.14-.06-.24-.04-.37.05-.25.18-.5.3-.82.38-.26.06-.75-.04-.76.48l-.03.02c-.44.31-.95.48-1.44.69-.08.04-.2,0-.33,0,.06-.2.06-.4.16-.49.16-.15.17-.33.23-.51.13.01.27.08.37-.08-.12.03-.25.05-.37.08,0-.12-.01-.25.13-.33.01,0-.02-.1-.03-.16,0,0,0,0,0,0,0,0,0,0,0,0h0c-.11.04-.22.09-.33.12-.09.03-.2.08-.28.06-.07-.02-.1-.14-.16-.22-.16.1-.39.16-.45.3ZM146.37,16.76c-.07,0-.15-.01-.27-.02.08-.1.13-.16.22-.26.03.12.05.19.07.25.07,0,.18.05.21.02.18-.23.33-.08.52.02-.14.16-.26.29-.38.44-.07-.09-.12-.18-.19-.21-.06-.03-.15.01-.27.03.04-.12.07-.19.09-.26ZM147.72,17.19c-.03.24-.18.27-.4.24q.17-.21.4-.24ZM133.23,21.31c.13-.03.23-.06.35-.08q-.08.42-.2.54c-.04-.13-.09-.27-.15-.46ZM133.8,23.1q-.17.01-.5-.54.38-.03.5.54ZM135.29,19.77s.03.06.04.09c-.06.01-.13.02-.19.03v-.05s.1-.05.15-.08ZM136.58,26.67c-.06-.04-.07-.16-.11-.26-.15,0-.31,0-.47,0-.21-.02-.45-.19-.41-.32.07-.2-.08-.33-.11-.49.33-.06.36-.12.34-.42,0-.1.12-.29.18-.28.22.02.29-.16.4-.27.19-.19.38-.33.67-.33-.04.36-.53.5-.37.9-.18-.01-.33-.02-.47-.03-.03.22-.06.38-.1.63.31-.14.53-.24.77-.35.08.08.16.16.25.25-.05.11-.09.2-.12.27.15.29.21-.07.35-.02.01.06.03.13.05.21-.12,0-.22.01-.25.01-.15.17-.26.28-.36.41-.07.1-.17.16-.27.09ZM137.12,27.76c-.15.09-.25.15-.35.21-.03-.05-.09-.13-.08-.16.07-.13.18-.19.43-.05ZM137.91,28.86c-.07-.02-.13-.04-.24-.07.31-.19.59-.36.88-.55-.02.2.11.36-.06.48.2.22-.15.3-.12.52.1.05.22.1.37.17-.27.1-.47.36-.81.21.04-.07.08-.13.1-.16-.07-.1-.17-.18-.19-.28-.02-.1.05-.22.08-.33ZM137.63,21.81c0-.06-.02-.13-.03-.19,0-.04,0-.08,0-.11.02-.02.09-.04.1-.02.06.05.1.12.18.23-.15.15-.3.29-.45.43-.19-.17-.13-.29-.04-.42,0,0,0,0,0,0,.07.03.15.05.22.08ZM139.63,19.89s-.05-.03-.07-.05c.01-.06.01-.13.04-.18.02-.04.08-.07.12-.1.02.05.08.12.06.15-.03.07-.1.12-.15.18ZM139.86,28.5c.16.07.32.14.47.21,0,.04,0,.08,0,.12-.27-.08-.4.3-.71.11.07-.13.14-.26.23-.44ZM140.83,29.62c0,.16,0,.25,0,.38-.12-.03-.22-.05-.33-.08,0-.03-.01-.06-.02-.09.1-.06.2-.13.35-.22ZM140.73,31.89c-.33.05-.63.07-.81.38-.06.1-.23.14-.43.25,0-.18-.06-.33,0-.39.18-.19.18-.4.11-.63-.05-.16.02-.26.11-.28-.02-.16-.07-.31-.03-.41.06-.14-.02-.26,0-.36.05-.27-.3-.26-.29-.47.08-.13.17-.26.26-.41.2-.01.39-.03.58-.04.32.29.13.69.27,1.06.09-.05.24-.12.24-.13-.07-.22.08-.17.19-.18.07.31,0,.43-.24.47q-.33.05-.25.43c.19.03.38.07.57.1.17.35-.31.35-.27.61ZM139.5,36.15c.05-.19,0-.3-.23-.4-.09.18-.17.34-.27.54-.05-.02-.11-.06-.18-.09.08-.25.1-.49.04-.74-.03-.13-.03-.27-.05-.45.14.03.21.05.28.07.19.06.33.04.48-.14.35-.43.43-.44.86-.09-.33.54-.65,1.08-.96,1.64,0-.11,0-.23.03-.34ZM135.98,73.98l-.05.03s-.08-.06-.08-.1c0-.05.01-.1.02-.15.02,0,.04,0,.05,0,.02.07.04.14.06.22ZM136.23,76.2c-.01.07-.02.14-.05.28-.1-.33-.31-.14-.53-.18.22-.17.39-.15.57-.1ZM135.62,73.91s-.11-.01-.19-.03c.08-.13.14-.24.22-.37.08.16.08.29-.04.39ZM135.96,77.01c.05.31-.07.31-.26.24.08-.07.15-.14.26-.24ZM136.74,76.4c-.14,0-.28,0-.41,0v-.04c.08-.02.16-.05.23-.07,0-.02,0-.04,0-.07-.08,0-.15-.01-.29-.02.38-.24.42-.22.48.21ZM136.35,76.91s.04.01.06.02c-.01.06-.03.12-.04.19-.03-.01-.06-.02-.09-.03.02-.06.05-.12.07-.18ZM137.14,75.98c-.05.04-.11.08-.16.13l-.05-.05c.05-.05.09-.1.14-.15.02.03.05.05.07.08ZM139.27,79.69c-.08.02-.17.03-.26.05.03.08.05.14.08.2-.22.18-.49-.14-.73.14,0-.21,0-.34,0-.46-.3-.15-.21.2-.4.28.02-.22.04-.4.06-.61-.41-.23-.28-.64-.29-.99.21,0,.4-.02.59-.03.02-.03.04-.06.06-.09-.42-.19-.42-.57-.47-.94-.09.05-.16.08-.22.11-.03-.05-.06-.1-.12-.2-.04.18-.07.29-.12.5-.14-.29-.26-.15-.37-.07-.12.09-.25.2-.34.33-.19.26-.54.27-.72,0-.03-.04-.08-.07-.13-.11.06-.15.12-.3.19-.47.15.01.35-.08.38.19.07-.01.15-.02.24-.04-.09-.13-.14-.2-.21-.29.16-.08.28-.16.42-.2.1-.03.27-.07.33-.02.14.12.27.08.34-.01.15-.19.28-.12.39,0,.1.11.24.25.25.38.01.23.15.3.31.39.21.12.48.18.53.5-.21.33-.17.6.12.92.1.11.16.45.09.55ZM136,78.11c.05.05.11.09.16.14-.02.02-.04.04-.05.06-.06-.05-.11-.1-.17-.15.02-.02.04-.04.06-.06ZM136.65,78.84s.07.02.1.03c-.02.03-.03.08-.05.08-.04,0-.08-.01-.18-.04.07-.05.1-.08.12-.08ZM137.32,78.82s-.1,0-.15,0c.02-.15.04-.27.07-.45.1.15.18.24.24.35,0,.01-.06.07-.09.1-.03.14-.07.27-.1.41-.05-.14-.08-.29.05-.41ZM137.28,79.28c.19.09.19.1.1.33-.24-.05-.05-.22-.1-.33ZM140.37,83.27c-.04.09-.1.16-.16.26-.11-.15-.2-.26-.32-.42.03-.05.08-.14.13-.23.1.05.36.34.34.39ZM141.21,83.26c-.06-.1-.12-.2-.21-.36.24.07.4.1.21.36ZM141.5,83.55s-.04.02-.07.03c-.03-.07-.07-.13-.12-.24.24-.01.26.07.19.21ZM142.12,84.38c-.05.01-.08.03-.1.03-.05,0-.1-.02-.15-.03-.08-.11-.22-.22-.21-.32.01-.25-.28-.09-.31-.32.22.07.43-.11.64.11-.15.21-.03.38.14.53ZM145.05,88.3s.05-.03.06-.02c.28.13.56.27.83.41.03.01.04.07.07.13-.13.09-.25.18-.34.24-.16-.1-.29-.19-.35-.23-.07-.15-.11-.25-.15-.35-.03-.07-.07-.13-.11-.19ZM144.19,92.09c.11.14.35-.11.33.22-.09-.09-.35.11-.33-.22ZM144.52,91.69h-.03c-.07-.06-.14-.12-.21-.19.02-.02.03-.04.05-.06.08.05.16.11.23.16-.03.06-.03.08-.04.08ZM144.2,87.78c-.15-.11-.29-.26-.42-.38.1-.13.18-.22.26-.32.12.16.44.13.44.43,0,.03.11.06.17.09.31.15.42.35.4.69-.12-.03-.31-.02-.35-.09-.12-.21-.32-.29-.49-.42ZM143.83,86.57c.09-.14.18-.26.38-.19-.06.21-.18.25-.38.19ZM143.96,90.44c.04.16.07.25.1.35-.02,0-.04.02-.06.03-.08-.06-.16-.12-.26-.19.06-.06.11-.1.22-.19ZM141.42,92.46s.01-.06.02-.08c.07.02.14.04.21.06,0,.02-.01.05-.02.07-.07-.02-.14-.03-.22-.05ZM141.37,91.71c-.06-.08-.13-.15-.19-.22l.04-.05c.1.05.21.1.29.14.06-.15.17-.28.14-.39-.06-.26.2-.26.26-.26.15,0,.36-.04.43.14.22-.01.42-.03.62-.04.15.14.17.4.44.38.03,0,.1.1.1.15-.01.24.15.32.27.36.14.38.26.72.37,1.06-.39.15-.51-.31-.82-.33.02-.05.04-.09.09-.2-.18.08-.3.13-.41.18-.24-.12-.48-.25-.75-.36-.13-.05-.28-.08-.42-.07-.2.02-.3-.01-.31-.24,0-.09-.08-.18-.14-.26ZM142.44,87.66c.09-.16.15-.27.19-.36.12-.01.23-.03.4-.05.17.27.51.48.48.95-.45-.03-.67-.46-1.07-.54ZM142.6,90.28c.22.14.14.24,0,.36-.22-.16-.08-.24,0-.36ZM143.16,90.4c.13.11.22.18.32.27-.06.05-.09.08-.12.1-.03.02-.07.03-.14.06-.04-.09-.08-.14-.09-.2,0-.05.01-.1.03-.21ZM143.13,86.54c.15-.04.26-.07.4-.11-.01.15-.02.27-.03.43-.15-.12-.24-.21-.38-.32ZM140.52,92.61c.17-.01.25-.02.32-.03,0,.07,0,.13-.01.24-.1-.07-.17-.11-.31-.21ZM140.52,92.15c.25.14.51.27.76.43.02.01-.02.12-.03.2-.16-.08-.28-.14-.4-.2-.02-.19-.18-.15-.3-.18-.13-.04-.14-.11-.03-.24ZM139.88,94.09c.11-.05.22-.1.34-.15.01.03.03.06.04.09-.11.05-.22.1-.33.15-.01-.03-.03-.06-.04-.09ZM138.71,93.4c.07.11.14.2.22.33-.15-.04-.26-.05-.33-.1-.16-.12-.08-.19.11-.23ZM138.06,92.29c.12-.11.18-.17.26-.23.05.09.08.15.13.24-.12,0-.21,0-.39,0ZM137.58,92.09c.08-.02.17-.03.25-.05,0,.02,0,.05.01.07-.09.02-.17.04-.26.05,0-.02,0-.05-.01-.07ZM136.48,92.26c.06-.05.12-.09.17-.13q-.12-.34.09-.39c-.09.22.24.44-.03.66-.07-.04-.14-.08-.23-.13ZM135.62,91.19c-.11-.09-.28-.17-.33-.28-.04-.1.07-.25.12-.4-.08-.1-.19-.22-.31-.38.21-.03.35-.09.44-.29.1-.23.47-.25.65-.06.11.12.21.24.38.25.04,0,.07-.01.11-.02,0-.09,0-.16,0-.24.11,0,.24-.05.3,0,.09.07.14.2.28.06-.01-.09-.03-.19-.05-.37.12.17.2.27.28.37-.11.16-.2.3-.31.46.22.02.21.02.37.23.04.05.12.07.19.1.03-.06.06-.13.08-.19.01-.03.02-.06.03-.08.11,0,.19,0,.33,0-.11-.17-.43-.12-.28-.4.23.04.42.13.55.33.04.06.16.12.23.11.26-.06.52-.15.81-.24-.08-.12-.14-.23-.21-.34-.07.04-.12.06-.18.09-.01.07-.02.14-.03.21-.04,0-.07,0-.11,0,0-.09,0-.18,0-.28,0-.23-.02-.47-.02-.72q.17-.21.43-.21s.03.1.05.14c.13.27.27.3.49.13.1-.08.2-.17.3-.26.16.33.14.41-.1.62-.11.1-.09.27-.05.41.03.13.14.21.28.16.09-.03.15-.09.25,0,.24.22.53.32.86.34.14,0,.3.03.28.27-.31-.09-.47.34-.78.19-.03-.09-.05-.19-.07-.28-.26.19-.41-.03-.6-.09-.21-.07-.45-.01-.57-.3-.07.07-.11.12-.15.17.06.09.12.16.18.24-.36.11-.63-.1-.95-.2.23.56.68.72,1.19.79.07,0,.17-.07.22-.05.15.09.28.21.4.31-.03.13-.06.24-.09.37-.15-.03-.32-.11-.44-.07-.15.05-.36-.03-.46.17-.11.2-.27-.16-.39.03,0,.01-.01.02-.03.04.05.04.1.09.18.17-.13.04-.23.07-.32.1-.04-.12-.06-.22-.1-.32-.11.03-.19.05-.26.07-.1-.16-.16-.35-.28-.44-.2-.15-.3-.34-.46-.59.2-.03.35-.06.5-.08.19-.02.26-.11.17-.29-.11,0-.24.05-.31,0-.13-.1-.22-.09-.33.01-.05.05-.14.05-.21.07-.13.02-.26.04-.42.07.13.21.2.43.53.45-.1.08-.15.17-.22.18-.31.03-.54-.13-.75-.33-.04-.03-.06-.1-.1-.11-.24-.03-.49-.05-.73-.08.06-.3-.19-.31-.35-.42-.1.11-.19.2-.32.34.14.13.26.24.39.35-.05,0-.1,0-.15.02.03.11.05.22.08.34-.08,0-.13,0-.21,0,.05-.13.09-.23.13-.33ZM139.96,85.44s-.04-.08-.05-.12c0-.03.01-.06.02-.09.16.13.32.26.49.4-.07.03-.13.05-.21.08.05.08.1.15.19.28-.18,0-.32.03-.45.01-.3-.04-.25-.41-.49-.51.01-.02.02-.05.03-.07.15,0,.29,0,.46,0ZM139.53,88.41s.05.07.07.11c-.09.02-.18.05-.26.07-.01,0-.04-.03-.05-.04.02-.16.12-.19.25-.14ZM139.72,87.28c.18.23.35.44.57.72-.31-.13-.59-.35-.62-.49-.01-.07.04-.16.05-.23ZM140.62,88.65c.01.18-.1.24-.28.23-.1-.26-.31-.37-.57-.49.08-.02.17-.08.22-.06.21.09.41.2.63.31ZM136.78,89.31c.06.02.13.04.2.06,0,.02,0,.05,0,.07-.23.04-.46.07-.65.1-.17-.16.09-.36-.14-.46l-.04.02c-.02.06-.03.12-.05.2-.14.02-.24.03-.35.05-.16-.17-.32-.35-.48-.52.19.03.37.05.56.08.18.02.35-.26.53-.02.15-.26.32-.01.53-.05-.04.19-.08.33-.11.47ZM134.85,93.66c.1-.06.2-.12.3-.17.24.21.26.35.12.7-.03-.14-.06-.25-.08-.37-.17.05-.34.09-.34-.17ZM134.47,96c.11-.09.21-.16.3-.23.02.02.03.03.05.05-.04.11-.09.22-.16.4-.09-.1-.13-.16-.19-.22ZM134.43,89.96c.07-.12.14-.24.22-.36.1.1.16.2.05.33-.08.1-.16.12-.27.03ZM132.77,90.34c.08-.27.15-.5.22-.73.09.03.21.05.31.1.03.02.04.09.06.13-.12.06-.22.11-.32.16.11.25.09.42-.09.48-.07-.05-.15-.11-.19-.14ZM132.38,89.78s.03-.05.04-.07c.12.07.32.02.3.3-.12-.08-.23-.15-.35-.23ZM132.08,85.92c.08-.08.12-.13.16-.17,0,0,.01,0,.02,0,0,0,0,0,0-.01h-.01c.03-.11.12-.3.07-.35-.17-.19.01-.28.06-.4.12,0,.23,0,.41,0-.13-.22-.2-.41-.33-.54-.13-.13-.12-.23-.05-.37.17.02.38.1.48.03.22-.15.39-.04.5.06.17.17.31.07.42.02.34.41.43.94.78,1.33.12,0,.24-.02.36-.02.18,0,.35.02.46.19,0,0,0,0,0,.01,0,0,.01,0,.02,0h-.01c.2.06.4.13.62.2-.04.11-.08.21-.12.31.14.16.47.23.25.55,0,.01.03.05.04.08.05.1.1.2.15.3.14-.15.36-.31.3-.51-.06-.21.13-.13.16-.22-.01.2-.05.38-.1.57-.02.07-.08.16-.05.21.1.22-.02.25-.19.26-.07,0-.13.06-.23.11.13.21.26.39.36.59.04.08,0,.2-.04.29-.02.03-.19.04-.2.01-.14-.28-.35-.35-.63-.22-.02,0-.05-.01-.08-.02-.18-.06-.36-.12-.53-.17-.01-.12-.02-.25-.04-.38,0-.02-.06-.05-.09-.04-.03,0-.08.04-.08.06,0,.06.04.13.04.19,0,.07-.03.14-.05.2-.07-.02-.17-.03-.2-.08-.11-.21-.19-.43-.29-.67-.25.03-.53,0-.75-.24-.08-.09-.23-.12-.35-.17-.3-.12-.54-.34-.81-.52-.05-.03-.03-.18-.04-.24-.13-.09-.24-.17-.37-.25ZM131.97,82.74c.49-.03.61.07.63.57-.24-.2-.66-.12-.63-.57ZM132.01,83.74s.05,0,.07,0c0,.07,0,.13,0,.2h-.05c0-.06-.01-.13-.02-.19ZM132.03,83.36c-.07.12-.13.22-.2.34q0-.25.2-.34ZM131.71,81.18s-.08-.1-.11-.09c-.36.05-.55-.24-.8-.44.05,0,.11.01.15,0,.03,0,.08-.05.07-.07,0-.04-.06-.12-.07-.12-.24.07-.21-.2-.33-.27-.24.1-.35.06-.48-.13-.07-.11-.17-.2-.22-.31-.12-.24-.43-.37-.37-.72.02-.11-.13-.25-.2-.37.12-.03.24-.06.38-.1-.07-.25-.25-.44-.11-.77.05.15.08.22.12.35.09-.35.31-.51.57-.64-.1-.38.06-.66.45-.78q.07-.24-.12-.87c-.16,0-.32,0-.47.02-.29.04-.43-.09-.4-.37.01-.12-.08-.31-.04-.34.22-.14.02-.32.05-.47.01-.06-.1-.2-.15-.2-.29.02-.39-.18-.47-.42-.17.04-.33.02-.28.28.04.2-.2.23-.32.36.09.03.14.05.24.09-.08.03-.12.05-.16.06-.19.08-.22.16-.06.25.22.13.21.32.23.53-.1-.2-.23-.33-.46-.38-.2-.04-.38-.17-.59-.26.04-.03.09-.07.16-.12-.23-.19-.23-.46-.2-.76-.13.05-.22.08-.34.12-.05-.13-.09-.24-.15-.4.09.02.16.04.26.06,0-.18.06-.36-.12-.52-.07-.06-.09-.19-.09-.29-.02-.25-.18-.41-.28-.62-.2.17-.37.32-.6.51,0,.11-.05.25.09.44.22.3.2.78.06,1.26-.13-.03-.26-.06-.39-.1-.07-.19-.19-.38-.18-.55.01-.17.18-.32.27-.48-.12-.16-.46-.14-.3-.46-.13-.03-.24-.05-.38-.07,0,.21,0,.4,0,.59-.28.03-.35-.13-.34-.38-.03,0-.05,0-.08,0-.07.09-.14.18-.2.26-.07-.07-.16-.16-.28-.3.05-.09.12-.21.18-.33-.09-.06-.2-.13-.34-.23.17-.07.29-.12.44-.17-.02-.18-.04-.36-.06-.61.23.19.3.35.22.6.28-.12.12-.4.26-.55.21.01.45-.09.58.18.31-.15.61-.15.91-.09.04,0,.06.11.08.17.26-.1.34-.22.27-.46-.07-.25.16-.34.21-.53.05,0,.09-.01.13,0,.1.05.21.11.29,0,.08-.11-.01-.17-.1-.25-.12-.12-.04-.46.13-.61q.25-.22.01-.45c.04-.09.08-.18.13-.29-.06-.02-.1-.05-.13-.04-.24.07-.44.03-.61-.16-.11-.13-.26-.13-.4-.05-.13.08-.26.12-.4.04.22-.29.09-.66.23-.97-.22.04-.41.06-.45.32-.02.11-.08.21-.23.23-.08.01-.14.13-.21.21-.11.14-.16.31-.36.4-.28.12-.38.19-.81.21.05-.09.07-.22.13-.23.34-.1.32-.41.42-.65.04-.1.04-.22.07-.34-.1-.08-.18-.02-.25.07-.11.15-.22.11-.33.03-.01-.15-.02-.3-.04-.47.05,0,.14.01.22.02q-.03-.19-.36-.17c.09-.07.18-.14.29-.22-.15-.11.04-.31-.12-.47-.18-.18-.35,0-.51-.05-.03-.09-.07-.16-.1-.24-.02-.01-.05-.02-.07-.03-.01.04-.03.07-.04.11,0,.04.01.08,0,.12-.05.2-.13.21-.32.01.04-.02.07-.03.1-.05.02-.01.03-.03.06-.07-.15,0-.29.01-.42.02,0,.19,0,.33,0,.48,0,.11.03.2-.16.18-.07,0-.15.23-.26.39-.01,0-.09,0-.18.01-.03-.24-.05-.48-.1-.71-.04-.23-.12-.45-.18-.71.13-.02.22-.04.3-.05-.01-.43,0-.43.39-.57-.29-.25-.64-.24-.93-.36-.13.32-.11.34.32.5-.11.37-.28.67-.75.62-.1.28-.19.56-.3.85-.17.06-.42.05-.41.36,0,.04-.14.08-.22.13-.05-.16-.1-.3-.15-.48-.08.1-.14.16-.19.22-.13-.13-.27-.26-.4-.39-.1-.11-.18-.15-.34-.08-.19.08-.27-.13-.36-.25-.14-.18-.26-.37-.39-.56-.03-.04-.09-.07-.13-.07-.18,0-.31-.07-.37-.24-.08-.26-.25-.53-.1-.8.09-.16.16-.29.16-.47,0-.09.08-.19.13-.29-.1-.15-.24-.16-.37-.08-.05.03-.04.16-.06.26-.1.02-.25.23-.37-.07-.09.1-.16.19-.23.27-.34-.16-.38-.43-.14-1.26.11.12.2.22.31.34.09-.04.22-.06.29-.13.15-.15.25-.05.28.07.08.29.21.44.53.34.06-.02.15.06.21.08.11-.3.21-.57.3-.83.03-.02.06-.04.08-.04.5.05.59-.04.52-.54-.02-.14-.06-.28-.1-.45.18-.25.18-.6.28-.91.04-.11-.1-.28-.17-.46-.1.07-.17.11-.23.15-.14.08-.33.08-.39-.06-.13-.28-.43-.34-.6-.56-.08-.1-.16-.2-.23-.29-.05.07-.11.18-.19.27-.08.09-.27.17-.27.26,0,.23-.18.15-.28.21-.06.2.07.29.26.36.06-.15.18-.24.35-.17.1.04.11.04.15.32-.09-.07-.15-.11-.26-.2-.05.23-.09.43-.13.59-.16.15-.29.28-.46.43.18.13.32.23.47.33-.01.02-.02.05-.03.07-.1-.02-.2-.04-.32-.06-.05.13-.09.26-.14.41-.07-.05-.12-.09-.18-.14-.02.03-.02.07-.04.09-.13.14-.25.31-.4.42-.14.1-.22.22-.24.38-.01.1-.1.19-.11.25-.06.21-.27.39-.12.66.07.13,0,.32,0,.49-.03,0-.06,0-.09,0-.02-.09-.04-.18-.06-.28-.07,0-.17-.02-.27-.03-.03.08-.06.15-.09.22-.49-.11-.51-.14-.48-.63-.07,0-.13-.02-.24-.04.06-.13.11-.24.18-.39-.08-.21-.16-.46-.28-.7-.06-.13-.09-.3-.28-.33-.06-.01-.13-.1-.17-.17-.15-.3-.28-.61-.42-.92-.02-.03-.01-.08-.02-.14.11-.04.21-.08.3-.12.08-.22.16-.41.24-.61.13.06.26.25.3-.05.01-.08.1-.14.16-.23-.23-.12-.45-.24-.74-.38-.02-.07-.07-.21-.12-.37.33-.35.43-.79.46-1.29.09-.01.21-.03.34-.05-.1-.16-.19-.32-.3-.48-.03-.04-.13-.05-.2-.04-.07,0-.14.04-.23.06-.08-.24-.15-.46-.24-.68-.04-.11-.11-.23-.2-.28-.29-.17-.24-.47-.32-.72v-.04c.2-.28.05-.6.07-.9.02-.31.01-.63.02-1.02.38.28.15.75.48,1.01.03-.22.08-.4.09-.58,0-.21.12-.28.31-.36.18-.07.4-.16.48-.4-.11-.1-.22-.19-.33-.3.06-.23.06-.5.35-.59.03,0,.07-.06.08-.06.21.17.21-.08.36-.15-.01.13-.02.25-.04.4.02,0,.08,0,.17-.02-.02.17.11.33-.02.5.17.22.05.47.08.7,0,.04,0,.09.03.11.41.39.21.81.11,1.28-.23-.16-.42-.3-.63-.46-.04.23-.09.48-.15.77.08-.03.14-.05.22-.08.06.05.12.11.21.15.05.03.15.04.19.01.14-.11.3-.22.38-.36.08-.14.12-.3.07-.49-.04-.2.02-.43.08-.63.09-.3.23-.58.35-.87-.07-.02-.13-.04-.21-.06.04-.12.07-.24.11-.37.03,0,.05,0,.08,0,.05.12.1.24.18.43.27-.29.08-.67.36-.91-.29-.06-.37-.49-.73-.25-.02.13-.04.27-.07.41-.02,0-.04,0-.05,0,0-.06-.02-.13-.03-.21-.17-.08-.34-.11-.49.11,0-.3,0-.6.01-.95.17.08.29.14.46.23.13-.18.27-.37.38-.56.11-.21.29-.05.46-.11-.13-.34.15-.57.24-.83-.12-.15-.23-.28-.33-.4.06-.13.12-.25.18-.38-.07-.06-.13-.1-.2-.16.08-.05.14-.1.23-.16-.06-.09-.13-.19-.22-.32.12.04.2.07.3.1.06-.1.13-.19.2-.3-.04-.1-.07-.2-.11-.3-.08,0-.15,0-.22,0,.06-.17.11-.32.18-.5-.12-.03-.21-.05-.33-.09.12-.13.21-.23.35-.38-.12-.02-.21-.07-.26-.05-.09.05-.17.13-.21.22-.13.3-.35.57-.39.91-.02.18,0,.36,0,.57-.08.09-.17.21-.29.35-.09-.03-.19-.08-.33-.13.03-.28.05-.58.09-.92-.07.06-.11.09-.15.13-.04.03-.07.07-.11.11-.23-.38-.19-.53,0-.84.17-.26.48-.48.38-.9-.18.07-.35-.2-.51.01-.1-.1-.19-.21-.29-.31,0,0,0,0,0,0,0-.08.03-.16.02-.23-.12-.5.05-.92.35-1.32.12-.16.15-.39.22-.59.02-.07.03-.14.06-.28.12.16.2.26.3.38.35-.27.11-.74.4-1q-.28-.18-.62.25c-.12-.2-.11-.2-.02-.36.06-.11.08-.25.12-.4.13-.03.28-.06.45-.09.07-.33.04-.38-.27-.44.2-.27.25-.63.58-.85-.02.21-.04.38-.06.65.18-.23.38-.32.48-.51,0,0,0,0,0,0,.12-.02.23-.03.27-.19.02-.11.1-.22.13-.33.06-.29.24-.43.54-.44.03.05.06.11.1.17l.04-.02c-.03-.12-.05-.24-.08-.37.17-.05.34-.14.5-.13.3.02.14-.33.37-.34-.12-.12-.21-.22-.34-.35.13-.07.27-.19.32-.16.16.1.21.02.31-.13-.11,0-.19-.01-.26-.01-.2-.27,0-.54.04-.8.02-.14.04-.26,0-.41-.07-.32.02-.63.26-.87.06-.06.13-.12.21-.19-.18-.28-.32.03-.52-.02.06-.57.04-1.15.29-1.75-.16-.05-.29-.09-.46-.15.04-.11.08-.23.12-.34q.58-.11.63.31s.13-.04.13-.06c.01-.16-.05-.36.02-.46.13-.19.04-.29-.06-.41.07-.14.14-.27.21-.41.12.03.24.06.39.1.13-.68.68-.9,1.19-1.2.11.1.15.18.07.31-.05.08-.07.18-.1.29.26-.02.47-.03.64-.04.04-.21.08-.4.13-.61-.01,0-.07-.02-.15-.05.02-.37.12-.72.36-1.02.11-.13.2-.28.3-.42.16-.22.34-.27.61-.14.04-.26-.19-.25-.35-.33.11-.4.46-.59.75-.9.03.14.04.2.06.31.08-.12.14-.21.21-.32-.06-.03-.09-.05-.13-.06-.03,0-.07,0-.12.02,0-.07,0-.15.02-.17.19-.1.23-.27.26-.46.03-.18.11-.33.26-.45.06-.05.15-.11.16-.17.03-.22.14-.32.35-.38-.11,0-.23,0-.36,0,.11-.23.34-.37.24-.7-.06.07-.09.1-.11.13-.02.04-.04.08-.06.15-.05-.06-.09-.08-.09-.12,0-.05-.01-.11,0-.15.11-.27.22-.54.35-.8.06-.11.17-.19.27-.27.2-.16.31-.4.54-.53.22-.13.43-.28.67-.43-.08-.05-.13-.08-.18-.11.26-.27.51-.53.76-.8.17-.18.24-.18.5.05.16-.13.32-.27.48-.41-.34-.26-.33-.42.03-.73,0,.1-.02.2-.03.33.21-.07.4-.14.64-.22.05-.09.12-.22.19-.35-.17.13-.33.22-.54.14.11-.1.21-.19.35-.31.17.04.38.08.6.13,0,.09-.02.16-.03.24.11.05.21.11.33.17,0,.24,0,.48,0,.72.07-.01.11,0,.12-.02.2-.29.42-.58.59-.88.08-.13.18-.3,0-.47-.07.03-.15.07-.28.13,0-.15-.02-.28-.03-.44-.09.03-.19.06-.29.09.31-1.1.7-1.7,1.19-1.83.04.35-.05.54-.4.69.09.04.14.07.22.1-.03.1-.07.21-.11.33.1.06.19.12.3.18-.02.1-.04.22-.06.34.05.02.1.04.19.07-.08.21-.16.42-.24.64.22.04.27-.07.28-.2.03-.23.19-.25.43-.29-.21.28.07.51-.14.76.04.02.08.03.12.05.16-.12.33-.23.48-.34,0-.15-.02-.28-.02-.44.19-.09.39-.16.56-.26.18-.11.34-.19.56-.12.05.02.14-.06.2-.11.09-.07.17-.15.31-.19-.06.09-.12.18-.18.28-.03.05-.09.1-.09.15.03.25-.15.27-.32.29.06.45.35.75.62,1.12-.07.04-.14.11-.22.12-.15.03-.31.05-.45.03-.12-.02-.25-.1-.33-.19-.13-.14-.26-.11-.39-.05-.15.07-.17.19-.1.36.24.04.5.07.74.11.13.21-.3.33-.03.57.12-.09.25-.19.39-.3.11.02.24.05.37.07.09.17.19.35.28.51.26-.06.36-.15.27-.31-.16-.3.03-.58-.02-.87,0-.04.23-.18.25-.17.15.14.32.07.5.04.06.37-.11.59-.39.76.1.05.19.1.31.16-.06.03-.11.05-.15.08.02.08.04.16.06.23-.08.06-.16.11-.23.17-.2.17-.21.22-.06.45.1.16.08.2-.12.24-.06.01-.13.02-.16.06-.16.21-.31.43-.48.68.14,0,.23,0,.32,0,.09.33-.05.7.2,1.01.08-.04.15-.07.21-.11.22-.14.41-.16.53,0,.11.14.14.34.03.51-.16.24-.13.49-.14.8.13-.06.22-.1.33-.15-.06-.1-.11-.17-.17-.29.1.01.19.02.3.03,0,.07-.04.14-.02.18.03.06.09.12.15.13.03,0,.13-.09.12-.11-.05-.16-.01-.26.16-.29-.1-.18.16-.27.1-.47-.05-.16.16-.36-.01-.59-.21.07-.44.15-.67.24-.06-.21.07-.28.22-.31.39-.09.55-.37.61-.72.04-.2.15-.29.35-.44-.02.35-.05.63-.03.91.01.17.1.33.16.5.49.17.66-.25.95-.49.08.02.17.06.26.08.03.09-.04.15-.46.46.05.19.07.41.15.6.04.09.15.16.25.21.08.05.17.06.24.09-.03.17-.06.33-.1.56-.04.03-.28-.23-.3.14-.07-.36-.13-.67-.43-.82-.04-.19-.05-.37-.11-.54-.08-.23-.21-.24-.35-.07-.08.1-.19.18-.32.31-.06.2-.14.46-.21.72-.28.2-.7.04-.89.43.05.07.12.15.21.26-.03.02-.1.04-.12.09-.14.25-.29.51-.4.77-.05.13-.01.3-.01.46-.25.12-.56.15-.64.48-.18.05-.35.09-.58.15.05.32.1.63.15.98-.07.03-.16.07-.3.13-.06-.1-.12-.2-.19-.31-.38.28-.7.53-.8.99-.05.26-.2.5-.3.75.2.02.4.09.57.04.17-.05.3-.22.5-.39,0,.2,0,.32,0,.46-.29.26-.66.37-1.02.51-.16.06-.36.14-.42.26-.1.22-.23.17-.39.11-.03.09-.04.15-.07.21-.12.32-.7.76-1.03.79,0-.06.02-.13.03-.19-.14.16-.19.38-.46.38-.11-.14-.08-.42-.35-.42-.15.26-.3.52-.46.81-.18-.12-.32-.23-.48-.33-.28.06-.28.49-.61.49-.25,0-.52.19-.73-.1-.06.08-.09.16-.15.21-.21.17-.31.13-.39-.15-.01-.05-.05-.12-.1-.15-.14-.09-.18-.12-.22-.24q-.2.09.05.66c-.05.05-.11.1-.21.18-.05-.16-.09-.29-.16-.48-.07,0-.2.02-.38.04.17.35.03.62-.14.92.2-.01.36.2.54,0,.12.09.27.15.37.26.09.09.13.23.13.35.02.26.05.51.08.86-.22-.3-.61-.22-.72-.57.28-.15.21-.41.19-.67-.11,0-.22,0-.34,0,.01.22.03.45.04.67-.24.03-.2-.16-.3-.3-.11.07-.21.14-.33.22-.01-.05-.06-.14-.04-.22.05-.21-.09-.31-.22-.42-.12-.1-.24-.2-.38-.32-.08.15-.16.31-.25.47-.04-.12-.07-.23-.12-.38-.31.23-.47-.22-.76-.2-.07.12-.14.23-.21.34-.08.11-.29-.02-.33.16-.03.13-.01.27-.07.38-.04.07-.18.08-.27.12,0-.1,0-.2,0-.3q-.25.09-.23.37c.05,0,.1-.02.15-.03q-.18.35-.75.17c0,.15.02.29.03.49.14-.05.24-.08.36-.12.04.06.08.15.14.25.1-.03.2-.06.38-.11-.12.17-.2.28-.29.42.13.26.27.53.1.86.13,0,.24,0,.38,0-.11-.37-.22-.7.04-1.01.15-.18.33-.29.54-.29.03.22.02.43.09.61.08.21-.17.31-.12.51.03.12-.19.21-.46.21.07.16.13.31.2.49.08-.09.17-.19.26-.28.04-.05.1-.13.14-.12.22.06.28-.13.43-.3,0,.16.01.24.01.31-.18.09-.35.18-.51.26.11.25.27.08.38.06.12-.02.22-.14.35-.23.17.11.39.12.62.06.02.2-.08.3-.27.36-.22.06-.34.43-.21.62.08.13.19.1.4-.12.1.17.19.33.28.49.23-.21.06-.55.27-.77.18-.2.32-.42.53-.69.01.2.02.32.03.49.15-.03.26-.04.37-.08.09-.03.22-.16.25-.14.16.13.2-.05.31-.11.01.11.02.21.03.33.1.03.21.06.34.09.14-.22.27-.43.41-.65.06.05.13.16.18.15.11-.02.2-.1.31-.16.03.02.08.06.15.12.19-.32.44-.27.71-.09q.04-.21-.2-.26c.06-.13.12-.25.19-.37.19.05.36.09.52.14.04.09.09.18.12.26.18,0,.34-.17.27-.3-.08-.14-.07-.26.03-.36.11-.1.24-.12.39,0,.16.13.36.05.53-.04.16-.08.31-.12.5-.08.09.02.19-.04.29-.07.04,0,.11-.03.12-.02.13.15.32.12.44.07.14-.06.29-.21.33-.35.05-.17.19-.36.05-.55-.02-.02-.03-.05-.03-.07.04-.15.09-.29.12-.44.02-.14.02-.28.02-.44.25,0,.46.25.63-.03.28.3.5-.01.81-.03-.1.19-.18.35-.26.51.14.01.16,0,.41-.26.1.18.2.35.29.5.15-.12.27-.23.41-.32.22-.15.3-.37.41-.64.18.22.37.43.58.69.06-.15.09-.23.14-.36.11.18.19.32.29.48.14-.04.33-.1.56-.17-.04-.1-.07-.19-.11-.3.05-.02.11-.04.16-.06-.08-.18-.05-.43-.31-.52-.04-.02-.03-.18.01-.31.06.08.12.16.23.33.06-.59.63-.61.87-.99.14-.01.31.2.45-.02.01-.02.12,0,.17.03.09.05.17.11.26.16.24-.32.23-.35-.13-.58.21-.03.41.04.6.05-.29.53-.56,1.07-.82,1.62,0-.02,0-.05.01-.07-.09-.05-.18-.13-.27-.13-.23,0-.44.08-.52.35.3.15.49-.2.76-.13-1.85,3.85-3.13,8.02-3.74,12.41-.21-.12-.31-.28-.2-.55-.25-.02-.48-.1-.66.06-.13.12-.07.29.06.47.12-.06.22-.1.31-.14.15.12.31.25.47.37-.04.29-.09.57-.12.86-.25-.08-.39.08-.54.25-.03.04-.06.08-.09.12.04.19.08.37.12.56.07.02.15.04.24.06-.03.06-.05.11-.08.15-.15.19-.15.33.04.34.17.01.14.12.17.19-.05.65-.08,1.3-.09,1.96-.05,0-.09-.02-.14-.02-.13,0-.26,0-.39,0-.08,0-.15-.02-.24-.04-.2.12-.43.26-.64.4-.07.05-.16.11-.19.19-.1.24-.25.32-.5.23-.03-.01-.09.03-.14.05,0-.07-.02-.13-.02-.19-.02,0-.05,0-.07-.01-.07.12-.13.24-.22.4-.28-.32-.54-.62-.79-.91-.16-.01-.31-.03-.49-.04-.07.21.06.35.19.47.31.29.31.29.09.63-.03.05-.04.12-.05.18-.04.2-.1.38-.3.49-.07.04-.1.16-.14.23-.15-.1-.33-.17-.44-.3-.11-.12-.15-.3-.22-.46-.05-.1-.09-.21-.17-.41-.13.24-.22.4-.31.56q.24.1.21.37c-.38.02-.49.38-.72.6-.08.08-.09.27-.08.41,0,.13.01.32.23.3.04.18.1.36.1.55,0,.17-.09.33-.12.5-.03.13-.04.27-.06.43.19-.03.34-.08.48-.07.09,0,.2.09.24.16.06.13-.03.22-.16.27-.13.06-.26.13-.37.22-.06.04-.1.12-.17.2-.06-.07-.11-.13-.2-.24-.05.28-.1.51-.14.75-.09,0-.18,0-.25,0-.08-.25-.15-.49-.24-.72-.08-.19-.33-.36-.1-.6-.19-.22-.03-.48-.06-.72-.3-.05-.31.33-.5.32-.25-.01-.36.22-.56.22-.02.2-.06.37-.05.54,0,.12.05.26.11.37.12.21.27.41.42.64.05-.08.09-.14.16-.25.03.17.05.31.06.44-.07.05-.13.1-.19.15.06.05.1.12.17.14.1.02.21.02.31,0,.35-.06.35-.06.32.33,0,.05.02.1.03.15.24,0,.48-.16.67.03.08-.08.15-.16.27-.28.02.19.03.3.05.43-.12,0-.24-.02-.32.03-.14.08-.18.23-.1.38.08.16-.04.31-.13.31-.27,0-.25.19-.26.35-.2-.19-.28,0-.36.08.09.18.17.34.28.57.06.01.17.08.25-.12.03-.07.14-.12.25-.2.05.14.08.22.1.31.02.09.03.18.05.28-.18-.04-.22.04-.18.18.08-.02.19-.02.23-.08.1-.12.21-.13.35-.11.27.05.42-.06.49-.31.02-.09.02-.18.03-.28,0-.08,0-.16,0-.25.15-.08.29-.16.48-.26-.09-.21-.17-.41-.27-.6-.14-.27-.43-.06-.64-.19-.06-.17-.1-.36.09-.52.04-.03.04-.12.06-.18.1-.35.15-.73.57-.88.06-.21.29-.34.24-.59-.01-.06,0-.13,0-.22.39-.02.49-.31.57-.59-.1-.11-.19-.2-.32-.34.19-.07.3-.11.44-.17,0,.08.01.13,0,.18-.02.19.08.29.25.29.17,0,.14-.16.15-.27.03-.2.14-.42.3-.61.17-.21.2-.47.14-.74.03,0,.06-.01.09-.02.06.12.11.24.17.36.07.11.15.21.23.32q.25-.29.67-.41c-.01.1-.03.19-.03.27,0,.11-.03.26.03.32.1.1.16.16.04.29-.02.03.02.19.06.19.19.05.41.14.57.08.29-.1.6-.21.8-.48.18,3.34.75,6.57,1.66,9.66-.09.09-.18.21-.27.31.13.22-.09.29-.17.46-.13-.19-.21-.38-.35-.5-.14-.13-.35-.19-.53-.28-.26.33-.15.68-.07,1.03.02.08.06.15.06.23.01.22-.08.31-.39.37.14.15.08.35.16.53.09.22.22.27.39.23.33-.07.49.16.66.35.13.14.06.31-.11.38-.19.07-.38.15-.53.21.08.26.16.49.24.75.1,0,.21-.2.3-.03.07.12.05.28-.08.39-.11.1-.22.2-.34.31.06.1.11.19.16.29-.09.02-.15.03-.22.05-.05-.09-.09-.21-.16-.27-.09-.07-.21-.14-.32-.15-.15,0-.2-.04-.24-.19-.03-.1-.17-.17-.28-.27-.06.12-.11.19-.17.3-.08-.1-.14-.17-.2-.25-.02.07-.02.13-.05.19-.03.05-.07.1-.11.15-.06-.03-.1-.05-.17-.08.08-.07.15-.12.23-.19-.35-.39-.71-.77-1.07-1.17.25-.07.06-.46.36-.47.02-.16-.23-.23-.06-.4.02-.02-.08-.21-.15-.28-.1-.09-.24-.15-.42-.26.04.29.07.53.1.78-.07.04-.2.09-.09.25.06.13.3-.23.29.14-.18-.03-.35-.07-.53-.1-.14.15-.28.28-.26.54,0,.12-.11.24-.19.38-.34.02-.55-.26-.78-.45-.09-.07-.07-.29-.11-.46-.15-.06-.31-.13-.46-.19-.16.06-.3.12-.45.18.16.34.7.2.84.62-.06.02-.11.04-.23.08.27.23.51.44.78.68-.15.04-.24.23-.42.03-.07-.08-.42.07-.54.22.54-.09.68.4.99.66-.07.03-.16.07-.29.12.13.03.22.07.31.08.1,0,.19-.02.35-.05-.11.13-.2.22-.29.32.05.14.37.1.23.36.16.04.34-.05.39.2.02.09.22.16.35.19.15.04.22.11.22.25-.53.27-.58.45-.22.77-.28.22-.28.22-.19.58.03.12.03.25.05.43.14-.21.43-.14.52-.39,0-.03.09-.04.13-.04.08,0,.16,0,.24.02.51.12.51.13.88-.06q.07.18.32.23c0,.1,0,.2.01.31-.07,0-.14-.01-.24-.02.13.27.25.52.35.72-.07.25-.13.48-.2.71.06.06.12.11.18.16.1-.01.13-.23.07-.64.14.05.26.09.38.13,0,.02,0,.05-.01.07.09-.04.18-.08.29-.13-.2-.11-.39-.21-.56-.3.07-.19.14-.35.21-.54.18.11.36.22.57.36.15-.37.25-.69.14-1.04,0,0,0,0,0,0,.01-.09-.02-.35-.05-.42-.06-.13-.11-.27-.17-.39.11-.16.21-.3.31-.45.03,0,.06,0,.09.01-.21.3.29.41.12.7.15.2.17.44.27.7-.13,0-.24,0-.34,0,0,.04-.02.07-.01.09.08.15.27.25.19.48-.01.04.16.15.26.23-.22.08-.39.24-.57.38-.14.11-.16.37-.23.56-.02.05-.02.13-.04.14-.35.09-.25.44-.41.66.46.07.23.49.41.69-.14.23-.3.03-.44.07-.14.04-.29.09-.5.15-.01.16-.04.4-.06.7.23-.07.39-.11.57-.17.05.13.29.13.21.36.14.08.29.15.43.24.08.05.15.11.23.17.03-.05.08-.13.13-.2,0,0,.01,0,.02,0,0-.01,0,0-.01-.02h0c-.02-.09-.07-.19-.06-.29.03-.27,0-.35-.24-.38-.06,0-.13,0-.2,0-.06,0-.12,0-.2.01-.03-.34.35-.29.39-.54.12.14.25.2.29.38.04.18.21.25.4.17,0,0,0,0,0,0,0,0,0,0,0,0h0c.21.01.41-.07.62.06.19.12.38.22.41.43.19.05.36.1.58.16.05-.06.14-.14.21-.23.1-.12.21-.13.31-.03.13.13.24.28.33.44.11.19.18.39.28.62.15-.06.25-.1.34-.13.05.08.13.18.2.29.02-.01.04-.02.07-.03-.02-.08-.03-.17-.05-.25.07-.04.15-.09.24-.15-.2-.16-.28-.42-.57-.46-.04,0-.08-.15-.08-.23,0-.11.05-.22.08-.35.28.03.39.29.59.46.07-.06.15-.11.27-.2-.12-.11-.22-.21-.33-.3-.07-.06-.14-.11-.2-.18-.1-.12-.13-.23.05-.31.04-.02.06-.11.1-.2.16.19.37.35.47.56.11.21.12.47.17.74-.13.19-.27.41-.43.64.09.25.05.32-.22.35q-.31.03-.5.21c.07.02.13.03.17.06.05.03.08.09.14.16.03-.07.05-.12.08-.17.02,0,.06,0,.07.02.07.14.12.29.2.41.07.11.16.22.27.27.18.08.18.37.44.32.11.5.63.38.93.6.17.13.43.07.64-.02,0,0,0,0,0,0,.15.07.29.13.49.22.08.16-.05.47.28.62.15-.12.31-.25.46-.37.08.05.16.09.25.14.04.02.12.06.12.07-.07.22.18.26.24.41.06.15.2.27.33.42-.01.2-.06.41-.36.51-.14-.15-.29-.31-.48-.51-.06.03-.18.1-.32.17-.04-.08-.09-.15-.15-.27-.09.08-.18.16-.29.25-.12-.02-.27-.04-.46-.07-.09-.17-.2-.36-.31-.57.05-.05.1-.11.14-.16-.04-.13-.1-.26-.13-.39-.02-.11.07-.29-.17-.27-.05.11-.11.22-.17.34-.22-.12-.41-.17-.65-.14-.37.05-.75,0-1.22,0-.27.12-.07.57-.29.75-.32-.09-.62-.27-.88-.23-.3.04-.51-.32-.75-.09-.2-.09-.18-.36-.41-.33-.15.02-.29-.32-.42,0-.07-.04-.1-.06-.13-.08-.27-.15-.28-.44-.36-.68-.13-.37-.13-.39-.53-.25-.05-.14-.04-.36-.3-.24-.04.02-.12-.08-.21-.15.1-.04.17-.07.26-.11-.36-.2-.45-.14-.46.22-.27.09-.32-.18-.48-.28-.04.04-.09.09-.17.18,0-.12-.02-.19-.02-.26,0-.2-.22-.49-.43-.56-.1-.03-.19-.08-.27-.13-.11-.07-.22-.14-.31-.23-.1-.09-.18-.2-.31-.34.14-.03.24-.05.35-.08,0-.12-.04-.21-.18-.25-.18-.05-.18-.06-.43.1-.23-.08-.44-.19-.57-.41-.02-.04-.11-.05-.17-.05-.11,0-.21,0-.25-.13ZM135.48,79.71c.04-.11.07-.22.11-.36q.15.19-.11.36ZM135.2,76.84c-.11.04-.21.13-.33.02.11-.18.22-.06.33-.02ZM134.27,77.53s-.04-.1-.06-.14c.03,0,.06-.02.09-.03.01.05.02.1.03.16-.02,0-.04.01-.06.02ZM132.25,76.64s-.04-.04-.06-.06c.09-.13.17-.28.28-.4.1-.11.01-.37.29-.36,0,.13.01.26.02.38-.2.17-.36.31-.52.44ZM131.58,73.29c-.08-.07-.16-.13-.23-.2-.07-.07-.14-.13-.28-.27.19,0,.3-.05.38-.01.1.05.19.14.24.24.06.11.08.25.09.38,0,.15.09.21.22.26-.11.06-.2.12-.3.18-.09-.06-.24-.1-.29-.2-.11-.25-.31-.21-.52-.2.02-.08.03-.14.03-.18.23.03.45.05.66.07,0-.02.01-.05.02-.07ZM131.2,73.72c.01.06.03.13.04.19-.02,0-.05.01-.08.02-.02-.06-.03-.13-.05-.19.03,0,.05-.01.08-.02ZM134.18,58.45s.02-.02.03-.03c0,.21.02.41.03.62-.08-.04-.16-.07-.24-.1.04-.19.32-.26.18-.48ZM133.74,58.59c.13-.11.19-.17.25-.22.02.02.04.05.06.07-.05.07-.12.11-.31.15ZM130.82,59.46s-.02-.07-.02-.1c.1-.03.19-.05.35-.1-.1.22-.2.24-.33.2ZM127.5,61.59c.09-.13.15-.22.21-.31.02.01.05.02.07.03.01.09.03.18.04.28-.11,0-.19,0-.32,0ZM127.13,61.19c-.28-.25-.36-.45-.26-.65.1-.19.2-.21.58-.12q.05.43-.32.77ZM137.28,31.24c.07.06.11.11.17.17-.13.04-.22.08-.33.11-.03-.18-.06-.33-.09-.48.13-.04.24-.08.36-.12.24.2-.09.22-.11.32ZM136.46,38.58c.06-.03.12-.05.18-.08.02.03.03.06.05.08-.07.02-.13.05-.2.07-.01-.03-.02-.05-.03-.08ZM136.49,38.82c.06.07.12.14.19.21-.02.02-.05.03-.07.05-.05-.08-.1-.15-.16-.23l.04-.03ZM135.04,38.1c-.01.17.11.11.2.09-.16.64-.22.73-.48.81-.1-.14-.2-.27-.29-.4l.44.03c-.15-.31-.06-.7.19-.78-.02.09-.05.17-.06.25ZM135.23,37.2c.1-.15.17-.25.24-.35.04,0,.07,0,.11,0,.04.13.08.26.12.42-.19-.03-.31-.04-.47-.07ZM126.53,38.89c.08-.18.1-.35.19-.42.16-.12.27.04.36.16.22-.08.37-.26.64-.17.19.06.42.02.62.02-.09.16-.2.34-.31.54-.06-.05-.11-.08-.16-.12.07-.05.13-.09.19-.14q-.28-.12-.53.15c-.32,0-.62,0-.99-.01ZM127.03,39.03c.11.18.22.16.32.03,0,0,.05,0,.1.02-.03.09-.05.18-.09.33-.15-.11-.26-.18-.37-.26.01-.04.03-.08.04-.12ZM125.1,41.01c.04-.14.07-.26.12-.44.14.06.22.1.35.16-.15.14-.19.35-.47.28ZM125.46,41.34c.05.15.16.31.13.43-.09.39-.16.41-.55.23-.03-.01-.06-.02-.1-.03.14-.21.23-.47.52-.62ZM125.54,40.24c.13.02.29,0,.2.23-.07-.09-.14-.16-.2-.23ZM124.43,39.6c.04.09.17.14.26.21-.06.02-.12.06-.18.07-.19.03-.25-.1-.27-.26-.04-.25-.02-.28.2-.34,0,.11-.04.23,0,.32ZM123.79,40.56c.14-.03.21-.06.28-.05.06.01.12.07.14.09.1-.1.17-.18.24-.26.03,0,.07.02.1.03,0,.09.06.21.02.25-.2.23-.25.5-.29.87-.19-.14-.33-.23-.49-.35.13-.2.27-.38,0-.58ZM123.01,40.19c0-.29.08-.39.4-.46q.05.42-.4.46ZM116.39,50.71q.07.45-.23.53c.08-.18.14-.31.23-.53ZM116.75,51.89c.2.36-.09.52-.2.74-.04-.01-.08-.02-.12-.03.1-.22.2-.45.32-.7ZM114.34,61.6s.08-.08.13-.12l.03.04c-.05.1-.11.21-.16.31-.02-.01-.04-.02-.07-.03.02-.07.04-.14.07-.2ZM116.24,66.53c-.03-.2,0-.38-.07-.48-.15-.19,0-.24.12-.32,0,.25.16.5-.05.79ZM116.58,68.38c-.11-.03-.2-.05-.31-.08,0-.27,0-.5,0-.79.11.32.2.57.31.87ZM115.99,70.97c-.16-.29-.02-.49.09-.7-.04.22.18.47-.09.7ZM115.92,71.42c-.21-.13-.19-.23-.04-.35.01.1.02.19.04.35ZM115.84,72.12c-.01.19-.02.31-.03.43-.16-.13-.2-.25.03-.43ZM116.95,69.08c-.39-.28-.11-.75-.32-1.08.28-.14.05-.34.06-.52,0-.05.03-.1.06-.19.16.37.37.68.11,1,.11.1.19.18.27.25-.05.07-.08.13-.13.19.18.12.35.23.52.34-.17.07-.27.17-.18.36.08.19.18.38.26.57.08-.03.14-.05.2-.07-.01.25-.03.45-.04.65.02,0,.04,0,.06.01-.08.11-.16.21-.26.34-.02-.19-.04-.33-.06-.46-.3-.07-.42-.18-.33-.37.21-.42-.13-.68-.22-1.02ZM117.91,72.85q.19.36.17.8c-.13.03-.25.07-.38.1-.2-.47-.16-.66.2-.9ZM117.4,65.62s-.12.08-.19.12c-.02-.02-.04-.03-.06-.05.06-.18.12-.35.18-.53.27.14.08.31.07.46ZM116.76,66.95s-.05-.03-.05-.03c.02-.04.04-.08.07-.12l.05.02s-.04.09-.06.14ZM118.93,62.01c-.08-.28-.15-.5-.21-.72.02,0,.04-.02.06-.03.1.12.18.25.3.34.09.08.17.15.1.26-.05.07-.15.1-.25.15ZM119.28,62.97s.06,0,.09,0c.01.1.05.2.03.3,0,.04-.13.05-.29.11.08-.19.13-.3.17-.41ZM118.88,62.81q-.42.19-.65,0c.17-.02.32-.04.46-.06.04-.13.07-.25.1-.37.03,0,.06,0,.09.01,0,.14,0,.29,0,.42ZM119.54,63.28c.12.13.18.21-.05.28.02-.1.03-.17.05-.28ZM118.54,65.36c-.08.05-.14.09-.2.12-.02-.2.03-.29.2-.12ZM118.65,73.71c-.14.09-.24.15-.34.2.03-.17.11-.28.34-.2ZM118.95,66.83l.05.09c-.05.04-.11.07-.17.1-.02-.03-.04-.06-.06-.09.06-.03.12-.07.19-.1ZM119.81,76.44c-.1-.05-.19-.09-.26-.12.1-.17.19-.31.28-.46.14.17.17.36-.03.58ZM121.36,77.5c.04.15.03.23-.12.18-.05-.02-.1-.06-.19-.13.13-.02.21-.04.3-.05ZM124.02,77.53c-.07.48.3.88.2,1.35-.1.04-.18.07-.29.12-.01-.08-.02-.15-.03-.21-.04-.35-.09-.7-.13-1.05-.02-.2.25-.45.47-.42.02,0,.04.05.08.09-.12.05-.21.09-.31.12ZM124.83,79.06c-.08-.09-.13-.22-.19-.33-.08,0-.15,0-.18,0-.05-.22-.1-.4-.14-.59-.05-.21-.01-.25.19-.24.07,0,.16,0,.2-.04.15-.15.27-.09.43,0,.2.11.41.19.62.28.02,0,.04.03.05.05-.04.04-.07.09-.15.18.13,0,.19.01.25,0,.05-.01.09-.05.14-.07-.1-.15-.16-.25-.25-.39.11.02.18,0,.21.04.23.21.41.43.31.78-.08.3-.04.34.3.4.03-.07.05-.14.08-.2-.08-.09-.16-.17-.23-.24.1-.04.16-.02.2.01.12.11.22.25.35.33.05.03.17,0,.15.11,0,.05-.1.1-.15.14-.04.03-.08.04-.18.09.18.14.33.24.49.36-.18.23.01.41.11.59.08.13.11.25.02.37-.1.14-.08.41-.35.4-.07-.13-.14-.25-.21-.38.23-.4.07-.7-.41-.75-.04,0-.07-.06-.11-.09.1-.07.19-.14.31-.24-.41-.04-.44-.36-.54-.57-.17.09-.33.18-.49.27-.18.11-.18.21-.03.36.04.04.07.09.11.13-.03.03-.05.05-.08.08-.27-.28-.55-.56-.81-.85ZM125.62,81.2c0,.06-.04.18-.08.18-.18.04-.21-.1-.22-.26.14-.04.27-.1.3.08ZM125.87,80.14c.12.07.22.13.33.19-.03.06-.06.12-.13.26-.02-.23-.31-.2-.2-.45ZM126.45,80.32c.14.05.11.14.05.24-.12,0-.22-.02-.16-.17.01-.04.08-.09.11-.08ZM124.69,74.34s.04-.17.06-.26c.03,0,.07,0,.11,0,.08.26.15.52.22.76.38-.02.72-.02,1.02.17.04-.06.09-.11.17-.23,0,.15,0,.23,0,.34.19.02.38.04.58.06.01-.04.04-.12.06-.19.12.08.24.15.36.22,0,.08.01.17.02.27-.11-.08-.19-.15-.28-.21-.02.02-.05.03-.07.05.13.37.25.74.41,1.2-.43-.13-.76-.23-1.16-.35-.15.05-.35.14-.41.36.08.11.14.19.19.27-.07.02-.34.03-.39.06-.12-.16-.24-.32-.37-.5.12-.06.2-.09.31-.14-.11-.15-.2-.27-.28-.37.03-.06.05-.11.09-.18-.21.07-.41.01-.44-.11-.04-.16-.04-.32-.05-.49.23-.15.25.12.39.21.04-.08.07-.15.1-.23-.19-.05-.35-.1-.52-.15-.04-.18.1-.39-.1-.55ZM126.53,76.94c-.1-.1-.17-.17-.29-.3q.33.01.29.3ZM127.2,74.38c.1.21.19.41.29.62-.07.06-.15.13-.23.2-.07-.18-.14-.37-.21-.55-.04-.12-.06-.23.14-.27ZM128.14,76c-.21.08-.43.28-.72.05,0-.11.02-.23.03-.34.25.1.47.19.7.29ZM127.67,77.89c.19-.06.37-.14.42.14-.13.06-.26.13-.41.2,0-.13,0-.23-.01-.35ZM127.74,78.69s.07.05.11.07c-.03.04-.05.08-.08.11-.01,0-.05-.02-.1-.04.03-.06.06-.1.08-.14ZM127.92,75.86c.08-.3.19-.19.35-.15-.13.06-.21.09-.35.15ZM128.53,79.09c-.13.19-.23.33-.35.49-.02-.2-.04-.36-.06-.52-.07,0-.12.01-.18.02,0-.03,0-.07.01-.1.17.04.35.07.57.12ZM128.06,80.05c-.11.11-.21.22-.31.33-.05-.08-.11-.16-.16-.24-.14-.2-.12-.26.14-.4.11.1.21.2.33.32ZM127.33,78.61c0-.07,0-.13,0-.2.08,0,.15-.01.25-.02.05.27-.05.3-.25.23ZM124.38,69.83c.04.12.08.24.13.4-.14.05-.25.09-.38.13q-.05-.46.25-.53ZM124.09,73.4s.06.02.09.03c.04.18.08.36.13.59-.15-.06-.27-.11-.38-.16.06-.17.11-.32.16-.47ZM123.65,77.2c.11-.05.19-.09.31-.14-.02.12-.03.19-.05.29-.1-.06-.17-.1-.26-.15ZM123.46,69.32c.08-.23.2-.4.5-.53q-.25.51-.5.53ZM126.14,71.11c-.07-.14-.08-.33-.31-.28-.06.01-.14-.07-.18-.1.03-.16.06-.29.08-.42.39-.12.44-.19.33-.53-.06-.04-.12-.08-.17-.11.08-.13.14-.23.24-.39.08.24.21.23.35.1.03.23.07.46.07.69,0,.38.06.8-.41,1.03ZM126.55,71.1c-.06.17-.1.29-.16.45-.09-.13-.15-.22-.23-.32.13-.04.23-.08.39-.13ZM126.99,70.7c-.02.09-.04.18-.07.27-.04-.01-.07-.02-.11-.03.03-.09.06-.18.09-.26.03,0,.06.02.09.03ZM126.98,69.73c.06-.07.08-.13.11-.14.03-.01.08.02.13.04-.02.04-.03.1-.07.12-.03.02-.09,0-.18-.02ZM128.92,81.99c-.19-.23-.51-.37-.53-.72.3-.12.46.04.61.21.23-.2.25-.54.62-.6-.15-.13-.25-.22-.39-.35.25-.02.42-.06.59-.04.16.01.22.25.42.21-.06.26.18.26.3.32-.04.19-.08.35-.14.59-.27-.3-.55-.45-.9-.39.08.22.21.41.2.61,0,.2.27.33.11.55.18.12.05.21-.05.25-.1.05-.21.05-.3-.08-.13-.18-.32-.29-.55-.34-.02,0-.03-.04-.06-.06.02-.06.04-.11.06-.16ZM130.68,85.56c-.08-.02-.15-.12-.19-.15.14-.19.24-.34.34-.47.11.16.11.16.03.42-.03.11-.05.23-.18.21ZM130.86,86.1c.02.14.04.28.06.47q-.24-.18-.06-.47ZM130.61,86.73c-.27.05-.3-.12-.39-.31.25,0,.3.16.39.31ZM130.15,86.26c.05-.06.07-.09.1-.11.04-.02.08-.03.14-.04.03.22-.1.16-.24.15ZM130.18,81.79c.32.09.42-.08.46-.35.01-.1.03-.24.21-.25-.02.17-.03.33-.05.54.16.03.32.07.48.09.24.03.45.26.44.52,0,.22-.06.25-.45.25-.02-.31-.28-.24-.47-.3-.01,0-.04.03-.07.05.02.04.03.09.05.14.02.05.03.09.06.17-.3,0-.27-.23-.36-.37-.1-.15-.19-.3-.31-.49ZM128.61,77.11c.15.07.3.13.44.22.06.04.15.15.14.17-.18.25.11.33.15.51-.37-.19-.51-.57-.73-.9ZM131.66,89.79q-.34.11-.57-.18c.07-.06.13-.11.2-.17.13.12.25.23.37.35ZM130.61,94.26c-.03-.22,0-.35.21-.4q.13.29-.21.4ZM129.53,92.31s.11-.01.19-.02c-.02.11-.02.19-.05.27-.01.04-.06.07-.1.12-.1-.13-.13-.25-.04-.37ZM129.43,91.78c-.12.1-.23.19-.34.29-.12-.16-.38-.24-.33-.52.07,0,.15.02.22,0,.05-.01.1-.06.15-.1-.04-.05-.09-.1-.13-.15,0,0,0,0,.01,0-.02-.08-.03-.17-.06-.29.31,0,.6,0,.88,0,.09.26.54.26.49.64.03-.05.05-.1.09-.18.16.3.27.57.37.87.09.28.36.51.55.76-.13.07-.24.11-.34.17-.15.11-.3.05-.38-.06-.16-.24-.3-.5-.32-.79-.03-.31-.21-.54-.36-.82-.09.15-.16.25-.24.37-.1-.08-.18-.15-.28-.22ZM128.69,93.14c.05-.13.08-.21.12-.31.1.07.17.12.31.23-.18.04-.28.06-.44.09ZM128.47,91.3c.11-.09.19-.16.25-.21.12.1.19.16.27.23-.08.08-.16.16-.24.24-.08-.08-.17-.15-.28-.25ZM128.26,88.57s.06-.05.09-.05c.03,0,.05.04.08.07-.03.02-.06.04-.09.07-.03-.04-.05-.06-.07-.09ZM128.3,80.22c.17-.06.3-.11.46-.16-.03.23.02.45-.23.56-.07-.12-.14-.24-.23-.4ZM128.26,81.05c-.16.04-.33.08-.51.12-.21-.13-.15-.33-.03-.49.09-.11.12-.19.04-.3,0,0,0,0,0,0,.16-.05.24.02.29.16.06.17.14.33.21.51ZM127.87,87.75c.06-.05.09-.1.13-.1.04,0,.08.03.12.05-.03.04-.06.1-.11.13-.02.01-.08-.04-.15-.08ZM119.71,82.04c0-.15-.01-.31-.02-.47.36.18.1.6.37.79-.13.07-.24.13-.42.23.03-.23.06-.39.07-.56ZM118.23,79.26c0-.1.01-.17.03-.25,0-.03.05-.04.08-.07q.05.16-.11.31ZM115.4,73.61c.07-.07.12-.15.11-.29.21.18.26.5.61.46-.02.36.18.69.08,1.05.06.04.16.08.16.12,0,.37.19.61.47.83.36-.07-.04-.39.2-.52.05.04.12.1.18.15.08.07.15.15.24.19.06.03.16-.02.24-.03-.01-.07,0-.17-.05-.21-.12-.12-.26-.22-.38-.31-.07-.16.34-.18.08-.4-.05.07-.1.13-.16.21-.07-.04-.14-.07-.16-.09,0-.24,0-.46,0-.7-.12.02-.21.04-.34.07.06-.39-.5-.47-.4-.87-.18.06-.35.11-.53.17-.07-.26.19-.15.27-.23q-.14-.25-.04-.86c.26.02.53.04.82.06-.05.14-.1.23-.1.32,0,.06.05.17.1.18.18.06.38.09.57.13,0,.32.2.63.09.97-.07-.04-.14-.07-.25-.13.02.08.03.13.04.19.08-.02.14-.05.21-.07h0c.11.11.23.22.35.33-.02.09-.05.2-.09.36.13-.01.23-.02.33-.04.07.2.13.39.2.58.03,0,.05,0,.08,0,.03-.1.05-.19.1-.35.06.18.1.31.14.43-.25,0-.27.02-.23.16-.11.03-.21.06-.32.08-.02.39.35.48.51.73.04.06.08.12.13.19.16-.39.02-.77.02-1.14.15-.33.17-.65-.18-.96.17-.05.28-.07.39-.1.11.59.06.7.46.6.12.17.11.44.39.5.03,0,.06.12.05.16-.02.04-.1.07-.15.09-.03,0-.07-.04-.11-.05-.22-.06-.38.06-.35.28.02.12.08.24.15.36.05.09.12.16.21.27-.09.04-.14.06-.21.09-.02-.09-.03-.16-.05-.26-.08.05-.14.08-.19.11-.06.03-.11.06-.14.07.07.15.13.3.2.45.03.07.06.08.16.06.16-.03.31.19.29.38-.03.21-.09.42-.14.63.13,0,.28,0,.43,0,.09-.11.18-.22.26-.31.31,0,.45.22.65.44,0-.19-.03-.35.22-.36-.04.21.11.31.26.32.15,0,.31-.09.47-.14.03.04.06.09.1.11.33.16.48.41.45.79,0,.08.08.2.16.26.23.19.36.44.44.73.04.14.15.26.23.39.03.05.07.11.1.16.09.16.19.33.29.52-.2.13-.1.35-.06.58.1-.04.19-.07.28-.1.08.1.22.18.23.28.03.23.15.41.23.62.11.27-.04.47-.42.65.04.21.08.44.13.69.08-.02.13-.03.2-.05.01.08.03.16.05.28.1-.02.19-.04.32-.07.03.06.1.15.12.24.06.34.25.54.59.59.04,0,.1.02.1.05.06.25.43.25.44.52,0,.24.26.18.34.33.08.15.22.26.33.39,0,0,.01.02.03.07-.06.05-.14.09-.19.15-.22.21-.18.43.1.59.06.04.11.09.17.13-.01-.18.07-.31.18-.44.44.14.27.14.81.96-.04.14-.09.27-.13.41q-.11-.03-.39-.44c.02.16-.11.27.04.37-.04.05-.08.1-.17.21-.06-.42-.26-.58-.59-.66-.22-.05-.28-.28-.26-.52.02-.24-.06-.31-.36-.33-.03.17-.05.32.07.48.06.09.05.23.08.38.03,0,.1.03.2.06,0,.12.02.25.03.41.29.06.5.34.84.26.19.22.44.34.73.39.02,0,.06.13.04.17-.1.24-.22.47-.31.67.05.1.14.2.12.26-.06.18-.02.29.13.41.1.08.14.23.24.4-.4.01-.72.02-1.04.04.07.36.08.35.42.42.08.01.17.08.21.15.07.11.11.24.13.37.01.07-.05.14-.1.26-.11-.19-.18-.33-.38-.28-.22.05-.37-.1-.41-.29-.03-.16-.1-.18-.23-.24-.28-.11-.49-.41-.63-.74-.04-.09-.06-.24-.24-.14-.01,0-.13-.16-.21-.28-.04.01-.11.03-.17.05-.14-.18-.27-.36-.41-.54-.13,0-.28,0-.43,0-.07,0-.19.03-.18-.14,0-.02-.1-.06-.21-.09-1.42-1.74-2.72-3.57-3.89-5.49.02-.01.04-.03.07-.04.26.18.56.32.72.64.05-.03.11-.06.16-.09.27.13.32.36.29.63.22.04.15.27.25.44.16.06.36.13.59.22.05.19.19.33.42.42.11.04.27.1.2.29,0,.02.02.08.04.09.29.12.36.41.48.65.15.3.14.3.48.45.03-.05.07-.1.1-.16.02-.04.02-.09.03-.16.19.11.14.28.21.4-.09,0-.17.02-.28.03.07.12.13.21.2.33.06-.08.12-.16.19-.24.16.11.3.21.52.2.12,0,.26.21.42.35.06-.06.25-.07.21-.33-.09.07-.14.11-.24.19-.02-.2-.03-.35-.04-.45.14-.1.24-.16.36-.24-.11-.13-.16-.25-.34-.24-.09,0-.21-.11-.28-.2-.16-.2-.31-.41-.45-.62-.1-.14-.19-.26-.4-.29-.23-.03-.46-.15-.61-.21-.03-.26-.05-.43-.07-.6-.29-.06-.35.1-.35.3-.05,0-.08.02-.1,0-.26-.19-.39-.61-.29-.88h0s0,0,0,0c0,0,0,0,0,0,0,0,0,0,0,0-.12,0-.23,0-.35,0-.05-.15-.07-.31-.15-.42-.08-.11-.23-.16-.45-.3.09-.03.16-.06.29-.11-.14-.12-.25-.21-.34-.29-.13.09-.24.15-.37.23-.02-.29-.32-.48-.13-.77-.17-.03-.31-.06-.46-.08-.04-.15-.1-.28-.1-.42,0-.11.27-.18.03-.33-.11.01-.24.03-.4.04,0-.09-.04-.21,0-.23.39-.3.28-.69.22-1.07-.02-.14-.02-.29-.08-.41-.07-.14-.19-.26-.31-.43-.2.35.11.7-.13,1.03-.09-.16-.15-.29-.24-.41-.08-.11-.21-.18-.26-.29-.06-.15-.08-.32-.08-.49,0-.14-.02-.31-.18-.3-.34,0-.41-.22-.45-.45-.28,0-.53,0-.82,0,.03-.11.06-.19.08-.29.06.02.1.02.12.04.04.04.06.1.1.14.02.02.07,0,.16-.02-.17-.2-.21-.4-.03-.59-.42-.18-.47-.15-.5.27-.12.01-.25.02-.37.03-.28-.61-.56-1.23-.82-1.86.12-.03.24-.06.37-.1-.05-.15-.1-.3-.16-.5-.12.08-.2.14-.33.24-.05-.11-.1-.22-.15-.33-.08-.21-.16-.42-.24-.62.01.02.02.03.04.04.09-.06.17-.12.25-.17-.02-.07-.04-.13-.06-.19-.19.09-.14-.16-.27-.19-.03.06-.05.11-.08.17-.07-.19-.15-.38-.22-.58,0-.04,0-.08-.01-.11-.01-.1-.02-.2-.03-.3-.04-.02-.08-.05-.12-.07-.02-.05-.03-.1-.05-.15ZM123.25,85.94s-.08-.04-.12-.06c.02-.03.03-.09.06-.09.04,0,.08.02.15.04-.04.06-.07.11-.08.1ZM123.66,86.41c-.14.14-.24.17-.35-.06.15.03.24.04.35.06ZM118.3,75.75c-.08-.1-.11-.2.03-.28.07,0,.14,0,.24,0-.11.11-.19.2-.27.28ZM116.68,74.78s.06.06.05.09c-.01.04-.06.07-.09.1-.03-.03-.05-.07-.1-.14.07-.03.11-.05.14-.05ZM115.39,70.68c.11.04.18.06.34.12-.16.04-.24.05-.31.07,0-.05-.02-.1-.03-.19ZM115.22,73.06s0,0,.01,0c0,0,0,.03,0,.04,0-.02-.01-.04-.02-.05ZM115.1,72.67s.01-.04.02-.06c0,.03,0,.07,0,.1,0-.01,0-.03-.01-.04ZM115.07,70.63c.08-.22.13-.35.19-.53.15.26.08.4-.19.53ZM115.18,70.01s-.05,0-.08-.01c0-.08.02-.16.02-.23.03,0,.06,0,.09,0-.01.08-.02.17-.04.25ZM114.51,67.85c.13,0,.25-.01.37-.02.02-.09.04-.16.07-.3.12.12.2.2.3.31.03-.12.05-.22.07-.32.05.3.23.61,0,.87-.32-.03.1-.43-.27-.43-.02.06-.03.12-.05.17-.05-.02-.1-.04-.19-.07,0,.2,0,.39,0,.57-.2-.24-.4-.47-.31-.79ZM114.29,69.89s.01-.04.03-.06c.09.15.09.29.07.43-.03-.12-.07-.25-.1-.37ZM114.01,68.6c-.03-.16.03-.31.25-.38.11.46.21.91-.06,1.37,0-.02,0-.03-.01-.05,0-.14,0-.28-.02-.41-.03-.18-.13-.35-.16-.53ZM113.62,66.94c.11-.04.22-.08.34-.12.1.08.19.15.3.24.05-.1.1-.19.14-.27.22.33.16.69.11,1.05-.07-.01-.16-.01-.22-.05-.1-.07-.17-.04-.28,0-.06.02-.13.03-.2.04-.06-.3-.13-.59-.19-.89ZM113.22,64.12c.06-.33.05-.66.08-1.01.22,0,.32.09.36.27.06.29.12.57.19.86.03,0,.05,0,.08,0-.01-.23.03-.47-.05-.67-.1-.26.15-.45-.01-.74.17.08.25.11.35.15-.04.26.05.46.3.53.06.41.12.79.19,1.26-.17-.11-.25-.17-.33-.23-.09.03-.19.06-.28.09-.02.03-.05.06-.1.12.15.04.25.07.23.28-.02.23.07.48.21.71.08.14,0,.48-.14.55-.07.04-.18.04-.26,0-.05-.02-.08-.12-.09-.19-.05-.28.01-.55.08-.81.04-.14.06-.26-.12-.32-.22.18-.1.42-.12.63-.02.26,0,.53-.05.78-.02.1-.09.18-.16.26-.08-.41-.14-.83-.21-1.25.04-.02.07-.04.11-.07-.05-.06-.1-.11-.15-.16,0-.06-.02-.11-.03-.17.13-.29-.12-.57-.07-.87ZM112.85,56.95c.08-.12.09-.23.09-.37,0-.09.08-.18.15-.31-.1-.07-.21-.14-.32-.2.05-1.69.19-3.37.4-5.01.19.28.5.48.35.91-.09-.03-.17-.06-.26-.09-.02.08-.04.15-.07.23-.11.29.03.63-.16.9l.02.05c.19.02.15.19.15.28,0,.3.12.51.41.63-.04.35-.09.68-.13,1.02,0,.05-.02.12,0,.15.23.36.13.74.08,1.11,0,.05.05.11.07.17-.16.12-.29.25-.18.53.1.26.12.56.14.87-.09-.15-.21-.29-.26-.45-.05-.15-.04-.32-.06-.48-.03,0-.05,0-.08,0-.06.15-.12.3-.2.49-.13-.15-.24-.26-.13-.41Z"/><polygon class="cls-2" points="116.19 74.83 116.19 74.83 116.19 74.83 116.19 74.83 116.2 74.83 116.2 74.84 116.19 74.84 116.19 74.83 116.19 74.83"/><path class="cls-2" d="M114.04,64.46s.03.1.04.15c-.13-.04-.14-.05-.04-.15Z"/><path class="cls-2" d="M114.08,64.61s0,0,.01,0h0s0,0,0,0c0,0,0,0,0,0,0,0,0,0,0-.01Z"/><path class="cls-2" d="M118.99,78.43q.07.26-.19.42c.12-.17-.06-.36.19-.42Z"/><path class="cls-2" d="M112.95,55.01c.02-.1.21-.09.21,0,.01.21.27.42,0,.61-.07-.09-.16-.17-.2-.28-.04-.1-.05-.23-.02-.33Z"/><path class="cls-2" d="M123.54,81.67c0,.19-.05.36,0,.5.06.17.21.3.31.45.02.03,0,.09,0,.13-.55-.16-.62-.59-.66-1.09.13,0,.24,0,.34,0Z"/><path class="cls-2" d="M118.33,77.66s0,0-.01,0c0,0,0-.01,0-.02,0,0,0,0,0,0,0,0,0,0,0,.01Z"/><path class="cls-2" d="M153.25,20.73c-.02.1-.04.19-.07.31-.15-.05-.26-.08-.45-.14.2-.1.31-.15.42-.21.03.01.06.02.1.04Z"/><path class="cls-2" d="M118.38,77.46c.02.05-.03.12-.05.19-.19-.28-.21-.35-.15-.61.07.15.15.28.2.42Z"/><path class="cls-2" d="M117.08,76.06c.02-.11.03-.22.06-.39q.38.63.38.91c-.09.01-.18.03-.27.03-.26,0-.3-.09-.2-.34.03-.07.02-.15.03-.22Z"/><path class="cls-2" d="M117.75,76.07c-.07-.02-.14-.04-.27-.08.23-.2.23-.02.27.08Z"/><path class="cls-2" d="M148.46,15.14s-.11-.06-.12-.1c0-.04.04-.09.09-.17.07.1.11.14.11.18,0,.03-.07.09-.08.09Z"/><path class="cls-2" d="M126.41,69.75c-.11.01-.21.02-.32.04.08-.1.17-.17.32-.04Z"/><path class="cls-2" d="M161.83,14.02c.1-.1.18-.05.24.13-.08,0-.17-.02-.25-.03,0,0,0-.08.01-.1Z"/><path class="cls-2" d="M165.4,14.95s.03.03.06.07c-.09.05-.17.1-.29.17-.01-.26.12-.24.23-.24Z"/><path class="cls-2" d="M126.09,69.79s0,0-.01.01h0s0,0-.01,0c0,0,0,0,0,0,0,0,.02,0,.02,0Z"/><path class="cls-2" d="M126.07,70.42c.11-.06.21-.12.32-.17.01.03.03.06.04.08-.11.06-.21.12-.31.18-.02-.03-.03-.06-.05-.09Z"/><path class="cls-2" d="M154.34,19.76c.21-.04.34-.06.49-.09q-.13.26-.49.09Z"/><path class="cls-2" d="M147.8,10.7c-.27.19-.53.34-.92.35.29-.24.52-.47.92-.35Z"/><path class="cls-2" d="M155.67,19.87s-.1.09-.15.13c-.02-.03-.07-.07-.06-.08.04-.05.09-.09.14-.13.02.03.05.05.07.08Z"/><path class="cls-2" d="M159.66,15.84c.01.18-.01.34-.17.44-.15.09-.31.13-.45-.03.05-.11.11-.22.14-.3.17-.04.31-.07.48-.1Z"/><path class="cls-2" d="M159.7,15.5c-.07.08-.09.25-.22.11-.17-.16-.16.14-.3.07-.03-.04-.08-.12-.14-.21.12-.08.22-.15.31-.22.14.1.24.17.36.25Z"/><path class="cls-2" d="M161.86,14.32c.14,0,.24.02.2.2-.12.04-.26.06-.35.13-.11.09-.2.13-.35.09-.1-.03-.23.04-.35.04-.08,0-.15-.04-.31-.08.17-.14.26-.28.38-.3.25-.05.51-.05.77-.07Z"/><path class="cls-2" d="M126.48,86.87s0-.01,0-.02c0,0,0,0,0,0h-.01Z"/><path class="cls-2" d="M126.12,89.25c.02.07.08.16.14.18.26.06.19.23.15.43-.1-.03-.22-.02-.26-.07-.16-.24-.3-.5-.44-.75.03-.02.06-.04.09-.06.14.05.27.11.32.28Z"/><path class="cls-2" d="M122.55,83.66c-.02.19-.04.38-.06.57-.07-.13-.16-.26-.19-.41-.03-.16.08-.2.24-.16Z"/><path class="cls-2" d="M124.3,88.16c.04-.16.06-.24.09-.39.18.23.09.29-.09.39Z"/><path class="cls-2" d="M149.3,10.64c-.05-.15.07-.2.18-.24.09-.03.18-.07.18-.19.2.16,0,.31,0,.47-.02,0-.05.01-.07.02-.11.04-.23.1-.29-.06Z"/><path class="cls-2" d="M120.87,84.52c.16,0,.26,0,.36-.01,0,.13,0,.25,0,.46-.15-.19-.24-.3-.35-.45Z"/><path class="cls-2" d="M123.55,88.22c-.21-.28-.25-.61-.2-.95.18-.03.25.01.31.16.11.29.24.58.38.9-.21.16-.38.03-.48-.1Z"/><path class="cls-2" d="M124.29,84.66s-.04.02-.06.03c-.04-.09-.08-.17-.13-.26.03-.02.05-.04.08-.05.04.1.07.19.11.29Z"/><path class="cls-2" d="M126.48,86.87h.01s0,0,0,.01c0,0,0,0-.01-.01Z"/><path class="cls-2" d="M126.49,86.88c.07.06.13.12.23.21-.25.02-.23-.1-.23-.21Z"/><path class="cls-2" d="M121.22,84.49h.01s0,.01-.01.01c0,0,0,0,0-.01Z"/><path class="cls-2" d="M121.22,84.49s0,0,.01,0c0,0,0,0,0,0h-.01Z"/><path class="cls-2" d="M132.56,54.03c.04.11.08.21.13.33-.17.05-.3.08-.35-.1-.04-.15.07-.2.22-.24Z"/><path class="cls-2" d="M124.73,37.61c-.12.09-.2.16-.28.22q.07-.25.28-.22Z"/><path class="cls-2" d="M124.28,34.79c-.24.11-.45.21-.7.33q.06-.44-.1-.91c-.11-.33.2-.69.57-.69.23,0,.37.19.61.2-.58.22-.37.69-.38,1.08Z"/><path class="cls-2" d="M123.83,32.94c.04.11.08.19.12.3-.17.12-.34.24-.51.36-.02-.02-.05-.05-.07-.07.15-.19.29-.38.45-.59Z"/><path class="cls-2" d="M125.02,37.86c-.12.15-.24.29-.34.4.04.12.07.23.12.37.15-.04.3-.07.46-.12.07.09.15.2.26.34.11-.21.22-.35.08-.57-.07-.12,0-.32,0-.52.25-.13.29-.39.28-.68-.16-.02-.28-.03-.44-.05.04-.12.07-.2.1-.3-.31-.11-.48.2-.79.2.08.12.14.2.2.29-.04.11-.08.22-.12.32.06.1.12.18.2.3ZM125.21,37.25s-.04.07-.07.07c-.03,0-.06-.02-.12-.04.04-.04.07-.07.09-.07.03,0,.06.02.09.04ZM125.06,37.8q.24.11.18.45c-.06-.14-.11-.28-.18-.45Z"/><path class="cls-2" d="M119.39,65.93c.04.19.07.3.09.4.19.1.37.2.59.31.02.18.04.38.06.63-.62-.28-.99-.61-.74-1.34Z"/><path class="cls-2" d="M130.42,44.3l.04-.05c.07.03.15.05.24.09-.04.07-.08.11-.12.19-.06-.09-.11-.16-.15-.22Z"/><path class="cls-2" d="M125.9,27.87q.14-.21.36-.22c-.12.09-.14.26-.36.22Z"/><path class="cls-2" d="M125.73,28.11c.04.29.06.5.1.77q-.37-.31-.1-.77Z"/><path class="cls-2" d="M126.43,28.29c-.11.22-.09.45-.33.55,0-.43.05-.55.33-.55Z"/><path class="cls-2" d="M130.5,53.56c-.09.02-.17.03-.34.07.1-.14.15-.21.23-.32.05.11.07.16.11.25Z"/><path class="cls-2" d="M123.35,37.45c-.07.05-.15.1-.22.14l-.04-.05c.08-.05.15-.09.23-.14l.03.05Z"/><path class="cls-2" d="M119.38,65.86c-.21.05-.24-.13-.27-.26-.03-.13-.11-.29.05-.4.07-.05.16-.1.23-.08.13.02.14.13.11.25-.04.16-.08.33-.11.49Z"/><path class="cls-2" d="M120.46,65.86s-.06.05-.08.08c-.06-.05-.12-.1-.17-.15.19-.09.26-.06.26.07Z"/><path class="cls-2" d="M121.41,67.39c-.06,0-.12.01-.18,0,0,0-.01-.06-.02-.1.06,0,.13.01.19.02,0,.02,0,.05,0,.07Z"/><path class="cls-2" d="M119.71,65.25c-.05-.06-.11-.12-.19-.21.3-.11.26-.31.19-.53.36.47.36.53,0,.74Z"/><path class="cls-2" d="M121.33,66.8c.07-.04.14-.09.21-.13.02.02.03.04.05.06-.06.05-.13.11-.19.16-.02-.03-.04-.06-.07-.09Z"/><path class="cls-2" d="M122.71,37.06c-.18.27-.1.63-.35.91-.11-.09-.2-.17-.28-.24.05-.18.1-.35.14-.49-.1-.04-.15-.06-.2-.08.24-.01.43-.34.7-.1Z"/><path class="cls-2" d="M122.75,38.64s0,.1,0,.15c-.02,0-.04,0-.06,0-.03-.08-.06-.15-.09-.23.02-.01.04-.03.06-.04.03.04.08.07.1.11Z"/><path class="cls-2" d="M123.34,35.67c-.06.25-.19.36-.4.45.04-.26.18-.35.4-.45Z"/><path class="cls-2" d="M121.46,66.2s.06-.07.08-.1c.03.03.07.06.09.1,0,.02-.04.06-.06.08-.03-.03-.07-.06-.11-.09Z"/><path class="cls-2" d="M123.65,35.96c.17-.09.3-.19.36-.39.03-.11.12-.19.24-.37.06.14.11.24.1.25-.28.18-.17.71-.63.73-.04,0-.07.1-.1.16-.03.06-.07.12-.12.2q-.16-.43.15-.58Z"/><path class="cls-2" d="M132.76,25.94c-.11.05-.22.1-.33.15-.14-.14-.16-.26,0-.34.15-.08.28-.02.34.19Z"/><path class="cls-2" d="M130.83,26.94c-.15-.08-.26-.13-.42-.21.24-.08.37-.08.42.21Z"/><path class="cls-2" d="M130.15,26.17c.24-.59.53-1.13,1.3-1.11.08.3.07.28-.17.44-.17.11-.38.27-.42.45-.06.22-.2.23-.35.29.02.09.03.17.04.23-.15.07-.29.14-.46.22q.27-.35.05-.51Z"/><path class="cls-2" d="M128.46,26.16c.14-.13.28-.27.43-.4-.08.19-.14.41-.35.48-.02-.03-.05-.05-.07-.08Z"/><path class="cls-2" d="M128.96,25.1s.1.03.18.05c-.12.09-.17.13-.18.13-.03-.03-.07-.07-.08-.11,0-.02.05-.07.08-.07Z"/><path class="cls-2" d="M117.14,52.75s.07-.03.1-.04c.05.11.09.22.14.33-.04.02-.08.03-.12.05-.04-.11-.08-.22-.12-.34Z"/><path class="cls-2" d="M134.08,27.11c-.2.1-.39.18-.6.28-.15-.48-.15-.49.26-.57.12.1.22.19.34.29Z"/><path class="cls-2" d="M115.85,64.42s.03-.05.05-.07c.13.03.27.06.43.09-.01-.14-.12-.29.11-.42.03.36.06.69.07,1.02,0,.06-.07.11-.12.18-.22-.27-.18-.65-.53-.8Z"/><path class="cls-2" d="M132.89,24.05c-.07.11-.12.19-.16.28-.16-.23-.06-.27.16-.28Z"/><path class="cls-2" d="M125.02,36.56c-.05-.09-.1-.17-.15-.26.02-.01.04-.02.06-.03.05.08.11.17.16.25-.02.01-.05.03-.07.04Z"/><path class="cls-2" d="M124.86,33.53c-.07-.13-.14-.25-.18-.33.2-.19.37-.35.54-.5-.17-.05-.17-.13-.02-.25.04.06.08.11.11.16.1-.06.2-.1.33-.02-.27.32-.52.63-.78.94Z"/><path class="cls-2" d="M124.3,33.15c.06-.17.06-.39.38-.41-.11.18-.2.33-.29.47-.03-.02-.06-.04-.09-.06Z"/><path class="cls-2" d="M125.04,32.14c-.05.06-.11.11-.2.22-.1-.3,0-.31.2-.22Z"/><path class="cls-2" d="M128.69,27.32c.09.23-.07.32-.28.48q.1-.37.28-.48Z"/><path class="cls-2" d="M115.34,62.53c.14-.11.21-.16.28-.21-.07-.07-.13-.12-.19-.17l.02-.04c.1.03.2.06.29.09.06-.1.11-.18.2-.33,0,.23,0,.37,0,.51.07.01.12.02.17.03,0,.02-.02.05-.02.07-.22.01-.43.03-.74.04Z"/><path class="cls-2" d="M122.29,35.19s-.12-.05-.21-.08c.13-.18.22-.35.48-.34.02.24-.12.34-.27.42Z"/><path class="cls-2" d="M127.27,27.06c0,.35-.26.56-.51.78,0-.37.28-.55.51-.78Z"/><path class="cls-2" d="M122.65,35.55c.11-.37.18-.46.49-.58.03.4-.02.46-.49.58Z"/><path class="cls-2" d="M122.84,34.41q.13.22-.17.33c.06-.13.11-.22.17-.33Z"/><path class="cls-2" d="M124.94,35.44c.12.1.16.2-.01.34q-.14-.2.01-.34Z"/><path class="cls-2" d="M134.22,42.03c.16-.15.32-.25.42-.39.09-.14.18-.2.34-.19.06.23-.09.35-.18.51-.09.15-.05.37-.07.56l-.03.04c-.09-.13-.19-.25-.28-.38-.02.15-.04.29-.07.49-.43-.25,0-.49-.12-.63Z"/><path class="cls-2" d="M133.52,40.44s-.04.09-.07.1c-.03,0-.08-.04-.14-.07.05-.06.08-.09.12-.13.03.03.09.06.09.1Z"/><path class="cls-2" d="M133.98,54.33c-.1.07-.16.12-.25.18-.03-.12-.05-.21-.08-.33.09,0,.14,0,.18.02.04.02.07.07.15.13Z"/><path class="cls-2" d="M120.15,65.55c.12-.13.2-.22.28-.32,0,.16.01.34-.28.32Z"/><path class="cls-2" d="M132.51,49.96c.27.21.29.42.06.64-.02-.24-.04-.42-.06-.64Z"/><path class="cls-2" d="M123.65,59.54c.23.67.21.78-.23.97-.13-.19-.26-.39-.4-.61-.08.1-.14.18-.2.27-.13-.11-.25-.2-.37-.3.05-.14.14-.14.26-.09.01,0,.05-.03.13-.08-.17-.03-.26-.06-.38-.08.04-.13.08-.24.13-.39.1.09.15.14.22.21.11-.1.23-.18.37-.01.06.08.2.1.33.16.06-.16.12-.3.18-.45.15.2.45-.2.62.16-.14.03-.25.04-.36.08-.1.04-.19.1-.28.15Z"/><path class="cls-2" d="M124.03,63.48c0,.07,0,.13,0,.2-.03,0-.06,0-.1,0,0-.07.02-.14.03-.21.02,0,.05,0,.07,0Z"/><path class="cls-2" d="M124.34,64.65c-.08-.13-.17-.26-.22-.4-.03-.09.02-.2.03-.3.03,0,.06.01.09.02.1.17.2.34.29.52.02.04-.01.13-.05.17-.02.02-.12.02-.14,0Z"/><path class="cls-2" d="M123.59,66.41q-.25-.22-.04-.43c.01.15.02.26.04.43Z"/><path class="cls-2" d="M132.56,53.23q.28.17.17.51c-.3-.09-.13-.31-.17-.51Z"/><path class="cls-2" d="M121.84,41.56s-.08.03-.12.04c-.07-.13-.14-.25-.24-.44.21.03.21-.23.44-.12-.18.15-.3.31-.08.52Z"/><path class="cls-2" d="M131.24,55.68c.14.03.22.04.35.06-.16.13-.25.19-.35-.06Z"/><path class="cls-2" d="M131.48,44.13c-.02.06-.05.12-.08.18-.03-.01-.06-.03-.09-.04.04-.06.07-.12.11-.17l.06.03Z"/><path class="cls-2" d="M130.39,44.12s-.06,0-.09-.01c.01-.17-.02-.37.05-.52.09-.21.25-.38.4-.6.16.3.16.32.01.44-.03.02-.09.04-.09.04.12.33-.22.42-.28.66Z"/><path class="cls-2" d="M131.58,44.17c.05-.1.1-.19.15-.29-.02.11-.03.21-.05.32-.03-.01-.07-.02-.1-.03Z"/><path class="cls-2" d="M131.04,44.44s-.03.1-.05.15h-.05s-.01-.08-.02-.12c0-.15.06-.12.11-.04Z"/><path class="cls-2" d="M131.73,43.86s0,0,.01,0c0,0,0,0-.01,0,0,0,0,0,0,.01,0,0,0-.01,0-.02h0Z"/><path class="cls-2" d="M131.36,52.92s.06,0,.09,0c0,.15,0,.3,0,.45-.03,0-.06,0-.09,0,0-.15,0-.3,0-.45Z"/><path class="cls-2" d="M132.2,55.96s-.06,0-.09,0c0-.07,0-.14,0-.22,0,0,.06,0,.1,0,0,.07,0,.15,0,.22Z"/><path class="cls-2" d="M132.06,43.93c-.14-.03-.23-.04-.32-.06.09-.05.18-.19.32.06Z"/><path class="cls-2" d="M132.41,51.28c.17-.08.31-.16.46-.23q.13.36-.23.64c-.07-.13-.15-.26-.23-.41Z"/><path class="cls-2" d="M121.5,42.25c-.01.09-.09.19-.16.25-.03.03-.19-.02-.19-.03-.02-.18-.04-.37,0-.54.03-.11.18-.19.28-.28.03.02.06.04.09.06,0,.18.01.36-.01.54Z"/><path class="cls-2" d="M116.96,48.79c-.03.06-.06.11-.09.17-.02,0-.04-.02-.06-.03.02-.06.04-.12.06-.18.03.01.06.02.09.04Z"/><path class="cls-2" d="M118.23,44.24c-.24.22-.32.46-.2.77.03.08.03.16.06.31.15-.11.27-.2.4-.3-.02.47-.33.62-.7.74-.06-.07-.12-.14-.18-.2-.04.28-.08.55-.12.83-.26-.01-.48.16-.72-.05.1-.07.19-.12.28-.18.22-.16.23-.22.13-.51-.03-.08.03-.2.05-.28.12.02.19.05.26.04.02,0,.07-.1.05-.13-.04-.06-.1-.12-.16-.14-.06-.02-.14,0-.21,0-.01-.14-.06-.27-.03-.37.03-.08.17-.12.24-.19.06-.05.08-.14.13-.2.04-.05.09-.09.17-.17q-.05.27.07.53c-.03-.48.2-.74.51-.95.17.22.17.25-.04.44Z"/><path class="cls-2" d="M118.14,46.94q0-.24.17-.37c-.06.13-.1.22-.17.37Z"/><path class="cls-2" d="M117.84,62.01s-.06.07-.08.06c-.05-.01-.08-.05-.17-.1.06-.03.1-.08.12-.07.05.02.09.07.13.11Z"/><path class="cls-2" d="M119.99,53.58c-.11.16-.18.27-.25.38-.02-.02-.05-.03-.07-.05.06-.12-.07-.35.32-.33Z"/><path class="cls-2" d="M118.61,56.31s-.08.08-.13.1c-.02,0-.06-.05-.19-.14.1-.04.16-.09.22-.08.04,0,.1.09.09.12Z"/><path class="cls-2" d="M117.95,50.4q-.13.31-.39.26c.16-.12.17-.33.39-.26Z"/><path class="cls-2" d="M118.47,42.96s-.1-.05-.15-.08l.1-.17s.07-.04.1-.06c.02.06.06.12.06.17,0,.05-.06.12-.1.13Z"/><path class="cls-2" d="M117.74,48.2c-.07.09-.13.18-.2.27q.01-.36.2-.27Z"/><path class="cls-2" d="M120.53,36.17c.19-.35.37-.69.56-1.04.02.01.04.02.06.03,0,.27,0,.54,0,.85-.11.25-.43,0-.62.16Z"/><path class="cls-2" d="M120.67,67.19c-.09-.13-.15-.23-.21-.33.03-.02.05-.04.08-.06.08.07.17.13.26.21-.04.06-.07.11-.13.19Z"/><path class="cls-2" d="M120.54,67.36c.12.14.19.22.29.34-.1.03-.15.05-.22.07-.02-.12-.04-.22-.07-.41Z"/><path class="cls-2" d="M119.82,51.68c-.1.13-.11.24,0,.36.04.05.08.09.18.2-.21.04-.36.07-.55.11.27.13.19.37.21.6.04-.05.07-.08.12-.13.02.06.04.1.03.11-.14.24-.34.47-.3.78,0,.01-.1.04-.2.07.03-.13.05-.21.07-.31-.08,0-.14,0-.23,0,.01.21.15.47-.18.56-.05-.15.02-.38-.27-.34-.02,0-.05-.06-.08-.08-.42-.31-.53-.76-.55-1.25,0-.09.04-.24,0-.26-.24-.14.04-.5-.26-.61,0,0,.02-.07.03-.1.02-.05.08-.12.06-.15-.15-.26.14-.19.21-.28-.05-.11-.09-.22-.14-.34.05-.06.1-.13.14-.19.06-.09.24-.15.08-.31-.02-.02.08-.15.13-.22.02-.02.07-.02.11-.03.05.1.1.19.15.3.21-.05.42-.09.62-.14.2-.06.45,0,.48.14.04.19.23.12.27.27-.05.29.06.56.32.8-.14.03-.24.05-.27.06-.09.16-.14.28-.22.38Z"/><path class="cls-2" d="M119.36,42.5c0,.19,0,.37,0,.59-.3-.36-.29-.49,0-.59Z"/><path class="cls-2" d="M118.7,42.61c.03-.07.05-.14.08-.21.03.01.06.03.1.04-.03.07-.06.14-.09.21-.03-.01-.06-.03-.09-.04Z"/><path class="cls-2" d="M119.36,43.08c0,.16,0,.26,0,.36-.19-.11-.17-.21,0-.36Z"/><path class="cls-2" d="M119.46,46.93c.01-.08.02-.15.03-.23.02,0,.05,0,.07.01-.01.08-.02.15-.03.23-.02,0-.05,0-.07-.01Z"/><path class="cls-2" d="M118.8,46.76c0-.12,0-.23-.02-.35-.03-.29-.12-.59-.06-.87.05-.26.07-.48-.06-.71.1-.08.19-.14.27-.2.09-.06.18-.13.26-.19.14.16.05.26-.03.37-.11.16-.26.33-.15.53.1.19,0,.29-.14.5.22.02.36.03.51.04-.04.18-.05.36-.11.53-.11.32-.21.38-.47.34Z"/><path class="cls-2" d="M143.01,91.66s-.07.06-.11.04c-.11-.07-.18-.17-.12-.31.08.1.15.18.22.27Z"/><path class="cls-2" d="M137.49,84.21c.15.18,0,.3-.16.46-.09-.15-.17-.27-.25-.4.15-.14.3-.19.41-.07Z"/><path class="cls-2" d="M137.81,84.6c.13.03.23.05.37.09q-.23.15-.37-.09Z"/><path class="cls-2" d="M137.47,83.48c.24.09.44.16.64.24-.15.13-.3.25-.45.38-.09-.03-.18-.06-.24-.08.02-.2.04-.37.05-.54Z"/><path class="cls-2" d="M139.81,84.19c.13.06.21.19.1.35-.16-.03-.3-.06-.55-.11.24-.03.19-.36.44-.24Z"/><path class="cls-2" d="M131.87,68.94c.06-.03.15.02.25.04-.08.17-.13.29-.21.47-.14-.25-.15-.45-.04-.51Z"/><path class="cls-2" d="M142.52,85.4c0,.12,0,.22,0,.35-.17-.07-.32-.14-.49-.21.14-.25.31-.19.49-.14Z"/><path class="cls-2" d="M131.29,80.12c.05.11.09.21.14.33-.2.13-.3.05-.34-.1-.03-.12.02-.22.2-.24Z"/><path class="cls-2" d="M136.77,82.29q.05-.26.47-.46c.14.07.29.15.44.22-.03.06-.05.1-.06.13-.02.06-.08.13-.06.18.06.27-.08.39-.26.57-.18.17-.33.2-.49.1-.14-.09-.25-.19-.42-.16,0-.04-.01-.08-.02-.11q-.16-.07-.13-.36c.07.17.11.26.15.34.04,0,.09.01.17.02-.06-.16-.1-.28-.14-.41-.15,0-.28,0-.41,0-.02-.11-.03-.21-.05-.35.31.1.48.44.82.3Z"/><path class="cls-2" d="M134.43,81.71c.03.2.06.34.08.5-.25-.02-.23-.19-.26-.32,0-.04.09-.09.17-.18Z"/><path class="cls-2" d="M135.34,82.67c-.11-.05-.2-.09-.26-.11,0-.18,0-.31,0-.49.17-.01.33-.03.47-.04-.08.23-.14.42-.22.64Z"/><path class="cls-2" d="M129.82,70.47s0,.05,0,.08c0,.08-.12.12-.13.06-.01-.05.03-.12.06-.23.06.08.07.08.07.09Z"/><path class="cls-2" d="M129.47,62.87c.25-.16-.06-.38.19-.53.16-.1-.07-.47.27-.48.14.22.28.44.42.66-.22.27-.44.44-.87.36Z"/><path class="cls-2" d="M131.62,69.33c0,.11,0,.19,0,.26,0,.04,0,.08,0,.12-.24-.25-.3-.06-.39.08-.06-.16-.05-.26.11-.32.09-.03.17-.09.28-.15Z"/><path class="cls-2" d="M130.59,71.1c.23-.05.29.18.39.31-.09.29-.28.27-.56.16.09-.16-.09-.41.17-.47Z"/><path class="cls-2" d="M131.9,71.09c-.08.12-.15.2-.21.29,0-.14-.04-.3.21-.29Z"/><path class="cls-2" d="M129.57,68.04c.34-.18.55.09.8.24-.03.11-.05.22-.08.36.18-.01.36-.06.5.13-.07.08-.13.15-.2.22-.11.12-.14.26,0,.34.26.13.27.37.35.6-.12.07-.26.11-.32.19-.15.19-.35.15-.5.09-.1-.04-.13-.25-.21-.42-.22.04-.32,0-.32-.07.11-.13.19-.21.28-.31-.14-.09-.2-.21-.08-.27.2-.11.17-.32.25-.43-.07-.07-.13-.16-.21-.21-.32-.16-.32-.16-.27-.47Z"/><path class="cls-2" d="M131.02,75.99s.04-.04.07-.05c.05.06.1.11.16.17-.03.03-.06.05-.08.08-.05-.07-.09-.13-.14-.2Z"/><path class="cls-2" d="M148.1,15.84c-.01-.15-.02-.24-.03-.39.15.03.27.05.46.09-.19.13-.29.2-.43.3Z"/><path class="cls-2" d="M130.46,74.82c.05-.09.09-.17.17-.3.11.21.06.29-.08.34-.02,0-.04-.01-.09-.03Z"/><path class="cls-2" d="M134.88,80.12c-.22.14-.27-.13-.52-.14q.42-.14.52.14Z"/><path class="cls-2" d="M137.95,83.21c-.07-.06-.11-.15-.17-.25.15-.03.27-.02.31-.08.05-.07.03-.18.04-.28.26.02.45-.36.78-.15q-.18.63-.67.58v.04c.21.18.3.51.64.55.05,0,.1.08.12.14.06.16.11.32.19.55-.16-.17-.26-.29-.36-.4-.08.07-.15.12-.24.19,0-.48-.04-.54-.43-.78-.07-.04-.15-.06-.2-.11Z"/><path class="cls-2" d="M131.99,79.14h-.01s0-.01.02-.01c0,0,0,0,0,.01Z"/><path class="cls-2" d="M131.99,79.13c.04-.08.07-.16.13-.3.06.22.06.32-.13.3Z"/><path class="cls-2" d="M131.9,79.22s.05-.04.08-.07c0,.14-.02.28-.03.44-.29-.21-.29-.23-.05-.37Z"/><path class="cls-2" d="M131.99,79.14s0,0-.01,0c0,0,0-.01,0-.02h0Z"/><path class="cls-2" d="M143.18,14.64c-.2.1-.34.17-.48.24-.03-.03-.06-.05-.09-.08.06-.13.12-.26.18-.39.13.08.23.14.39.23Z"/><path class="cls-2" d="M141.94,15.74c-.13.05-.18.22-.36.12.12-.33.14-.34.36-.12Z"/><path class="cls-2" d="M143.19,14.66c.12-.04.21-.07.36-.12-.11.2-.19.27-.36.12Z"/><path class="cls-2" d="M147.83,13.88c.1-.15.16-.06.24-.05,0,.07,0,.17-.03.21-.12.12-.25.23-.39.31-.09.05-.21.03-.32.04,0-.03,0-.05-.01-.08.18-.14.39-.26.51-.44Z"/><path class="cls-2" d="M132.14,78.41c.13-.02.28,0,.29.19-.17.03-.33.05-.5.08-.04-.15.05-.25.21-.28Z"/><path class="cls-2" d="M133.25,77.57s.05-.03.08-.04c.03.09.05.18.08.27-.02,0-.04.01-.06.02-.03-.08-.06-.16-.09-.24Z"/><path class="cls-2" d="M132.72,77.42q.3.21.21.46c-.13-.11-.26-.21-.21-.46Z"/><path class="cls-2" d="M132.65,77.19s-.03-.06-.05-.09c.05-.02.1-.05.15-.04.04,0,.09.06.09.09,0,.03-.04.09-.08.09-.03,0-.07-.03-.11-.05Z"/><path class="cls-2" d="M131.16,79.04c.24.12.24.3.34.47-.31-.02-.28-.23-.34-.47Z"/><path class="cls-2" d="M131.75,79.16c-.13-.11-.21-.18-.29-.25.19-.04.26.04.29.25Z"/><path class="cls-2" d="M133.58,79.46c.13.04.32-.14.4.09.03.07-.29.26-.46.27-.05,0-.1-.01-.16-.02,0-.12.02-.24.03-.38.07.01.13.02.19.03Z"/><path class="cls-2" d="M132.94,79.57c-.08.23.15.38.22.62-.1.05-.2.11-.3.16.26.17.29.23.2.53-.11-.05-.21-.09-.33-.14.01-.17-.04-.32-.17-.44l-.05-.02c-.2.11-.22.11-.26-.08-.04-.15-.04-.31-.03-.46.02-.18.08-.35.13-.54.19.12.39.25.6.38Z"/><path class="cls-2" d="M133.11,79.1c.07.06.13.12.25.22-.27.03-.32-.03-.25-.22Z"/><path class="cls-2" d="M133.68,82.23c-.11-.01-.19-.02-.31-.03.14-.19.22-.13.31.03Z"/><path class="cls-2" d="M133.27,78.91c-.31.02-.13-.26-.29-.37.29.01.31.17.29.37Z"/><path class="cls-2" d="M125.09,59.27c-.02-.1-.02-.24.04-.3.19-.2.31.01.48.09-.11.18-.2.33-.34.55-.09-.16-.16-.24-.18-.34Z"/><path class="cls-2" d="M128.22,56.82c-.35.13-.37-.24-.57-.35.37-.17.43-.13.57.35Z"/><path class="cls-2" d="M134.32,86.35c.44-.06.66.06.93.56-.12,0-.24,0-.36,0-.03.09-.06.17-.09.28-.22-.13-.42-.24-.62-.35.01-.07.02-.15.04-.23.03-.09.06-.17.1-.25Z"/><polygon class="cls-2" points="128.43 65.07 128.44 65.07 128.44 65.07 128.43 65.07"/><path class="cls-2" d="M126.06,66.88s.11.04.13.08c.04.13.06.27.08.38-.13.09-.23.15-.35.23-.03-.04-.08-.09-.08-.09.12-.16.09-.34.11-.52,0-.03.08-.08.12-.07Z"/><path class="cls-2" d="M125.07,58.54c-.05,0-.13-.12-.13-.19-.01-.15.07-.24.27-.23.02.09.05.17.06.24.02.14-.1.19-.2.18Z"/><path class="cls-2" d="M132.87,85.92c.14.04.24.07.34.09-.15.14-.25.13-.34-.09Z"/><path class="cls-2" d="M131.51,60.37s.03-.04.05-.06c.05.04.09.08.14.12l-.05.05s-.1-.08-.14-.12Z"/><path class="cls-2" d="M133.79,85.49c.03.45.06.45-.02.59-.06-.12-.09-.31-.19-.36-.23-.12-.25-.31-.24-.54.1.16.43-.04.45.32Z"/><path class="cls-2" d="M132.94,85.63s-.07,0-.07,0c-.02-.06-.04-.12-.06-.19.03,0,.07,0,.1-.01,0,.07.02.13.03.2Z"/><path class="cls-2" d="M127.26,59.06s0,.07,0,.15c-.08-.08-.14-.13-.19-.19-.25.17.08.27,0,.47-.09.04-.23.1-.39.18-.09-.45-.04-.68.15-.75.17-.06.33,0,.45.14Z"/><path class="cls-2" d="M125.51,72.83c.06-.03.11-.06.17-.08l.03.06s-.1.08-.15.11c-.02-.03-.03-.06-.05-.09Z"/><path class="cls-2" d="M130.12,78.8s-.01-.07,0-.1c.02-.04.05-.1.08-.1.03,0,.11.05.1.07,0,.05-.04.1-.08.13-.02.02-.06,0-.1,0Z"/><path class="cls-2" d="M130.1,78.85s0-.04,0-.05c0,0,0,0,.01,0,0,0,0,0,0,.01,0,.01-.01.03-.02.04Z"/><path class="cls-2" d="M115.67,63.82c-.11-.08-.17-.12-.27-.2.24-.1.24,0,.27.2Z"/><path class="cls-2" d="M128.5,65.51c-.31-.13-.32-.16-.06-.44.17.12.09.28.06.44Z"/><path class="cls-2" d="M130,79.07c.03-.07.07-.14.1-.22,0,.08-.02.16-.03.24-.02,0-.05-.02-.07-.02Z"/><path class="cls-2" d="M135.01,73.01s0,0,0,0c0,0,0,0,0,0-.02-.01-.01,0,0,0Z"/><path class="cls-2" d="M135.62,81.52c.07.03.14.06.23.09-.17.07-.18.06-.23-.09Z"/><path class="cls-2" d="M135.99,80.86c.04.08.08.17.14.3-.26-.07-.29-.16-.14-.3Z"/><polygon class="cls-2" points="128.43 65.07 128.44 65.07 128.43 65.08 128.43 65.07"/><path class="cls-2" d="M136.68,90.66c.19-.02.28-.02.37-.03.04.09.08.17.12.27-.35-.05-.69-.04-.89-.45.25-.05.46-.1.72-.15-.11.13-.19.22-.32.37Z"/><path class="cls-2" d="M128.17,62.86c.01.11.02.21.03.3-.07,0-.12,0-.21,0,.03-.1.04-.19.07-.27,0-.02.06-.02.1-.03Z"/><path class="cls-2" d="M135.95,87.48c-.01-.08-.02-.15-.04-.25q.17.15.04.25Z"/><path class="cls-2" d="M127.4,64.81c0-.09.02-.17.03-.26.03,0,.07,0,.1.01-.01.09-.02.17-.04.26-.03,0-.06,0-.09-.01Z"/><path class="cls-2" d="M127.65,73.24c.25-.24.29-.26.64-.16.15.05.32.12.3.33-.33.1-.61-.07-.94-.18Z"/><path class="cls-2" d="M128.51,72.49c0-.17,0-.32,0-.52.24.28.24.31,0,.52Z"/><path class="cls-2" d="M129.23,73.15c-.05-.17-.09-.31.05-.42q.22.2-.05.42Z"/><path class="cls-2" d="M134.25,72.02s-.06.01-.09.02c-.02-.08-.04-.17-.06-.25.03,0,.07-.02.1-.02.02.08.03.17.05.25Z"/><path class="cls-2" d="M129.24,69.67c-.06.11-.1.19-.15.3q-.07-.22.15-.3Z"/><path class="cls-2" d="M126.7,67.51c.06-.04.12-.09.17-.13.02.03.04.06.05.09-.06.03-.12.06-.19.09,0,0-.03-.03-.04-.05Z"/><path class="cls-2" d="M125.9,62.12c-.37.05-.42.4-.64.59-.01.01-.05,0-.13,0,.03-.23,0-.49.11-.67.17-.27-.2-.43-.06-.66-.14-.12-.24-.18-.29-.27-.1-.18-.17-.37-.24-.55-.1-.25.02-.52.32-.69,0,.2-.07.4.13.54.02.01,0,.12-.04.17-.09.11-.12.19-.03.32.05.07.04.18.07.3q.28,0,.53.26c-.25.29-.26.4.01.59-.02-.08-.04-.12-.03-.16,0-.07.03-.2.06-.2.08,0,.19.01.25.06.11.09.1.37,0,.38Z"/><path class="cls-2" d="M132.7,85.97c-.24.08-.33-.08-.44-.22.16.03.38-.05.44.22Z"/><path class="cls-2" d="M125.69,65.94c.05-.16.26-.28.42-.43.03.09.05.13.07.2.12-.07.23-.13.33-.19l.02.04c-.22.33-.45.66-.67.98-.21-.17-.22-.42-.17-.61Z"/><path class="cls-2" d="M135.2,86.11s-.05-.08-.07-.12c-.13-.21-.11-.26.12-.29.05,0,.09,0,.14,0-.05.13.09.34-.19.4Z"/><path class="cls-2" d="M115.37,60.32c-.11-.34.25-.53.21-.83.14,0,.22.02.16.16-.03.06-.1.1-.11.16-.04.17-.14.39-.26.52Z"/><path class="cls-2" d="M126.27,64.31c-.05-.06-.13-.12-.15-.19-.01-.04.07-.11.15-.21.07.11.13.18.14.25,0,.04-.09.1-.14.15Z"/><path class="cls-2" d="M125.69,62.71c.14-.13.27-.24.3-.45.01-.12.16-.19.28-.11.12.07.11.17.04.3-.14.24-.39.2-.61.26Z"/><path class="cls-2" d="M125.84,63.78s-.06.07-.07.06c-.05-.03-.09-.07-.15-.12.06-.03.1-.07.11-.07.04.03.08.08.11.12Z"/><path class="cls-2" d="M126.18,42.49q.16.1.01.28c0-.11,0-.19-.01-.28Z"/><polygon class="cls-2" points="245.3 59.88 243.71 57.62 245.39 55.42 242.64 55.66 241.57 53.12 240.41 55.62 237.67 55.27 239.26 57.53 237.58 59.73 240.33 59.48 241.4 62.03 242.56 59.53 245.3 59.88"/><path class="cls-2" d="M224.64,47.85c-.92,0-1.8.17-2.64.41,5.08.09,9.17,4.22,9.17,9.32s-4.09,9.23-9.17,9.32c.85.24,1.72.41,2.64.41,5.37,0,9.73-4.35,9.73-9.73s-4.35-9.73-9.73-9.73Z"/><polygon class="cls-2" points="76.38 58.76 0 57.89 0 57.26 76.38 56.39 76.38 58.76"/><polygon class="cls-2" points="79.45 59.88 81.03 57.62 79.36 55.42 82.11 55.66 83.18 53.12 84.34 55.62 87.08 55.27 85.49 57.53 87.17 59.73 84.42 59.48 83.35 62.03 82.19 59.53 79.45 59.88"/><path class="cls-2" d="M100.11,47.85c.92,0,1.8.17,2.64.41-5.08.09-9.17,4.22-9.17,9.32s4.09,9.23,9.17,9.32c-.85.24-1.72.41-2.64.41-5.37,0-9.73-4.35-9.73-9.73s4.35-9.73,9.73-9.73Z"/><polygon class="cls-2" points="72.11 72.6 75.8 69.65 71.4 71.36 70.68 66.69 69.96 71.36 65.56 69.65 69.25 72.6 65.56 75.56 69.96 73.84 70.68 78.52 71.4 73.84 75.8 75.56 72.11 72.6"/><polygon class="cls-2" points="78.38 89.17 80.38 87.57 78 88.5 77.61 85.98 77.22 88.5 74.84 87.57 76.84 89.17 74.84 90.77 77.22 89.84 77.61 92.37 78 89.84 80.38 90.77 78.38 89.17"/><polygon class="cls-2" points="57.48 82.97 58.72 81.97 57.23 82.55 56.99 80.97 56.75 82.55 55.26 81.97 56.51 82.97 55.26 83.97 56.75 83.39 56.99 84.97 57.23 83.39 58.72 83.97 57.48 82.97"/><polygon class="cls-2" points="49.74 67.71 51.73 66.11 49.36 67.04 48.97 64.52 48.58 67.04 46.2 66.11 48.2 67.71 46.2 69.31 48.58 68.38 48.97 70.9 49.36 68.38 51.73 69.31 49.74 67.71"/><polygon class="cls-2" points="30.08 69.35 31.92 67.88 29.73 68.73 29.37 66.41 29.02 68.73 26.82 67.88 28.66 69.35 26.82 70.82 29.02 69.97 29.37 72.29 29.73 69.97 31.92 70.82 30.08 69.35"/><polygon class="cls-2" points="89.32 77.32 91.31 75.72 88.93 76.65 88.55 74.12 88.16 76.65 85.78 75.72 87.77 77.32 85.78 78.91 88.16 77.99 88.55 80.51 88.93 77.99 91.31 78.91 89.32 77.32"/><polygon class="cls-2" points="100.26 85.52 101.5 84.52 100.02 85.1 99.77 83.52 99.53 85.1 98.05 84.52 99.29 85.52 98.05 86.52 99.53 85.94 99.77 87.52 100.02 85.94 101.5 86.52 100.26 85.52"/><polygon class="cls-2" points="252.65 72.6 248.96 69.65 253.37 71.36 254.08 66.69 254.8 71.36 259.2 69.65 255.52 72.6 259.2 75.56 254.8 73.84 254.08 78.52 253.37 73.84 248.96 75.56 252.65 72.6"/><polygon class="cls-2" points="246.38 89.17 244.39 87.57 246.77 88.5 247.15 85.98 247.54 88.5 249.92 87.57 247.93 89.17 249.92 90.77 247.54 89.84 247.15 92.37 246.77 89.84 244.39 90.77 246.38 89.17"/><polygon class="cls-2" points="267.29 82.97 266.04 81.97 267.53 82.55 267.77 80.97 268.01 82.55 269.5 81.97 268.25 82.97 269.5 83.97 268.01 83.39 267.77 84.97 267.53 83.39 266.04 83.97 267.29 82.97"/><polygon class="cls-2" points="275.02 67.71 273.03 66.11 275.41 67.04 275.8 64.52 276.18 67.04 278.56 66.11 276.57 67.71 278.56 69.31 276.18 68.38 275.8 70.9 275.41 68.38 273.03 69.31 275.02 67.71"/><polygon class="cls-2" points="294.68 69.35 292.84 67.88 295.04 68.73 295.39 66.41 295.75 68.73 297.94 67.88 296.11 69.35 297.94 70.82 295.75 69.97 295.39 72.29 295.04 69.97 292.84 70.82 294.68 69.35"/><polygon class="cls-2" points="235.44 77.32 233.45 75.72 235.83 76.65 236.22 74.12 236.6 76.65 238.98 75.72 236.99 77.32 238.98 78.91 236.6 77.99 236.22 80.51 235.83 77.99 233.45 78.91 235.44 77.32"/><polygon class="cls-2" points="224.51 85.52 223.26 84.52 224.75 85.1 224.99 83.52 225.23 85.1 226.72 84.52 225.47 85.52 226.72 86.52 225.23 85.94 224.99 87.52 224.75 85.94 223.26 86.52 224.51 85.52"/><polygon class="cls-2" points="72.11 42.58 75.8 45.54 71.4 43.82 70.68 48.5 69.96 43.82 65.56 45.54 69.25 42.58 65.56 39.63 69.96 41.34 70.68 36.67 71.4 41.34 75.8 39.63 72.11 42.58"/><polygon class="cls-2" points="78.38 26.01 80.38 27.61 78 26.68 77.61 29.21 77.22 26.68 74.84 27.61 76.84 26.01 74.84 24.42 77.22 25.34 77.61 22.82 78 25.34 80.38 24.42 78.38 26.01"/><polygon class="cls-2" points="57.48 32.22 58.72 33.22 57.23 32.64 56.99 34.21 56.75 32.64 55.26 33.22 56.51 32.22 55.26 31.22 56.75 31.8 56.99 30.22 57.23 31.8 58.72 31.22 57.48 32.22"/><polygon class="cls-2" points="49.74 47.48 51.73 49.07 49.36 48.15 48.97 50.67 48.58 48.15 46.2 49.07 48.2 47.48 46.2 45.88 48.58 46.81 48.97 44.28 49.36 46.81 51.73 45.88 49.74 47.48"/><polygon class="cls-2" points="30.08 45.84 31.92 47.31 29.73 46.45 29.37 48.78 29.02 46.45 26.82 47.31 28.66 45.84 26.82 44.36 29.02 45.22 29.37 42.89 29.73 45.22 31.92 44.36 30.08 45.84"/><polygon class="cls-2" points="89.32 37.87 91.31 39.47 88.93 38.54 88.55 41.06 88.16 38.54 85.78 39.47 87.77 37.87 85.78 36.27 88.16 37.2 88.55 34.68 88.93 37.2 91.31 36.27 89.32 37.87"/><polygon class="cls-2" points="100.26 29.67 101.5 30.66 100.02 30.08 99.77 31.66 99.53 30.08 98.05 30.66 99.29 29.67 98.05 28.67 99.53 29.25 99.77 27.67 100.02 29.25 101.5 28.67 100.26 29.67"/><polygon class="cls-2" points="252.65 42.58 248.96 45.54 253.37 43.82 254.08 48.5 254.8 43.82 259.2 45.54 255.52 42.58 259.2 39.63 254.8 41.34 254.08 36.67 253.37 41.34 248.96 39.63 252.65 42.58"/><polygon class="cls-2" points="246.38 26.01 244.39 27.61 246.77 26.68 247.15 29.21 247.54 26.68 249.92 27.61 247.93 26.01 249.92 24.42 247.54 25.34 247.15 22.82 246.77 25.34 244.39 24.42 246.38 26.01"/><polygon class="cls-2" points="267.29 32.22 266.04 33.22 267.53 32.64 267.77 34.21 268.01 32.64 269.5 33.22 268.25 32.22 269.5 31.22 268.01 31.8 267.77 30.22 267.53 31.8 266.04 31.22 267.29 32.22"/><polygon class="cls-2" points="275.02 47.48 273.03 49.07 275.41 48.15 275.8 50.67 276.18 48.15 278.56 49.07 276.57 47.48 278.56 45.88 276.18 46.81 275.8 44.28 275.41 46.81 273.03 45.88 275.02 47.48"/><polygon class="cls-2" points="294.68 45.84 292.84 47.31 295.04 46.45 295.39 48.78 295.75 46.45 297.94 47.31 296.11 45.84 297.94 44.36 295.75 45.22 295.39 42.89 295.04 45.22 292.84 44.36 294.68 45.84"/><polygon class="cls-2" points="235.44 37.87 233.45 39.47 235.83 38.54 236.22 41.06 236.6 38.54 238.98 39.47 236.99 37.87 238.98 36.27 236.6 37.2 236.22 34.68 235.83 37.2 233.45 36.27 235.44 37.87"/><polygon class="cls-2" points="224.51 29.67 223.26 30.66 224.75 30.08 224.99 31.66 225.23 30.08 226.72 30.66 225.47 29.67 226.72 28.67 225.23 29.25 224.99 27.67 224.75 29.25 223.26 28.67 224.51 29.67"/></g></svg>