<?xml version="1.0" encoding="UTF-8"?><svg id="_レイヤー_2" xmlns="http://www.w3.org/2000/svg" viewBox="0 0 139.26 51.93"><defs><style>.cls-1{fill:#b19552;}</style></defs><g id="_飾り"><polygon class="cls-1" points="84.45 15.08 91.33 9.56 83.12 12.76 81.78 4.05 80.45 12.76 72.23 9.56 79.11 15.08 72.23 20.59 80.45 17.39 81.78 26.1 83.12 17.39 91.33 20.59 84.45 15.08"/><polygon class="cls-1" points="96.15 45.97 99.86 43 95.43 44.73 94.7 40.02 93.98 44.73 89.55 43 93.26 45.97 89.55 48.95 93.98 47.22 94.7 51.93 95.43 47.22 99.86 48.95 96.15 45.97"/><polygon class="cls-1" points="57.16 34.41 59.48 32.55 56.71 33.63 56.26 30.69 55.81 33.63 53.03 32.55 55.36 34.41 53.03 36.27 55.81 35.19 56.26 38.13 56.71 35.19 59.48 36.27 57.16 34.41"/><polygon class="cls-1" points="42.74 5.96 46.45 2.98 42.02 4.71 41.3 0 40.57 4.71 36.14 2.98 39.85 5.96 36.14 8.93 40.57 7.2 41.3 11.91 42.02 7.2 46.45 8.93 42.74 5.96"/><polygon class="cls-1" points="6.08 9.01 9.5 6.27 5.42 7.86 4.75 3.53 4.09 7.86 0 6.27 3.42 9.01 0 11.76 4.09 10.16 4.75 14.5 5.42 10.16 9.5 11.76 6.08 9.01"/><polygon class="cls-1" points="116.54 23.87 120.26 20.89 115.82 22.62 115.1 17.91 114.38 22.62 109.94 20.89 113.66 23.87 109.94 26.84 114.38 25.12 115.1 29.82 115.82 25.12 120.26 26.84 116.54 23.87"/><polygon class="cls-1" points="136.94 39.17 139.26 37.31 136.49 38.39 136.03 35.44 135.58 38.39 132.81 37.31 135.13 39.17 132.81 41.03 135.58 39.95 136.03 42.89 136.49 39.95 139.26 41.03 136.94 39.17"/></g></svg>