<?xml version="1.0" encoding="UTF-8"?><svg id="_レイヤー_2" xmlns="http://www.w3.org/2000/svg" viewBox="0 0 47.62 45.38"><defs><style>.cls-1{fill:#b19552;}</style></defs><g id="_飾り"><path class="cls-1" d="M16.44,14.95L0,17.45l11.98,11.53-2.71,16.4,14.67-7.83,14.76,7.64-2.91-16.37,11.83-11.68-16.47-2.29L23.7,0l-7.26,14.95ZM24.69,22.11l-.11-16.96,5.05,10.07-4.94,6.89ZM43.14,19.43l-8.56,8.45-8.63-2.75,17.2-5.71ZM22.11,26.45l-10.63,14.82,1.97-11.95,8.66-2.87ZM24.28,36.02l-.06-9.37,11.11,15.09-11.05-5.72ZM16.17,16.53l5,6.79-16.07-5.11,11.07-1.68Z"/></g></svg>