<?xml version="1.0" encoding="UTF-8"?><svg id="_レイヤー_2" xmlns="http://www.w3.org/2000/svg" viewBox="0 0 251.33 251.33"><defs><style>.cls-1{fill:none;stroke:#b19552;stroke-linecap:round;stroke-miterlimit:10;stroke-width:3px;}.cls-2{fill:#b19552;}</style></defs><g id="_レイヤー_12"><path class="cls-2" d="M247.26,134.85l2.35.15c.89.06,1.66-.62,1.72-1.52.06-.89-.62-1.66-1.52-1.72l-2.35-.15c-.89-.06-1.66.62-1.72,1.52-.06.89.62,1.66,1.52,1.72"/><path class="cls-2" d="M232.37,133.94l5.63.34c.89.05,1.66-.63,1.72-1.52s-.63-1.66-1.52-1.72l-5.63-.34c-.89-.05-1.66.63-1.72,1.52-.05.89.63,1.66,1.52,1.72"/><path class="cls-2" d="M220.61,133.21l1.14.07c.89.06,1.66-.62,1.72-1.51.06-.89-.62-1.66-1.51-1.72l-1.14-.07c-.89-.06-1.66.62-1.72,1.51-.06.89.62,1.66,1.51,1.72"/><path class="cls-2" d="M245.13,150.67l2.31.45c.88.17,1.73-.4,1.9-1.28.17-.88-.4-1.73-1.28-1.9l-2.31-.45c-.88-.17-1.73.4-1.9,1.28-.17.88.4,1.73,1.28,1.9"/><path class="cls-2" d="M230.48,147.82l5.54,1.08c.88.17,1.73-.4,1.9-1.28.17-.88-.4-1.73-1.28-1.9l-5.54-1.08c-.88-.17-1.73.4-1.9,1.28-.17.88.4,1.73,1.28,1.9"/><path class="cls-2" d="M218.93,145.57l1.12.22c.88.17,1.73-.41,1.9-1.29.17-.88-.41-1.73-1.29-1.9l-1.12-.22c-.88-.17-1.73.41-1.9,1.29-.17.88.41,1.73,1.28,1.9"/><path class="cls-2" d="M240.81,166.04l2.23.75c.85.28,1.77-.17,2.05-1.02s-.17-1.77-1.02-2.05l-2.23-.75c-.85-.28-1.77.17-2.05,1.02s.17,1.77,1.02,2.05"/><path class="cls-2" d="M226.66,161.29l5.35,1.8c.85.29,1.77-.17,2.05-1.02.28-.85-.17-1.77-1.02-2.05l-5.35-1.8c-.85-.28-1.77.17-2.05,1.02-.28.85.17,1.77,1.02,2.05"/><path class="cls-2" d="M215.5,157.54l1.08.36c.85.28,1.77-.17,2.05-1.02.28-.85-.17-1.77-1.02-2.05l-1.08-.36c-.85-.28-1.77.18-2.05,1.02-.28.85.18,1.77,1.02,2.05"/><path class="cls-2" d="M234.51,180.71l2.11,1.03c.8.39,1.77.06,2.17-.74.39-.8.06-1.77-.74-2.17l-2.11-1.03c-.8-.39-1.77-.06-2.17.74-.39.8-.06,1.77.74,2.17"/><path class="cls-2" d="M221.11,174.14l5.07,2.48c.8.39,1.77.06,2.17-.74.39-.8.06-1.77-.74-2.17l-5.07-2.48c-.8-.39-1.77-.06-2.17.74-.39.8-.06,1.77.74,2.17"/><path class="cls-2" d="M210.53,168.96l1.02.5c.8.4,1.77.06,2.17-.74.4-.8.06-1.77-.74-2.17l-1.02-.5c-.8-.4-1.77-.06-2.17.74-.4.8-.06,1.77.74,2.17"/><path class="cls-2" d="M226.46,194.49l1.96,1.3c.75.5,1.75.29,2.25-.45.5-.75.29-1.75-.45-2.25l-1.96-1.3c-.75-.5-1.75-.29-2.25.45-.5.74-.29,1.75.45,2.25"/><path class="cls-2" d="M214.03,186.23l4.7,3.12c.75.5,1.75.29,2.25-.45.5-.75.29-1.75-.45-2.25l-4.7-3.12c-.75-.5-1.75-.29-2.25.45-.5.74-.29,1.75.45,2.25"/><path class="cls-2" d="M204.23,179.71l.95.63c.74.5,1.75.3,2.25-.45.5-.74.3-1.75-.45-2.25l-.95-.63c-.74-.5-1.75-.3-2.25.45-.5.74-.3,1.75.45,2.25"/><path class="cls-2" d="M216.56,207l1.77,1.54c.67.59,1.7.52,2.29-.16s.52-1.7-.16-2.29l-1.77-1.54c-.67-.59-1.7-.52-2.29.16-.59.67-.52,1.7.16,2.29"/><path class="cls-2" d="M205.31,197.2l4.25,3.71c.67.59,1.7.52,2.29-.16.59-.67.52-1.7-.16-2.29l-4.25-3.71c-.67-.59-1.7-.52-2.29.16-.59.67-.52,1.7.16,2.29"/><path class="cls-2" d="M196.44,189.46l.86.75c.68.59,1.7.52,2.29-.16.59-.68.52-1.7-.16-2.29l-.86-.75c-.68-.59-1.7-.52-2.29.16-.59.68-.52,1.7.16,2.29"/><path class="cls-2" d="M205.16,218.16l1.56,1.76c.59.67,1.62.73,2.29.14.67-.59.73-1.62.14-2.29l-1.56-1.76c-.59-.67-1.62-.73-2.29-.14-.67.59-.73,1.62-.14,2.29"/><path class="cls-2" d="M195.28,206.98l3.74,4.23c.59.67,1.62.73,2.29.14s.73-1.62.14-2.29l-3.74-4.23c-.59-.67-1.62-.73-2.29-.14-.67.59-.73,1.62-.14,2.29"/><path class="cls-2" d="M187.48,198.15l.75.85c.59.67,1.62.73,2.29.14.67-.59.73-1.62.14-2.29l-.76-.85c-.59-.67-1.62-.73-2.29-.14-.67.59-.73,1.62-.14,2.29"/><path class="cls-2" d="M192.48,227.85l1.31,1.95c.5.74,1.51.94,2.25.44s.94-1.51.44-2.25l-1.31-1.95c-.5-.74-1.51-.94-2.25-.44-.74.5-.94,1.51-.44,2.25"/><path class="cls-2" d="M184.14,215.48l3.16,4.68c.5.74,1.51.94,2.25.44.74-.5.94-1.51.44-2.25l-3.16-4.68c-.5-.74-1.51-.94-2.25-.44-.74.5-.94,1.51-.44,2.25"/><path class="cls-2" d="M177.56,205.71l.64.94c.5.74,1.51.94,2.25.44.74-.5.94-1.51.44-2.25l-.64-.94c-.5-.74-1.51-.94-2.25-.44-.74.5-.94,1.51-.44,2.25"/><path class="cls-2" d="M178.52,235.6l1.05,2.1c.4.8,1.37,1.13,2.17.73.8-.4,1.13-1.37.73-2.17l-1.05-2.1c-.4-.8-1.37-1.13-2.17-.73-.8.4-1.13,1.37-.73,2.17"/><path class="cls-2" d="M171.87,222.24l2.52,5.05c.4.8,1.37,1.13,2.17.73.8-.4,1.13-1.37.73-2.17l-2.52-5.05c-.4-.8-1.37-1.13-2.17-.73-.8.4-1.13,1.37-.73,2.17"/><path class="cls-2" d="M166.62,211.7l.51,1.02c.4.8,1.37,1.13,2.17.73.8-.4,1.13-1.37.73-2.17l-.51-1.02c-.4-.8-1.37-1.13-2.17-.73-.8.4-1.13,1.37-.73,2.17"/><path class="cls-2" d="M163.72,241.58l.76,2.22c.29.85,1.21,1.3,2.06,1.01.85-.29,1.3-1.21,1.01-2.06l-.76-2.22c-.29-.85-1.21-1.3-2.06-1.01-.85.29-1.3,1.21-1.01,2.06"/><path class="cls-2" d="M158.88,227.46l1.83,5.34c.29.85,1.21,1.3,2.06,1.01.85-.29,1.3-1.21,1.01-2.06l-1.83-5.34c-.29-.85-1.21-1.3-2.06-1.01-.85.29-1.3,1.21-1.01,2.06"/><path class="cls-2" d="M155.06,216.32l.37,1.08c.29.85,1.21,1.3,2.06,1.01.85-.29,1.3-1.21,1.01-2.06l-.37-1.08c-.29-.85-1.21-1.3-2.06-1.01-.85.29-1.3,1.21-1.01,2.06"/><path class="cls-2" d="M148.28,245.64l.46,2.3c.18.88,1.03,1.44,1.91,1.27.88-.18,1.44-1.03,1.27-1.91l-.46-2.3c-.18-.88-1.03-1.45-1.91-1.27-.88.18-1.44,1.03-1.27,1.91"/><path class="cls-2" d="M145.33,231.01l1.11,5.53c.18.88,1.03,1.45,1.91,1.27s1.45-1.03,1.27-1.91l-1.11-5.54c-.18-.88-1.03-1.45-1.91-1.27s-1.45,1.03-1.27,1.91"/><path class="cls-2" d="M143.01,219.46l.22,1.12c.18.88,1.03,1.45,1.91,1.27.88-.18,1.45-1.03,1.27-1.91l-.22-1.12c-.18-.88-1.03-1.45-1.91-1.27-.88.18-1.45,1.03-1.27,1.91"/><path class="cls-2" d="M132.42,247.43l.16,2.34c.06.89.83,1.57,1.73,1.51s1.57-.83,1.51-1.73l-.16-2.34c-.06-.89-.83-1.57-1.73-1.51-.89.06-1.57.83-1.51,1.73"/><path class="cls-2" d="M131.4,232.54l.38,5.63c.06.89.83,1.57,1.73,1.51.89-.06,1.57-.83,1.51-1.73l-.38-5.63c-.06-.89-.83-1.57-1.73-1.51s-1.57.83-1.51,1.73"/><path class="cls-2" d="M130.61,220.8l.08,1.14c.06.89.83,1.57,1.73,1.51s1.57-.83,1.51-1.73l-.08-1.14c-.06-.89-.83-1.57-1.73-1.51-.89.06-1.57.83-1.51,1.73"/><path class="cls-2" d="M116.47,247.26l-.14,2.35c-.06.89.62,1.66,1.52,1.72s1.66-.62,1.72-1.52l.14-2.34c.05-.89-.62-1.66-1.52-1.72-.89-.05-1.66.62-1.72,1.52"/><path class="cls-2" d="M117.39,232.37l-.35,5.63c-.06.89.62,1.66,1.52,1.72.89.06,1.66-.62,1.72-1.52l.35-5.63c.06-.89-.62-1.66-1.52-1.72-.89-.05-1.66.62-1.72,1.52"/><path class="cls-2" d="M118.11,220.62l-.07,1.14c-.05.89.62,1.66,1.52,1.72.89.05,1.66-.63,1.72-1.52l.07-1.14c.05-.89-.63-1.66-1.52-1.72-.89-.05-1.66.62-1.72,1.52"/><path class="cls-2" d="M100.66,245.13l-.45,2.3c-.17.88.4,1.73,1.28,1.9.88.17,1.73-.4,1.9-1.28l.45-2.3c.17-.88-.4-1.73-1.28-1.9-.88-.17-1.73.4-1.9,1.28"/><path class="cls-2" d="M103.51,230.48l-1.08,5.54c-.17.88.4,1.73,1.28,1.9s1.73-.4,1.9-1.28l1.08-5.54c.17-.88-.4-1.73-1.28-1.9s-1.73.4-1.9,1.28"/><path class="cls-2" d="M105.76,218.93l-.22,1.12c-.17.88.4,1.73,1.28,1.9.88.17,1.73-.4,1.9-1.28l.22-1.12c.17-.88-.4-1.73-1.28-1.9s-1.73.4-1.9,1.28"/><path class="cls-2" d="M85.29,240.81l-.75,2.23c-.29.85.17,1.77,1.02,2.05.85.28,1.77-.17,2.05-1.02l.75-2.23c.28-.85-.17-1.77-1.02-2.05-.85-.28-1.77.17-2.05,1.02"/><path class="cls-2" d="M90.04,226.66l-1.8,5.35c-.28.85.17,1.77,1.02,2.05.85.28,1.77-.17,2.05-1.02l1.8-5.35c.28-.85-.17-1.77-1.02-2.05-.85-.28-1.77.17-2.05,1.02"/><path class="cls-2" d="M93.79,215.5l-.36,1.08c-.28.85.17,1.77,1.02,2.05.85.29,1.77-.17,2.05-1.02l.36-1.08c.28-.85-.17-1.77-1.02-2.05-.85-.29-1.77.17-2.05,1.02"/><path class="cls-2" d="M70.62,234.51l-1.03,2.11c-.39.8-.06,1.77.74,2.17s1.77.06,2.17-.74l1.03-2.11c.39-.8.06-1.77-.74-2.17s-1.77-.06-2.17.74"/><path class="cls-2" d="M77.18,221.11l-2.48,5.07c-.39.8-.06,1.77.74,2.17.8.39,1.77.06,2.17-.74l2.48-5.07c.39-.8.06-1.77-.74-2.17-.8-.39-1.77-.06-2.17.74"/><path class="cls-2" d="M82.37,210.54l-.5,1.02c-.39.8-.06,1.77.74,2.17.8.39,1.77.06,2.17-.74l.5-1.02c.39-.8.06-1.77-.74-2.17-.8-.39-1.77-.06-2.17.74"/><path class="cls-2" d="M56.84,226.46l-1.3,1.96c-.5.74-.29,1.75.45,2.25.74.5,1.75.29,2.25-.45l1.3-1.96c.5-.74.29-1.75-.45-2.25s-1.75-.29-2.25.45"/><path class="cls-2" d="M65.1,214.03l-3.13,4.7c-.5.75-.29,1.75.45,2.25.75.5,1.75.29,2.25-.45l3.13-4.7c.5-.75.29-1.75-.45-2.25-.75-.5-1.75-.29-2.25.45"/><path class="cls-2" d="M71.62,204.23l-.63.95c-.5.74-.29,1.75.45,2.25.74.5,1.75.29,2.25-.45l.63-.95c.5-.75.29-1.75-.45-2.25-.74-.5-1.75-.29-2.25.45"/><path class="cls-2" d="M44.33,216.56l-1.54,1.77c-.59.67-.52,1.7.16,2.29.67.59,1.7.52,2.29-.16l1.54-1.77c.59-.67.52-1.7-.15-2.29-.67-.59-1.7-.52-2.29.15"/><path class="cls-2" d="M54.13,205.32l-3.71,4.25c-.59.67-.52,1.7.16,2.29.67.59,1.7.52,2.29-.16l3.71-4.25c.59-.67.52-1.7-.16-2.29-.67-.59-1.7-.52-2.29.16"/><path class="cls-2" d="M61.87,196.44l-.75.86c-.59.67-.52,1.7.16,2.29.67.59,1.7.52,2.29-.16l.75-.86c.59-.67.52-1.7-.16-2.29-.67-.59-1.7-.52-2.29.16"/><path class="cls-2" d="M33.17,205.16l-1.76,1.56c-.67.59-.73,1.62-.14,2.29s1.62.73,2.29.14l1.76-1.56c.67-.59.73-1.62.14-2.29s-1.62-.73-2.29-.14"/><path class="cls-2" d="M44.35,195.28l-4.23,3.74c-.67.59-.73,1.62-.14,2.29.59.67,1.62.73,2.29.14l4.23-3.74c.67-.59.73-1.62.14-2.29-.59-.67-1.62-.73-2.29-.14"/><path class="cls-2" d="M53.17,187.49l-.85.75c-.67.59-.73,1.62-.14,2.29.59.67,1.62.73,2.29.14l.85-.75c.67-.59.73-1.62.14-2.29-.59-.67-1.62-.73-2.29-.14"/><path class="cls-2" d="M23.48,192.48l-1.95,1.31c-.74.5-.94,1.51-.44,2.25s1.51.94,2.25.44l1.95-1.31c.74-.5.94-1.51.44-2.25s-1.51-.94-2.25-.44"/><path class="cls-2" d="M35.85,184.14l-4.68,3.15c-.74.5-.94,1.51-.44,2.25.5.74,1.51.94,2.25.44l4.68-3.15c.74-.5.94-1.51.44-2.25-.5-.74-1.51-.94-2.25-.44"/><path class="cls-2" d="M45.62,177.56l-.94.64c-.74.5-.94,1.51-.44,2.25.5.74,1.51.94,2.25.44l.94-.64c.74-.5.94-1.51.44-2.25-.5-.74-1.51-.94-2.25-.44"/><path class="cls-2" d="M15.73,178.53l-2.1,1.05c-.8.4-1.13,1.37-.73,2.17s1.37,1.13,2.17.73l2.1-1.05c.8-.4,1.13-1.37.73-2.17s-1.37-1.13-2.17-.73"/><path class="cls-2" d="M29.08,171.87l-5.05,2.52c-.8.4-1.13,1.37-.73,2.17.4.8,1.37,1.13,2.17.73l5.05-2.52c.8-.4,1.13-1.37.73-2.17-.4-.8-1.37-1.13-2.17-.73"/><path class="cls-2" d="M39.62,166.62l-1.02.51c-.8.4-1.13,1.37-.73,2.17.4.8,1.37,1.13,2.17.73l1.02-.51c.8-.4,1.13-1.37.73-2.17-.4-.8-1.37-1.13-2.17-.73"/><path class="cls-2" d="M9.75,163.72l-2.22.76c-.85.29-1.3,1.21-1.01,2.06.29.85,1.21,1.3,2.06,1.01l2.22-.76c.85-.29,1.3-1.21,1.01-2.06-.29-.85-1.21-1.3-2.06-1.01"/><path class="cls-2" d="M23.87,158.88l-5.34,1.83c-.85.29-1.3,1.21-1.01,2.06s1.21,1.3,2.06,1.01l5.34-1.83c.85-.29,1.3-1.21,1.01-2.06-.29-.85-1.21-1.3-2.06-1.01"/><path class="cls-2" d="M35.01,155.06l-1.08.37c-.85.29-1.3,1.21-1.01,2.06.29.85,1.21,1.3,2.06,1.01l1.08-.37c.85-.29,1.3-1.21,1.01-2.06-.29-.85-1.21-1.3-2.06-1.01"/><path class="cls-2" d="M5.69,148.28l-2.3.46c-.88.18-1.45,1.03-1.27,1.91.18.88,1.03,1.45,1.91,1.27l2.3-.46c.88-.18,1.45-1.03,1.27-1.91-.18-.88-1.03-1.45-1.91-1.27"/><path class="cls-2" d="M20.32,145.33l-5.53,1.11c-.88.18-1.45,1.03-1.27,1.91s1.03,1.45,1.91,1.27l5.53-1.11c.88-.18,1.45-1.03,1.27-1.91-.18-.88-1.03-1.45-1.91-1.27"/><path class="cls-2" d="M31.86,143.01l-1.12.22c-.88.18-1.44,1.03-1.27,1.91.18.88,1.03,1.44,1.91,1.27l1.12-.22c.88-.18,1.45-1.03,1.27-1.91-.18-.88-1.03-1.44-1.91-1.27"/><path class="cls-2" d="M3.89,132.42l-2.34.16c-.89.06-1.57.84-1.51,1.73.06.89.84,1.57,1.73,1.5l2.34-.16c.89-.06,1.57-.83,1.5-1.73s-.84-1.57-1.73-1.51"/><path class="cls-2" d="M18.78,131.41l-5.63.38c-.89.06-1.57.83-1.51,1.73s.83,1.57,1.73,1.51l5.63-.38c.89-.06,1.57-.83,1.51-1.73-.06-.89-.83-1.57-1.73-1.51"/><path class="cls-2" d="M30.53,130.61l-1.14.08c-.89.06-1.57.84-1.5,1.73.06.89.84,1.57,1.73,1.5l1.14-.08c.89-.06,1.57-.84,1.5-1.73-.06-.89-.84-1.57-1.73-1.5"/><path class="cls-2" d="M4.06,116.48l-2.34-.15c-.89-.06-1.66.62-1.72,1.52-.06.89.62,1.66,1.52,1.72l2.34.15c.89.06,1.66-.62,1.72-1.52.06-.89-.62-1.66-1.52-1.72"/><path class="cls-2" d="M18.96,117.39l-5.63-.35c-.89-.06-1.66.62-1.72,1.52-.06.89.62,1.66,1.52,1.72l5.63.35c.89.06,1.66-.62,1.72-1.52.06-.89-.62-1.66-1.52-1.72"/><path class="cls-2" d="M30.71,118.11l-1.14-.07c-.89-.05-1.66.63-1.72,1.52-.05.89.63,1.66,1.52,1.72l1.14.07c.89.05,1.66-.63,1.72-1.52.05-.89-.63-1.66-1.52-1.72"/><path class="cls-2" d="M6.2,100.66l-2.31-.45c-.88-.17-1.73.4-1.9,1.28-.17.88.4,1.73,1.28,1.9l2.31.45c.88.17,1.73-.4,1.9-1.28.17-.88-.4-1.73-1.28-1.9"/><path class="cls-2" d="M20.85,103.51l-5.54-1.08c-.88-.17-1.73.4-1.9,1.28-.17.88.4,1.73,1.28,1.9l5.54,1.08c.88.17,1.73-.4,1.9-1.28.17-.88-.4-1.73-1.28-1.9"/><path class="cls-2" d="M32.4,105.76l-1.12-.22c-.88-.17-1.73.4-1.9,1.28-.17.88.4,1.73,1.28,1.9l1.12.22c.88.17,1.73-.4,1.9-1.28.17-.88-.4-1.73-1.28-1.9"/><path class="cls-2" d="M10.52,85.29l-2.23-.75c-.85-.29-1.77.17-2.05,1.02-.29.85.17,1.77,1.02,2.05l2.23.75c.85.29,1.77-.17,2.05-1.02.29-.85-.17-1.77-1.02-2.05"/><path class="cls-2" d="M24.67,90.04l-5.35-1.8c-.85-.28-1.77.17-2.05,1.02-.28.85.17,1.77,1.02,2.05l5.35,1.8c.85.28,1.77-.17,2.05-1.02.28-.85-.17-1.77-1.02-2.05"/><path class="cls-2" d="M35.83,93.79l-1.08-.36c-.85-.29-1.77.17-2.05,1.02-.29.85.17,1.77,1.02,2.05l1.08.36c.85.29,1.77-.17,2.05-1.02.29-.85-.17-1.77-1.02-2.05"/><path class="cls-2" d="M16.81,70.62l-2.11-1.03c-.8-.39-1.77-.06-2.17.74-.39.8-.06,1.77.74,2.17l2.11,1.03c.8.39,1.77.06,2.17-.74.39-.8.06-1.77-.74-2.17"/><path class="cls-2" d="M30.21,77.18l-5.07-2.48c-.8-.39-1.77-.06-2.17.74-.39.8-.06,1.77.74,2.17l5.07,2.48c.8.39,1.77.06,2.17-.74.39-.8.06-1.77-.74-2.17"/><path class="cls-2" d="M40.79,82.36l-1.02-.5c-.8-.39-1.77-.06-2.17.74-.39.8-.06,1.77.74,2.17l1.02.5c.8.39,1.77.06,2.17-.74.39-.8.06-1.77-.74-2.17"/><path class="cls-2" d="M24.86,56.84l-1.96-1.3c-.75-.5-1.75-.29-2.25.45-.5.75-.29,1.75.45,2.25l1.96,1.3c.74.5,1.75.29,2.25-.45.5-.74.29-1.75-.45-2.25"/><path class="cls-2" d="M37.29,65.1l-4.7-3.13c-.74-.5-1.75-.29-2.25.45-.5.75-.29,1.75.45,2.25l4.7,3.13c.75.5,1.75.29,2.25-.45.5-.75.29-1.75-.45-2.25"/><path class="cls-2" d="M47.1,71.62l-.95-.63c-.75-.5-1.75-.29-2.25.45-.5.75-.29,1.75.45,2.25l.95.63c.75.5,1.75.29,2.25-.45.5-.75.29-1.75-.45-2.25"/><path class="cls-2" d="M34.77,44.33l-1.77-1.54c-.67-.59-1.7-.52-2.29.16-.59.67-.52,1.7.16,2.29l1.77,1.54c.67.59,1.7.52,2.29-.16s.52-1.7-.16-2.29"/><path class="cls-2" d="M46.01,54.13l-4.25-3.71c-.67-.59-1.7-.52-2.29.16-.59.67-.52,1.7.16,2.29l4.25,3.71c.67.59,1.7.52,2.29-.16.59-.67.52-1.7-.16-2.29"/><path class="cls-2" d="M54.89,61.87l-.86-.75c-.67-.59-1.7-.52-2.29.15-.59.67-.52,1.7.15,2.29l.86.75c.67.59,1.7.52,2.29-.15s.52-1.7-.15-2.29"/><path class="cls-2" d="M46.17,33.17l-1.56-1.76c-.59-.67-1.62-.73-2.29-.14-.67.59-.73,1.62-.14,2.29l1.56,1.76c.59.67,1.62.73,2.29.14.67-.59.73-1.62.14-2.29"/><path class="cls-2" d="M56.05,44.35l-3.74-4.23c-.59-.67-1.62-.73-2.29-.14-.67.59-.73,1.62-.14,2.29l3.74,4.23c.59.67,1.62.73,2.29.14.67-.59.73-1.62.14-2.29"/><path class="cls-2" d="M63.84,53.18l-.75-.85c-.59-.67-1.62-.74-2.29-.14-.67.59-.74,1.62-.14,2.29l.75.85c.59.67,1.62.74,2.29.14.67-.59.74-1.62.14-2.29"/><path class="cls-2" d="M58.85,23.48l-1.31-1.95c-.5-.74-1.51-.94-2.25-.44-.74.5-.94,1.51-.44,2.25l1.31,1.95c.5.74,1.51.94,2.25.44.74-.5.94-1.51.44-2.25"/><path class="cls-2" d="M67.19,35.85l-3.16-4.68c-.5-.74-1.51-.94-2.25-.44-.74.5-.94,1.51-.44,2.25l3.15,4.68c.5.74,1.51.94,2.25.44.74-.5.94-1.51.44-2.25"/><path class="cls-2" d="M73.77,45.62l-.64-.95c-.5-.74-1.51-.94-2.25-.44-.74.5-.94,1.51-.44,2.25l.64.95c.5.74,1.51.94,2.25.44s.94-1.51.44-2.25"/><path class="cls-2" d="M72.8,15.73l-1.05-2.1c-.4-.8-1.37-1.13-2.17-.73-.8.4-1.13,1.37-.73,2.17l1.05,2.1c.4.8,1.37,1.13,2.17.73.8-.4,1.13-1.37.73-2.17"/><path class="cls-2" d="M79.46,29.08l-2.52-5.05c-.4-.8-1.37-1.13-2.17-.73-.8.4-1.13,1.37-.73,2.17l2.52,5.05c.4.8,1.37,1.13,2.17.73.8-.4,1.13-1.37.73-2.17"/><path class="cls-2" d="M84.71,39.63l-.51-1.02c-.4-.8-1.37-1.13-2.17-.73-.8.4-1.13,1.37-.73,2.17l.51,1.02c.4.8,1.37,1.13,2.17.73.8-.4,1.13-1.37.73-2.17"/><path class="cls-2" d="M87.61,9.75l-.76-2.22c-.29-.85-1.21-1.3-2.06-1.01-.85.29-1.3,1.21-1.01,2.06l.76,2.22c.29.85,1.21,1.3,2.06,1.01.85-.29,1.3-1.21,1.01-2.06"/><path class="cls-2" d="M92.45,23.87l-1.83-5.34c-.29-.85-1.21-1.3-2.06-1.01-.85.29-1.3,1.21-1.01,2.06l1.83,5.34c.29.85,1.21,1.3,2.06,1.01.85-.29,1.3-1.21,1.01-2.06"/><path class="cls-2" d="M96.27,35.01l-.37-1.08c-.29-.85-1.21-1.3-2.06-1.01-.85.29-1.3,1.21-1.01,2.06l.37,1.08c.29.85,1.21,1.3,2.06,1.01.85-.29,1.3-1.21,1.01-2.06"/><path class="cls-2" d="M103.05,5.69l-.46-2.3c-.18-.88-1.03-1.45-1.91-1.27-.88.18-1.45,1.03-1.27,1.91l.46,2.3c.18.88,1.03,1.45,1.91,1.27.88-.18,1.45-1.03,1.27-1.91"/><path class="cls-2" d="M105.99,20.32l-1.11-5.53c-.18-.88-1.03-1.45-1.91-1.27-.88.18-1.45,1.03-1.27,1.91l1.11,5.54c.18.88,1.03,1.45,1.91,1.27.88-.18,1.45-1.03,1.27-1.91"/><path class="cls-2" d="M108.32,31.86l-.22-1.12c-.18-.88-1.03-1.45-1.91-1.27-.88.18-1.45,1.03-1.27,1.91l.22,1.12c.18.88,1.03,1.45,1.91,1.27.88-.18,1.45-1.03,1.27-1.91"/><path class="cls-2" d="M118.91,3.9l-.16-2.34c-.06-.89-.83-1.57-1.73-1.51-.89.06-1.57.83-1.51,1.73l.16,2.35c.06.89.83,1.57,1.73,1.51.89-.06,1.57-.83,1.51-1.73"/><path class="cls-2" d="M119.92,18.79l-.38-5.63c-.06-.89-.83-1.57-1.73-1.51-.89.06-1.57.83-1.51,1.73l.38,5.63c.06.89.83,1.57,1.73,1.51s1.57-.83,1.51-1.73"/><path class="cls-2" d="M120.72,30.53l-.08-1.14c-.06-.89-.83-1.57-1.73-1.51-.89.06-1.57.83-1.51,1.73l.08,1.14c.06.89.83,1.57,1.73,1.51s1.57-.83,1.51-1.73"/><path class="cls-2" d="M134.85,4.06l.14-2.34c.05-.89-.62-1.66-1.52-1.72-.89-.05-1.66.63-1.72,1.52l-.14,2.34c-.05.89.62,1.66,1.52,1.72.89.05,1.66-.62,1.72-1.52"/><path class="cls-2" d="M133.94,18.96l.35-5.64c.05-.89-.62-1.66-1.52-1.72-.89-.05-1.66.62-1.72,1.52l-.35,5.64c-.05.89.62,1.66,1.52,1.72.89.05,1.66-.62,1.72-1.52"/><path class="cls-2" d="M133.21,30.71l.07-1.14c.05-.89-.63-1.66-1.52-1.72-.89-.05-1.66.63-1.72,1.52l-.07,1.14c-.05.89.62,1.66,1.52,1.72.89.05,1.66-.63,1.72-1.52"/><path class="cls-2" d="M150.67,6.2l.45-2.31c.17-.88-.4-1.73-1.28-1.9-.88-.17-1.73.4-1.9,1.28l-.45,2.31c-.17.88.4,1.73,1.28,1.9s1.73-.4,1.9-1.28"/><path class="cls-2" d="M147.82,20.85l1.08-5.54c.17-.88-.4-1.73-1.28-1.9-.88-.17-1.73.4-1.9,1.28l-1.08,5.54c-.17.88.4,1.73,1.28,1.9.88.17,1.73-.4,1.9-1.28"/><path class="cls-2" d="M145.57,32.41l.22-1.12c.17-.88-.4-1.73-1.28-1.9-.88-.17-1.73.4-1.9,1.28l-.22,1.12c-.17.88.4,1.73,1.28,1.9s1.73-.4,1.9-1.28"/><path class="cls-2" d="M166.03,10.52l.75-2.22c.28-.85-.17-1.77-1.02-2.05-.85-.28-1.77.17-2.05,1.02l-.75,2.22c-.28.85.17,1.77,1.02,2.05.85.28,1.77-.17,2.05-1.02"/><path class="cls-2" d="M161.29,24.67l1.8-5.35c.28-.85-.17-1.77-1.02-2.05-.85-.28-1.77.17-2.05,1.02l-1.8,5.35c-.28.85.17,1.77,1.02,2.05.85.28,1.77-.17,2.05-1.02"/><path class="cls-2" d="M157.54,35.83l.36-1.08c.28-.85-.17-1.77-1.02-2.05-.85-.28-1.77.17-2.05,1.02l-.36,1.08c-.28.85.17,1.77,1.02,2.05s1.77-.17,2.05-1.02"/><path class="cls-2" d="M180.71,16.82l1.03-2.11c.39-.8.06-1.77-.74-2.17-.8-.39-1.77-.06-2.17.74l-1.03,2.11c-.39.8-.06,1.77.74,2.17.8.39,1.77.06,2.17-.74"/><path class="cls-2" d="M174.14,30.22l2.48-5.07c.39-.8.06-1.77-.74-2.17-.8-.39-1.77-.06-2.17.74l-2.48,5.07c-.39.8-.06,1.77.74,2.17s1.77.06,2.17-.74"/><path class="cls-2" d="M168.96,40.79l.5-1.02c.39-.8.06-1.77-.74-2.17-.8-.39-1.77-.06-2.17.74l-.5,1.02c-.39.8-.06,1.77.74,2.17.8.39,1.77.06,2.17-.74"/><path class="cls-2" d="M194.49,24.87l1.3-1.96c.5-.75.29-1.75-.45-2.25-.75-.5-1.75-.29-2.25.45l-1.3,1.96c-.5.74-.29,1.75.45,2.25.75.5,1.75.29,2.25-.45"/><path class="cls-2" d="M186.23,37.29l3.13-4.7c.5-.75.29-1.75-.45-2.25-.75-.5-1.75-.29-2.25.45l-3.12,4.7c-.5.75-.29,1.75.45,2.25s1.75.29,2.25-.45"/><path class="cls-2" d="M179.71,47.1l.63-.95c.49-.75.29-1.75-.45-2.25-.75-.49-1.75-.29-2.25.45l-.63.95c-.49.75-.29,1.75.45,2.25.75.49,1.75.29,2.25-.45"/><path class="cls-2" d="M207,34.77l1.54-1.77c.59-.67.52-1.7-.16-2.29s-1.7-.52-2.29.16l-1.54,1.77c-.59.67-.52,1.7.16,2.29s1.7.52,2.29-.16"/><path class="cls-2" d="M197.19,46.01l3.71-4.26c.59-.67.52-1.7-.16-2.29-.67-.59-1.7-.52-2.29.16l-3.71,4.26c-.59.67-.52,1.7.16,2.29.67.59,1.7.52,2.29-.16"/><path class="cls-2" d="M189.46,54.89l.75-.86c.59-.67.52-1.7-.16-2.29-.67-.59-1.7-.52-2.29.16l-.75.86c-.59.67-.52,1.7.16,2.29.67.59,1.7.52,2.29-.16"/><path class="cls-2" d="M218.16,46.17l1.76-1.55c.67-.59.73-1.62.14-2.29s-1.62-.73-2.29-.14l-1.76,1.55c-.67.59-.73,1.62-.14,2.29.59.67,1.62.73,2.29.14"/><path class="cls-2" d="M206.98,56.05l4.23-3.74c.67-.59.73-1.62.14-2.29s-1.62-.73-2.29-.14l-4.23,3.74c-.67.59-.73,1.62-.14,2.29.59.67,1.62.73,2.29.14"/><path class="cls-2" d="M198.15,63.84l.85-.76c.67-.59.73-1.62.14-2.29-.59-.67-1.62-.73-2.29-.14l-.85.76c-.67.59-.73,1.62-.14,2.29.59.67,1.62.73,2.29.14"/><path class="cls-2" d="M227.85,58.85l1.95-1.31c.74-.5.94-1.51.44-2.25-.5-.74-1.51-.94-2.25-.44l-1.95,1.31c-.74.5-.94,1.51-.44,2.25.5.74,1.51.94,2.25.44"/><path class="cls-2" d="M215.47,67.19l4.68-3.15c.74-.5.94-1.51.44-2.25-.5-.74-1.51-.94-2.25-.44l-4.68,3.16c-.74.5-.94,1.51-.44,2.25.5.74,1.51.94,2.25.44"/><path class="cls-2" d="M205.71,73.77l.94-.64c.74-.5.94-1.51.44-2.25-.5-.74-1.51-.94-2.25-.44l-.94.64c-.74.5-.94,1.51-.44,2.25.5.74,1.51.94,2.25.44"/><path class="cls-2" d="M235.6,72.81l2.1-1.05c.8-.4,1.13-1.37.73-2.17-.4-.8-1.37-1.13-2.17-.73l-2.1,1.05c-.8.4-1.13,1.37-.73,2.17.4.8,1.37,1.13,2.17.73"/><path class="cls-2" d="M222.24,79.46l5.05-2.52c.8-.4,1.13-1.37.73-2.17s-1.37-1.13-2.17-.73l-5.05,2.52c-.8.4-1.13,1.37-.73,2.17.4.8,1.37,1.13,2.17.73"/><path class="cls-2" d="M211.7,84.71l1.02-.51c.8-.4,1.13-1.37.73-2.17-.4-.8-1.37-1.13-2.17-.73l-1.02.51c-.8.4-1.13,1.37-.73,2.17s1.37,1.13,2.17.73"/><path class="cls-2" d="M241.57,87.61l2.22-.76c.85-.29,1.3-1.21,1.01-2.06-.29-.85-1.21-1.3-2.06-1.01l-2.22.76c-.85.29-1.3,1.21-1.01,2.06.29.85,1.21,1.3,2.06,1.01"/><path class="cls-2" d="M227.46,92.45l5.34-1.83c.85-.29,1.3-1.21,1.01-2.06-.29-.85-1.21-1.3-2.06-1.01l-5.34,1.83c-.85.29-1.3,1.21-1.01,2.06.29.85,1.21,1.3,2.06,1.01"/><path class="cls-2" d="M216.32,96.27l1.08-.37c.85-.29,1.3-1.21,1.01-2.06-.29-.85-1.21-1.3-2.06-1.01l-1.08.37c-.85.29-1.3,1.21-1.01,2.06.29.85,1.21,1.3,2.06,1.01"/><path class="cls-2" d="M245.64,103.05l2.3-.47c.88-.18,1.44-1.03,1.27-1.91s-1.03-1.44-1.91-1.27l-2.3.47c-.88.18-1.44,1.03-1.27,1.91s1.03,1.44,1.91,1.27"/><path class="cls-2" d="M231.01,105.99l5.53-1.11c.88-.18,1.45-1.03,1.27-1.91-.18-.88-1.03-1.45-1.91-1.27l-5.53,1.11c-.88.18-1.45,1.03-1.27,1.91.18.88,1.03,1.45,1.91,1.27"/><path class="cls-2" d="M219.46,108.32l1.12-.22c.88-.18,1.45-1.03,1.27-1.91-.18-.88-1.03-1.45-1.91-1.27l-1.12.22c-.88.18-1.45,1.03-1.27,1.91.18.88,1.03,1.45,1.91,1.27"/><path class="cls-2" d="M247.43,118.91l2.34-.16c.89-.06,1.57-.83,1.51-1.73-.06-.89-.83-1.57-1.73-1.51l-2.34.16c-.89.06-1.57.83-1.51,1.73.06.89.83,1.57,1.73,1.51"/><path class="cls-2" d="M232.54,119.92l5.63-.39c.89-.06,1.57-.83,1.51-1.73s-.83-1.57-1.73-1.51l-5.63.39c-.89.06-1.57.83-1.51,1.73.06.89.83,1.57,1.73,1.51"/><path class="cls-2" d="M220.79,120.72l1.14-.08c.89-.06,1.57-.83,1.51-1.72-.06-.89-.83-1.57-1.72-1.51l-1.14.08c-.89.06-1.57.83-1.51,1.72.06.89.83,1.57,1.72,1.51"/><path class="cls-1" d="M247.26,134.85l2.35.15c.89.06,1.66-.62,1.72-1.52.06-.89-.62-1.66-1.52-1.72l-2.35-.15c-.89-.06-1.66.62-1.72,1.52-.06.89.62,1.66,1.52,1.72"/><path class="cls-1" d="M232.37,133.94l5.63.34c.89.05,1.66-.63,1.72-1.52s-.63-1.66-1.52-1.72l-5.63-.34c-.89-.05-1.66.63-1.72,1.52-.05.89.63,1.66,1.52,1.72"/><path class="cls-1" d="M220.61,133.21l1.14.07c.89.06,1.66-.62,1.72-1.51.06-.89-.62-1.66-1.51-1.72l-1.14-.07c-.89-.06-1.66.62-1.72,1.51-.06.89.62,1.66,1.51,1.72"/><path class="cls-1" d="M245.13,150.67l2.31.45c.88.17,1.73-.4,1.9-1.28.17-.88-.4-1.73-1.28-1.9l-2.31-.45c-.88-.17-1.73.4-1.9,1.28-.17.88.4,1.73,1.28,1.9"/><path class="cls-1" d="M230.48,147.82l5.54,1.08c.88.17,1.73-.4,1.9-1.28.17-.88-.4-1.73-1.28-1.9l-5.54-1.08c-.88-.17-1.73.4-1.9,1.28-.17.88.4,1.73,1.28,1.9"/><path class="cls-1" d="M218.93,145.57l1.12.22c.88.17,1.73-.41,1.9-1.29.17-.88-.41-1.73-1.29-1.9l-1.12-.22c-.88-.17-1.73.41-1.9,1.29-.17.88.41,1.73,1.28,1.9"/><path class="cls-1" d="M240.81,166.04l2.23.75c.85.28,1.77-.17,2.05-1.02s-.17-1.77-1.02-2.05l-2.23-.75c-.85-.28-1.77.17-2.05,1.02s.17,1.77,1.02,2.05"/><path class="cls-1" d="M226.66,161.29l5.35,1.8c.85.29,1.77-.17,2.05-1.02.28-.85-.17-1.77-1.02-2.05l-5.35-1.8c-.85-.28-1.77.17-2.05,1.02-.28.85.17,1.77,1.02,2.05"/><path class="cls-1" d="M215.5,157.54l1.08.36c.85.28,1.77-.17,2.05-1.02.28-.85-.17-1.77-1.02-2.05l-1.08-.36c-.85-.28-1.77.18-2.05,1.02-.28.85.18,1.77,1.02,2.05"/><path class="cls-1" d="M234.51,180.71l2.11,1.03c.8.39,1.77.06,2.17-.74.39-.8.06-1.77-.74-2.17l-2.11-1.03c-.8-.39-1.77-.06-2.17.74-.39.8-.06,1.77.74,2.17"/><path class="cls-1" d="M221.11,174.14l5.07,2.48c.8.39,1.77.06,2.17-.74.39-.8.06-1.77-.74-2.17l-5.07-2.48c-.8-.39-1.77-.06-2.17.74-.39.8-.06,1.77.74,2.17"/><path class="cls-1" d="M210.53,168.96l1.02.5c.8.4,1.77.06,2.17-.74.4-.8.06-1.77-.74-2.17l-1.02-.5c-.8-.4-1.77-.06-2.17.74-.4.8-.06,1.77.74,2.17"/><path class="cls-1" d="M226.46,194.49l1.96,1.3c.75.5,1.75.29,2.25-.45.5-.75.29-1.75-.45-2.25l-1.96-1.3c-.75-.5-1.75-.29-2.25.45-.5.74-.29,1.75.45,2.25"/><path class="cls-1" d="M214.03,186.23l4.7,3.12c.75.5,1.75.29,2.25-.45.5-.75.29-1.75-.45-2.25l-4.7-3.12c-.75-.5-1.75-.29-2.25.45-.5.74-.29,1.75.45,2.25"/><path class="cls-1" d="M204.23,179.71l.95.63c.74.5,1.75.3,2.25-.45.5-.74.3-1.75-.45-2.25l-.95-.63c-.74-.5-1.75-.3-2.25.45-.5.74-.3,1.75.45,2.25"/><path class="cls-1" d="M216.56,207l1.77,1.54c.67.59,1.7.52,2.29-.16s.52-1.7-.16-2.29l-1.77-1.54c-.67-.59-1.7-.52-2.29.16-.59.67-.52,1.7.16,2.29"/><path class="cls-1" d="M205.31,197.2l4.25,3.71c.67.59,1.7.52,2.29-.16.59-.67.52-1.7-.16-2.29l-4.25-3.71c-.67-.59-1.7-.52-2.29.16-.59.67-.52,1.7.16,2.29"/><path class="cls-1" d="M196.44,189.46l.86.75c.68.59,1.7.52,2.29-.16.59-.68.52-1.7-.16-2.29l-.86-.75c-.68-.59-1.7-.52-2.29.16-.59.68-.52,1.7.16,2.29"/><path class="cls-1" d="M205.16,218.16l1.56,1.76c.59.67,1.62.73,2.29.14.67-.59.73-1.62.14-2.29l-1.56-1.76c-.59-.67-1.62-.73-2.29-.14-.67.59-.73,1.62-.14,2.29"/><path class="cls-1" d="M195.28,206.98l3.74,4.23c.59.67,1.62.73,2.29.14s.73-1.62.14-2.29l-3.74-4.23c-.59-.67-1.62-.73-2.29-.14-.67.59-.73,1.62-.14,2.29"/><path class="cls-1" d="M187.48,198.15l.75.85c.59.67,1.62.73,2.29.14.67-.59.73-1.62.14-2.29l-.76-.85c-.59-.67-1.62-.73-2.29-.14-.67.59-.73,1.62-.14,2.29"/><path class="cls-1" d="M192.48,227.85l1.31,1.95c.5.74,1.51.94,2.25.44s.94-1.51.44-2.25l-1.31-1.95c-.5-.74-1.51-.94-2.25-.44-.74.5-.94,1.51-.44,2.25"/><path class="cls-1" d="M184.14,215.48l3.16,4.68c.5.74,1.51.94,2.25.44.74-.5.94-1.51.44-2.25l-3.16-4.68c-.5-.74-1.51-.94-2.25-.44-.74.5-.94,1.51-.44,2.25"/><path class="cls-1" d="M177.56,205.71l.64.94c.5.74,1.51.94,2.25.44.74-.5.94-1.51.44-2.25l-.64-.94c-.5-.74-1.51-.94-2.25-.44-.74.5-.94,1.51-.44,2.25"/><path class="cls-1" d="M178.52,235.6l1.05,2.1c.4.8,1.37,1.13,2.17.73.8-.4,1.13-1.37.73-2.17l-1.05-2.1c-.4-.8-1.37-1.13-2.17-.73-.8.4-1.13,1.37-.73,2.17"/><path class="cls-1" d="M171.87,222.24l2.52,5.05c.4.8,1.37,1.13,2.17.73.8-.4,1.13-1.37.73-2.17l-2.52-5.05c-.4-.8-1.37-1.13-2.17-.73-.8.4-1.13,1.37-.73,2.17"/><path class="cls-1" d="M166.62,211.7l.51,1.02c.4.8,1.37,1.13,2.17.73.8-.4,1.13-1.37.73-2.17l-.51-1.02c-.4-.8-1.37-1.13-2.17-.73-.8.4-1.13,1.37-.73,2.17"/><path class="cls-1" d="M163.72,241.58l.76,2.22c.29.85,1.21,1.3,2.06,1.01.85-.29,1.3-1.21,1.01-2.06l-.76-2.22c-.29-.85-1.21-1.3-2.06-1.01-.85.29-1.3,1.21-1.01,2.06"/><path class="cls-1" d="M158.88,227.46l1.83,5.34c.29.85,1.21,1.3,2.06,1.01.85-.29,1.3-1.21,1.01-2.06l-1.83-5.34c-.29-.85-1.21-1.3-2.06-1.01-.85.29-1.3,1.21-1.01,2.06"/><path class="cls-1" d="M155.06,216.32l.37,1.08c.29.85,1.21,1.3,2.06,1.01.85-.29,1.3-1.21,1.01-2.06l-.37-1.08c-.29-.85-1.21-1.3-2.06-1.01-.85.29-1.3,1.21-1.01,2.06"/><path class="cls-1" d="M148.28,245.64l.46,2.3c.18.88,1.03,1.44,1.91,1.27.88-.18,1.44-1.03,1.27-1.91l-.46-2.3c-.18-.88-1.03-1.45-1.91-1.27-.88.18-1.44,1.03-1.27,1.91"/><path class="cls-1" d="M145.33,231.01l1.11,5.53c.18.88,1.03,1.45,1.91,1.27s1.45-1.03,1.27-1.91l-1.11-5.54c-.18-.88-1.03-1.45-1.91-1.27s-1.45,1.03-1.27,1.91"/><path class="cls-1" d="M143.01,219.46l.22,1.12c.18.88,1.03,1.45,1.91,1.27.88-.18,1.45-1.03,1.27-1.91l-.22-1.12c-.18-.88-1.03-1.45-1.91-1.27-.88.18-1.45,1.03-1.27,1.91"/><path class="cls-1" d="M132.42,247.43l.16,2.34c.06.89.83,1.57,1.73,1.51s1.57-.83,1.51-1.73l-.16-2.34c-.06-.89-.83-1.57-1.73-1.51-.89.06-1.57.83-1.51,1.73"/><path class="cls-1" d="M131.4,232.54l.38,5.63c.06.89.83,1.57,1.73,1.51.89-.06,1.57-.83,1.51-1.73l-.38-5.63c-.06-.89-.83-1.57-1.73-1.51s-1.57.83-1.51,1.73"/><path class="cls-1" d="M130.61,220.8l.08,1.14c.06.89.83,1.57,1.73,1.51s1.57-.83,1.51-1.73l-.08-1.14c-.06-.89-.83-1.57-1.73-1.51-.89.06-1.57.83-1.51,1.73"/><path class="cls-1" d="M116.47,247.26l-.14,2.35c-.06.89.62,1.66,1.52,1.72s1.66-.62,1.72-1.52l.14-2.34c.05-.89-.62-1.66-1.52-1.72-.89-.05-1.66.62-1.72,1.52"/><path class="cls-1" d="M117.39,232.37l-.35,5.63c-.06.89.62,1.66,1.52,1.72.89.06,1.66-.62,1.72-1.52l.35-5.63c.06-.89-.62-1.66-1.52-1.72-.89-.05-1.66.62-1.72,1.52"/><path class="cls-1" d="M118.11,220.62l-.07,1.14c-.05.89.62,1.66,1.52,1.72.89.05,1.66-.63,1.72-1.52l.07-1.14c.05-.89-.63-1.66-1.52-1.72-.89-.05-1.66.62-1.72,1.52"/><path class="cls-1" d="M100.66,245.13l-.45,2.3c-.17.88.4,1.73,1.28,1.9.88.17,1.73-.4,1.9-1.28l.45-2.3c.17-.88-.4-1.73-1.28-1.9-.88-.17-1.73.4-1.9,1.28"/><path class="cls-1" d="M103.51,230.48l-1.08,5.54c-.17.88.4,1.73,1.28,1.9s1.73-.4,1.9-1.28l1.08-5.54c.17-.88-.4-1.73-1.28-1.9s-1.73.4-1.9,1.28"/><path class="cls-1" d="M105.76,218.93l-.22,1.12c-.17.88.4,1.73,1.28,1.9.88.17,1.73-.4,1.9-1.28l.22-1.12c.17-.88-.4-1.73-1.28-1.9s-1.73.4-1.9,1.28"/><path class="cls-1" d="M85.29,240.81l-.75,2.23c-.29.85.17,1.77,1.02,2.05.85.28,1.77-.17,2.05-1.02l.75-2.23c.28-.85-.17-1.77-1.02-2.05-.85-.28-1.77.17-2.05,1.02"/><path class="cls-1" d="M90.04,226.66l-1.8,5.35c-.28.85.17,1.77,1.02,2.05.85.28,1.77-.17,2.05-1.02l1.8-5.35c.28-.85-.17-1.77-1.02-2.05-.85-.28-1.77.17-2.05,1.02"/><path class="cls-1" d="M93.79,215.5l-.36,1.08c-.28.85.17,1.77,1.02,2.05.85.29,1.77-.17,2.05-1.02l.36-1.08c.28-.85-.17-1.77-1.02-2.05-.85-.29-1.77.17-2.05,1.02"/><path class="cls-1" d="M70.62,234.51l-1.03,2.11c-.39.8-.06,1.77.74,2.17s1.77.06,2.17-.74l1.03-2.11c.39-.8.06-1.77-.74-2.17s-1.77-.06-2.17.74"/><path class="cls-1" d="M77.18,221.11l-2.48,5.07c-.39.8-.06,1.77.74,2.17.8.39,1.77.06,2.17-.74l2.48-5.07c.39-.8.06-1.77-.74-2.17-.8-.39-1.77-.06-2.17.74"/><path class="cls-1" d="M82.37,210.54l-.5,1.02c-.39.8-.06,1.77.74,2.17.8.39,1.77.06,2.17-.74l.5-1.02c.39-.8.06-1.77-.74-2.17-.8-.39-1.77-.06-2.17.74"/><path class="cls-1" d="M56.84,226.46l-1.3,1.96c-.5.74-.29,1.75.45,2.25.74.5,1.75.29,2.25-.45l1.3-1.96c.5-.74.29-1.75-.45-2.25s-1.75-.29-2.25.45"/><path class="cls-1" d="M65.1,214.03l-3.13,4.7c-.5.75-.29,1.75.45,2.25.75.5,1.75.29,2.25-.45l3.13-4.7c.5-.75.29-1.75-.45-2.25-.75-.5-1.75-.29-2.25.45"/><path class="cls-1" d="M71.62,204.23l-.63.95c-.5.74-.29,1.75.45,2.25.74.5,1.75.29,2.25-.45l.63-.95c.5-.75.29-1.75-.45-2.25-.74-.5-1.75-.29-2.25.45"/><path class="cls-1" d="M44.33,216.56l-1.54,1.77c-.59.67-.52,1.7.16,2.29.67.59,1.7.52,2.29-.16l1.54-1.77c.59-.67.52-1.7-.15-2.29-.67-.59-1.7-.52-2.29.15"/><path class="cls-1" d="M54.13,205.32l-3.71,4.25c-.59.67-.52,1.7.16,2.29.67.59,1.7.52,2.29-.16l3.71-4.25c.59-.67.52-1.7-.16-2.29-.67-.59-1.7-.52-2.29.16"/><path class="cls-1" d="M61.87,196.44l-.75.86c-.59.67-.52,1.7.16,2.29.67.59,1.7.52,2.29-.16l.75-.86c.59-.67.52-1.7-.16-2.29-.67-.59-1.7-.52-2.29.16"/><path class="cls-1" d="M33.17,205.16l-1.76,1.56c-.67.59-.73,1.62-.14,2.29s1.62.73,2.29.14l1.76-1.56c.67-.59.73-1.62.14-2.29s-1.62-.73-2.29-.14"/><path class="cls-1" d="M44.35,195.28l-4.23,3.74c-.67.59-.73,1.62-.14,2.29.59.67,1.62.73,2.29.14l4.23-3.74c.67-.59.73-1.62.14-2.29-.59-.67-1.62-.73-2.29-.14"/><path class="cls-1" d="M53.17,187.49l-.85.75c-.67.59-.73,1.62-.14,2.29.59.67,1.62.73,2.29.14l.85-.75c.67-.59.73-1.62.14-2.29-.59-.67-1.62-.73-2.29-.14"/><path class="cls-1" d="M23.48,192.48l-1.95,1.31c-.74.5-.94,1.51-.44,2.25s1.51.94,2.25.44l1.95-1.31c.74-.5.94-1.51.44-2.25s-1.51-.94-2.25-.44"/><path class="cls-1" d="M35.85,184.14l-4.68,3.15c-.74.5-.94,1.51-.44,2.25.5.74,1.51.94,2.25.44l4.68-3.15c.74-.5.94-1.51.44-2.25-.5-.74-1.51-.94-2.25-.44"/><path class="cls-1" d="M45.62,177.56l-.94.64c-.74.5-.94,1.51-.44,2.25.5.74,1.51.94,2.25.44l.94-.64c.74-.5.94-1.51.44-2.25-.5-.74-1.51-.94-2.25-.44"/><path class="cls-1" d="M15.73,178.53l-2.1,1.05c-.8.4-1.13,1.37-.73,2.17s1.37,1.13,2.17.73l2.1-1.05c.8-.4,1.13-1.37.73-2.17s-1.37-1.13-2.17-.73"/><path class="cls-1" d="M29.08,171.87l-5.05,2.52c-.8.4-1.13,1.37-.73,2.17.4.8,1.37,1.13,2.17.73l5.05-2.52c.8-.4,1.13-1.37.73-2.17-.4-.8-1.37-1.13-2.17-.73"/><path class="cls-1" d="M39.62,166.62l-1.02.51c-.8.4-1.13,1.37-.73,2.17.4.8,1.37,1.13,2.17.73l1.02-.51c.8-.4,1.13-1.37.73-2.17-.4-.8-1.37-1.13-2.17-.73"/><path class="cls-1" d="M9.75,163.72l-2.22.76c-.85.29-1.3,1.21-1.01,2.06.29.85,1.21,1.3,2.06,1.01l2.22-.76c.85-.29,1.3-1.21,1.01-2.06-.29-.85-1.21-1.3-2.06-1.01"/><path class="cls-1" d="M23.87,158.88l-5.34,1.83c-.85.29-1.3,1.21-1.01,2.06s1.21,1.3,2.06,1.01l5.34-1.83c.85-.29,1.3-1.21,1.01-2.06-.29-.85-1.21-1.3-2.06-1.01"/><path class="cls-1" d="M35.01,155.06l-1.08.37c-.85.29-1.3,1.21-1.01,2.06.29.85,1.21,1.3,2.06,1.01l1.08-.37c.85-.29,1.3-1.21,1.01-2.06-.29-.85-1.21-1.3-2.06-1.01"/><path class="cls-1" d="M5.69,148.28l-2.3.46c-.88.18-1.45,1.03-1.27,1.91.18.88,1.03,1.45,1.91,1.27l2.3-.46c.88-.18,1.45-1.03,1.27-1.91-.18-.88-1.03-1.45-1.91-1.27"/><path class="cls-1" d="M20.32,145.33l-5.53,1.11c-.88.18-1.45,1.03-1.27,1.91s1.03,1.45,1.91,1.27l5.53-1.11c.88-.18,1.45-1.03,1.27-1.91-.18-.88-1.03-1.45-1.91-1.27"/><path class="cls-1" d="M31.86,143.01l-1.12.22c-.88.18-1.44,1.03-1.27,1.91.18.88,1.03,1.44,1.91,1.27l1.12-.22c.88-.18,1.45-1.03,1.27-1.91-.18-.88-1.03-1.44-1.91-1.27"/><path class="cls-1" d="M3.89,132.42l-2.34.16c-.89.06-1.57.84-1.51,1.73.06.89.84,1.57,1.73,1.5l2.34-.16c.89-.06,1.57-.83,1.5-1.73s-.84-1.57-1.73-1.51"/><path class="cls-1" d="M18.78,131.41l-5.63.38c-.89.06-1.57.83-1.51,1.73s.83,1.57,1.73,1.51l5.63-.38c.89-.06,1.57-.83,1.51-1.73-.06-.89-.83-1.57-1.73-1.51"/><path class="cls-1" d="M30.53,130.61l-1.14.08c-.89.06-1.57.84-1.5,1.73.06.89.84,1.57,1.73,1.5l1.14-.08c.89-.06,1.57-.84,1.5-1.73-.06-.89-.84-1.57-1.73-1.5"/><path class="cls-1" d="M4.06,116.48l-2.34-.15c-.89-.06-1.66.62-1.72,1.52-.06.89.62,1.66,1.52,1.72l2.34.15c.89.06,1.66-.62,1.72-1.52.06-.89-.62-1.66-1.52-1.72"/><path class="cls-1" d="M18.96,117.39l-5.63-.35c-.89-.06-1.66.62-1.72,1.52-.06.89.62,1.66,1.52,1.72l5.63.35c.89.06,1.66-.62,1.72-1.52.06-.89-.62-1.66-1.52-1.72"/><path class="cls-1" d="M30.71,118.11l-1.14-.07c-.89-.05-1.66.63-1.72,1.52-.05.89.63,1.66,1.52,1.72l1.14.07c.89.05,1.66-.63,1.72-1.52.05-.89-.63-1.66-1.52-1.72"/><path class="cls-1" d="M6.2,100.66l-2.31-.45c-.88-.17-1.73.4-1.9,1.28-.17.88.4,1.73,1.28,1.9l2.31.45c.88.17,1.73-.4,1.9-1.28.17-.88-.4-1.73-1.28-1.9"/><path class="cls-1" d="M20.85,103.51l-5.54-1.08c-.88-.17-1.73.4-1.9,1.28-.17.88.4,1.73,1.28,1.9l5.54,1.08c.88.17,1.73-.4,1.9-1.28.17-.88-.4-1.73-1.28-1.9"/><path class="cls-1" d="M32.4,105.76l-1.12-.22c-.88-.17-1.73.4-1.9,1.28-.17.88.4,1.73,1.28,1.9l1.12.22c.88.17,1.73-.4,1.9-1.28.17-.88-.4-1.73-1.28-1.9"/><path class="cls-1" d="M10.52,85.29l-2.23-.75c-.85-.29-1.77.17-2.05,1.02-.29.85.17,1.77,1.02,2.05l2.23.75c.85.29,1.77-.17,2.05-1.02.29-.85-.17-1.77-1.02-2.05"/><path class="cls-1" d="M24.67,90.04l-5.35-1.8c-.85-.28-1.77.17-2.05,1.02-.28.85.17,1.77,1.02,2.05l5.35,1.8c.85.28,1.77-.17,2.05-1.02.28-.85-.17-1.77-1.02-2.05"/><path class="cls-1" d="M35.83,93.79l-1.08-.36c-.85-.29-1.77.17-2.05,1.02-.29.85.17,1.77,1.02,2.05l1.08.36c.85.29,1.77-.17,2.05-1.02.29-.85-.17-1.77-1.02-2.05"/><path class="cls-1" d="M16.81,70.62l-2.11-1.03c-.8-.39-1.77-.06-2.17.74-.39.8-.06,1.77.74,2.17l2.11,1.03c.8.39,1.77.06,2.17-.74.39-.8.06-1.77-.74-2.17"/><path class="cls-1" d="M30.21,77.18l-5.07-2.48c-.8-.39-1.77-.06-2.17.74-.39.8-.06,1.77.74,2.17l5.07,2.48c.8.39,1.77.06,2.17-.74.39-.8.06-1.77-.74-2.17"/><path class="cls-1" d="M40.79,82.36l-1.02-.5c-.8-.39-1.77-.06-2.17.74-.39.8-.06,1.77.74,2.17l1.02.5c.8.39,1.77.06,2.17-.74.39-.8.06-1.77-.74-2.17"/><path class="cls-1" d="M24.86,56.84l-1.96-1.3c-.75-.5-1.75-.29-2.25.45-.5.75-.29,1.75.45,2.25l1.96,1.3c.74.5,1.75.29,2.25-.45.5-.74.29-1.75-.45-2.25"/><path class="cls-1" d="M37.29,65.1l-4.7-3.13c-.74-.5-1.75-.29-2.25.45-.5.75-.29,1.75.45,2.25l4.7,3.13c.75.5,1.75.29,2.25-.45.5-.75.29-1.75-.45-2.25"/><path class="cls-1" d="M47.1,71.62l-.95-.63c-.75-.5-1.75-.29-2.25.45-.5.75-.29,1.75.45,2.25l.95.63c.75.5,1.75.29,2.25-.45.5-.75.29-1.75-.45-2.25"/><path class="cls-1" d="M34.77,44.33l-1.77-1.54c-.67-.59-1.7-.52-2.29.16-.59.67-.52,1.7.16,2.29l1.77,1.54c.67.59,1.7.52,2.29-.16s.52-1.7-.16-2.29"/><path class="cls-1" d="M46.01,54.13l-4.25-3.71c-.67-.59-1.7-.52-2.29.16-.59.67-.52,1.7.16,2.29l4.25,3.71c.67.59,1.7.52,2.29-.16.59-.67.52-1.7-.16-2.29"/><path class="cls-1" d="M54.89,61.87l-.86-.75c-.67-.59-1.7-.52-2.29.15-.59.67-.52,1.7.15,2.29l.86.75c.67.59,1.7.52,2.29-.15s.52-1.7-.15-2.29"/><path class="cls-1" d="M46.17,33.17l-1.56-1.76c-.59-.67-1.62-.73-2.29-.14-.67.59-.73,1.62-.14,2.29l1.56,1.76c.59.67,1.62.73,2.29.14.67-.59.73-1.62.14-2.29"/><path class="cls-1" d="M56.05,44.35l-3.74-4.23c-.59-.67-1.62-.73-2.29-.14-.67.59-.73,1.62-.14,2.29l3.74,4.23c.59.67,1.62.73,2.29.14.67-.59.73-1.62.14-2.29"/><path class="cls-1" d="M63.84,53.18l-.75-.85c-.59-.67-1.62-.74-2.29-.14-.67.59-.74,1.62-.14,2.29l.75.85c.59.67,1.62.74,2.29.14.67-.59.74-1.62.14-2.29"/><path class="cls-1" d="M58.85,23.48l-1.31-1.95c-.5-.74-1.51-.94-2.25-.44-.74.5-.94,1.51-.44,2.25l1.31,1.95c.5.74,1.51.94,2.25.44.74-.5.94-1.51.44-2.25"/><path class="cls-1" d="M67.19,35.85l-3.16-4.68c-.5-.74-1.51-.94-2.25-.44-.74.5-.94,1.51-.44,2.25l3.15,4.68c.5.74,1.51.94,2.25.44.74-.5.94-1.51.44-2.25"/><path class="cls-1" d="M73.77,45.62l-.64-.95c-.5-.74-1.51-.94-2.25-.44-.74.5-.94,1.51-.44,2.25l.64.95c.5.74,1.51.94,2.25.44s.94-1.51.44-2.25"/><path class="cls-1" d="M72.8,15.73l-1.05-2.1c-.4-.8-1.37-1.13-2.17-.73-.8.4-1.13,1.37-.73,2.17l1.05,2.1c.4.8,1.37,1.13,2.17.73.8-.4,1.13-1.37.73-2.17"/><path class="cls-1" d="M79.46,29.08l-2.52-5.05c-.4-.8-1.37-1.13-2.17-.73-.8.4-1.13,1.37-.73,2.17l2.52,5.05c.4.8,1.37,1.13,2.17.73.8-.4,1.13-1.37.73-2.17"/><path class="cls-1" d="M84.71,39.63l-.51-1.02c-.4-.8-1.37-1.13-2.17-.73-.8.4-1.13,1.37-.73,2.17l.51,1.02c.4.8,1.37,1.13,2.17.73.8-.4,1.13-1.37.73-2.17"/><path class="cls-1" d="M87.61,9.75l-.76-2.22c-.29-.85-1.21-1.3-2.06-1.01-.85.29-1.3,1.21-1.01,2.06l.76,2.22c.29.85,1.21,1.3,2.06,1.01.85-.29,1.3-1.21,1.01-2.06"/><path class="cls-1" d="M92.45,23.87l-1.83-5.34c-.29-.85-1.21-1.3-2.06-1.01-.85.29-1.3,1.21-1.01,2.06l1.83,5.34c.29.85,1.21,1.3,2.06,1.01.85-.29,1.3-1.21,1.01-2.06"/><path class="cls-1" d="M96.27,35.01l-.37-1.08c-.29-.85-1.21-1.3-2.06-1.01-.85.29-1.3,1.21-1.01,2.06l.37,1.08c.29.85,1.21,1.3,2.06,1.01.85-.29,1.3-1.21,1.01-2.06"/><path class="cls-1" d="M103.05,5.69l-.46-2.3c-.18-.88-1.03-1.45-1.91-1.27-.88.18-1.45,1.03-1.27,1.91l.46,2.3c.18.88,1.03,1.45,1.91,1.27.88-.18,1.45-1.03,1.27-1.91"/><path class="cls-1" d="M105.99,20.32l-1.11-5.53c-.18-.88-1.03-1.45-1.91-1.27-.88.18-1.45,1.03-1.27,1.91l1.11,5.54c.18.88,1.03,1.45,1.91,1.27.88-.18,1.45-1.03,1.27-1.91"/><path class="cls-1" d="M108.32,31.86l-.22-1.12c-.18-.88-1.03-1.45-1.91-1.27-.88.18-1.45,1.03-1.27,1.91l.22,1.12c.18.88,1.03,1.45,1.91,1.27.88-.18,1.45-1.03,1.27-1.91"/><path class="cls-1" d="M118.91,3.9l-.16-2.34c-.06-.89-.83-1.57-1.73-1.51-.89.06-1.57.83-1.51,1.73l.16,2.35c.06.89.83,1.57,1.73,1.51.89-.06,1.57-.83,1.51-1.73"/><path class="cls-1" d="M119.92,18.79l-.38-5.63c-.06-.89-.83-1.57-1.73-1.51-.89.06-1.57.83-1.51,1.73l.38,5.63c.06.89.83,1.57,1.73,1.51s1.57-.83,1.51-1.73"/><path class="cls-1" d="M120.72,30.53l-.08-1.14c-.06-.89-.83-1.57-1.73-1.51-.89.06-1.57.83-1.51,1.73l.08,1.14c.06.89.83,1.57,1.73,1.51s1.57-.83,1.51-1.73"/><path class="cls-1" d="M134.85,4.06l.14-2.34c.05-.89-.62-1.66-1.52-1.72-.89-.05-1.66.63-1.72,1.52l-.14,2.34c-.05.89.62,1.66,1.52,1.72.89.05,1.66-.62,1.72-1.52"/><path class="cls-1" d="M133.94,18.96l.35-5.64c.05-.89-.62-1.66-1.52-1.72-.89-.05-1.66.62-1.72,1.52l-.35,5.64c-.05.89.62,1.66,1.52,1.72.89.05,1.66-.62,1.72-1.52"/><path class="cls-1" d="M133.21,30.71l.07-1.14c.05-.89-.63-1.66-1.52-1.72-.89-.05-1.66.63-1.72,1.52l-.07,1.14c-.05.89.62,1.66,1.52,1.72.89.05,1.66-.63,1.72-1.52"/><path class="cls-1" d="M150.67,6.2l.45-2.31c.17-.88-.4-1.73-1.28-1.9-.88-.17-1.73.4-1.9,1.28l-.45,2.31c-.17.88.4,1.73,1.28,1.9s1.73-.4,1.9-1.28"/><path class="cls-1" d="M147.82,20.85l1.08-5.54c.17-.88-.4-1.73-1.28-1.9-.88-.17-1.73.4-1.9,1.28l-1.08,5.54c-.17.88.4,1.73,1.28,1.9.88.17,1.73-.4,1.9-1.28"/><path class="cls-1" d="M145.57,32.41l.22-1.12c.17-.88-.4-1.73-1.28-1.9-.88-.17-1.73.4-1.9,1.28l-.22,1.12c-.17.88.4,1.73,1.28,1.9s1.73-.4,1.9-1.28"/><path class="cls-1" d="M166.03,10.52l.75-2.22c.28-.85-.17-1.77-1.02-2.05-.85-.28-1.77.17-2.05,1.02l-.75,2.22c-.28.85.17,1.77,1.02,2.05.85.28,1.77-.17,2.05-1.02"/><path class="cls-1" d="M161.29,24.67l1.8-5.35c.28-.85-.17-1.77-1.02-2.05-.85-.28-1.77.17-2.05,1.02l-1.8,5.35c-.28.85.17,1.77,1.02,2.05.85.28,1.77-.17,2.05-1.02"/><path class="cls-1" d="M157.54,35.83l.36-1.08c.28-.85-.17-1.77-1.02-2.05-.85-.28-1.77.17-2.05,1.02l-.36,1.08c-.28.85.17,1.77,1.02,2.05s1.77-.17,2.05-1.02"/><path class="cls-1" d="M180.71,16.82l1.03-2.11c.39-.8.06-1.77-.74-2.17-.8-.39-1.77-.06-2.17.74l-1.03,2.11c-.39.8-.06,1.77.74,2.17.8.39,1.77.06,2.17-.74"/><path class="cls-1" d="M174.14,30.22l2.48-5.07c.39-.8.06-1.77-.74-2.17-.8-.39-1.77-.06-2.17.74l-2.48,5.07c-.39.8-.06,1.77.74,2.17s1.77.06,2.17-.74"/><path class="cls-1" d="M168.96,40.79l.5-1.02c.39-.8.06-1.77-.74-2.17-.8-.39-1.77-.06-2.17.74l-.5,1.02c-.39.8-.06,1.77.74,2.17.8.39,1.77.06,2.17-.74"/><path class="cls-1" d="M194.49,24.87l1.3-1.96c.5-.75.29-1.75-.45-2.25-.75-.5-1.75-.29-2.25.45l-1.3,1.96c-.5.74-.29,1.75.45,2.25.75.5,1.75.29,2.25-.45"/><path class="cls-1" d="M186.23,37.29l3.13-4.7c.5-.75.29-1.75-.45-2.25-.75-.5-1.75-.29-2.25.45l-3.12,4.7c-.5.75-.29,1.75.45,2.25s1.75.29,2.25-.45"/><path class="cls-1" d="M179.71,47.1l.63-.95c.49-.75.29-1.75-.45-2.25-.75-.49-1.75-.29-2.25.45l-.63.95c-.49.75-.29,1.75.45,2.25.75.49,1.75.29,2.25-.45"/><path class="cls-1" d="M207,34.77l1.54-1.77c.59-.67.52-1.7-.16-2.29s-1.7-.52-2.29.16l-1.54,1.77c-.59.67-.52,1.7.16,2.29s1.7.52,2.29-.16"/><path class="cls-1" d="M197.19,46.01l3.71-4.26c.59-.67.52-1.7-.16-2.29-.67-.59-1.7-.52-2.29.16l-3.71,4.26c-.59.67-.52,1.7.16,2.29.67.59,1.7.52,2.29-.16"/><path class="cls-1" d="M189.46,54.89l.75-.86c.59-.67.52-1.7-.16-2.29-.67-.59-1.7-.52-2.29.16l-.75.86c-.59.67-.52,1.7.16,2.29.67.59,1.7.52,2.29-.16"/><path class="cls-1" d="M218.16,46.17l1.76-1.55c.67-.59.73-1.62.14-2.29s-1.62-.73-2.29-.14l-1.76,1.55c-.67.59-.73,1.62-.14,2.29.59.67,1.62.73,2.29.14"/><path class="cls-1" d="M206.98,56.05l4.23-3.74c.67-.59.73-1.62.14-2.29s-1.62-.73-2.29-.14l-4.23,3.74c-.67.59-.73,1.62-.14,2.29.59.67,1.62.73,2.29.14"/><path class="cls-1" d="M198.15,63.84l.85-.76c.67-.59.73-1.62.14-2.29-.59-.67-1.62-.73-2.29-.14l-.85.76c-.67.59-.73,1.62-.14,2.29.59.67,1.62.73,2.29.14"/><path class="cls-1" d="M227.85,58.85l1.95-1.31c.74-.5.94-1.51.44-2.25-.5-.74-1.51-.94-2.25-.44l-1.95,1.31c-.74.5-.94,1.51-.44,2.25.5.74,1.51.94,2.25.44"/><path class="cls-1" d="M215.47,67.19l4.68-3.15c.74-.5.94-1.51.44-2.25-.5-.74-1.51-.94-2.25-.44l-4.68,3.16c-.74.5-.94,1.51-.44,2.25.5.74,1.51.94,2.25.44"/><path class="cls-1" d="M205.71,73.77l.94-.64c.74-.5.94-1.51.44-2.25-.5-.74-1.51-.94-2.25-.44l-.94.64c-.74.5-.94,1.51-.44,2.25.5.74,1.51.94,2.25.44"/><path class="cls-1" d="M235.6,72.81l2.1-1.05c.8-.4,1.13-1.37.73-2.17-.4-.8-1.37-1.13-2.17-.73l-2.1,1.05c-.8.4-1.13,1.37-.73,2.17.4.8,1.37,1.13,2.17.73"/><path class="cls-1" d="M222.24,79.46l5.05-2.52c.8-.4,1.13-1.37.73-2.17s-1.37-1.13-2.17-.73l-5.05,2.52c-.8.4-1.13,1.37-.73,2.17.4.8,1.37,1.13,2.17.73"/><path class="cls-1" d="M211.7,84.71l1.02-.51c.8-.4,1.13-1.37.73-2.17-.4-.8-1.37-1.13-2.17-.73l-1.02.51c-.8.4-1.13,1.37-.73,2.17s1.37,1.13,2.17.73"/><path class="cls-1" d="M241.57,87.61l2.22-.76c.85-.29,1.3-1.21,1.01-2.06-.29-.85-1.21-1.3-2.06-1.01l-2.22.76c-.85.29-1.3,1.21-1.01,2.06.29.85,1.21,1.3,2.06,1.01"/><path class="cls-1" d="M227.46,92.45l5.34-1.83c.85-.29,1.3-1.21,1.01-2.06-.29-.85-1.21-1.3-2.06-1.01l-5.34,1.83c-.85.29-1.3,1.21-1.01,2.06.29.85,1.21,1.3,2.06,1.01"/><path class="cls-1" d="M216.32,96.27l1.08-.37c.85-.29,1.3-1.21,1.01-2.06-.29-.85-1.21-1.3-2.06-1.01l-1.08.37c-.85.29-1.3,1.21-1.01,2.06.29.85,1.21,1.3,2.06,1.01"/><path class="cls-1" d="M245.64,103.05l2.3-.47c.88-.18,1.44-1.03,1.27-1.91s-1.03-1.44-1.91-1.27l-2.3.47c-.88.18-1.44,1.03-1.27,1.91s1.03,1.44,1.91,1.27"/><path class="cls-1" d="M231.01,105.99l5.53-1.11c.88-.18,1.45-1.03,1.27-1.91-.18-.88-1.03-1.45-1.91-1.27l-5.53,1.11c-.88.18-1.45,1.03-1.27,1.91.18.88,1.03,1.45,1.91,1.27"/><path class="cls-1" d="M219.46,108.32l1.12-.22c.88-.18,1.45-1.03,1.27-1.91-.18-.88-1.03-1.45-1.91-1.27l-1.12.22c-.88.18-1.45,1.03-1.27,1.91.18.88,1.03,1.45,1.91,1.27"/><path class="cls-1" d="M247.43,118.91l2.34-.16c.89-.06,1.57-.83,1.51-1.73-.06-.89-.83-1.57-1.73-1.51l-2.34.16c-.89.06-1.57.83-1.51,1.73.06.89.83,1.57,1.73,1.51"/><path class="cls-1" d="M232.54,119.92l5.63-.39c.89-.06,1.57-.83,1.51-1.73s-.83-1.57-1.73-1.51l-5.63.39c-.89.06-1.57.83-1.51,1.73.06.89.83,1.57,1.73,1.51"/><path class="cls-1" d="M220.79,120.72l1.14-.08c.89-.06,1.57-.83,1.51-1.72-.06-.89-.83-1.57-1.72-1.51l-1.14.08c-.89.06-1.57.83-1.51,1.72.06.89.83,1.57,1.72,1.51"/><circle class="cls-1" cx="125.66" cy="125.66" r="84.86"/></g></svg>