<?xml version="1.0" encoding="UTF-8"?><svg id="_レイヤー_2" xmlns="http://www.w3.org/2000/svg" viewBox="0 0 1204.22 2163.4"><defs><style>.cls-1{stroke-miterlimit:10;}.cls-1,.cls-2{fill:none;stroke:#b19552;stroke-width:2.17px;}.cls-2{stroke-dasharray:0 8.68;stroke-linecap:round;stroke-linejoin:round;}.cls-3{fill:#b19552;}</style></defs><g id="_飾り"><path class="cls-3" d="M143.52,1217.87c-1.25-.2-2.4-.37-3.45-.52q-10.62-1.58-12.2-12.2c-.16-1.05-.33-2.19-.52-3.45-.06-.4-.41-.7-.82-.7s-.75.3-.82.7c-.2,1.25-.37,2.4-.52,3.45q-1.58,10.62-12.2,12.2c-1.05.16-2.19.33-3.45.52-.4.06-.7.41-.7.82s.3.75.7.82c1.25.2,2.4.37,3.45.52q10.62,1.58,12.2,12.2c.15,1.05.33,2.19.52,3.45.06.4.41.7.82.7s.75-.3.82-.7c.2-1.25.36-2.4.52-3.45q1.58-10.62,12.2-12.2c1.05-.16,2.19-.33,3.45-.52.4-.06.7-.41.7-.82s-.3-.75-.7-.82Z"/><path class="cls-3" d="M79.98,1216.23c-.56-.09-1.07-.16-1.53-.23q-4.72-.7-5.42-5.42c-.07-.47-.14-.97-.23-1.53-.03-.18-.18-.31-.36-.31s-.33.13-.36.31c-.09.56-.16,1.07-.23,1.53q-.7,4.72-5.42,5.42c-.47.07-.97.14-1.53.23-.18.03-.31.18-.31.36s.13.33.31.36c.56.09,1.07.16,1.53.23q4.72.7,5.42,5.42c.07.47.14.97.23,1.53.03.18.18.31.36.31s.33-.13.36-.31c.09-.56.16-1.07.23-1.53q.7-4.72,5.42-5.42c.47-.07.97-.14,1.53-.23.18-.03.31-.18.31-.36s-.13-.33-.31-.36Z"/><path class="cls-3" d="M51.75,1312.29c.96-.83,1.83-1.6,2.62-2.3q8.06-7.09,17.19-1.44c.9.56,1.89,1.17,2.97,1.83.35.21.8.14,1.06-.17s.26-.77,0-1.07c-.83-.96-1.6-1.83-2.3-2.62q-7.09-8.06-1.44-17.19c.56-.9,1.17-1.89,1.83-2.97.21-.35.14-.8-.17-1.06s-.77-.26-1.07,0c-.96.83-1.83,1.6-2.62,2.3q-8.06,7.09-17.19,1.44c-.9-.56-1.89-1.17-2.97-1.83-.35-.21-.8-.14-1.06.17s-.26.77,0,1.07c.83.96,1.6,1.83,2.3,2.62q7.09,8.06,1.44,17.19c-.56.9-1.17,1.89-1.83,2.97-.21.35-.14.8.17,1.06s.77.26,1.07,0Z"/><path class="cls-3" d="M94.02,1264.83c.43-.37.81-.71,1.17-1.02q3.58-3.15,7.64-.64c.4.25.84.52,1.32.81.15.09.35.06.47-.08s.12-.34,0-.48c-.37-.43-.71-.81-1.02-1.17q-3.15-3.58-.64-7.64c.25-.4.52-.84.81-1.32.09-.15.06-.35-.08-.47s-.34-.12-.48,0c-.43.37-.81.71-1.17,1.02q-3.58,3.15-7.64.64c-.4-.25-.84-.52-1.32-.81-.15-.09-.35-.06-.47.08s-.12.34,0,.48c.37.43.71.81,1.02,1.17q3.15,3.58.64,7.64c-.25.4-.52.84-.81,1.32-.09.15-.06.35.08.47s.34.12.48,0Z"/><path class="cls-3" d="M266.79,1794.57c.96-.83,1.83-1.6,2.62-2.3q8.06-7.09,17.19-1.44c.9.56,1.89,1.17,2.97,1.83.35.21.8.14,1.06-.17s.26-.77,0-1.07c-.83-.96-1.6-1.83-2.3-2.62q-7.09-8.06-1.44-17.19c.56-.9,1.17-1.89,1.83-2.97.21-.35.14-.8-.17-1.06s-.77-.26-1.07,0c-.96.83-1.83,1.6-2.62,2.3q-8.06,7.09-17.19,1.44c-.9-.56-1.89-1.17-2.97-1.83-.35-.21-.8-.14-1.06.17s-.26.77,0,1.07c.83.96,1.6,1.83,2.3,2.62q7.09,8.06,1.44,17.19c-.56.9-1.17,1.89-1.83,2.97-.21.35-.14.8.17,1.06s.77.26,1.07,0Z"/><path class="cls-3" d="M319.39,1738.62c.57-.5,1.09-.96,1.57-1.37q4.82-4.24,10.28-.86c.54.33,1.13.7,1.78,1.09.21.13.48.08.63-.1s.16-.46,0-.64c-.5-.57-.95-1.09-1.37-1.57q-4.24-4.82-.86-10.28c.33-.54.7-1.13,1.09-1.78.13-.21.08-.48-.1-.63s-.46-.16-.64,0c-.57.5-1.09.96-1.57,1.37q-4.82,4.24-10.28.86c-.54-.33-1.13-.7-1.78-1.09-.21-.13-.48-.08-.63.1s-.16.46,0,.64c.5.57.96,1.09,1.37,1.57q4.24,4.82.86,10.28c-.33.54-.7,1.13-1.09,1.78-.13.21-.08.48.1.63s.46.16.64,0Z"/><path class="cls-3" d="M323,1787.49c.82-.71,1.56-1.36,2.24-1.96q6.87-6.05,14.66-1.23c.77.48,1.61,1,2.53,1.56.3.18.68.12.9-.15s.22-.65,0-.92c-.71-.82-1.36-1.56-1.96-2.24q-6.05-6.87-1.23-14.66c.48-.77,1-1.61,1.56-2.53.18-.3.12-.68-.15-.9s-.65-.22-.92,0c-.82.71-1.56,1.36-2.24,1.96q-6.87,6.05-14.66,1.23c-.77-.48-1.61-1-2.53-1.56-.3-.18-.68-.12-.9.15s-.22.65,0,.92c.71.82,1.36,1.56,1.96,2.24q6.05,6.87,1.23,14.66c-.48.77-1,1.61-1.56,2.53-.18.3-.12.68.15.9s.65.22.92,0Z"/><path class="cls-3" d="M281.03,1755.07c.44-.38.83-.73,1.19-1.05q3.67-3.23,7.82-.66c.41.25.86.53,1.35.83.16.1.36.06.48-.08s.12-.35,0-.49c-.38-.44-.73-.83-1.05-1.19q-3.23-3.67-.66-7.82c.25-.41.53-.86.83-1.35.1-.16.06-.36-.08-.48s-.35-.12-.49,0c-.44.38-.83.73-1.19,1.05q-3.67,3.23-7.82.66c-.41-.25-.86-.53-1.35-.83-.16-.1-.36-.06-.48.08s-.12.35,0,.49c.38.44.73.83,1.05,1.19q3.23,3.67.66,7.82c-.25.41-.53.86-.83,1.35-.1.16-.06.36.08.48s.35.12.49,0Z"/><path class="cls-3" d="M297.69,1899.17c.34-.3.65-.57.93-.82q2.86-2.52,6.11-.51c.32.2.67.42,1.06.65.12.08.28.05.38-.06s.09-.27,0-.38c-.3-.34-.57-.65-.82-.93q-2.52-2.86-.51-6.11c.2-.32.42-.67.65-1.06.08-.12.05-.28-.06-.38s-.27-.09-.38,0c-.34.3-.65.57-.93.82q-2.86,2.52-6.11.51c-.32-.2-.67-.42-1.06-.65-.12-.08-.28-.05-.38.06s-.09.27,0,.38c.3.34.57.65.82.93q2.52,2.86.51,6.11c-.2.32-.42.67-.65,1.06-.08.12-.05.28.06.38s.27.09.38,0Z"/><path class="cls-3" d="M305.1,1879.61c.54-.47,1.03-.9,1.48-1.29q4.54-3.99,9.68-.81c.51.31,1.06.66,1.67,1.03.2.12.45.08.6-.1s.15-.43,0-.6c-.47-.54-.9-1.03-1.29-1.48q-3.99-4.54-.81-9.68c.31-.51.66-1.06,1.03-1.67.12-.2.08-.45-.1-.6s-.43-.15-.6,0c-.54.47-1.03.9-1.48,1.29q-4.54,3.99-9.68.81c-.51-.31-1.06-.66-1.67-1.03-.2-.12-.45-.08-.6.1s-.15.43,0,.6c.47.54.9,1.03,1.29,1.48q3.99,4.54.81,9.68c-.31.51-.66,1.06-1.03,1.67-.12.2-.08.45.1.6s.43.15.6,0Z"/><path class="cls-3" d="M255.89,1733.77c.15-.13.29-.26.42-.37q1.29-1.14,2.76-.23c.14.09.3.19.48.29.06.03.13.02.17-.03s.04-.12,0-.17c-.13-.15-.26-.29-.37-.42q-1.14-1.29-.23-2.76c.09-.14.19-.3.29-.48.03-.06.02-.13-.03-.17s-.12-.04-.17,0c-.15.13-.29.26-.42.37q-1.29,1.14-2.76.23c-.14-.09-.3-.19-.48-.29-.06-.03-.13-.02-.17.03s-.04.12,0,.17c.13.15.26.29.37.42q1.14,1.29.23,2.76c-.09.14-.19.3-.29.48-.03.06-.02.13.03.17s.12.04.17,0Z"/><path class="cls-3" d="M214.82,1397.93l7.78,6.14c.44.35.94.45,1.18.24.25-.24.09-.77-.37-1.19l-7.32-6.69c-.05-.05-.12-.1-.18-.15-.15-.12-.3-.21-.45-.29-.1-.14-.22-.27-.36-.4-.06-.05-.12-.1-.18-.15l-7.78-6.14c-.49-.38-1.04-.46-1.23-.18-.18.27.01.75.42,1.12l7.32,6.69c.2.18.41.33.63.44.15.19.32.38.54.55Z"/><path class="cls-3" d="M215.71,1397.61l9.84-1.16c.55-.06.99-.35,1-.67.01-.35-.48-.6-1.1-.58l-9.9.45c-.07,0-.16,0-.23.02-.19.02-.36.06-.52.11-.17-.02-.35-.04-.53-.03-.07,0-.16.01-.23.02l-9.84,1.16c-.62.07-1.06.41-.99.75.06.31.54.52,1.09.49l9.9-.45c.27-.01.52-.06.75-.13.24.03.5.04.77,0Z"/><path class="cls-3" d="M216.11,1396.75l6.14-7.78c.35-.44.45-.94.24-1.18-.24-.25-.77-.09-1.19.37l-6.69,7.32c-.05.05-.1.12-.15.18-.12.15-.21.3-.29.45-.14.1-.27.22-.4.36-.05.06-.1.12-.15.18l-6.14,7.78c-.38.49-.46,1.04-.17,1.23.27.18.75-.01,1.12-.42l6.69-7.32c.18-.2.33-.41.44-.63.19-.15.38-.32.55-.54Z"/><path class="cls-3" d="M215.79,1395.85l-1.16-9.84c-.06-.55-.35-.99-.67-1-.35-.01-.6.48-.58,1.1l.45,9.9c0,.07.01.16.02.23.02.19.06.36.11.52-.02.17-.04.35-.03.53,0,.07.01.16.02.23l1.16,9.84c.07.62.41,1.06.75.99.31-.06.52-.54.49-1.09l-.45-9.9c-.01-.27-.06-.52-.13-.75.03-.24.04-.5,0-.77Z"/><path class="cls-3" d="M112.95,1372.04c.96-.83,1.83-1.6,2.62-2.3q8.06-7.09,17.19-1.44c.9.56,1.89,1.17,2.97,1.83.35.21.8.14,1.06-.17s.26-.77,0-1.07c-.83-.96-1.6-1.83-2.3-2.62q-7.09-8.06-1.44-17.19c.56-.9,1.17-1.89,1.83-2.97.21-.35.14-.8-.17-1.06s-.77-.26-1.07,0c-.96.83-1.83,1.6-2.62,2.3q-8.06,7.09-17.19,1.44c-.9-.56-1.89-1.17-2.97-1.83-.35-.21-.8-.14-1.06.17s-.26.77,0,1.07c.83.96,1.6,1.83,2.3,2.62q7.09,8.06,1.44,17.19c-.56.9-1.17,1.89-1.83,2.97-.21.35-.14.8.17,1.06s.77.26,1.07,0Z"/><path class="cls-3" d="M120.95,1405.12c.55-.48,1.06-.92,1.52-1.33q4.66-4.1,9.93-.83c.52.32,1.09.67,1.72,1.06.2.12.46.08.61-.1s.15-.44,0-.62c-.48-.55-.92-1.06-1.33-1.52q-4.1-4.66-.83-9.93c.32-.52.67-1.09,1.06-1.72.12-.2.08-.46-.1-.61s-.44-.15-.62,0c-.55.48-1.06.92-1.52,1.33q-4.66,4.1-9.93.83c-.52-.32-1.09-.67-1.72-1.06-.2-.12-.46-.08-.61.1s-.15.44,0,.62c.48.55.92,1.06,1.33,1.52q4.1,4.66.83,9.93c-.32.52-.67,1.09-1.06,1.72-.12.2-.08.46.1.61s.44.15.62,0Z"/><path class="cls-3" d="M194.67,1371.87c.34-.3.65-.57.93-.82q2.86-2.52,6.11-.51c.32.2.67.42,1.06.65.12.08.28.05.38-.06s.09-.27,0-.38c-.3-.34-.57-.65-.82-.93q-2.52-2.86-.51-6.11c.2-.32.42-.67.65-1.06.08-.12.05-.28-.06-.38s-.27-.09-.38,0c-.34.3-.65.57-.93.82q-2.86,2.52-6.11.51c-.32-.2-.67-.42-1.06-.65-.12-.08-.28-.05-.38.06s-.09.27,0,.38c.3.34.57.65.82.93q2.52,2.86.51,6.11c-.2.32-.42.67-.65,1.06-.08.12-.05.28.06.38s.27.09.38,0Z"/><path class="cls-3" d="M164.44,1422.9c.25-.22.48-.42.68-.6q2.1-1.85,4.48-.38c.24.15.49.3.77.48.09.06.21.04.28-.04s.07-.2,0-.28c-.22-.25-.42-.48-.6-.68q-1.85-2.1-.38-4.48c.15-.23.3-.49.48-.77.06-.09.04-.21-.04-.28s-.2-.07-.28,0c-.25.22-.48.42-.68.6q-2.1,1.85-4.48.38c-.23-.15-.49-.3-.77-.48-.09-.06-.21-.04-.28.05s-.07.2,0,.28c.22.25.42.48.6.68q1.85,2.1.38,4.48c-.15.23-.3.49-.48.77-.06.09-.04.21.04.28s.2.07.28,0Z"/><path class="cls-3" d="M195.61,1318.92c.19-.17.37-.32.53-.47q1.63-1.44,3.49-.29c.18.11.38.24.6.37.07.04.16.03.22-.03s.05-.16,0-.22c-.17-.19-.32-.37-.47-.53q-1.44-1.63-.29-3.49c.11-.18.24-.38.37-.6.04-.07.03-.16-.04-.21s-.16-.05-.22,0c-.19.17-.37.32-.53.47q-1.63,1.44-3.49.29c-.18-.11-.38-.24-.6-.37-.07-.04-.16-.03-.22.03s-.05.16,0,.22c.17.19.32.37.47.53q1.44,1.63.29,3.49c-.11.18-.24.38-.37.6-.04.07-.03.16.04.21s.16.05.22,0Z"/><path class="cls-3" d="M272.88,1475.49l17.88,14.11c1,.79,2.17,1.04,2.71.54.58-.54.2-1.76-.85-2.72l-16.81-15.37c-.12-.11-.27-.24-.41-.34-.34-.27-.69-.48-1.03-.67-.24-.31-.51-.62-.83-.91-.13-.12-.27-.24-.41-.34l-17.88-14.11c-1.12-.88-2.39-1.06-2.83-.4-.4.61.03,1.72.97,2.58l16.81,15.37c.46.42.95.75,1.44,1.01.34.44.75.87,1.23,1.25Z"/><path class="cls-3" d="M274.94,1474.74l22.62-2.67c1.27-.15,2.27-.8,2.3-1.53.03-.79-1.1-1.39-2.53-1.32l-22.75,1.02c-.17,0-.36.02-.53.04-.43.05-.83.15-1.2.26-.39-.05-.8-.08-1.23-.06-.17,0-.36.02-.53.04l-22.62,2.67c-1.42.17-2.44.93-2.28,1.71.14.72,1.24,1.19,2.52,1.14l22.75-1.02c.62-.03,1.2-.14,1.73-.3.55.07,1.14.09,1.76.01Z"/><path class="cls-3" d="M275.86,1472.76l14.11-17.88c.79-1,1.04-2.17.54-2.71-.54-.58-1.76-.2-2.72.85l-15.37,16.81c-.11.12-.24.27-.34.41-.27.34-.48.69-.67,1.03-.31.24-.62.51-.91.82-.12.13-.24.27-.34.41l-14.11,17.88c-.88,1.12-1.06,2.39-.4,2.83.61.4,1.72-.03,2.58-.97l15.37-16.81c.42-.46.75-.95,1.01-1.44.44-.34.87-.75,1.25-1.23Z"/><path class="cls-3" d="M275.11,1470.71l-2.67-22.62c-.15-1.27-.8-2.27-1.53-2.3-.79-.03-1.39,1.1-1.32,2.53l1.02,22.75c0,.17.02.36.04.53.05.43.15.83.26,1.2-.05.39-.08.8-.06,1.23,0,.17.02.36.04.53l2.67,22.62c.17,1.42.93,2.44,1.71,2.28.72-.14,1.19-1.24,1.14-2.52l-1.02-22.75c-.03-.62-.14-1.2-.3-1.73.07-.55.09-1.14.01-1.76Z"/><path class="cls-3" d="M236.73,1511.16c.24-.21.46-.4.65-.57q2.01-1.77,4.28-.36c.22.14.47.29.74.46.09.05.2.03.26-.04s.06-.19,0-.27c-.21-.24-.4-.46-.57-.65q-1.77-2.01-.36-4.28c.14-.22.29-.47.46-.74.05-.09.03-.2-.04-.26s-.19-.06-.27,0c-.24.21-.46.4-.65.57q-2.01,1.77-4.28.36c-.22-.14-.47-.29-.74-.46-.09-.05-.2-.03-.26.04s-.06.19,0,.27c.21.24.4.46.57.65q1.77,2.01.36,4.28c-.14.22-.29.47-.46.74-.05.09-.03.2.04.26s.19.06.27,0Z"/><path class="cls-3" d="M326.36,1471.51c.2-.18.39-.34.56-.49q1.71-1.51,3.65-.31c.19.12.4.25.63.39.07.04.17.03.23-.04s.06-.16,0-.23c-.18-.2-.34-.39-.49-.56q-1.51-1.71-.31-3.65c.12-.19.25-.4.39-.63.04-.07.03-.17-.04-.23s-.16-.06-.23,0c-.2.18-.39.34-.56.49q-1.71,1.51-3.65.31c-.19-.12-.4-.25-.63-.39-.07-.04-.17-.03-.23.04s-.06.16,0,.23c.18.2.34.39.49.56q1.51,1.71.31,3.65c-.12.19-.25.4-.39.63-.04.07-.03.17.04.23s.16.06.23,0Z"/><path class="cls-3" d="M253.14,1543.78c.34-.3.65-.57.93-.82q2.86-2.52,6.11-.51c.32.2.67.42,1.06.65.12.08.28.05.38-.06s.09-.27,0-.38c-.3-.34-.57-.65-.82-.93q-2.52-2.86-.51-6.11c.2-.32.42-.67.65-1.06.07-.12.05-.28-.06-.38s-.27-.09-.38,0c-.34.3-.65.57-.93.82q-2.87,2.52-6.11.51c-.32-.2-.67-.42-1.06-.65-.12-.08-.28-.05-.38.06s-.09.27,0,.38c.3.34.57.65.82.93q2.52,2.86.51,6.11c-.2.32-.42.67-.65,1.06-.08.12-.05.28.06.38s.27.09.38,0Z"/><path class="cls-3" d="M241.81,1552.33c.15-.13.29-.25.41-.36q1.26-1.11,2.68-.22c.14.09.29.18.46.29.05.03.12.02.17-.03s.04-.12,0-.17c-.13-.15-.25-.29-.36-.41q-1.11-1.26-.22-2.68c.09-.14.18-.29.29-.46.03-.05.02-.12-.03-.17s-.12-.04-.17,0c-.15.13-.29.25-.41.36q-1.26,1.11-2.68.22c-.14-.09-.29-.18-.46-.28-.05-.03-.12-.02-.17.03s-.04.12,0,.17c.13.15.25.28.36.41q1.11,1.26.22,2.68c-.09.14-.18.29-.29.46-.03.05-.02.12.03.17s.12.04.17,0Z"/><polygon class="cls-3" points="106.4 1736.47 129.21 1713.75 134.63 1745.49 134.7 1713.29 160.97 1731.89 138.26 1709.09 169.99 1703.66 137.79 1703.6 156.4 1677.32 133.59 1700.04 128.16 1668.31 128.1 1700.5 101.82 1681.9 124.54 1704.71 92.81 1710.13 125 1710.2 106.4 1736.47"/><path class="cls-3" d="M160.08,1687.55c-1.95,1.01-2.71,3.41-1.7,5.36,1.01,1.95,3.41,2.71,5.36,1.7,1.95-1.01,2.71-3.41,1.7-5.36-1.01-1.95-3.41-2.71-5.36-1.7Z"/><path class="cls-3" d="M160.38,1716.07h0c-.66,2.09.5,4.33,2.59,4.99,2.09.66,4.33-.5,4.99-2.59h0c.66-2.09-.5-4.33-2.59-4.99-2.09-.66-4.33.5-4.99,2.59Z"/><path class="cls-3" d="M122.25,1735.88s-.03,0-.05-.01c-.01,0-.03-.01-.04-.02h0c-2.09-.67-4.33.48-5,2.58-.67,2.09.49,4.33,2.58,5h0s.04,0,.06.01c.02,0,.04.02.06.03h0c2.09.66,4.33-.5,4.99-2.59.66-2.09-.5-4.32-2.59-4.99h0Z"/><path class="cls-3" d="M145.41,1733.87c-1.95,1.01-2.71,3.41-1.69,5.36,1.01,1.95,3.41,2.71,5.36,1.7,1.95-1.01,2.71-3.41,1.7-5.36-1.01-1.95-3.41-2.71-5.36-1.69Z"/><path class="cls-3" d="M102.43,1697.67h0c.67-2.09-.49-4.33-2.58-4.99-2.09-.67-4.33.49-4.99,2.58h0c-.67,2.09.49,4.33,2.58,4.99,2.09.67,4.33-.49,4.99-2.58Z"/><path class="cls-3" d="M145.59,1675.34c.66-2.09-.49-4.33-2.58-4.99-2.09-.66-4.33.49-4.99,2.58s.49,4.33,2.58,4.99c2.09.66,4.33-.49,4.99-2.58Z"/><path class="cls-3" d="M102.69,1726.2c1.95-1.01,2.71-3.41,1.71-5.36h0c-1.01-1.95-3.4-2.71-5.35-1.71-1.95,1.01-2.71,3.4-1.71,5.35h0c1.01,1.95,3.41,2.71,5.36,1.71Z"/><path class="cls-3" d="M117.43,1679.9h0c1.95-1.01,2.71-3.41,1.7-5.36-1.01-1.95-3.41-2.71-5.36-1.7h0c-1.95,1.01-2.71,3.41-1.7,5.36,1.01,1.95,3.41,2.71,5.36,1.7Z"/><path class="cls-2" d="M231.58,1676.94c-113.62-96.04-127.87-265.99-31.84-379.61"/><path class="cls-2" d="M187.25,1630.22c148.19,148.19,125.61,480.61-186.16,480.61"/><path class="cls-1" d="M144.75,1250.85c-96.04,113.62-81.78,283.58,31.84,379.61l59.65,51.24c175.96,175.96,96.63,480.61-186.16,480.61"/><path class="cls-3" d="M210.36,490.6c-1.25-.2-2.4-.37-3.45-.52q-10.62-1.58-12.2-12.2c-.16-1.05-.33-2.19-.52-3.45-.06-.4-.41-.7-.82-.7s-.75.3-.82.7c-.2,1.25-.37,2.4-.52,3.45q-1.58,10.62-12.2,12.2c-1.05.16-2.19.33-3.45.52-.4.06-.7.41-.7.82s.3.75.7.82c1.25.2,2.4.37,3.45.52q10.62,1.58,12.2,12.2c.15,1.05.33,2.19.52,3.45.06.4.41.7.82.7s.75-.3.82-.7c.2-1.25.36-2.4.52-3.45q1.58-10.62,12.2-12.2c1.05-.16,2.19-.33,3.45-.52.4-.06.7-.41.7-.82s-.3-.75-.7-.82Z"/><path class="cls-3" d="M635.3,222.71l-.77-22.76c-.04-1.28-.6-2.33-1.33-2.42-.79-.1-1.47.98-1.53,2.41l-.88,22.76c0,.17,0,.36,0,.53.01.43.08.84.16,1.22-.08.38-.15.79-.16,1.22,0,.17,0,.36,0,.53l.77,22.76c.05,1.43.73,2.51,1.52,2.42.73-.08,1.29-1.13,1.34-2.41l.88-22.76c.02-.62-.04-1.21-.15-1.75.12-.54.18-1.13.16-1.75Z"/><path class="cls-3" d="M633.4,221.63l-16.64-15.55c-.93-.87-2.08-1.22-2.65-.77-.63.49-.35,1.74.62,2.79l15.47,16.72c.11.12.25.26.38.38.32.3.65.54.97.75.21.33.45.66.75.98.12.13.25.26.38.38l16.64,15.55c1.04.97,2.29,1.26,2.78.64.45-.57.11-1.72-.76-2.65l-15.47-16.72c-.42-.45-.88-.83-1.35-1.13-.3-.47-.67-.93-1.12-1.35Z"/><path class="cls-3" d="M631.29,222.2l-22.76.77c-1.28.04-2.33.6-2.42,1.33-.1.79.98,1.47,2.41,1.53l22.76.88c.17,0,.36,0,.53,0,.43-.01.84-.08,1.22-.16.38.08.79.15,1.22.16.17,0,.36,0,.53,0l22.76-.77c1.43-.05,2.51-.73,2.42-1.52-.08-.73-1.13-1.29-2.41-1.34l-22.76-.88c-.62-.02-1.21.04-1.75.15-.54-.12-1.13-.18-1.75-.16Z"/><path class="cls-3" d="M630.21,224.1l-15.56,16.64c-.87.93-1.22,2.08-.77,2.65.49.63,1.74.35,2.79-.62l16.72-15.47c.12-.11.26-.25.38-.38.3-.32.54-.65.75-.97.33-.21.66-.45.98-.75.13-.12.26-.25.38-.38l15.55-16.64c.97-1.04,1.26-2.29.64-2.78-.57-.45-1.72-.11-2.65.76l-16.72,15.47c-.45.42-.83.88-1.13,1.35-.47.3-.93.67-1.35,1.12Z"/><path class="cls-3" d="M721.15,209.74c-.75-.12-1.44-.22-2.06-.31q-6.35-.94-7.29-7.29c-.09-.63-.2-1.31-.31-2.06-.04-.24-.24-.42-.49-.42s-.45.18-.49.42c-.12.75-.22,1.43-.31,2.06q-.94,6.35-7.29,7.29c-.63.09-1.31.19-2.06.31-.24.04-.42.24-.42.49s.18.45.42.49c.75.12,1.44.22,2.06.31q6.35.94,7.29,7.29c.09.63.19,1.31.31,2.06.04.24.24.42.49.42s.45-.18.49-.42c.12-.75.22-1.43.31-2.06q.94-6.35,7.29-7.29c.63-.09,1.31-.19,2.06-.31.24-.04.42-.24.42-.49s-.18-.45-.42-.49Z"/><path class="cls-3" d="M594.66,479.05l-.33-9.91c-.02-.56-.26-1.01-.58-1.05-.34-.04-.64.43-.67,1.05l-.38,9.91c0,.07,0,.16,0,.23,0,.19.03.36.07.53-.04.17-.06.34-.07.53,0,.07,0,.16,0,.23l.33,9.91c.02.62.32,1.09.66,1.05.32-.04.56-.49.58-1.05l.38-9.91c.01-.27-.02-.53-.07-.76.05-.24.08-.49.07-.76Z"/><path class="cls-3" d="M593.84,478.57l-7.24-6.77c-.41-.38-.9-.53-1.15-.33-.27.21-.15.76.27,1.21l6.73,7.28c.05.05.11.11.16.16.14.13.28.23.42.33.09.14.2.29.32.43.05.05.11.11.16.16l7.24,6.77c.45.42,1,.55,1.21.28.2-.25.05-.75-.33-1.16l-6.73-7.28c-.18-.2-.38-.36-.59-.49-.13-.2-.29-.4-.49-.59Z"/><path class="cls-3" d="M592.92,478.82l-9.91.33c-.56.02-1.01.26-1.05.58-.04.34.43.64,1.05.67l9.91.38c.07,0,.16,0,.23,0,.19,0,.36-.03.53-.07.17.04.34.06.53.07.07,0,.16,0,.23,0l9.91-.33c.62-.02,1.09-.32,1.05-.66-.04-.32-.49-.56-1.05-.58l-9.91-.38c-.27-.01-.53.02-.76.07-.24-.05-.49-.08-.76-.07Z"/><path class="cls-3" d="M592.45,479.65l-6.77,7.24c-.38.41-.53.9-.33,1.15.21.27.76.15,1.21-.27l7.28-6.73c.05-.05.11-.11.16-.16.13-.14.23-.28.33-.42.14-.09.29-.2.43-.32.05-.05.11-.11.16-.16l6.77-7.24c.42-.45.55-1,.28-1.21-.25-.2-.75-.05-1.16.33l-7.28,6.73c-.2.18-.36.38-.49.59-.2.13-.4.29-.59.49Z"/><path class="cls-3" d="M640.65,573.56c-1.25-.2-2.4-.37-3.45-.52q-10.62-1.58-12.2-12.2c-.16-1.05-.33-2.19-.52-3.45-.06-.4-.41-.7-.82-.7s-.75.3-.82.7c-.2,1.25-.37,2.4-.52,3.45q-1.58,10.62-12.2,12.2c-1.05.16-2.19.33-3.45.52-.4.06-.7.41-.7.82s.3.75.7.82c1.25.2,2.4.37,3.45.52q10.62,1.58,12.2,12.2c.15,1.05.33,2.19.52,3.45.06.4.41.7.82.7s.75-.3.82-.7c.2-1.25.36-2.4.52-3.45q1.58-10.62,12.2-12.2c1.05-.16,2.19-.33,3.45-.52.4-.06.7-.41.7-.82s-.3-.75-.7-.82Z"/><path class="cls-3" d="M283.41,588.63l-.77-22.76c-.04-1.28-.6-2.33-1.33-2.42-.79-.1-1.47.98-1.53,2.41l-.88,22.76c0,.17,0,.36,0,.53.01.43.08.84.16,1.22-.08.38-.15.79-.16,1.22,0,.17,0,.36,0,.53l.77,22.76c.05,1.43.73,2.51,1.52,2.42.73-.08,1.29-1.13,1.34-2.41l.88-22.76c.02-.62-.04-1.21-.15-1.75.12-.54.18-1.13.16-1.75Z"/><path class="cls-3" d="M281.52,587.55l-16.64-15.55c-.93-.87-2.08-1.22-2.65-.77-.63.49-.35,1.74.62,2.79l15.47,16.72c.11.12.25.26.38.38.32.3.65.54.97.75.21.33.45.66.75.98.12.13.25.26.38.38l16.64,15.55c1.04.97,2.29,1.26,2.78.64.45-.57.11-1.72-.76-2.65l-15.47-16.72c-.42-.45-.88-.83-1.35-1.13-.3-.47-.67-.93-1.12-1.35Z"/><path class="cls-3" d="M279.41,588.12l-22.76.77c-1.28.04-2.33.6-2.42,1.33-.09.79.98,1.47,2.41,1.53l22.76.88c.17,0,.36,0,.53,0,.43-.01.84-.08,1.22-.16.38.08.79.15,1.22.16.17,0,.36,0,.53,0l22.76-.77c1.43-.05,2.51-.73,2.42-1.52-.08-.73-1.13-1.29-2.41-1.34l-22.76-.88c-.62-.02-1.21.04-1.75.15-.54-.12-1.13-.18-1.75-.16Z"/><path class="cls-3" d="M278.32,590.02l-15.55,16.64c-.87.93-1.22,2.08-.77,2.65.49.63,1.74.35,2.79-.62l16.72-15.47c.12-.11.26-.25.38-.38.3-.32.54-.65.75-.97.33-.21.66-.45.98-.75.13-.12.26-.25.38-.38l15.55-16.64c.97-1.04,1.26-2.29.64-2.78-.57-.45-1.72-.11-2.65.76l-16.72,15.47c-.46.42-.83.88-1.13,1.35-.47.3-.93.67-1.35,1.12Z"/><path class="cls-3" d="M204.74,312.26c-.88-.14-1.68-.26-2.42-.37q-7.44-1.1-8.55-8.55c-.11-.73-.23-1.54-.36-2.42-.04-.28-.29-.49-.57-.49s-.53.21-.57.49c-.14.88-.26,1.68-.36,2.42q-1.11,7.44-8.55,8.55c-.73.11-1.54.23-2.42.37-.28.04-.49.29-.49.57s.21.53.49.57c.88.14,1.68.26,2.42.36q7.44,1.11,8.55,8.55c.11.73.23,1.54.36,2.42.04.28.29.49.57.49s.53-.21.57-.49c.14-.88.26-1.68.36-2.42q1.1-7.44,8.55-8.55c.73-.11,1.54-.23,2.42-.36.28-.04.49-.29.49-.57s-.21-.53-.49-.57Z"/><path class="cls-3" d="M640.8,111.63l-.37-10.97c-.02-.62-.29-1.12-.64-1.17-.38-.05-.71.47-.74,1.16l-.42,10.97c0,.08,0,.17,0,.26,0,.21.04.4.08.59-.04.18-.07.38-.08.59,0,.08,0,.18,0,.26l.37,10.97c.02.69.35,1.21.73,1.17.35-.04.62-.55.65-1.16l.42-10.97c.01-.3-.02-.58-.07-.84.06-.26.09-.55.08-.84Z"/><path class="cls-3" d="M639.89,111.1l-8.02-7.5c-.45-.42-1-.59-1.28-.37-.3.24-.17.84.3,1.34l7.46,8.06c.06.06.12.13.18.18.15.14.31.26.47.36.1.16.22.32.36.47.06.06.12.13.18.18l8.02,7.5c.5.47,1.1.61,1.34.31.22-.28.05-.83-.36-1.28l-7.46-8.06c-.2-.22-.42-.4-.65-.55-.14-.23-.32-.45-.54-.65Z"/><path class="cls-3" d="M638.87,111.38l-10.97.37c-.62.02-1.12.29-1.17.64-.05.38.47.71,1.16.74l10.97.43c.08,0,.17,0,.26,0,.21,0,.4-.04.59-.08.18.04.38.07.59.08.08,0,.18,0,.26,0l10.97-.37c.69-.02,1.21-.35,1.17-.73-.04-.35-.55-.62-1.16-.65l-10.97-.43c-.3-.01-.58.02-.84.07-.26-.06-.55-.09-.84-.08Z"/><path class="cls-3" d="M638.35,112.29l-7.5,8.02c-.42.45-.59,1-.37,1.28.24.3.84.17,1.34-.3l8.06-7.46c.06-.05.13-.12.18-.18.14-.15.26-.31.36-.47.16-.1.32-.22.47-.36.06-.06.13-.12.18-.18l7.5-8.02c.47-.5.61-1.1.31-1.34-.28-.22-.83-.05-1.28.36l-8.06,7.46c-.22.2-.4.42-.55.65-.23.14-.45.32-.65.54Z"/><path class="cls-3" d="M278.04,143.31c-1.25-.2-2.4-.37-3.45-.52q-10.62-1.58-12.2-12.2c-.16-1.05-.33-2.19-.52-3.45-.06-.4-.41-.7-.82-.7s-.75.3-.82.7c-.2,1.25-.37,2.4-.52,3.45q-1.58,10.62-12.2,12.2c-1.05.16-2.19.33-3.45.52-.4.06-.7.41-.7.82s.3.75.7.82c1.25.2,2.4.37,3.45.52q10.62,1.58,12.2,12.2c.15,1.05.33,2.19.52,3.45.06.4.41.7.82.7s.75-.3.82-.7c.2-1.25.36-2.4.52-3.45q1.58-10.62,12.2-12.2c1.05-.16,2.19-.33,3.45-.52.4-.06.7-.41.7-.82s-.3-.75-.7-.82Z"/><path class="cls-3" d="M201.35,139.26c-.75-.12-1.44-.22-2.06-.31q-6.35-.94-7.29-7.29c-.09-.63-.19-1.31-.31-2.06-.04-.24-.25-.42-.49-.42s-.45.18-.49.42c-.12.75-.22,1.43-.31,2.06q-.94,6.35-7.29,7.29c-.63.09-1.31.19-2.06.31-.24.04-.42.24-.42.49s.18.45.42.49c.75.12,1.44.22,2.06.31q6.35.94,7.29,7.29c.09.63.19,1.31.31,2.06.04.24.24.42.49.42s.45-.18.49-.42c.12-.75.22-1.44.31-2.06q.94-6.35,7.29-7.29c.63-.09,1.31-.19,2.06-.31.24-.04.42-.24.42-.49s-.18-.45-.42-.49Z"/><path class="cls-3" d="M549.52,622.87c-1.25-.2-2.4-.37-3.45-.52q-10.62-1.58-12.2-12.2c-.16-1.05-.33-2.19-.52-3.45-.06-.4-.41-.7-.82-.7s-.75.3-.82.7c-.2,1.25-.37,2.4-.52,3.45q-1.58,10.62-12.2,12.2c-1.05.16-2.19.33-3.45.52-.4.06-.7.41-.7.82s.3.75.7.82c1.25.2,2.4.37,3.45.52q10.62,1.58,12.2,12.2c.15,1.05.33,2.19.52,3.45.06.4.41.7.82.7s.75-.3.82-.7c.2-1.25.36-2.4.52-3.45q1.58-10.62,12.2-12.2c1.05-.16,2.19-.33,3.45-.52.4-.06.7-.41.7-.82s-.3-.75-.7-.82Z"/><path class="cls-3" d="M588.72,125.11c-.79-.12-1.5-.23-2.16-.33q-6.65-.99-7.63-7.63c-.1-.66-.2-1.37-.33-2.16-.04-.25-.26-.44-.51-.44s-.47.19-.51.44c-.12.78-.23,1.5-.33,2.16q-.99,6.65-7.64,7.63c-.66.1-1.37.2-2.16.33-.25.04-.44.26-.44.51s.19.47.44.51c.79.12,1.5.23,2.16.33q6.65.99,7.64,7.63c.1.66.2,1.37.33,2.16.04.25.26.44.51.44s.47-.19.51-.44c.12-.78.23-1.5.33-2.16q.99-6.65,7.63-7.63c.66-.1,1.37-.2,2.16-.33.25-.04.44-.26.44-.51s-.19-.47-.44-.51Z"/><path class="cls-3" d="M236.34,104.95c-1.07-.17-2.05-.31-2.94-.44q-9.06-1.34-10.4-10.4c-.13-.89-.28-1.87-.44-2.94-.05-.34-.35-.6-.7-.6s-.64.25-.7.6c-.17,1.07-.31,2.05-.44,2.94q-1.34,9.06-10.4,10.4c-.89.13-1.87.28-2.94.44-.34.05-.6.35-.6.7s.25.64.6.7c1.07.17,2.05.31,2.94.44q9.06,1.35,10.4,10.4c.13.89.28,1.87.44,2.94.05.34.35.6.7.6s.64-.25.7-.6c.17-1.07.31-2.05.44-2.94q1.34-9.06,10.4-10.4c.89-.13,1.87-.28,2.94-.44.34-.05.6-.35.6-.7s-.25-.64-.6-.7Z"/><path class="cls-3" d="M174.32,467.61c-.43-.07-.83-.13-1.19-.18q-3.67-.54-4.21-4.21c-.05-.36-.11-.76-.18-1.19-.02-.14-.14-.24-.28-.24s-.26.1-.28.24c-.07.43-.13.83-.18,1.19q-.54,3.67-4.21,4.21c-.36.05-.76.11-1.19.18-.14.02-.24.14-.24.28s.1.26.24.28c.43.07.83.13,1.19.18q3.67.55,4.21,4.21c.05.36.11.76.18,1.19.02.14.14.24.28.24s.26-.1.28-.24c.07-.43.13-.83.18-1.19q.54-3.67,4.21-4.21c.36-.05.76-.11,1.19-.18.14-.02.24-.14.24-.28s-.1-.26-.24-.28Z"/><path class="cls-3" d="M660.75,546.1c-.72-.11-1.39-.21-1.99-.3q-6.14-.91-7.05-7.05c-.09-.61-.19-1.27-.3-1.99-.04-.23-.24-.4-.47-.4s-.44.17-.47.4c-.11.72-.21,1.39-.3,1.99q-.91,6.14-7.05,7.05c-.61.09-1.27.19-1.99.3-.23.04-.4.24-.4.47s.17.43.4.47c.72.11,1.39.21,1.99.3q6.14.91,7.05,7.05c.09.61.19,1.27.3,1.99.04.23.24.4.47.4s.43-.17.47-.4c.11-.72.21-1.39.3-1.99q.91-6.14,7.05-7.05c.61-.09,1.27-.19,1.99-.3.23-.04.4-.24.4-.47s-.17-.44-.4-.47Z"/><path class="cls-3" d="M149.59,318.39c-.51-.08-.97-.15-1.4-.21q-4.3-.64-4.94-4.94c-.06-.42-.13-.89-.21-1.4-.03-.16-.17-.28-.33-.28s-.3.12-.33.28c-.08.51-.15.97-.21,1.4q-.64,4.3-4.94,4.94c-.42.06-.89.13-1.4.21-.16.03-.28.17-.28.33s.12.3.28.33c.51.08.97.15,1.4.21q4.3.64,4.94,4.94c.06.42.13.89.21,1.4.03.16.17.28.33.28s.3-.12.33-.28c.08-.51.15-.97.21-1.4q.64-4.3,4.94-4.94c.42-.06.89-.13,1.4-.21.16-.03.28-.17.28-.33s-.12-.3-.28-.33Z"/><path class="cls-3" d="M203.29,344.35c-.45-.07-.85-.13-1.23-.19q-3.77-.56-4.33-4.33c-.06-.37-.12-.78-.18-1.23-.02-.14-.15-.25-.29-.25s-.27.11-.29.25c-.07.45-.13.85-.19,1.23q-.56,3.77-4.34,4.33c-.37.06-.78.12-1.23.19-.14.02-.25.15-.25.29s.11.27.25.29c.45.07.85.13,1.23.19q3.77.56,4.34,4.33c.05.37.12.78.19,1.23.02.14.15.25.29.25s.27-.11.29-.25c.07-.45.13-.85.18-1.23q.56-3.77,4.33-4.33c.37-.06.78-.12,1.23-.19.14-.02.25-.15.25-.29s-.11-.27-.25-.29Z"/><path class="cls-3" d="M690.54,434.43c-.27-.04-.51-.08-.73-.11q-2.26-.33-2.59-2.59c-.03-.22-.07-.47-.11-.73-.01-.09-.09-.15-.17-.15s-.16.06-.17.15c-.04.27-.08.51-.11.73q-.34,2.26-2.59,2.59c-.22.03-.47.07-.73.11-.09.01-.15.09-.15.17s.06.16.15.17c.27.04.51.08.73.11q2.26.34,2.59,2.59c.03.22.07.47.11.73.01.09.09.15.17.15s.16-.06.17-.15c.04-.27.08-.51.11-.73q.33-2.26,2.59-2.59c.22-.03.47-.07.73-.11.09-.01.15-.09.15-.17s-.06-.16-.15-.17Z"/><path class="cls-3" d="M587.77,511.25c-.45-.07-.85-.13-1.23-.18q-3.77-.56-4.33-4.33c-.06-.37-.12-.78-.18-1.23-.02-.14-.15-.25-.29-.25s-.27.11-.29.25c-.07.45-.13.85-.19,1.23q-.56,3.77-4.34,4.33c-.37.06-.78.12-1.23.18-.14.02-.25.15-.25.29s.11.27.25.29c.45.07.85.13,1.23.19q3.77.56,4.34,4.33c.05.37.12.78.19,1.23.02.14.15.25.29.25s.27-.11.29-.25c.07-.45.13-.85.18-1.23q.56-3.77,4.33-4.33c.37-.06.78-.12,1.23-.19.14-.02.25-.15.25-.29s-.11-.27-.25-.29Z"/><path class="cls-3" d="M333.99,593.23c-.31-.05-.6-.09-.86-.13q-2.65-.39-3.04-3.04c-.04-.26-.08-.55-.13-.86-.02-.1-.1-.17-.2-.17s-.19.07-.2.17c-.05.31-.09.6-.13.86q-.39,2.64-3.04,3.04c-.26.04-.55.08-.86.13-.1.02-.17.1-.17.2s.07.19.17.2c.31.05.6.09.86.13q2.65.39,3.04,3.04c.04.26.08.55.13.86.02.1.1.17.2.17s.19-.07.2-.17c.05-.31.09-.6.13-.86q.39-2.64,3.04-3.04c.26-.04.55-.08.86-.13.1-.02.17-.1.17-.2s-.07-.19-.17-.2Z"/><path class="cls-3" d="M245.85,550.36c-.27-.04-.51-.08-.73-.11q-2.26-.33-2.59-2.59c-.03-.22-.07-.47-.11-.73-.01-.09-.09-.15-.17-.15s-.16.06-.17.15c-.04.27-.08.51-.11.73q-.34,2.26-2.59,2.59c-.22.03-.47.07-.73.11-.09.01-.15.09-.15.17s.06.16.15.17c.27.04.51.08.73.11q2.26.34,2.59,2.59c.03.22.07.47.11.73.01.09.09.15.17.15s.16-.06.17-.15c.04-.27.08-.51.11-.73q.33-2.26,2.59-2.59c.22-.03.47-.07.73-.11.09-.01.15-.09.15-.17s-.06-.16-.15-.17Z"/><circle class="cls-2" cx="427.92" cy="318.18" r="269.37"/><circle class="cls-1" cx="450.71" cy="332.68" r="269.37"/><circle class="cls-1" cx="394.77" cy="345.11" r="269.37" transform="translate(-128.41 380.23) rotate(-45)"/><path class="cls-3" d="M238.67,157.94c-.57-.09-1.09-.17-1.57-.24q-4.83-.72-5.55-5.55c-.07-.48-.15-1-.24-1.57-.03-.18-.19-.32-.37-.32s-.34.13-.37.32c-.09.57-.17,1.09-.24,1.57q-.72,4.83-5.55,5.55c-.48.07-1,.15-1.57.24-.18.03-.32.19-.32.37s.13.34.32.37c.57.09,1.09.17,1.57.24q4.83.72,5.55,5.55c.07.48.15,1,.24,1.57.03.18.19.32.37.32s.34-.14.37-.32c.09-.57.17-1.09.24-1.57q.72-4.83,5.55-5.55c.48-.07,1-.15,1.57-.24.18-.03.32-.19.32-.37s-.13-.34-.32-.37Z"/><path class="cls-3" d="M607.35,94.58c-.45-.07-.85-.13-1.23-.19q-3.77-.56-4.33-4.33c-.06-.37-.12-.78-.18-1.23-.02-.14-.15-.25-.29-.25s-.27.11-.29.25c-.07.45-.13.85-.19,1.23q-.56,3.77-4.34,4.33c-.37.06-.78.12-1.23.19-.14.02-.25.15-.25.29s.11.27.25.29c.45.07.85.13,1.23.18q3.77.56,4.34,4.33c.05.37.12.78.19,1.23.02.14.15.25.29.25s.27-.11.29-.25c.07-.45.13-.85.18-1.23q.56-3.77,4.33-4.33c.37-.06.78-.12,1.23-.18.14-.02.25-.15.25-.29s-.11-.27-.25-.29Z"/><path class="cls-3" d="M125.25,392.01c-.45-.07-.85-.13-1.23-.19q-3.77-.56-4.33-4.33c-.06-.37-.12-.78-.19-1.23-.02-.14-.15-.25-.29-.25s-.27.11-.29.25c-.07.45-.13.85-.19,1.23q-.56,3.77-4.34,4.33c-.37.06-.78.12-1.23.19-.14.02-.25.15-.25.29s.11.27.25.29c.45.07.85.13,1.23.19q3.77.56,4.34,4.33c.06.37.12.78.19,1.23.02.14.15.25.29.25s.27-.11.29-.25c.07-.45.13-.85.19-1.23q.56-3.77,4.33-4.33c.37-.06.78-.12,1.23-.19.14-.02.25-.15.25-.29s-.11-.27-.25-.29Z"/><path class="cls-3" d="M692.75,293.74c-.45-.07-.85-.13-1.23-.19q-3.77-.56-4.33-4.33c-.06-.37-.12-.78-.19-1.23-.02-.14-.15-.25-.29-.25s-.27.11-.29.25c-.07.45-.13.85-.19,1.23q-.56,3.77-4.34,4.33c-.37.06-.78.12-1.23.19-.14.02-.25.15-.25.29s.11.27.25.29c.45.07.85.13,1.23.18q3.77.56,4.34,4.33c.05.37.12.78.19,1.23.02.14.15.25.29.25s.27-.11.29-.25c.07-.45.13-.85.19-1.23q.56-3.77,4.33-4.33c.37-.06.78-.12,1.23-.18.14-.02.25-.15.25-.29s-.11-.27-.25-.29Z"/><path class="cls-3" d="M337.98,52.19c-.45-.07-.85-.13-1.23-.19q-3.77-.56-4.33-4.33c-.06-.37-.12-.78-.19-1.23-.02-.14-.15-.25-.29-.25s-.27.11-.29.25c-.07.45-.13.85-.18,1.23q-.56,3.77-4.34,4.33c-.37.06-.78.12-1.23.19-.14.02-.25.15-.25.29s.11.27.25.29c.45.07.85.13,1.23.19q3.77.56,4.34,4.33c.05.37.12.78.18,1.23.02.14.15.25.29.25s.27-.11.29-.25c.07-.45.13-.85.19-1.23q.56-3.77,4.33-4.33c.37-.06.78-.12,1.23-.19.14-.02.25-.15.25-.29s-.11-.27-.25-.29Z"/><path class="cls-3" d="M348.31,559.63c-.45-.07-.85-.13-1.23-.18q-3.77-.56-4.33-4.33c-.06-.37-.12-.78-.19-1.23-.02-.14-.15-.25-.29-.25s-.27.11-.29.25c-.07.45-.13.85-.19,1.23q-.56,3.77-4.34,4.33c-.37.06-.78.12-1.23.18-.14.02-.25.15-.25.29s.11.27.25.29c.45.07.85.13,1.23.19q3.77.56,4.34,4.33c.05.37.12.78.19,1.23.02.14.15.25.29.25s.27-.11.29-.25c.07-.45.13-.85.19-1.23q.56-3.77,4.33-4.33c.37-.06.78-.12,1.23-.19.14-.02.25-.15.25-.29s-.11-.27-.25-.29Z"/><path class="cls-3" d="M485.98,621.23c-.56-.09-1.07-.16-1.53-.23q-4.72-.7-5.42-5.42c-.07-.47-.14-.97-.23-1.53-.03-.18-.18-.31-.36-.31s-.33.13-.36.31c-.09.56-.16,1.07-.23,1.53q-.7,4.72-5.42,5.42c-.47.07-.97.14-1.53.23-.18.03-.31.18-.31.36s.13.33.31.36c.56.09,1.07.16,1.53.23q4.72.7,5.42,5.42c.07.47.14.97.23,1.53.03.18.18.31.36.31s.33-.13.36-.31c.09-.56.16-1.07.23-1.53q.7-4.72,5.42-5.42c.47-.07.97-.14,1.53-.23.18-.03.31-.18.31-.36s-.13-.33-.31-.36Z"/><path class="cls-3" d="M741.54,368.44c-.56-.09-1.07-.16-1.53-.23q-4.72-.7-5.42-5.42c-.07-.47-.14-.97-.23-1.53-.03-.18-.18-.31-.36-.31s-.33.13-.36.31c-.09.56-.16,1.07-.23,1.53q-.7,4.72-5.42,5.42c-.47.07-.97.14-1.53.23-.18.03-.31.18-.31.36s.13.33.31.36c.56.09,1.07.16,1.53.23q4.72.7,5.42,5.42c.07.47.14.97.23,1.53.03.18.18.31.36.31s.33-.13.36-.31c.09-.56.16-1.07.23-1.53q.7-4.72,5.42-5.42c.47-.07.97-.14,1.53-.23.18-.03.31-.18.31-.36s-.13-.33-.31-.36Z"/><path class="cls-3" d="M735.36,406.91c-.78-.12-1.5-.23-2.16-.33q-6.64-.99-7.63-7.63c-.1-.66-.2-1.37-.33-2.16-.04-.25-.26-.44-.51-.44s-.47.19-.51.44c-.12.78-.23,1.5-.33,2.16q-.99,6.64-7.63,7.63c-.66.1-1.37.2-2.16.33-.25.04-.44.26-.44.51s.19.47.44.51c.78.12,1.5.23,2.16.33q6.64.99,7.63,7.63c.1.66.2,1.37.33,2.16.04.25.26.44.51.44s.47-.19.51-.44c.12-.78.23-1.5.33-2.16q.99-6.64,7.63-7.63c.66-.1,1.37-.2,2.16-.33.25-.04.44-.26.44-.51s-.19-.47-.44-.51Z"/><path class="cls-3" d="M318.25,59.16c-.71-.11-1.35-.21-1.94-.29q-5.98-.89-6.87-6.87c-.09-.59-.18-1.24-.29-1.94-.04-.23-.23-.39-.46-.39s-.42.17-.46.39c-.11.71-.21,1.35-.29,1.94q-.89,5.98-6.87,6.87c-.59.09-1.24.18-1.94.29-.23.04-.39.23-.39.46s.17.42.39.46c.71.11,1.35.21,1.94.29q5.98.89,6.87,6.87c.09.59.18,1.24.29,1.94.04.23.23.39.46.39s.42-.17.46-.39c.11-.71.21-1.35.29-1.94q.89-5.98,6.87-6.87c.59-.09,1.24-.18,1.94-.29.23-.04.39-.23.39-.46s-.17-.42-.39-.46Z"/><path class="cls-3" d="M139.92,262.61l-.28-8.4c-.02-.47-.22-.86-.49-.89-.29-.04-.54.36-.56.89l-.33,8.4c0,.06,0,.13,0,.2,0,.16.03.31.06.45-.03.14-.05.29-.06.45,0,.06,0,.13,0,.2l.28,8.4c.02.53.27.93.56.89.27-.03.48-.42.5-.89l.33-8.4c0-.23-.01-.45-.06-.65.04-.2.07-.42.06-.65Z"/><path class="cls-3" d="M139.22,262.21l-6.14-5.74c-.34-.32-.77-.45-.98-.28-.23.18-.13.64.23,1.03l5.71,6.17s.09.1.14.14c.12.11.24.2.36.28.08.12.17.24.28.36.04.05.09.1.14.14l6.14,5.74c.39.36.84.47,1.03.23.17-.21.04-.63-.28-.98l-5.71-6.17c-.16-.17-.33-.31-.5-.42-.11-.17-.25-.34-.42-.5Z"/><path class="cls-3" d="M138.44,262.42l-8.4.28c-.47.02-.86.22-.89.49-.04.29.36.54.89.56l8.4.33c.06,0,.13,0,.2,0,.16,0,.31-.03.45-.06.14.03.29.05.45.06.06,0,.13,0,.2,0l8.4-.28c.53-.02.93-.27.89-.56-.03-.27-.42-.48-.89-.5l-8.4-.33c-.23,0-.45.01-.65.06-.2-.04-.42-.07-.65-.06Z"/><path class="cls-3" d="M138.04,263.12l-5.74,6.14c-.32.34-.45.77-.28.98.18.23.64.13,1.03-.23l6.17-5.71s.1-.09.14-.14c.11-.12.2-.24.28-.36.12-.08.24-.17.36-.28.05-.04.1-.09.14-.14l5.74-6.14c.36-.39.47-.84.24-1.03-.21-.17-.63-.04-.98.28l-6.17,5.71c-.17.16-.31.33-.42.5-.17.11-.34.25-.5.42Z"/><path class="cls-3" d="M531.9,128.03l-.15-4.47c0-.25-.12-.46-.26-.47-.16-.02-.29.19-.3.47l-.17,4.47s0,.07,0,.1c0,.09.01.16.03.24-.02.08-.03.15-.03.24,0,.03,0,.07,0,.1l.15,4.47c0,.28.14.49.3.47.14-.02.25-.22.26-.47l.17-4.47c0-.12,0-.24-.03-.34.02-.11.04-.22.03-.34Z"/><path class="cls-3" d="M531.53,127.82l-3.27-3.05c-.18-.17-.41-.24-.52-.15-.12.1-.07.34.12.55l3.04,3.28s.05.05.07.07c.06.06.13.11.19.15.04.06.09.13.15.19.02.02.05.05.07.07l3.27,3.05c.2.19.45.25.55.13.09-.11.02-.34-.15-.52l-3.04-3.28c-.08-.09-.17-.16-.26-.22-.06-.09-.13-.18-.22-.27Z"/><path class="cls-3" d="M531.11,127.93l-4.47.15c-.25,0-.46.12-.47.26-.02.16.19.29.47.3l4.47.17s.07,0,.1,0c.09,0,.16-.01.24-.03.08.02.15.03.24.03.03,0,.07,0,.1,0l4.47-.15c.28,0,.49-.14.47-.3-.02-.14-.22-.25-.47-.26l-4.47-.17c-.12,0-.24,0-.34.03-.11-.02-.22-.04-.34-.03Z"/><path class="cls-3" d="M530.9,128.3l-3.05,3.27c-.17.18-.24.41-.15.52.1.12.34.07.55-.12l3.28-3.04s.05-.05.07-.07c.06-.06.11-.13.15-.19.06-.04.13-.09.19-.15.02-.02.05-.05.07-.07l3.05-3.27c.19-.2.25-.45.13-.55-.11-.09-.34-.02-.52.15l-3.28,3.04c-.09.08-.16.17-.22.26-.09.06-.18.13-.27.22Z"/><path class="cls-3" d="M650.69,399.47c-.57-.09-1.08-.16-1.56-.23q-4.79-.71-5.5-5.5c-.07-.47-.15-.99-.23-1.56-.03-.18-.18-.32-.37-.32s-.34.13-.37.32c-.09.57-.17,1.08-.23,1.56q-.71,4.79-5.5,5.5c-.47.07-.99.15-1.56.23-.18.03-.32.18-.32.37s.13.34.32.37c.57.09,1.08.16,1.56.23q4.79.71,5.5,5.5c.07.47.15.99.23,1.56.03.18.18.32.37.32s.34-.13.37-.32c.09-.57.16-1.08.23-1.56q.71-4.79,5.5-5.5c.47-.07.99-.15,1.56-.23.18-.03.32-.18.32-.37s-.13-.34-.32-.37Z"/><path class="cls-3" d="M219.49,418.07c-.57-.09-1.08-.16-1.56-.23q-4.79-.71-5.5-5.5c-.07-.47-.15-.99-.23-1.56-.03-.18-.18-.32-.37-.32s-.34.13-.37.32c-.09.57-.17,1.08-.24,1.56q-.71,4.79-5.5,5.5c-.47.07-.99.15-1.56.23-.18.03-.31.18-.31.37s.13.34.31.37c.57.09,1.08.16,1.56.23q4.79.71,5.5,5.5c.07.47.15.99.24,1.56.03.18.18.32.37.32s.34-.13.37-.32c.09-.57.16-1.08.23-1.56q.71-4.79,5.5-5.5c.47-.07.99-.15,1.56-.23.18-.03.32-.18.32-.37s-.13-.34-.32-.37Z"/><path class="cls-3" d="M646.25,501.4c-.33-.05-.63-.1-.9-.14q-2.77-.41-3.18-3.18c-.04-.27-.09-.57-.14-.9-.02-.1-.11-.18-.21-.18s-.2.08-.21.18c-.05.33-.1.63-.14.9q-.41,2.77-3.18,3.18c-.27.04-.57.08-.9.14-.1.02-.18.11-.18.21s.08.2.18.21c.33.05.63.1.9.14q2.77.41,3.18,3.18c.04.27.09.57.14.9.02.1.11.18.21.18s.2-.08.21-.18c.05-.33.09-.63.14-.9q.41-2.77,3.18-3.18c.27-.04.57-.08.9-.14.1-.02.18-.11.18-.21s-.08-.2-.18-.21Z"/><path class="cls-3" d="M238.63,190.89c-.2-.03-.38-.06-.55-.08q-1.7-.25-1.96-1.96c-.03-.17-.05-.35-.08-.55-.01-.06-.07-.11-.13-.11s-.12.05-.13.11c-.03.2-.06.38-.08.55q-.25,1.7-1.96,1.96c-.17.02-.35.05-.55.08-.06.01-.11.07-.11.13s.05.12.11.13c.2.03.39.06.55.08q1.7.25,1.96,1.96c.02.17.05.35.08.55.01.06.07.11.13.11s.12-.05.13-.11c.03-.2.06-.38.08-.55q.25-1.7,1.96-1.96c.17-.02.35-.05.55-.08.06,0,.11-.07.11-.13s-.05-.12-.11-.13Z"/><path class="cls-3" d="M182.41,451.96c-.25-.04-.48-.07-.69-.1q-2.13-.32-2.44-2.44c-.03-.21-.07-.44-.1-.69-.01-.08-.08-.14-.16-.14s-.15.06-.16.14c-.04.25-.07.48-.1.69q-.32,2.13-2.45,2.44c-.21.03-.44.07-.69.1-.08.01-.14.08-.14.16s.06.15.14.16c.25.04.48.07.69.1q2.13.32,2.45,2.44c.03.21.07.44.1.69.01.08.08.14.16.14s.15-.06.16-.14c.04-.25.07-.48.1-.69q.32-2.13,2.44-2.44c.21-.03.44-.07.69-.1.08-.01.14-.08.14-.16s-.06-.15-.14-.16Z"/><path class="cls-3" d="M560.83,115.95l-.12-3.48c0-.2-.09-.36-.2-.37-.12-.01-.23.15-.23.37l-.13,3.48s0,.05,0,.08c0,.07.01.13.02.19-.01.06-.02.12-.03.19,0,.03,0,.06,0,.08l.12,3.48c0,.22.11.38.23.37.11-.01.2-.17.21-.37l.13-3.48c0-.09,0-.18-.02-.27.02-.08.03-.17.02-.27Z"/><path class="cls-3" d="M560.54,115.79l-2.54-2.38c-.14-.13-.32-.19-.4-.12-.1.07-.05.27.1.43l2.36,2.55s.04.04.06.06c.05.05.1.08.15.11.03.05.07.1.11.15.02.02.04.04.06.06l2.54,2.38c.16.15.35.19.43.1.07-.09.02-.26-.12-.41l-2.36-2.55c-.06-.07-.13-.13-.21-.17-.05-.07-.1-.14-.17-.21Z"/><path class="cls-3" d="M560.22,115.87l-3.48.12c-.2,0-.36.09-.37.2-.01.12.15.23.37.23l3.48.13s.05,0,.08,0c.07,0,.13-.01.19-.02.06.01.12.02.19.03.03,0,.06,0,.08,0l3.48-.12c.22,0,.38-.11.37-.23-.01-.11-.17-.2-.37-.21l-3.48-.13c-.09,0-.18,0-.27.02-.08-.02-.17-.03-.27-.02Z"/><path class="cls-3" d="M560.06,116.16l-2.38,2.54c-.13.14-.19.32-.12.41.07.1.27.05.43-.1l2.55-2.36s.04-.04.06-.06c.05-.05.08-.1.11-.15.05-.03.1-.07.15-.11.02-.02.04-.04.06-.06l2.38-2.54c.15-.16.19-.35.1-.43-.09-.07-.26-.02-.41.12l-2.55,2.36c-.07.06-.13.13-.17.21-.07.05-.14.1-.21.17Z"/><path class="cls-3" d="M685.98,311.26c-.74-.11-1.42-.22-2.03-.31q-6.26-.93-7.19-7.19c-.09-.62-.19-1.29-.31-2.03-.04-.24-.24-.41-.48-.41s-.44.17-.48.41c-.12.74-.22,1.42-.31,2.03q-.93,6.26-7.19,7.19c-.62.09-1.29.19-2.03.31-.24.04-.41.24-.41.48s.18.44.41.48c.74.12,1.42.22,2.03.31q6.26.93,7.19,7.19c.09.62.19,1.29.31,2.03.04.24.24.41.48.41s.44-.17.48-.41c.11-.74.21-1.42.31-2.03q.93-6.26,7.19-7.19c.62-.09,1.29-.19,2.03-.31.24-.04.41-.24.41-.48s-.17-.44-.41-.48Z"/><path class="cls-3" d="M127.99,279.68c-.44-.07-.84-.13-1.21-.18q-3.73-.55-4.28-4.28c-.05-.37-.11-.77-.18-1.21-.02-.14-.14-.25-.29-.25s-.26.1-.29.25c-.07.44-.13.84-.18,1.21q-.55,3.73-4.28,4.28c-.37.05-.77.11-1.21.18-.14.02-.25.14-.25.29s.1.26.25.29c.44.07.84.13,1.21.18q3.73.55,4.28,4.28c.05.37.11.77.18,1.21.02.14.14.25.29.25s.26-.1.29-.25c.07-.44.13-.84.18-1.21q.55-3.73,4.28-4.28c.37-.05.77-.11,1.21-.18.14-.02.25-.14.25-.29s-.1-.26-.25-.29Z"/><path class="cls-3" d="M546.72,544.72c-.25-.04-.49-.07-.7-.11q-2.15-.32-2.47-2.47c-.03-.21-.07-.45-.11-.7-.01-.08-.08-.14-.17-.14s-.15.06-.17.14c-.04.25-.07.49-.11.7q-.32,2.15-2.47,2.47c-.21.03-.45.07-.7.11-.08.01-.14.08-.14.17s.06.15.14.17c.25.04.49.07.7.11q2.15.32,2.47,2.47c.03.21.07.45.11.7.01.08.08.14.17.14s.15-.06.17-.14c.04-.25.07-.49.11-.7q.32-2.15,2.47-2.47c.21-.03.45-.07.7-.11.08-.01.14-.08.14-.17s-.06-.15-.14-.17Z"/><path class="cls-3" d="M515.85,91.22c-.16-.02-.3-.05-.43-.06q-1.32-.2-1.52-1.52c-.02-.13-.04-.27-.06-.43,0-.05-.05-.09-.1-.09s-.09.04-.1.09c-.02.16-.05.3-.06.43q-.2,1.32-1.52,1.52c-.13.02-.27.04-.43.06-.05,0-.09.05-.09.1s.04.09.09.1c.16.02.3.05.43.07q1.32.2,1.52,1.52c.02.13.04.27.06.43,0,.05.05.09.1.09s.09-.04.1-.09c.02-.16.05-.3.06-.43q.2-1.32,1.52-1.52c.13-.02.27-.04.43-.07.05,0,.09-.05.09-.1s-.04-.09-.09-.1Z"/><path class="cls-3" d="M362.15,562.76c-.2-.03-.37-.06-.54-.08q-1.66-.25-1.9-1.9c-.02-.16-.05-.34-.08-.54,0-.06-.06-.11-.13-.11s-.12.05-.13.11c-.03.2-.06.37-.08.54q-.25,1.66-1.9,1.9c-.16.02-.34.05-.54.08-.06,0-.11.06-.11.13s.05.12.11.13c.2.03.37.06.54.08q1.66.25,1.9,1.9c.02.16.05.34.08.54,0,.06.06.11.13.11s.12-.05.13-.11c.03-.2.06-.37.08-.54q.25-1.66,1.9-1.9c.16-.02.34-.05.54-.08.06,0,.11-.06.11-.13s-.05-.12-.11-.13Z"/><polygon class="cls-3" points="301.27 250.22 269.2 247.47 289.93 222.84 265.3 243.57 262.54 211.5 259.79 243.57 235.16 222.84 255.9 247.47 223.82 250.22 255.9 252.98 235.16 277.61 259.79 256.88 262.54 288.95 265.3 256.88 289.93 277.61 269.2 252.98 301.27 250.22"/><path class="cls-3" d="M229.25,240.81c2.03.84,4.35-.13,5.19-2.16.84-2.03-.13-4.35-2.16-5.19-2.03-.84-4.35.13-5.19,2.16-.84,2.03.13,4.35,2.16,5.19Z"/><path class="cls-3" d="M250.85,222.17h0c2.03-.84,2.98-3.17,2.14-5.2-.84-2.03-3.17-2.98-5.2-2.14h0c-2.03.84-2.98,3.17-2.14,5.2.84,2.03,3.17,2.98,5.2,2.14Z"/><path class="cls-3" d="M290.59,238.5s.02.03.02.05c0,.01,0,.03.01.04h0c.84,2.03,3.16,2.99,5.19,2.15,2.03-.84,2.99-3.16,2.15-5.19h0s-.02-.03-.03-.05c0-.02-.01-.04-.02-.06h0c-.85-2.03-3.17-2.98-5.2-2.13-2.02.85-2.98,3.17-2.13,5.2h0Z"/><path class="cls-3" d="M274.1,222.11c2.03.83,4.35-.13,5.19-2.16.83-2.03-.13-4.35-2.16-5.19-2.03-.83-4.35.13-5.19,2.16-.83,2.03.13,4.35,2.16,5.19Z"/><path class="cls-3" d="M274.2,278.3h0c-2.03.84-2.99,3.17-2.15,5.19s3.17,2.99,5.19,2.15h0c2.03-.84,2.99-3.17,2.15-5.19-.84-2.03-3.17-2.99-5.19-2.15Z"/><path class="cls-3" d="M229.29,259.76c-2.03.84-2.99,3.17-2.14,5.2.84,2.03,3.17,2.99,5.2,2.14,2.03-.84,2.99-3.17,2.14-5.2-.84-2.03-3.17-2.99-5.2-2.14Z"/><path class="cls-3" d="M295.82,259.69c-2.03-.84-4.35.13-5.19,2.15h0c-.84,2.03.12,4.35,2.15,5.19,2.03.84,4.35-.12,5.19-2.15h0c.84-2.03-.13-4.35-2.15-5.19Z"/><path class="cls-3" d="M250.94,278.32h0c-2.03-.84-4.35.13-5.19,2.16-.84,2.03.13,4.35,2.16,5.19h0c2.03.84,4.35-.13,5.19-2.16.84-2.03-.13-4.35-2.16-5.19Z"/><path class="cls-3" d="M1200.04,153.31c-1.25-.2-2.4-.37-3.45-.52q-10.62-1.58-12.2-12.2c-.16-1.05-.33-2.19-.52-3.45-.06-.4-.41-.7-.82-.7s-.75.3-.82.7c-.2,1.25-.37,2.4-.52,3.45q-1.58,10.62-12.2,12.2c-1.05.16-2.19.33-3.45.52-.4.06-.7.41-.7.82s.3.75.7.82c1.25.2,2.4.37,3.45.52q10.62,1.58,12.2,12.2c.15,1.05.33,2.19.52,3.45.06.4.41.7.82.7s.75-.3.82-.7c.2-1.25.36-2.4.52-3.45q1.58-10.62,12.2-12.2c1.05-.16,2.19-.33,3.45-.52.4-.06.7-.41.7-.82s-.3-.75-.7-.82Z"/><path class="cls-3" d="M1123.35,149.26c-.75-.12-1.44-.22-2.06-.31q-6.35-.94-7.29-7.29c-.09-.63-.19-1.31-.31-2.06-.04-.24-.25-.42-.49-.42s-.45.18-.49.42c-.12.75-.22,1.43-.31,2.06q-.94,6.35-7.29,7.29c-.63.09-1.31.19-2.06.31-.24.04-.42.24-.42.49s.18.45.42.49c.75.12,1.44.22,2.06.31q6.35.94,7.29,7.29c.09.63.19,1.31.31,2.06.04.24.24.42.49.42s.45-.18.49-.42c.12-.75.22-1.44.31-2.06q.94-6.35,7.29-7.29c.63-.09,1.31-.19,2.06-.31.24-.04.42-.24.42-.49s-.18-.45-.42-.49Z"/><path class="cls-3" d="M1158.34,114.95c-1.07-.17-2.05-.31-2.94-.44q-9.06-1.34-10.4-10.4c-.13-.89-.28-1.87-.44-2.94-.05-.34-.35-.6-.7-.6s-.64.25-.7.6c-.17,1.07-.31,2.05-.44,2.94q-1.34,9.06-10.4,10.4c-.89.13-1.87.28-2.94.44-.34.05-.6.35-.6.7s.25.64.6.7c1.07.17,2.05.31,2.94.44q9.06,1.35,10.4,10.4c.13.89.28,1.87.44,2.94.05.34.35.6.7.6s.64-.25.7-.6c.17-1.07.31-2.05.44-2.94q1.34-9.06,10.4-10.4c.89-.13,1.87-.28,2.94-.44.34-.05.6-.35.6-.7s-.25-.64-.6-.7Z"/><path class="cls-3" d="M1160.67,167.94c-.57-.09-1.09-.17-1.57-.24q-4.83-.72-5.55-5.55c-.07-.48-.15-1-.24-1.57-.03-.18-.19-.32-.37-.32s-.34.13-.37.32c-.09.57-.17,1.09-.24,1.57q-.72,4.83-5.55,5.55c-.48.07-1,.15-1.57.24-.18.03-.32.19-.32.37s.13.34.32.37c.57.09,1.09.17,1.57.24q4.83.72,5.55,5.55c.07.48.15,1,.24,1.57.03.18.19.32.37.32s.34-.14.37-.32c.09-.57.17-1.09.24-1.57q.72-4.83,5.55-5.55c.48-.07,1-.15,1.57-.24.18-.03.32-.19.32-.37s-.13-.34-.32-.37Z"/><path class="cls-3" d="M1203.52,529.87c-1.25-.2-2.4-.37-3.45-.52q-10.62-1.58-12.2-12.2c-.16-1.05-.33-2.19-.52-3.45-.06-.4-.41-.7-.82-.7s-.75.3-.82.7c-.2,1.25-.37,2.4-.52,3.45q-1.58,10.62-12.2,12.2c-1.05.16-2.19.33-3.45.52-.4.06-.7.41-.7.82s.3.75.7.82c1.25.2,2.4.37,3.45.52q10.62,1.58,12.2,12.2c.15,1.05.33,2.19.52,3.45.06.4.41.7.82.7s.75-.3.82-.7c.2-1.25.36-2.4.52-3.45q1.58-10.62,12.2-12.2c1.05-.16,2.19-.33,3.45-.52.4-.06.7-.41.7-.82s-.3-.75-.7-.82Z"/><path class="cls-3" d="M1139.98,528.23c-.56-.09-1.07-.16-1.53-.23q-4.72-.7-5.42-5.42c-.07-.47-.14-.97-.23-1.53-.03-.18-.18-.31-.36-.31s-.33.13-.36.31c-.09.56-.16,1.07-.23,1.53q-.7,4.72-5.42,5.42c-.47.07-.97.14-1.53.23-.18.03-.31.18-.31.36s.13.33.31.36c.56.09,1.07.16,1.53.23q4.72.7,5.42,5.42c.07.47.14.97.23,1.53.03.18.18.31.36.31s.33-.13.36-.31c.09-.56.16-1.07.23-1.53q.7-4.72,5.42-5.42c.47-.07.97-.14,1.53-.23.18-.03.31-.18.31-.36s-.13-.33-.31-.36Z"/><path class="cls-3" d="M370.34,758.31c-1.25-.2-2.4-.37-3.45-.52q-10.62-1.58-12.2-12.2c-.16-1.05-.33-2.19-.52-3.45-.06-.4-.41-.7-.82-.7s-.75.3-.82.7c-.2,1.25-.37,2.4-.52,3.45q-1.58,10.62-12.2,12.2c-1.05.16-2.19.33-3.45.52-.4.06-.7.41-.7.82s.3.75.7.82c1.25.2,2.4.37,3.45.52q10.62,1.58,12.2,12.2c.15,1.05.33,2.19.52,3.45.06.4.41.7.82.7s.75-.3.82-.7c.2-1.25.36-2.4.52-3.45q1.58-10.62,12.2-12.2c1.05-.16,2.19-.33,3.45-.52.4-.06.7-.41.7-.82s-.3-.75-.7-.82Z"/><path class="cls-3" d="M293.65,754.26c-.75-.12-1.44-.22-2.06-.31q-6.35-.94-7.29-7.29c-.09-.63-.19-1.31-.31-2.06-.04-.24-.25-.42-.49-.42s-.45.18-.49.42c-.12.75-.22,1.43-.31,2.06q-.94,6.35-7.29,7.29c-.63.09-1.31.19-2.06.31-.24.04-.42.24-.42.49s.18.45.42.49c.75.12,1.44.22,2.06.31q6.35.94,7.29,7.29c.09.63.19,1.31.31,2.06.04.24.24.42.49.42s.45-.18.49-.42c.12-.75.22-1.44.31-2.06q.94-6.35,7.29-7.29c.63-.09,1.31-.19,2.06-.31.24-.04.42-.24.42-.49s-.18-.45-.42-.49Z"/><path class="cls-3" d="M328.64,719.95c-1.07-.17-2.05-.31-2.94-.44q-9.06-1.34-10.4-10.4c-.13-.89-.28-1.87-.44-2.94-.05-.34-.35-.6-.7-.6s-.64.25-.7.6c-.17,1.07-.31,2.05-.44,2.94q-1.34,9.06-10.4,10.4c-.89.13-1.87.28-2.94.44-.34.05-.6.35-.6.7s.25.64.6.7c1.07.17,2.05.31,2.94.44q9.06,1.35,10.4,10.4c.13.89.28,1.87.44,2.94.05.34.35.6.7.6s.64-.25.7-.6c.17-1.07.31-2.05.44-2.94q1.34-9.06,10.4-10.4c.89-.13,1.87-.28,2.94-.44.34-.05.6-.35.6-.7s-.25-.64-.6-.7Z"/><path class="cls-3" d="M330.98,772.94c-.57-.09-1.09-.17-1.57-.24q-4.83-.72-5.55-5.55c-.07-.48-.15-1-.24-1.57-.03-.18-.19-.32-.37-.32s-.34.13-.37.32c-.09.57-.17,1.09-.24,1.57q-.72,4.83-5.55,5.55c-.48.07-1,.15-1.57.24-.18.03-.32.19-.32.37s.13.34.32.37c.57.09,1.09.17,1.57.24q4.83.72,5.55,5.55c.07.48.15,1,.24,1.57.03.18.19.32.37.32s.34-.14.37-.32c.09-.57.17-1.09.24-1.57q.72-4.83,5.55-5.55c.48-.07,1-.15,1.57-.24.18-.03.32-.19.32-.37s-.13-.34-.32-.37Z"/><path class="cls-3" d="M432.98,651.19c-.45-.07-.85-.13-1.23-.19q-3.77-.56-4.33-4.33c-.06-.37-.12-.78-.19-1.23-.02-.14-.15-.25-.29-.25s-.27.11-.29.25c-.07.45-.13.85-.18,1.23q-.56,3.77-4.34,4.33c-.37.06-.78.12-1.23.19-.14.02-.25.15-.25.29s.11.27.25.29c.45.07.85.13,1.23.19q3.77.56,4.34,4.33c.05.37.12.78.18,1.23.02.14.15.25.29.25s.27-.11.29-.25c.07-.45.13-.85.19-1.23q.56-3.77,4.33-4.33c.37-.06.78-.12,1.23-.19.14-.02.25-.15.25-.29s-.11-.27-.25-.29Z"/><path class="cls-3" d="M413.25,658.16c-.71-.11-1.35-.21-1.94-.29q-5.98-.89-6.87-6.87c-.09-.59-.18-1.24-.29-1.94-.04-.23-.23-.39-.46-.39s-.42.17-.46.39c-.11.71-.21,1.35-.29,1.94q-.89,5.98-6.87,6.87c-.59.09-1.24.18-1.94.29-.23.04-.39.23-.39.46s.17.42.39.46c.71.11,1.35.21,1.94.29q5.98.89,6.87,6.87c.09.59.18,1.24.29,1.94.04.23.23.39.46.39s.42-.17.46-.39c.11-.71.21-1.35.29-1.94q.89-5.98,6.87-6.87c.59-.09,1.24-.18,1.94-.29.23-.04.39-.23.39-.46s-.17-.42-.39-.46Z"/><path class="cls-3" d="M330.94,805.89c-.2-.03-.38-.06-.55-.08q-1.7-.25-1.96-1.96c-.03-.17-.05-.35-.08-.55-.01-.06-.07-.11-.13-.11s-.12.05-.13.11c-.03.2-.06.38-.08.55q-.25,1.7-1.96,1.96c-.17.02-.35.05-.55.08-.06.01-.11.07-.11.13s.05.12.11.13c.2.03.39.06.55.08q1.7.25,1.96,1.96c.02.17.05.35.08.55.01.06.07.11.13.11s.12-.05.13-.11c.03-.2.06-.38.08-.55q.25-1.7,1.96-1.96c.17-.02.35-.05.55-.08.06,0,.11-.07.11-.13s-.05-.12-.11-.13Z"/><path class="cls-3" d="M100.97,1054.05l-.33-9.91c-.02-.56-.26-1.01-.58-1.05-.34-.04-.64.43-.67,1.05l-.38,9.91c0,.07,0,.16,0,.23,0,.19.03.36.07.53-.04.17-.06.34-.07.53,0,.07,0,.16,0,.23l.33,9.91c.02.62.32,1.09.66,1.05.32-.04.56-.49.58-1.05l.38-9.91c.01-.27-.02-.53-.07-.76.05-.24.08-.49.07-.76Z"/><path class="cls-3" d="M100.14,1053.57l-7.24-6.77c-.41-.38-.9-.53-1.15-.33-.27.21-.15.76.27,1.21l6.73,7.28c.05.05.11.11.16.16.14.13.28.23.42.33.09.14.2.29.32.43.05.05.11.11.16.16l7.24,6.77c.45.42,1,.55,1.21.28.2-.25.05-.75-.33-1.16l-6.73-7.28c-.18-.2-.38-.36-.59-.49-.13-.2-.29-.4-.49-.59Z"/><path class="cls-3" d="M99.22,1053.82l-9.91.33c-.56.02-1.01.26-1.05.58-.04.34.43.64,1.05.67l9.91.38c.07,0,.16,0,.23,0,.19,0,.36-.03.53-.07.17.04.34.06.53.07.07,0,.16,0,.23,0l9.91-.33c.62-.02,1.09-.32,1.05-.66-.04-.32-.49-.56-1.05-.58l-9.91-.38c-.27-.01-.53.02-.76.07-.24-.05-.49-.08-.76-.07Z"/><path class="cls-3" d="M98.75,1054.65l-6.77,7.24c-.38.41-.53.9-.33,1.15.21.27.76.15,1.21-.27l7.28-6.73c.05-.05.11-.11.16-.16.13-.14.23-.28.33-.42.14-.09.29-.2.43-.32.05-.05.11-.11.16-.16l6.77-7.24c.42-.45.55-1,.28-1.21-.25-.2-.75-.05-1.16.33l-7.28,6.73c-.2.18-.36.38-.49.59-.2.13-.4.29-.59.49Z"/><path class="cls-3" d="M146.95,1148.56c-1.25-.2-2.4-.37-3.45-.52q-10.62-1.58-12.2-12.2c-.16-1.05-.33-2.19-.52-3.45-.06-.4-.41-.7-.82-.7s-.75.3-.82.7c-.2,1.25-.37,2.4-.52,3.45q-1.58,10.62-12.2,12.2c-1.05.16-2.19.33-3.45.52-.4.06-.7.41-.7.82s.3.75.7.82c1.25.2,2.4.37,3.45.52q10.62,1.58,12.2,12.2c.15,1.05.33,2.19.52,3.45.06.4.41.7.82.7s.75-.3.82-.7c.2-1.25.36-2.4.52-3.45q1.58-10.62,12.2-12.2c1.05-.16,2.19-.33,3.45-.52.4-.06.7-.41.7-.82s-.3-.75-.7-.82Z"/><path class="cls-3" d="M167.05,1121.1c-.72-.11-1.39-.21-1.99-.3q-6.14-.91-7.05-7.05c-.09-.61-.19-1.27-.3-1.99-.04-.23-.24-.4-.47-.4s-.44.17-.47.4c-.11.72-.21,1.39-.3,1.99q-.91,6.14-7.05,7.05c-.61.09-1.27.19-1.99.3-.23.04-.4.24-.4.47s.17.43.4.47c.72.11,1.39.21,1.99.3q6.14.91,7.05,7.05c.09.61.19,1.27.3,1.99.04.23.24.4.47.4s.43-.17.47-.4c.11-.72.21-1.39.3-1.99q.91-6.14,7.05-7.05c.61-.09,1.27-.19,1.99-.3.23-.04.4-.24.4-.47s-.17-.44-.4-.47Z"/><path class="cls-3" d="M94.07,1086.25c-.45-.07-.85-.13-1.23-.18q-3.77-.56-4.33-4.33c-.06-.37-.12-.78-.18-1.23-.02-.14-.15-.25-.29-.25s-.27.11-.29.25c-.07.45-.13.85-.19,1.23q-.56,3.77-4.34,4.33c-.37.06-.78.12-1.23.18-.14.02-.25.15-.25.29s.11.27.25.29c.45.07.85.13,1.23.19q3.77.56,4.34,4.33c.05.37.12.78.19,1.23.02.14.15.25.29.25s.27-.11.29-.25c.07-.45.13-.85.18-1.23q.56-3.77,4.33-4.33c.37-.06.78-.12,1.23-.19.14-.02.25-.15.25-.29s-.11-.27-.25-.29Z"/><path class="cls-3" d="M152.55,1076.4c-.33-.05-.63-.1-.9-.14q-2.77-.41-3.18-3.18c-.04-.27-.09-.57-.14-.9-.02-.1-.11-.18-.21-.18s-.2.08-.21.18c-.05.33-.1.63-.14.9q-.41,2.77-3.18,3.18c-.27.04-.57.08-.9.14-.1.02-.18.11-.18.21s.08.2.18.21c.33.05.63.1.9.14q2.77.41,3.18,3.18c.04.27.09.57.14.9.02.1.11.18.21.18s.2-.08.21-.18c.05-.33.09-.63.14-.9q.41-2.77,3.18-3.18c.27-.04.57-.08.9-.14.1-.02.18-.11.18-.21s-.08-.2-.18-.21Z"/><path class="cls-3" d="M53.02,1119.72c-.25-.04-.49-.07-.7-.11q-2.15-.32-2.47-2.47c-.03-.21-.07-.45-.11-.7-.01-.08-.08-.14-.17-.14s-.15.06-.17.14c-.04.25-.07.49-.11.7q-.32,2.15-2.47,2.47c-.21.03-.45.07-.7.11-.08.01-.14.08-.14.17s.06.15.14.17c.25.04.49.07.7.11q2.15.32,2.47,2.47c.03.21.07.45.11.7.01.08.08.14.17.14s.15-.06.17-.14c.04-.25.07-.49.11-.7q.32-2.15,2.47-2.47c.21-.03.45-.07.7-.11.08-.01.14-.08.14-.17s-.06-.15-.14-.17Z"/><path class="cls-3" d="M122.71,959.63l-.77-22.76c-.04-1.28-.6-2.33-1.33-2.42-.79-.1-1.47.98-1.53,2.41l-.88,22.76c0,.17,0,.36,0,.53.01.43.08.84.16,1.22-.08.38-.15.79-.16,1.22,0,.17,0,.36,0,.53l.77,22.76c.05,1.43.73,2.51,1.52,2.42.73-.08,1.29-1.13,1.34-2.41l.88-22.76c.02-.62-.04-1.21-.15-1.75.12-.54.18-1.13.16-1.75Z"/><path class="cls-3" d="M120.82,958.55l-16.64-15.55c-.93-.87-2.08-1.22-2.65-.77-.63.49-.35,1.74.62,2.79l15.47,16.72c.11.12.25.26.38.38.32.3.65.54.97.75.21.33.45.66.75.98.12.13.25.26.38.38l16.64,15.55c1.04.97,2.29,1.26,2.78.64.45-.57.11-1.72-.76-2.65l-15.47-16.72c-.42-.45-.88-.83-1.35-1.13-.3-.47-.67-.93-1.12-1.35Z"/><path class="cls-3" d="M118.71,959.12l-22.76.77c-1.28.04-2.33.6-2.42,1.33-.09.79.98,1.47,2.41,1.53l22.76.88c.17,0,.36,0,.53,0,.43-.01.84-.08,1.22-.16.38.08.79.15,1.22.16.17,0,.36,0,.53,0l22.76-.77c1.43-.05,2.51-.73,2.42-1.52-.08-.73-1.13-1.29-2.41-1.34l-22.76-.88c-.62-.02-1.21.04-1.75.15-.54-.12-1.13-.18-1.75-.16Z"/><path class="cls-3" d="M117.62,961.02l-15.55,16.64c-.87.93-1.22,2.08-.77,2.65.49.63,1.74.35,2.79-.62l16.72-15.47c.12-.11.26-.25.38-.38.3-.32.54-.65.75-.97.33-.21.66-.45.98-.75.13-.12.26-.25.38-.38l15.55-16.64c.97-1.04,1.26-2.29.64-2.78-.57-.45-1.72-.11-2.65.76l-16.72,15.47c-.46.42-.83.88-1.13,1.35-.47.3-.93.67-1.35,1.12Z"/><path class="cls-3" d="M173.29,964.23c-.31-.05-.6-.09-.86-.13q-2.65-.39-3.04-3.04c-.04-.26-.08-.55-.13-.86-.02-.1-.1-.17-.2-.17s-.19.07-.2.17c-.05.31-.09.6-.13.86q-.39,2.64-3.04,3.04c-.26.04-.55.08-.86.13-.1.02-.17.1-.17.2s.07.19.17.2c.31.05.6.09.86.13q2.65.39,3.04,3.04c.04.26.08.55.13.86.02.1.1.17.2.17s.19-.07.2-.17c.05-.31.09-.6.13-.86q.39-2.64,3.04-3.04c.26-.04.55-.08.86-.13.1-.02.17-.1.17-.2s-.07-.19-.17-.2Z"/><path class="cls-3" d="M85.15,921.36c-.27-.04-.51-.08-.73-.11q-2.26-.33-2.59-2.59c-.03-.22-.07-.47-.11-.73-.01-.09-.09-.15-.17-.15s-.16.06-.17.15c-.04.27-.08.51-.11.73q-.34,2.26-2.59,2.59c-.22.03-.47.07-.73.11-.09.01-.15.09-.15.17s.06.16.15.17c.27.04.51.08.73.11q2.26.34,2.59,2.59c.03.22.07.47.11.73.01.09.09.15.17.15s.16-.06.17-.15c.04-.27.08-.51.11-.73q.33-2.26,2.59-2.59c.22-.03.47-.07.73-.11.09-.01.15-.09.15-.17s-.06-.16-.15-.17Z"/><path class="cls-3" d="M187.61,930.63c-.45-.07-.85-.13-1.23-.18q-3.77-.56-4.33-4.33c-.06-.37-.12-.78-.19-1.23-.02-.14-.15-.25-.29-.25s-.27.11-.29.25c-.07.45-.13.85-.19,1.23q-.56,3.77-4.34,4.33c-.37.06-.78.12-1.23.18-.14.02-.25.15-.25.29s.11.27.25.29c.45.07.85.13,1.23.19q3.77.56,4.34,4.33c.05.37.12.78.19,1.23.02.14.15.25.29.25s.27-.11.29-.25c.07-.45.13-.85.19-1.23q.56-3.77,4.33-4.33c.37-.06.78-.12,1.23-.19.14-.02.25-.15.25-.29s-.11-.27-.25-.29Z"/><path class="cls-3" d="M201.46,933.76c-.2-.03-.37-.06-.54-.08q-1.66-.25-1.9-1.9c-.02-.16-.05-.34-.08-.54,0-.06-.06-.11-.13-.11s-.12.05-.13.11c-.03.2-.06.37-.08.54q-.25,1.66-1.9,1.9c-.16.02-.34.05-.54.08-.06,0-.11.06-.11.13s.05.12.11.13c.2.03.37.06.54.08q1.66.25,1.9,1.9c.02.16.05.34.08.54,0,.06.06.11.13.11s.12-.05.13-.11c.03-.2.06-.37.08-.54q.25-1.66,1.9-1.9c.16-.02.34-.05.54-.08.06,0,.11-.06.11-.13s-.05-.12-.11-.13Z"/><path class="cls-3" d="M112.43,2030.08l2.88-9.49c.16-.53.08-1.04-.21-1.18-.31-.15-.75.2-.97.78l-3.55,9.25c-.03.07-.05.15-.08.22-.05.18-.09.36-.11.52-.09.15-.17.3-.24.48-.03.07-.05.15-.08.22l-2.88,9.49c-.18.59-.05,1.14.29,1.21.31.07.69-.29.89-.81l3.55-9.25c.1-.25.15-.5.18-.74.13-.21.23-.44.31-.7Z"/><path class="cls-3" d="M111.81,2029.36l-4.67-8.74c-.26-.49-.68-.79-.98-.69-.33.11-.39.67-.13,1.24l4.03,9.06c.03.07.07.14.1.21.09.17.19.31.3.45.04.17.09.34.17.51.03.07.07.14.1.21l4.67,8.74c.29.55.77.84,1.06.65.27-.17.29-.69.06-1.2l-4.03-9.06c-.11-.25-.25-.47-.4-.65-.06-.23-.15-.48-.27-.72Z"/><path class="cls-3" d="M110.86,2029.3l-9.49-2.88c-.53-.16-1.04-.08-1.18.21-.15.31.2.75.78.97l9.25,3.55c.07.03.15.05.22.08.18.05.36.09.52.11.15.09.3.17.48.24.07.03.15.05.22.08l9.49,2.88c.59.18,1.14.05,1.21-.29.07-.31-.29-.69-.8-.89l-9.25-3.55c-.25-.1-.5-.15-.74-.18-.21-.13-.44-.23-.7-.31Z"/><path class="cls-3" d="M110.14,2029.93l-8.74,4.67c-.49.26-.79.68-.69.98.11.33.67.39,1.24.13l9.06-4.03c.07-.03.14-.07.21-.1.17-.09.31-.19.45-.3.17-.04.34-.09.51-.17.07-.03.14-.07.21-.1l8.74-4.67c.55-.29.84-.77.65-1.06-.17-.27-.69-.29-1.2-.06l-9.06,4.03c-.25.11-.47.25-.65.4-.23.06-.48.15-.72.27Z"/><path class="cls-3" d="M117.51,2126.37c-1.12-.59-2.16-1.12-3.1-1.6q-9.55-4.91-7.62-15.48c.19-1.04.4-2.18.62-3.43.07-.4-.16-.79-.55-.92s-.81.04-1,.4c-.59,1.12-1.12,2.15-1.6,3.1-15.51,30.12,43.01,18.31-15.48,7.62-1.04-.19-2.18-.4-3.43-.62-.4-.07-.79.16-.92.55s.04.81.4,1c1.12.59,2.16,1.12,3.1,1.6q9.55,4.92,7.62,15.48c-.19,1.04-.4,2.18-.62,3.43-.07.4.16.79.55.92s.81-.04,1-.4c.59-1.12,1.12-2.15,1.6-3.1q4.91-9.55,15.48-7.62c1.04.19,2.18.4,3.43.62.4.07.79-.16.92-.55s-.04-.81-.4-1Z"/><path class="cls-3" d="M159.39,2117.85c-.65-.34-1.25-.65-1.79-.93q-5.52-2.84-4.4-8.94c.11-.6.23-1.26.36-1.98.04-.23-.09-.46-.32-.53s-.47.02-.58.23c-.34.65-.65,1.24-.93,1.79q-2.84,5.52-8.94,4.4c-.6-.11-1.26-.23-1.98-.36-.23-.04-.46.09-.53.32s.02.47.23.58c.65.34,1.25.65,1.79.93q5.52,2.84,4.4,8.94c-.11.6-.23,1.26-.36,1.98-.04.23.09.46.32.53s.47-.02.58-.23c.34-.65.65-1.25.93-1.79q2.84-5.51,8.94-4.4c.6.11,1.26.23,1.98.36.23.04.46-.09.53-.32s-.02-.47-.23-.58Z"/><path class="cls-3" d="M92.53,2079.34c-.4-.21-.77-.4-1.1-.57q-3.39-1.75-2.71-5.5c.07-.37.14-.78.22-1.22.03-.14-.06-.28-.19-.33s-.29.01-.35.14c-.21.4-.4.77-.57,1.1q-1.75,3.39-5.5,2.71c-.37-.07-.78-.14-1.22-.22-.14-.02-.28.06-.33.19s.01.29.14.35c.4.21.77.4,1.1.57q3.39,1.75,2.71,5.5c-.07.37-.14.78-.22,1.22-.02.14.06.28.19.33s.29-.01.35-.14c.21-.4.4-.77.57-1.1q1.75-3.39,5.5-2.71c.37.07.78.14,1.22.22.14.02.28-.06.33-.19s-.01-.29-.14-.35Z"/><path class="cls-3" d="M146.07,2059.86c-.29-.15-.56-.29-.81-.42q-2.49-1.28-1.99-4.03c.05-.27.1-.57.16-.9.02-.1-.04-.21-.14-.24s-.21,0-.26.1c-.15.29-.29.56-.42.81q-1.28,2.49-4.04,1.99c-.27-.05-.57-.1-.89-.16-.1-.02-.21.04-.24.14s0,.21.1.26c.29.15.56.29.81.42q2.49,1.28,1.99,4.04c-.05.27-.1.57-.16.89-.02.1.04.21.14.24s.21,0,.26-.1c.15-.29.29-.56.42-.81q1.28-2.49,4.03-1.99c.27.05.57.1.9.16.1.02.21-.04.24-.14s0-.21-.1-.26Z"/><path class="cls-3" d="M55.89,2092.8c-.23-.12-.44-.23-.63-.33q-1.94-1-1.54-3.14c.04-.21.08-.44.13-.7.01-.08-.03-.16-.11-.19s-.16,0-.2.08c-.12.23-.23.44-.33.63q-1,1.94-3.14,1.54c-.21-.04-.44-.08-.7-.13-.08-.01-.16.03-.19.11s0,.16.08.2c.23.12.44.23.63.33q1.94,1,1.54,3.14c-.04.21-.08.44-.13.7-.01.08.03.16.11.19s.16,0,.2-.08c.12-.23.23-.44.33-.63q1-1.94,3.14-1.54c.21.04.44.08.7.13.08.01.16-.03.19-.11s0-.16-.08-.2Z"/><path class="cls-3" d="M191.45,2005.7l6.61-21.8c.37-1.22.18-2.4-.48-2.72-.72-.34-1.71.46-2.23,1.79l-8.17,21.26c-.06.16-.12.34-.17.5-.13.41-.2.82-.24,1.21-.2.34-.39.7-.55,1.1-.06.16-.12.34-.17.5l-6.61,21.8c-.41,1.37-.12,2.61.66,2.78.72.15,1.59-.66,2.05-1.85l8.17-21.26c.22-.58.36-1.16.42-1.71.29-.47.54-1.01.72-1.61Z"/><path class="cls-3" d="M190,2004.07l-10.74-20.09c-.6-1.13-1.57-1.82-2.26-1.58-.75.26-.89,1.53-.31,2.84l9.26,20.81c.07.15.15.33.23.48.2.38.44.72.68,1.02.09.38.21.77.39,1.17.07.16.16.33.23.48l10.74,20.09c.67,1.26,1.76,1.93,2.43,1.5.62-.4.66-1.59.14-2.76l-9.26-20.81c-.25-.57-.57-1.07-.91-1.5-.13-.54-.34-1.1-.63-1.64Z"/><path class="cls-3" d="M187.82,2003.93l-21.8-6.61c-1.22-.37-2.4-.18-2.72.48-.34.72.46,1.71,1.79,2.23l21.26,8.17c.16.06.34.12.5.17.41.13.82.2,1.21.24.34.2.7.39,1.1.55.16.06.34.12.5.17l21.8,6.61c1.37.41,2.61.12,2.78-.66.15-.72-.66-1.59-1.85-2.05l-21.26-8.17c-.58-.22-1.16-.36-1.71-.42-.47-.29-1.01-.54-1.61-.72Z"/><path class="cls-3" d="M186.18,2005.37l-20.09,10.74c-1.13.6-1.82,1.57-1.58,2.26.26.75,1.53.89,2.84.31l20.81-9.26c.15-.07.33-.15.48-.23.38-.2.72-.44,1.02-.68.38-.09.77-.21,1.17-.39.16-.07.33-.16.48-.23l20.09-10.74c1.26-.67,1.93-1.76,1.5-2.43-.4-.62-1.59-.66-2.76-.14l-20.81,9.26c-.57.25-1.07.57-1.5.91-.54.13-1.1.34-1.64.63Z"/><path class="cls-3" d="M218.85,1979.35c-.28-.15-.54-.28-.77-.4q-2.38-1.22-1.9-3.85c.05-.26.1-.54.15-.85.02-.1-.04-.2-.14-.23s-.2,0-.25.1c-.15.28-.28.54-.4.77q-1.22,2.38-3.85,1.9c-.26-.05-.54-.1-.86-.15-.1-.02-.2.04-.23.14s0,.2.1.25c.28.15.54.28.77.4q2.38,1.22,1.9,3.85c-.05.26-.1.54-.15.85-.02.1.04.2.14.23s.2,0,.25-.1c.15-.28.28-.54.4-.77q1.22-2.38,3.85-1.9c.26.05.54.1.86.15.1.02.2-.04.23-.14s0-.2-.1-.25Z"/><path class="cls-3" d="M147.22,2006.37c-.24-.13-.46-.24-.66-.34q-2.03-1.04-1.62-3.29c.04-.22.08-.46.13-.73.01-.09-.03-.17-.12-.2s-.17,0-.21.08c-.13.24-.24.46-.34.66q-1.04,2.03-3.29,1.62c-.22-.04-.46-.08-.73-.13-.09-.01-.17.03-.2.12s0,.17.08.21c.24.13.46.24.66.34q2.03,1.04,1.62,3.29c-.04.22-.08.46-.13.73-.01.09.03.17.12.2s.17,0,.21-.08c.13-.24.24-.46.34-.66q1.04-2.03,3.29-1.62c.22.04.46.08.73.13.09.01.17-.03.2-.12s0-.17-.08-.21Z"/><path class="cls-3" d="M226.23,1933.16c-.4-.21-.77-.4-1.1-.57q-3.39-1.75-2.71-5.5c.07-.37.14-.78.22-1.22.02-.14-.06-.28-.19-.33s-.29.01-.35.14c-.21.4-.4.77-.57,1.1q-1.75,3.39-5.5,2.71c-.37-.07-.78-.14-1.22-.22-.14-.02-.28.06-.33.19s.01.29.14.35c.4.21.77.4,1.1.57q3.39,1.75,2.71,5.5c-.07.37-.14.78-.22,1.22-.02.14.06.28.19.33s.29-.01.35-.14c.21-.4.4-.77.57-1.1q1.75-3.39,5.5-2.71c.37.07.78.14,1.22.22.14.02.28-.06.33-.19s-.01-.29-.14-.35Z"/><path class="cls-3" d="M238.32,1940.59c-.18-.09-.34-.17-.48-.25q-1.49-.77-1.19-2.41c.03-.16.06-.34.1-.54.01-.06-.03-.12-.09-.14s-.13,0-.16.06c-.09.18-.17.34-.25.48q-.77,1.49-2.41,1.19c-.16-.03-.34-.06-.54-.1-.06-.01-.12.03-.14.09s0,.13.06.16c.18.09.34.17.48.25q1.49.77,1.19,2.41c-.03.16-.06.34-.1.54-.01.06.03.12.09.14s.13,0,.16-.06c.09-.18.17-.34.25-.48q.77-1.49,2.41-1.19c.16.03.34.06.54.1.06.01.12-.03.14-.09s0-.13-.06-.16Z"/><polygon class="cls-3" points="252.57 811.22 220.5 808.47 241.23 783.84 216.6 804.57 213.85 772.5 211.09 804.57 186.46 783.84 207.2 808.47 175.12 811.22 207.2 813.98 186.46 838.61 211.09 817.88 213.85 849.95 216.6 817.88 241.23 838.61 220.5 813.98 252.57 811.22"/><path class="cls-3" d="M180.55,801.81c2.03.84,4.35-.13,5.19-2.16.84-2.03-.13-4.35-2.16-5.19-2.03-.84-4.35.13-5.19,2.16-.84,2.03.13,4.35,2.16,5.19Z"/><path class="cls-3" d="M202.15,783.17h0c2.03-.84,2.98-3.17,2.14-5.2-.84-2.03-3.17-2.98-5.2-2.14h0c-2.03.84-2.98,3.17-2.14,5.2.84,2.03,3.17,2.98,5.2,2.14Z"/><path class="cls-3" d="M241.89,799.5s.02.03.02.05c0,.01,0,.03.01.04h0c.84,2.03,3.16,2.99,5.19,2.15,2.03-.84,2.99-3.16,2.15-5.19h0s-.02-.03-.03-.05c0-.02-.01-.04-.02-.06h0c-.85-2.03-3.17-2.98-5.2-2.13-2.02.85-2.98,3.17-2.13,5.2h0Z"/><path class="cls-3" d="M225.4,783.11c2.03.83,4.35-.13,5.19-2.16.83-2.03-.13-4.35-2.16-5.19-2.03-.83-4.35.13-5.19,2.16-.83,2.03.13,4.35,2.16,5.19Z"/><path class="cls-3" d="M225.5,839.3h0c-2.03.84-2.99,3.17-2.15,5.19s3.17,2.99,5.19,2.15h0c2.03-.84,2.99-3.17,2.15-5.19-.84-2.03-3.17-2.99-5.19-2.15Z"/><path class="cls-3" d="M180.59,820.76c-2.03.84-2.99,3.17-2.14,5.2.84,2.03,3.17,2.99,5.2,2.14,2.03-.84,2.99-3.17,2.14-5.2-.84-2.03-3.17-2.99-5.2-2.14Z"/><path class="cls-3" d="M247.12,820.69c-2.03-.84-4.35.13-5.19,2.15h0c-.84,2.03.12,4.35,2.15,5.19,2.03.84,4.35-.12,5.19-2.15h0c.84-2.03-.13-4.35-2.15-5.19Z"/><path class="cls-3" d="M202.25,839.32h0c-2.03-.84-4.35.13-5.19,2.16-.84,2.03.13,4.35,2.16,5.19h0c2.03.84,4.35-.13,5.19-2.16.84-2.03-.13-4.35-2.16-5.19Z"/><polygon class="cls-3" points="172.16 31.94 180.43 25.31 170.56 29.16 168.95 18.68 167.35 29.16 157.47 25.31 165.74 31.94 157.47 38.57 167.35 34.72 168.95 45.2 170.56 34.72 180.43 38.57 172.16 31.94"/><polygon class="cls-3" points="186.22 69.09 190.69 65.51 185.35 67.59 184.49 61.93 183.62 67.59 178.29 65.51 182.75 69.09 178.29 72.67 183.62 70.6 184.49 76.25 185.35 70.6 190.69 72.67 186.22 69.09"/><polygon class="cls-3" points="139.34 55.19 142.14 52.95 138.8 54.25 138.26 50.71 137.72 54.25 134.38 52.95 137.18 55.19 134.38 57.42 137.72 56.13 138.26 59.66 138.8 56.13 142.14 57.42 139.34 55.19"/><polygon class="cls-3" points="122 20.97 126.47 17.39 121.14 19.47 120.27 13.81 119.4 19.47 114.07 17.39 118.54 20.97 114.07 24.55 119.4 22.48 120.27 28.14 121.14 22.48 126.47 24.55 122 20.97"/><polygon class="cls-3" points="77.93 24.65 82.04 21.35 77.13 23.27 76.33 18.05 75.53 23.27 70.62 21.35 74.73 24.65 70.62 27.95 75.53 26.04 76.33 31.25 77.13 26.04 82.04 27.95 77.93 24.65"/><polygon class="cls-3" points="210.75 42.51 215.21 38.93 209.88 41.01 209.01 35.35 208.14 41.01 202.81 38.93 207.28 42.51 202.81 46.09 208.14 44.01 209.01 49.67 209.88 44.01 215.21 46.09 210.75 42.51"/><polygon class="cls-3" points="235.27 60.91 238.06 58.67 234.72 59.97 234.18 56.43 233.64 59.97 230.31 58.67 233.1 60.91 230.31 63.14 233.64 61.85 234.18 65.38 234.72 61.85 238.06 63.14 235.27 60.91"/><polygon class="cls-3" points="214.29 15.17 217.85 10.09 214.09 5.17 220.26 5.72 222.65 0 225.26 5.62 231.41 4.83 227.84 9.9 231.6 14.83 225.43 14.28 223.04 19.99 220.43 14.38 214.29 15.17"/><polygon class="cls-3" points="831.63 477.13 839.9 470.5 830.02 474.35 828.41 463.87 826.81 474.35 816.93 470.5 825.2 477.13 816.93 483.76 826.81 479.91 828.41 490.39 830.02 479.91 839.9 483.76 831.63 477.13"/><polygon class="cls-3" points="845.69 514.28 850.15 510.7 844.82 512.78 843.95 507.12 843.08 512.78 837.75 510.7 842.22 514.28 837.75 517.86 843.08 515.78 843.95 521.44 844.82 515.78 850.15 517.86 845.69 514.28"/><polygon class="cls-3" points="798.81 500.37 801.6 498.13 798.27 499.43 797.72 495.9 797.18 499.43 793.85 498.13 796.64 500.37 793.85 502.61 797.18 501.31 797.72 504.85 798.27 501.31 801.6 502.61 798.81 500.37"/><polygon class="cls-3" points="781.47 466.16 785.93 462.58 780.6 464.66 779.73 459 778.87 464.66 773.53 462.58 778 466.16 773.53 469.74 778.87 467.66 779.73 473.32 780.6 467.66 785.93 469.74 781.47 466.16"/><polygon class="cls-3" points="737.39 469.84 741.51 466.54 736.59 468.45 735.79 463.24 734.99 468.45 730.08 466.54 734.2 469.84 730.08 473.14 734.99 471.22 735.79 476.44 736.59 471.22 741.51 473.14 737.39 469.84"/><polygon class="cls-3" points="870.21 487.7 874.68 484.12 869.34 486.19 868.47 480.54 867.61 486.19 862.27 484.12 866.74 487.7 862.27 491.28 867.61 489.2 868.47 494.86 869.34 489.2 874.68 491.28 870.21 487.7"/><polygon class="cls-3" points="894.73 506.09 897.52 503.85 894.19 505.15 893.64 501.62 893.1 505.15 889.77 503.85 892.56 506.09 889.77 508.33 893.1 507.03 893.64 510.57 894.19 507.03 897.52 508.33 894.73 506.09"/><polygon class="cls-3" points="879.57 455.82 882.53 451.6 879.41 447.5 884.54 447.96 886.53 443.21 888.7 447.88 893.81 447.22 890.85 451.44 893.97 455.54 888.84 455.08 886.85 459.84 884.68 455.16 879.57 455.82"/><polygon class="cls-3" points="616.07 384.54 584 381.79 604.73 357.16 580.1 377.89 577.35 345.82 574.59 377.89 549.96 357.16 570.7 381.79 538.62 384.54 570.7 387.3 549.96 411.93 574.59 391.19 577.35 423.27 580.1 391.19 604.73 411.93 584 387.3 616.07 384.54"/><path class="cls-3" d="M544.05,375.13c2.03.84,4.35-.13,5.19-2.16.84-2.03-.13-4.35-2.16-5.19-2.03-.84-4.35.13-5.19,2.16-.84,2.03.13,4.35,2.16,5.19Z"/><path class="cls-3" d="M565.65,356.49h0c2.03-.84,2.98-3.17,2.14-5.2-.84-2.03-3.17-2.98-5.2-2.14h0c-2.03.84-2.98,3.17-2.14,5.2.84,2.03,3.17,2.98,5.2,2.14Z"/><path class="cls-3" d="M605.39,372.82s.02.03.02.05c0,.01,0,.03.01.04h0c.84,2.03,3.16,2.99,5.19,2.15,2.03-.84,2.99-3.16,2.15-5.19h0s-.02-.03-.03-.05c0-.02-.01-.04-.02-.06h0c-.85-2.03-3.17-2.98-5.2-2.13-2.02.85-2.98,3.17-2.13,5.2h0Z"/><path class="cls-3" d="M588.9,356.43c2.03.83,4.35-.13,5.19-2.16.83-2.03-.13-4.35-2.16-5.19-2.03-.83-4.35.13-5.19,2.16-.83,2.03.13,4.35,2.16,5.19Z"/><path class="cls-3" d="M589,412.62h0c-2.03.84-2.99,3.17-2.15,5.19s3.17,2.99,5.19,2.15h0c2.03-.84,2.99-3.17,2.15-5.19-.84-2.03-3.17-2.99-5.19-2.15Z"/><path class="cls-3" d="M544.09,394.08c-2.03.84-2.99,3.17-2.14,5.2.84,2.03,3.17,2.99,5.2,2.14,2.03-.84,2.99-3.17,2.14-5.2-.84-2.03-3.17-2.99-5.2-2.14Z"/><path class="cls-3" d="M610.62,394.01c-2.03-.84-4.35.13-5.19,2.15h0c-.84,2.03.12,4.35,2.15,5.19,2.03.84,4.35-.12,5.19-2.15h0c.84-2.03-.13-4.35-2.15-5.19Z"/><path class="cls-3" d="M565.75,412.64h0c-2.03-.84-4.35.13-5.19,2.16-.84,2.03.13,4.35,2.16,5.19h0c2.03.84,4.35-.13,5.19-2.16.84-2.03-.13-4.35-2.16-5.19Z"/><path class="cls-1" d="M33.86,1202.51c148.77,0,269.37-120.6,269.37-269.37l.63-78.63c0-148.77,69-237.01,180-255.01"/><path class="cls-2" d="M303.23,861.14c0,148.77-120.6,269.37-269.37,269.37"/><path class="cls-2" d="M303.86,926.51c0-148.77,120.6-269.37,269.37-269.37"/></g></svg>