<?xml version="1.0" encoding="UTF-8"?><svg id="_レイヤー_2" xmlns="http://www.w3.org/2000/svg" viewBox="0 0 139.26 51.93"><defs><style>.cls-1{fill:#b19552;}</style></defs><g id="_飾り"><polygon class="cls-1" points="54.8 36.85 47.93 42.37 56.14 39.17 57.47 47.88 58.81 39.17 67.02 42.37 60.15 36.85 67.02 31.34 58.81 34.54 57.47 25.83 56.14 34.54 47.93 31.34 54.8 36.85"/><polygon class="cls-1" points="43.11 5.96 39.4 8.93 43.83 7.2 44.55 11.91 45.27 7.2 49.71 8.93 46 5.96 49.71 2.98 45.27 4.71 44.55 0 43.83 4.71 39.4 2.98 43.11 5.96"/><polygon class="cls-1" points="82.1 17.52 79.78 19.38 82.55 18.3 83 21.24 83.45 18.3 86.22 19.38 83.9 17.52 86.22 15.66 83.45 16.74 83 13.8 82.55 16.74 79.78 15.66 82.1 17.52"/><polygon class="cls-1" points="96.52 45.97 92.8 48.95 97.24 47.22 97.96 51.93 98.68 47.22 103.12 48.95 99.4 45.97 103.12 43 98.68 44.73 97.96 40.02 97.24 44.73 92.8 43 96.52 45.97"/><polygon class="cls-1" points="133.18 42.92 129.75 45.66 133.84 44.07 134.51 48.4 135.17 44.07 139.26 45.66 135.84 42.92 139.26 40.17 135.17 41.77 134.51 37.43 133.84 41.77 129.75 40.17 133.18 42.92"/><polygon class="cls-1" points="22.71 28.06 19 31.04 23.44 29.31 24.16 34.02 24.88 29.31 29.31 31.04 25.6 28.06 29.31 25.09 24.88 26.81 24.16 22.11 23.44 26.81 19 25.09 22.71 28.06"/><polygon class="cls-1" points="2.32 12.76 0 14.62 2.77 13.54 3.22 16.49 3.67 13.54 6.45 14.62 4.12 12.76 6.45 10.9 3.67 11.98 3.22 9.04 2.77 11.98 0 10.9 2.32 12.76"/></g></svg>