<?xml version="1.0" encoding="UTF-8"?><svg id="_レイヤー_2" xmlns="http://www.w3.org/2000/svg" viewBox="0 0 1200.3 1734"><defs><style>.cls-1{stroke-miterlimit:10;}.cls-1,.cls-2{fill:none;stroke:#b19552;stroke-width:2.23px;}.cls-3{fill:#b19552;}.cls-4{fill:#ffffe1;}.cls-2{stroke-dasharray:0 8.93;stroke-linecap:round;stroke-linejoin:round;}</style></defs><g id="_レイヤー_13"><rect class="cls-4" width="1198" height="1734"/></g><g id="_レイヤー_12"><path class="cls-3" d="M902.25,1512.74c-1.07-.17-2.05-.31-2.95-.45q-9.08-1.35-10.42-10.42c-.13-.9-.28-1.88-.45-2.95-.05-.34-.35-.6-.7-.6s-.64.25-.7.6c-.17,1.07-.31,2.05-.45,2.95q-1.35,9.08-10.42,10.42c-.9.13-1.88.28-2.95.45-.34.05-.6.35-.6.7s.25.64.6.7c1.07.17,2.05.31,2.95.45q9.08,1.35,10.42,10.42c.13.9.28,1.88.45,2.95.05.34.35.6.7.6s.64-.25.7-.6c.17-1.07.31-2.05.45-2.95q1.35-9.07,10.42-10.42c.9-.13,1.88-.28,2.95-.45.34-.05.6-.35.6-.7s-.25-.64-.6-.7Z"/><path class="cls-3" d="M964.68,1596.5l-.65-19.45c-.04-1.09-.52-1.99-1.14-2.07-.67-.08-1.26.84-1.31,2.06l-.75,19.45c0,.14,0,.31,0,.45.01.37.06.71.14,1.04-.07.33-.13.67-.14,1.04,0,.15,0,.31,0,.45l.65,19.45c.04,1.22.62,2.14,1.3,2.07.62-.07,1.11-.97,1.15-2.06l.75-19.45c.02-.53-.03-1.03-.13-1.5.1-.46.16-.97.14-1.5Z"/><path class="cls-3" d="M963.06,1595.58l-14.22-13.29c-.8-.75-1.77-1.04-2.27-.66-.53.42-.3,1.49.53,2.38l13.22,14.28c.1.1.21.22.32.32.27.25.55.46.83.64.18.28.39.56.64.84.1.11.22.22.32.32l14.22,13.29c.89.83,1.96,1.08,2.38.54.39-.49.1-1.47-.65-2.27l-13.22-14.28c-.36-.39-.75-.71-1.15-.97-.26-.4-.57-.79-.96-1.16Z"/><path class="cls-3" d="M961.26,1596.07l-19.45.65c-1.09.04-1.99.52-2.07,1.14-.08.67.84,1.26,2.06,1.31l19.45.75c.14,0,.31,0,.45,0,.37-.01.71-.06,1.04-.14.33.07.67.13,1.04.14.15,0,.31,0,.45,0l19.45-.65c1.22-.04,2.14-.62,2.07-1.3-.07-.62-.97-1.11-2.06-1.15l-19.45-.75c-.53-.02-1.03.03-1.5.13-.46-.1-.97-.16-1.5-.14Z"/><path class="cls-3" d="M960.33,1597.69l-13.29,14.22c-.75.8-1.04,1.77-.66,2.27.42.53,1.49.3,2.38-.53l14.28-13.22c.1-.1.22-.21.32-.32.25-.27.46-.55.64-.83.28-.18.56-.39.84-.64.11-.1.22-.22.32-.32l13.29-14.22c.83-.89,1.08-1.96.54-2.38-.49-.39-1.47-.1-2.27.65l-14.28,13.22c-.39.36-.71.75-.97,1.15-.4.26-.79.57-1.16.96Z"/><path class="cls-3" d="M897.46,1360.35c-.75-.12-1.44-.22-2.07-.31q-6.36-.94-7.3-7.3c-.09-.63-.2-1.31-.31-2.07-.04-.24-.25-.42-.49-.42s-.45.18-.49.42c-.12.75-.22,1.44-.31,2.06q-.94,6.36-7.31,7.3c-.63.09-1.31.2-2.07.31-.24.04-.42.24-.42.49s.18.45.42.49c.75.12,1.44.22,2.07.31q6.36.95,7.31,7.3c.09.63.2,1.31.31,2.07.04.24.25.42.49.42s.45-.18.49-.42c.12-.75.22-1.44.31-2.07q.94-6.36,7.3-7.3c.63-.09,1.31-.2,2.07-.31.24-.04.42-.24.42-.49s-.18-.45-.42-.49Z"/><path class="cls-3" d="M960.08,1215.98c-1.07-.17-2.05-.31-2.95-.45q-9.08-1.35-10.42-10.42c-.13-.9-.28-1.88-.45-2.95-.05-.34-.35-.6-.7-.6s-.64.25-.7.6c-.17,1.07-.31,2.05-.45,2.95q-1.35,9.08-10.42,10.42c-.9.13-1.88.28-2.95.45-.34.05-.6.35-.6.7s.25.64.6.7c1.07.17,2.05.31,2.95.45q9.08,1.35,10.42,10.42c.13.9.28,1.88.45,2.95.05.34.35.6.7.6s.64-.25.7-.6c.17-1.07.31-2.05.45-2.95q1.35-9.07,10.42-10.42c.9-.13,1.88-.28,2.95-.45.34-.05.6-.35.6-.7s-.25-.64-.6-.7Z"/><path class="cls-3" d="M894.56,1212.52c-.64-.1-1.23-.19-1.76-.27q-5.43-.81-6.23-6.23c-.08-.54-.17-1.12-.27-1.76-.03-.21-.21-.36-.42-.36s-.38.15-.42.36c-.1.64-.19,1.23-.27,1.76q-.81,5.43-6.23,6.23c-.54.08-1.12.17-1.76.27-.21.03-.36.21-.36.42s.15.38.36.42c.64.1,1.23.19,1.76.27q5.43.81,6.23,6.23c.08.54.17,1.12.27,1.76.03.21.21.36.42.36s.38-.15.42-.36c.1-.64.19-1.23.27-1.76q.8-5.43,6.23-6.23c.54-.08,1.12-.17,1.76-.27.21-.03.36-.21.36-.42s-.15-.38-.36-.42Z"/><path class="cls-3" d="M1192.07,1625.76c-1.07-.17-2.05-.31-2.95-.45q-9.08-1.35-10.42-10.42c-.13-.9-.28-1.88-.45-2.95-.05-.34-.35-.6-.7-.6s-.64.25-.7.6c-.17,1.07-.31,2.05-.45,2.95q-1.35,9.08-10.42,10.42c-.9.13-1.88.28-2.95.45-.34.05-.6.35-.6.7s.25.64.6.7c1.07.17,2.05.31,2.95.45q9.08,1.35,10.42,10.42c.13.9.28,1.88.45,2.95.05.34.35.6.7.6s.64-.25.7-.6c.17-1.07.31-2.05.45-2.95q1.35-9.07,10.42-10.42c.9-.13,1.88-.28,2.95-.45.34-.05.6-.35.6-.7s-.25-.64-.6-.7Z"/><path class="cls-3" d="M924.45,1183.21c-.91-.14-1.75-.27-2.51-.38q-7.74-1.15-8.89-8.89c-.11-.76-.24-1.6-.38-2.51-.05-.29-.3-.51-.59-.51s-.55.22-.59.51c-.14.91-.27,1.75-.38,2.51q-1.15,7.74-8.89,8.89c-.76.11-1.6.24-2.51.38-.29.05-.51.3-.51.59s.22.55.51.59c.91.14,1.75.27,2.51.38q7.74,1.15,8.89,8.89c.11.76.24,1.6.38,2.51.05.29.3.51.59.51s.55-.22.59-.51c.14-.91.27-1.75.38-2.51q1.15-7.74,8.89-8.89c.76-.11,1.6-.24,2.51-.38.29-.05.51-.3.51-.59s-.22-.55-.51-.59Z"/><path class="cls-3" d="M871.46,1493.1c-.37-.06-.71-.11-1.02-.15q-3.14-.47-3.6-3.6c-.05-.31-.1-.65-.15-1.02-.02-.12-.12-.21-.24-.21s-.22.09-.24.21c-.06.37-.11.71-.15,1.02q-.47,3.14-3.6,3.6c-.31.05-.65.1-1.02.15-.12.02-.21.12-.21.24s.09.22.21.24c.37.06.71.11,1.02.15q3.14.47,3.6,3.6c.05.31.1.65.15,1.02.02.12.12.21.24.21s.22-.09.24-.21c.06-.37.11-.71.15-1.02q.46-3.13,3.6-3.6c.31-.05.65-.1,1.02-.15.12-.02.21-.12.21-.24s-.09-.22-.21-.24Z"/><path class="cls-3" d="M850.33,1365.58c-.43-.07-.83-.13-1.19-.18q-3.68-.55-4.22-4.22c-.05-.36-.11-.76-.18-1.19-.02-.14-.14-.24-.28-.24s-.26.1-.28.24c-.07.43-.13.83-.18,1.19q-.55,3.67-4.22,4.22c-.36.05-.76.11-1.19.18-.14.02-.24.14-.24.28s.1.26.24.28c.43.07.83.13,1.19.18q3.68.55,4.22,4.22c.05.36.11.76.18,1.19.02.14.14.24.28.24s.26-.1.28-.24c.07-.43.13-.83.18-1.19q.54-3.67,4.22-4.22c.36-.05.76-.11,1.19-.18.14-.02.24-.14.24-.28s-.1-.26-.24-.28Z"/><path class="cls-3" d="M896.22,1387.77c-.38-.06-.73-.11-1.05-.16q-3.23-.48-3.7-3.7c-.05-.32-.1-.67-.16-1.05-.02-.12-.12-.21-.25-.21s-.23.09-.25.21c-.06.38-.11.73-.16,1.05q-.48,3.23-3.7,3.7c-.32.05-.67.1-1.05.16-.12.02-.21.12-.21.25s.09.23.21.25c.38.06.73.11,1.05.16q3.23.48,3.7,3.7c.05.32.1.67.16,1.05.02.12.12.21.25.21s.23-.09.25-.21c.06-.38.11-.73.16-1.05q.48-3.22,3.7-3.7c.32-.05.67-.1,1.05-.16.12-.02.21-.12.21-.25s-.09-.23-.21-.25Z"/><path class="cls-3" d="M1007.9,1600.43c-.27-.04-.51-.08-.73-.11q-2.26-.34-2.6-2.6c-.03-.22-.07-.47-.11-.73-.01-.09-.09-.15-.17-.15s-.16.06-.17.15c-.04.27-.08.51-.11.73q-.34,2.26-2.6,2.6c-.22.03-.47.07-.73.11-.09.01-.15.09-.15.17s.06.16.15.17c.27.04.51.08.73.11q2.26.34,2.6,2.6c.03.22.07.47.11.73.01.09.09.15.17.15s.16-.06.17-.15c.04-.27.08-.51.11-.73q.34-2.26,2.6-2.6c.22-.03.47-.07.73-.11.09-.01.15-.09.15-.17s-.06-.16-.15-.17Z"/><path class="cls-3" d="M932.58,1563.8c-.23-.04-.44-.07-.63-.09q-1.93-.29-2.21-2.21c-.03-.19-.06-.4-.09-.63-.01-.07-.07-.13-.15-.13s-.14.05-.15.13c-.04.23-.07.44-.09.63q-.29,1.93-2.21,2.21c-.19.03-.4.06-.63.09-.07.01-.13.07-.13.15s.05.14.13.15c.23.04.44.07.63.09q1.93.29,2.21,2.21c.03.19.06.4.09.63.01.07.07.13.15.13s.14-.05.15-.13c.04-.23.07-.44.09-.63q.29-1.93,2.21-2.21c.19-.03.4-.06.63-.09.07-.01.13-.07.13-.15s-.05-.14-.13-.15Z"/><path class="cls-2" d="M1198.54,1567.43c-32.77,17.94-70.38,28.14-110.38,28.14-127.12,0-230.17-103.05-230.17-230.17s103.05-230.17,230.17-230.17c39.72,0,77.1,10.06,109.71,27.78"/><path class="cls-1" d="M1199.07,1589.09c-28.03,12.14-58.94,18.87-91.43,18.87-127.12,0-230.17-103.05-230.17-230.17s103.05-230.17,230.17-230.17c32.7,0,63.81,6.82,91.98,19.11"/><path class="cls-1" d="M1198.82,1571.91c-38.62,29.3-86.77,46.68-138.99,46.68-127.12,0-230.17-103.05-230.17-230.17s103.05-230.17,230.17-230.17c52.58,0,101.04,17.63,139.79,47.3"/><path class="cls-3" d="M926.45,1228.48c-.49-.08-.93-.14-1.34-.2q-4.13-.61-4.74-4.74c-.06-.41-.13-.85-.2-1.34-.02-.16-.16-.27-.32-.27s-.29.12-.32.27c-.08.49-.14.93-.2,1.34q-.61,4.13-4.74,4.74c-.41.06-.85.13-1.34.2-.16.02-.27.16-.27.32s.12.29.27.32c.49.08.93.14,1.34.2q4.13.61,4.74,4.74c.06.41.13.85.2,1.34.02.16.16.27.32.27s.29-.12.32-.27c.08-.49.14-.93.2-1.34q.61-4.13,4.74-4.74c.41-.06.85-.13,1.34-.2.16-.02.27-.16.27-.32s-.12-.29-.27-.32Z"/><path class="cls-3" d="M829.53,1428.49c-.38-.06-.73-.11-1.05-.16q-3.23-.48-3.7-3.7c-.05-.32-.1-.67-.16-1.05-.02-.12-.12-.21-.25-.21s-.23.09-.25.21c-.06.38-.11.73-.16,1.05q-.48,3.23-3.7,3.7c-.32.05-.67.1-1.05.16-.12.02-.21.12-.21.25s.09.23.21.25c.38.06.73.11,1.05.16q3.23.48,3.7,3.7c.05.32.1.67.16,1.05.02.12.12.21.25.21s.23-.09.25-.21c.06-.38.11-.73.16-1.05q.48-3.22,3.7-3.7c.32-.05.67-.1,1.05-.16.12-.02.21-.12.21-.25s-.09-.23-.21-.25Z"/><path class="cls-3" d="M1011.3,1138.12c-.38-.06-.73-.11-1.05-.16q-3.23-.48-3.7-3.7c-.05-.32-.1-.67-.16-1.05-.02-.12-.12-.21-.25-.21s-.23.09-.25.21c-.06.38-.11.73-.16,1.05q-.48,3.23-3.7,3.7c-.32.05-.67.1-1.05.16-.12.02-.21.12-.21.25s.09.23.21.25c.38.06.73.11,1.05.16q3.23.48,3.7,3.7c.05.32.1.67.16,1.05.02.12.12.21.25.21s.23-.09.25-.21c.06-.38.11-.73.16-1.05q.48-3.22,3.7-3.7c.32-.05.67-.1,1.05-.16.12-.02.21-.12.21-.25s-.09-.23-.21-.25Z"/><path class="cls-3" d="M1020.13,1571.72c-.38-.06-.73-.11-1.05-.16q-3.23-.48-3.7-3.7c-.05-.32-.1-.67-.16-1.05-.02-.12-.12-.21-.25-.21s-.23.09-.25.21c-.06.38-.11.73-.16,1.05q-.48,3.23-3.7,3.7c-.32.05-.67.1-1.05.16-.12.02-.21.12-.21.25s.09.23.21.25c.38.06.73.11,1.05.16q3.23.48,3.7,3.7c.05.32.1.67.16,1.05.02.12.12.21.25.21s.23-.09.25-.21c.06-.38.11-.73.16-1.05q.48-3.22,3.7-3.7c.32-.05.67-.1,1.05-.16.12-.02.21-.12.21-.25s-.09-.23-.21-.25Z"/><path class="cls-3" d="M1137.77,1624.36c-.48-.07-.91-.14-1.31-.2q-4.03-.6-4.63-4.63c-.06-.4-.12-.83-.2-1.31-.02-.15-.16-.27-.31-.27s-.29.11-.31.27c-.07.48-.14.91-.2,1.31q-.6,4.03-4.63,4.63c-.4.06-.83.12-1.31.2-.15.02-.27.16-.27.31s.11.29.27.31c.48.07.91.14,1.31.2q4.03.6,4.63,4.63c.06.4.12.83.2,1.31.02.15.16.27.31.27s.29-.11.31-.27c.07-.48.14-.91.2-1.31q.6-4.03,4.63-4.63c.4-.06.83-.12,1.31-.2.15-.02.27-.16.27-.31s-.11-.29-.27-.31Z"/><path class="cls-3" d="M994.45,1144.08c-.6-.09-1.15-.18-1.66-.25q-5.11-.76-5.87-5.87c-.08-.5-.16-1.06-.25-1.66-.03-.19-.2-.34-.39-.34s-.36.14-.39.34c-.09.6-.18,1.15-.25,1.66q-.76,5.11-5.87,5.87c-.5.07-1.06.16-1.66.25-.19.03-.34.2-.34.39s.14.36.34.39c.6.09,1.15.18,1.66.25q5.11.76,5.87,5.87c.07.5.16,1.06.25,1.66.03.19.2.34.39.34s.36-.14.39-.34c.09-.6.18-1.15.25-1.66q.76-5.11,5.87-5.87c.5-.07,1.06-.16,1.66-.25.19-.03.34-.2.34-.39s-.14-.36-.34-.39Z"/><path class="cls-3" d="M842.07,1317.93l-.24-7.18c-.01-.4-.19-.74-.42-.76-.25-.03-.47.31-.48.76l-.28,7.18c0,.05,0,.11,0,.17,0,.14.02.26.05.38-.03.12-.05.25-.05.38,0,.05,0,.11,0,.17l.24,7.18c.02.45.23.79.48.76.23-.03.41-.36.42-.76l.28-7.18c0-.2-.01-.38-.05-.55.04-.17.06-.36.05-.55Z"/><path class="cls-3" d="M841.47,1317.58l-5.25-4.91c-.29-.28-.65-.38-.84-.24-.2.16-.11.55.2.88l4.88,5.27s.08.08.12.12c.1.09.2.17.31.24.07.1.14.21.24.31.04.04.08.08.12.12l5.25,4.91c.33.31.72.4.88.2.14-.18.04-.54-.24-.84l-4.88-5.27c-.13-.14-.28-.26-.42-.36-.09-.15-.21-.29-.35-.43Z"/><path class="cls-3" d="M840.8,1317.76l-7.18.24c-.4.01-.74.19-.76.42-.03.25.31.47.76.48l7.18.28c.05,0,.11,0,.17,0,.14,0,.26-.02.38-.05.12.03.25.05.38.05.05,0,.12,0,.17,0l7.18-.24c.45-.02.79-.23.76-.48-.03-.23-.36-.41-.76-.42l-7.18-.28c-.2,0-.38.01-.55.05-.17-.04-.36-.06-.55-.05Z"/><path class="cls-3" d="M840.46,1318.36l-4.91,5.25c-.28.29-.38.65-.24.84.15.2.55.11.88-.2l5.27-4.88s.08-.08.12-.12c.09-.1.17-.2.24-.31.1-.07.21-.14.31-.24.04-.04.08-.08.12-.12l4.91-5.25c.31-.33.4-.72.2-.88-.18-.14-.54-.04-.84.24l-5.27,4.88c-.14.13-.26.28-.36.42-.15.09-.29.21-.43.35Z"/><path class="cls-3" d="M1177.01,1202.93l-.13-3.82c0-.21-.1-.39-.22-.41-.13-.02-.25.17-.26.4l-.15,3.82s0,.06,0,.09c0,.07.01.14.03.2-.01.06-.02.13-.03.2,0,.03,0,.06,0,.09l.13,3.82c0,.24.12.42.25.41.12-.01.22-.19.23-.4l.15-3.82c0-.1,0-.2-.03-.29.02-.09.03-.19.03-.29Z"/><path class="cls-3" d="M1176.69,1202.74l-2.79-2.61c-.16-.15-.35-.2-.44-.13-.11.08-.06.29.1.47l2.6,2.81s.04.04.06.06c.05.05.11.09.16.13.04.06.08.11.13.16.02.02.04.04.06.06l2.79,2.61c.18.16.38.21.47.11.08-.1.02-.29-.13-.45l-2.6-2.8c-.07-.08-.15-.14-.23-.19-.05-.08-.11-.16-.19-.23Z"/><path class="cls-3" d="M1176.33,1202.84l-3.82.13c-.21,0-.39.1-.41.22-.02.13.17.25.4.26l3.82.15s.06,0,.09,0c.07,0,.14-.01.2-.03.06.01.13.02.2.03.03,0,.06,0,.09,0l3.82-.13c.24,0,.42-.12.41-.25-.01-.12-.19-.22-.4-.23l-3.82-.15c-.1,0-.2,0-.29.03-.09-.02-.19-.03-.29-.03Z"/><path class="cls-3" d="M1176.15,1203.16l-2.61,2.79c-.15.16-.2.35-.13.44.08.11.29.06.47-.1l2.8-2.6s.04-.04.06-.06c.05-.05.09-.11.13-.16.06-.04.11-.08.16-.13.02-.02.04-.04.06-.06l2.61-2.79c.16-.18.21-.38.11-.47-.1-.08-.29-.02-.45.13l-2.81,2.6c-.08.07-.14.15-.19.23-.08.05-.16.11-.23.19Z"/><path class="cls-3" d="M910.06,1450.76c-.48-.08-.93-.14-1.33-.2q-4.1-.61-4.7-4.7c-.06-.4-.13-.85-.2-1.33-.02-.16-.16-.27-.31-.27s-.29.11-.31.27c-.08.48-.14.93-.2,1.33q-.61,4.1-4.7,4.7c-.4.06-.85.13-1.33.2-.15.02-.27.16-.27.31s.11.29.27.31c.48.08.93.14,1.33.2q4.1.61,4.7,4.7c.06.4.13.85.2,1.33.02.16.16.27.31.27s.29-.11.31-.27c.08-.48.14-.93.2-1.33q.61-4.09,4.7-4.7c.4-.06.85-.13,1.33-.2.15-.02.27-.16.27-.31s-.11-.29-.27-.31Z"/><path class="cls-3" d="M926.42,1256.64c-.17-.03-.33-.05-.47-.07q-1.46-.22-1.67-1.67c-.02-.14-.04-.3-.07-.47,0-.06-.06-.1-.11-.1s-.1.04-.11.1c-.03.17-.05.33-.07.47q-.22,1.46-1.67,1.67c-.14.02-.3.04-.47.07-.05,0-.1.06-.1.11s.04.1.1.11c.17.03.33.05.47.07q1.46.22,1.67,1.67c.02.14.04.3.07.47,0,.06.06.1.11.1s.1-.04.11-.1c.03-.17.05-.33.07-.47q.22-1.46,1.67-1.67c.14-.02.3-.04.47-.07.06,0,.1-.06.1-.11s-.04-.1-.1-.11Z"/><path class="cls-3" d="M878.37,1479.72c-.21-.03-.41-.06-.59-.09q-1.82-.27-2.09-2.09c-.03-.18-.06-.38-.09-.59-.01-.07-.07-.12-.14-.12s-.13.05-.14.12c-.03.21-.06.41-.09.59q-.27,1.82-2.09,2.09c-.18.03-.38.06-.59.09-.07.01-.12.07-.12.14s.05.13.12.14c.21.03.41.06.59.09q1.82.27,2.09,2.09c.03.18.06.38.09.59.01.07.07.12.14.12s.13-.05.14-.12c.03-.21.06-.41.09-.59q.27-1.82,2.09-2.09c.18-.03.38-.06.59-.09.07-.01.12-.07.12-.14s-.05-.13-.12-.14Z"/><path class="cls-3" d="M831.87,1332.51c-.38-.06-.72-.11-1.03-.16q-3.19-.47-3.66-3.66c-.05-.31-.1-.66-.16-1.03-.02-.12-.12-.21-.24-.21s-.23.09-.24.21c-.06.38-.11.72-.16,1.03q-.47,3.19-3.66,3.66c-.31.05-.66.1-1.03.16-.12.02-.21.12-.21.24s.09.23.21.24c.38.06.72.11,1.03.16q3.19.47,3.66,3.66c.05.31.1.66.16,1.03.02.12.12.21.24.21s.23-.09.24-.21c.06-.38.11-.72.16-1.03q.47-3.18,3.66-3.66c.31-.05.66-.1,1.03-.16.12-.02.21-.12.21-.24s-.09-.23-.21-.24Z"/><path class="cls-3" d="M1189.67,1558.98c-.22-.03-.42-.06-.6-.09q-1.84-.27-2.11-2.11c-.03-.18-.06-.38-.09-.6-.01-.07-.07-.12-.14-.12s-.13.05-.14.12c-.03.22-.06.42-.09.6q-.27,1.84-2.11,2.11c-.18.03-.38.06-.6.09-.07.01-.12.07-.12.14s.05.13.12.14c.22.03.42.06.6.09q1.84.27,2.11,2.11c.03.18.06.38.09.6.01.07.07.12.14.12s.13-.05.14-.12c.03-.22.06-.42.09-.6q.27-1.84,2.11-2.11c.18-.03.38-.06.6-.09.07-.01.12-.07.12-.14s-.05-.13-.12-.14Z"/><path class="cls-3" d="M1163.29,1171.48c-.13-.02-.26-.04-.37-.06q-1.13-.17-1.3-1.3c-.02-.11-.03-.23-.06-.37,0-.04-.04-.07-.09-.07s-.08.03-.09.07c-.02.13-.04.26-.06.37q-.17,1.13-1.3,1.3c-.11.02-.23.03-.37.06-.04,0-.07.04-.07.09s.03.08.07.09c.13.02.26.04.37.06q1.13.17,1.3,1.3c.02.11.03.23.06.37,0,.04.04.07.09.07s.08-.03.09-.07c.02-.13.04-.26.06-.37q.17-1.13,1.3-1.3c.11-.02.23-.03.37-.06.04,0,.07-.04.07-.09s-.03-.08-.07-.09Z"/><path class="cls-3" d="M1031.96,1574.4c-.17-.03-.32-.05-.46-.07q-1.41-.21-1.62-1.62c-.02-.14-.04-.29-.07-.46,0-.05-.05-.09-.11-.09s-.1.04-.11.09c-.03.17-.05.32-.07.46q-.21,1.42-1.63,1.63c-.14.02-.29.04-.46.07-.05,0-.09.05-.09.11s.04.1.09.11c.17.03.32.05.46.07q1.42.21,1.63,1.63c.02.14.04.29.07.46,0,.05.05.09.11.09s.1-.04.11-.09c.03-.17.05-.32.07-.46q.21-1.41,1.62-1.63c.14-.02.29-.04.46-.07.05,0,.09-.05.09-.11s-.04-.1-.09-.11Z"/><polygon class="cls-3" points="1159.93 1228.91 1132.52 1226.56 1150.24 1205.51 1129.19 1223.23 1126.84 1195.82 1124.49 1223.23 1103.44 1205.51 1121.16 1226.56 1093.75 1228.91 1121.16 1231.27 1103.44 1252.31 1124.49 1234.6 1126.84 1262 1129.19 1234.6 1150.24 1252.31 1132.52 1231.27 1159.93 1228.91"/><path class="cls-3" d="M1098.39,1220.87c1.73.71,3.72-.11,4.43-1.85.71-1.73-.11-3.72-1.85-4.43-1.73-.71-3.72.11-4.43,1.85-.71,1.73.11,3.72,1.85,4.43Z"/><path class="cls-3" d="M1116.84,1204.94h0c1.73-.72,2.55-2.71,1.83-4.44-.72-1.73-2.71-2.55-4.44-1.83h0c-1.73.72-2.55,2.71-1.83,4.44.72,1.73,2.71,2.55,4.44,1.83Z"/><path class="cls-3" d="M1150.8,1218.9s.02.02.02.04c0,.01,0,.02.01.04h0c.72,1.73,2.7,2.56,4.44,1.84,1.73-.72,2.56-2.7,1.84-4.44h0s-.02-.03-.02-.04c0-.02,0-.04-.02-.05h0c-.72-1.73-2.71-2.55-4.44-1.82-1.73.72-2.55,2.71-1.82,4.44h0Z"/><path class="cls-3" d="M1136.71,1204.89c1.73.71,3.72-.12,4.43-1.85.71-1.73-.11-3.72-1.85-4.43-1.74-.71-3.72.12-4.43,1.85-.71,1.73.11,3.72,1.85,4.43Z"/><path class="cls-3" d="M1136.8,1252.9h0c-1.73.72-2.55,2.71-1.83,4.44s2.71,2.55,4.44,1.83h0c1.73-.72,2.55-2.71,1.83-4.44-.72-1.73-2.71-2.55-4.44-1.83Z"/><path class="cls-3" d="M1098.42,1237.06c-1.73.72-2.55,2.71-1.83,4.44.72,1.73,2.71,2.55,4.44,1.83s2.55-2.71,1.83-4.44c-.72-1.73-2.71-2.55-4.44-1.83Z"/><path class="cls-3" d="M1155.27,1237c-1.73-.72-3.72.11-4.44,1.84h0c-.72,1.73.11,3.72,1.84,4.44,1.73.72,3.72-.11,4.44-1.84h0c.72-1.73-.11-3.72-1.84-4.44Z"/><path class="cls-3" d="M1116.93,1252.92h0c-1.73-.72-3.72.11-4.44,1.84-.72,1.73.11,3.72,1.84,4.43h0c1.73.72,3.72-.11,4.43-1.84.72-1.73-.11-3.72-1.84-4.43Z"/><path class="cls-3" d="M740.25,964.16c-.53-.08-1.02-.15-1.46-.22q-4.5-.67-5.16-5.16c-.07-.44-.14-.93-.22-1.46-.03-.17-.17-.3-.35-.3s-.32.13-.35.3c-.08.53-.15,1.02-.22,1.46q-.67,4.5-5.17,5.16c-.44.07-.93.14-1.46.22-.17.03-.3.17-.3.35s.13.32.3.35c.53.08,1.02.15,1.46.22q4.5.67,5.17,5.16c.07.44.14.93.22,1.46.03.17.17.3.35.3s.32-.13.35-.3c.08-.53.15-1.02.22-1.46q.67-4.5,5.16-5.16c.44-.07.93-.14,1.46-.22.17-.03.3-.17.3-.35s-.13-.32-.3-.35Z"/><path class="cls-3" d="M920.17,850.74l-.32-9.64c-.02-.54-.26-.99-.56-1.02-.33-.04-.62.42-.65,1.02l-.37,9.64c0,.07,0,.15,0,.23,0,.18.03.35.07.52-.04.16-.06.33-.07.52,0,.07,0,.15,0,.23l.32,9.64c.02.6.31,1.06.64,1.02.31-.04.55-.48.57-1.02l.37-9.64c.01-.26-.02-.51-.06-.74.05-.23.08-.48.07-.74Z"/><path class="cls-3" d="M919.37,850.28l-7.04-6.59c-.4-.37-.88-.52-1.12-.33-.26.21-.15.74.26,1.18l6.55,7.08c.05.05.11.11.16.16.13.13.27.23.41.32.09.14.19.28.32.41.05.05.11.11.16.16l7.04,6.59c.44.41.97.53,1.18.27.19-.24.05-.73-.32-1.12l-6.55-7.08c-.18-.19-.37-.35-.57-.48-.13-.2-.28-.39-.48-.57Z"/><path class="cls-3" d="M918.48,850.52l-9.64.32c-.54.02-.99.26-1.02.56-.04.33.42.62,1.02.65l9.64.37c.07,0,.15,0,.23,0,.18,0,.35-.03.52-.07.16.04.33.06.52.07.07,0,.15,0,.23,0l9.64-.32c.6-.02,1.06-.31,1.02-.64-.04-.31-.48-.55-1.02-.57l-9.64-.37c-.26-.01-.51.02-.74.06-.23-.05-.48-.08-.74-.07Z"/><path class="cls-3" d="M918.02,851.32l-6.59,7.04c-.37.4-.52.88-.33,1.12.21.26.74.15,1.18-.26l7.08-6.55c.05-.05.11-.11.16-.16.13-.13.23-.27.32-.41.14-.09.28-.19.41-.32.05-.05.11-.11.16-.16l6.59-7.04c.41-.44.53-.97.27-1.18-.24-.19-.73-.05-1.12.32l-7.08,6.55c-.19.18-.35.37-.48.57-.2.13-.39.28-.57.48Z"/><path class="cls-3" d="M956.52,845.25c-.32-.05-.61-.09-.87-.13q-2.69-.4-3.09-3.09c-.04-.27-.08-.56-.13-.87-.02-.1-.1-.18-.21-.18s-.19.08-.21.18c-.05.32-.09.61-.13.87q-.4,2.69-3.09,3.09c-.27.04-.56.08-.87.13-.1.02-.18.1-.18.21s.08.19.18.21c.32.05.61.09.87.13q2.69.4,3.09,3.09c.04.27.08.56.13.87.02.1.1.18.21.18s.19-.08.21-.18c.05-.32.09-.61.13-.87q.4-2.69,3.09-3.09c.27-.04.56-.08.87-.13.1-.02.18-.1.18-.21s-.08-.19-.18-.21Z"/><path class="cls-3" d="M902.97,959.27l-.14-4.19c0-.24-.11-.43-.25-.45-.15-.02-.27.18-.28.44l-.16,4.19s0,.07,0,.1c0,.08.01.15.03.22-.02.07-.03.14-.03.22,0,.03,0,.07,0,.1l.14,4.19c0,.26.13.46.28.45.13-.02.24-.21.25-.44l.16-4.19c0-.11,0-.22-.03-.32.02-.1.03-.21.03-.32Z"/><path class="cls-3" d="M902.62,959.07l-3.07-2.87c-.17-.16-.38-.22-.49-.14-.12.09-.06.32.11.51l2.85,3.08s.05.05.07.07c.06.05.12.1.18.14.04.06.08.12.14.18.02.02.05.05.07.07l3.07,2.87c.19.18.42.23.51.12.08-.11.02-.32-.14-.49l-2.85-3.08c-.08-.08-.16-.15-.25-.21-.06-.09-.12-.17-.21-.25Z"/><path class="cls-3" d="M902.23,959.18l-4.19.14c-.24,0-.43.11-.45.25-.02.15.18.27.44.28l4.19.16s.07,0,.1,0c.08,0,.15-.01.22-.03.07.02.14.03.22.03.03,0,.07,0,.1,0l4.19-.14c.26,0,.46-.13.45-.28-.02-.13-.21-.24-.44-.25l-4.19-.16c-.11,0-.22,0-.32.03-.1-.02-.21-.03-.32-.03Z"/><path class="cls-3" d="M902.03,959.53l-2.87,3.07c-.16.17-.22.38-.14.49.09.12.32.06.51-.11l3.08-2.85s.05-.05.07-.07c.05-.06.1-.12.14-.18.06-.04.12-.08.18-.14.02-.02.05-.05.07-.07l2.87-3.07c.18-.19.23-.42.12-.51-.11-.08-.32-.02-.49.14l-3.08,2.85c-.08.08-.15.16-.21.25-.09.06-.17.12-.25.21Z"/><path class="cls-3" d="M922.44,999.29c-.53-.08-1.02-.15-1.46-.22q-4.5-.67-5.16-5.16c-.07-.44-.14-.93-.22-1.46-.03-.17-.17-.3-.35-.3s-.32.13-.35.3c-.08.53-.15,1.02-.22,1.46q-.67,4.5-5.17,5.16c-.44.07-.93.14-1.46.22-.17.03-.3.17-.3.35s.13.32.3.35c.53.08,1.02.15,1.46.22q4.5.67,5.17,5.16c.07.44.14.93.22,1.46.03.17.17.3.35.3s.32-.13.35-.3c.08-.53.15-1.02.22-1.46q.67-4.5,5.16-5.16c.44-.07.93-.14,1.46-.22.17-.03.3-.17.3-.35s-.13-.32-.3-.35Z"/><path class="cls-3" d="M771.18,1005.67l-.32-9.64c-.02-.54-.26-.99-.56-1.02-.33-.04-.62.42-.65,1.02l-.37,9.64c0,.07,0,.15,0,.23,0,.18.03.35.07.52-.04.16-.06.33-.07.52,0,.07,0,.15,0,.23l.32,9.64c.02.6.31,1.06.64,1.02.31-.04.55-.48.57-1.02l.37-9.64c.01-.26-.02-.51-.06-.74.05-.23.08-.48.07-.74Z"/><path class="cls-3" d="M770.38,1005.21l-7.04-6.59c-.4-.37-.88-.52-1.12-.33-.26.21-.15.74.26,1.18l6.55,7.08c.05.05.11.11.16.16.13.13.27.23.41.32.09.14.19.28.32.41.05.05.11.11.16.16l7.04,6.59c.44.41.97.53,1.18.27.19-.24.05-.73-.32-1.12l-6.55-7.08c-.18-.19-.37-.35-.57-.48-.13-.2-.28-.39-.48-.57Z"/><path class="cls-3" d="M769.49,1005.45l-9.64.32c-.54.02-.99.26-1.02.56-.04.33.42.62,1.02.65l9.64.37c.07,0,.15,0,.23,0,.18,0,.35-.03.52-.07.16.04.33.06.52.07.07,0,.15,0,.23,0l9.64-.32c.6-.02,1.06-.31,1.02-.64-.04-.31-.48-.55-1.02-.57l-9.64-.37c-.26-.01-.51.02-.74.06-.23-.05-.48-.08-.74-.07Z"/><path class="cls-3" d="M769.03,1006.26l-6.59,7.04c-.37.4-.52.88-.33,1.12.21.26.74.15,1.18-.26l7.08-6.55c.05-.05.11-.11.16-.16.13-.13.23-.27.32-.41.14-.09.28-.19.41-.32.05-.05.11-.11.16-.16l6.59-7.04c.41-.44.53-.97.27-1.18-.24-.19-.73-.05-1.12.32l-7.08,6.55c-.19.18-.35.37-.48.57-.2.13-.39.28-.57.48Z"/><path class="cls-3" d="M737.88,888.65c-.37-.06-.71-.11-1.02-.15q-3.15-.47-3.62-3.62c-.05-.31-.1-.65-.15-1.02-.02-.12-.12-.21-.24-.21s-.22.09-.24.21c-.06.37-.11.71-.15,1.02q-.47,3.15-3.62,3.62c-.31.05-.65.1-1.02.15-.12.02-.21.12-.21.24s.09.22.21.24c.37.06.71.11,1.02.15q3.15.47,3.62,3.62c.05.31.1.65.15,1.02.02.12.12.21.24.21s.22-.09.24-.21c.06-.37.11-.71.15-1.02q.47-3.15,3.62-3.62c.31-.05.65-.1,1.02-.15.12-.02.21-.12.21-.24s-.09-.22-.21-.24Z"/><path class="cls-3" d="M922.51,803.7l-.16-4.65c0-.26-.12-.48-.27-.49-.16-.02-.3.2-.31.49l-.18,4.64s0,.07,0,.11c0,.09.02.17.03.25-.02.08-.03.16-.03.25,0,.04,0,.07,0,.11l.16,4.65c0,.29.15.51.31.49.15-.02.26-.23.27-.49l.18-4.64c0-.13,0-.25-.03-.36.02-.11.04-.23.03-.36Z"/><path class="cls-3" d="M922.12,803.48l-3.4-3.17c-.19-.18-.42-.25-.54-.16-.13.1-.07.35.13.57l3.16,3.41s.05.05.08.08c.06.06.13.11.2.15.04.07.09.13.15.2.02.03.05.05.08.08l3.4,3.17c.21.2.47.26.57.13.09-.12.02-.35-.15-.54l-3.16-3.41c-.09-.09-.18-.17-.27-.23-.06-.1-.14-.19-.23-.28Z"/><path class="cls-3" d="M921.69,803.6l-4.65.16c-.26,0-.48.12-.49.27-.02.16.2.3.49.31l4.64.18s.07,0,.11,0c.09,0,.17-.02.25-.03.08.02.16.03.25.03.03,0,.07,0,.11,0l4.65-.16c.29,0,.51-.15.49-.31-.02-.15-.23-.26-.49-.27l-4.64-.18c-.13,0-.25,0-.36.03-.11-.02-.23-.04-.36-.03Z"/><path class="cls-3" d="M921.47,803.99l-3.17,3.4c-.18.19-.25.42-.16.54.1.13.35.07.57-.13l3.41-3.16s.05-.05.08-.08c.06-.06.11-.13.15-.2.07-.04.13-.09.2-.15.03-.02.05-.05.08-.08l3.17-3.4c.2-.21.26-.47.13-.57-.12-.09-.35-.02-.54.15l-3.41,3.16c-.09.09-.17.18-.23.27-.1.06-.19.14-.28.23Z"/><path class="cls-3" d="M768.91,817.12c-.53-.08-1.02-.15-1.46-.22q-4.5-.67-5.16-5.16c-.07-.44-.14-.93-.22-1.46-.03-.17-.17-.3-.35-.3s-.32.13-.35.3c-.08.53-.15,1.02-.22,1.46q-.67,4.5-5.17,5.16c-.44.07-.93.14-1.46.22-.17.03-.3.17-.3.35s.13.32.3.35c.53.08,1.02.15,1.46.22q4.5.67,5.17,5.16c.07.44.14.93.22,1.46.03.17.17.3.35.3s.32-.13.35-.3c.08-.53.15-1.02.22-1.46q.67-4.5,5.16-5.16c.44-.07.93-.14,1.46-.22.17-.03.3-.17.3-.35s-.13-.32-.3-.35Z"/><path class="cls-3" d="M736.44,815.4c-.32-.05-.61-.09-.87-.13q-2.69-.4-3.09-3.09c-.04-.27-.08-.56-.13-.87-.02-.1-.1-.18-.21-.18s-.19.08-.21.18c-.05.32-.09.61-.13.87q-.4,2.69-3.09,3.09c-.27.04-.56.08-.87.13-.1.02-.18.1-.18.21s.08.19.18.21c.32.05.61.09.87.13q2.69.4,3.09,3.09c.04.27.08.56.13.87.02.1.1.18.21.18s.19-.08.21-.18c.05-.32.09-.61.13-.87q.4-2.69,3.09-3.09c.27-.04.56-.08.87-.13.1-.02.18-.1.18-.21s-.08-.19-.18-.21Z"/><path class="cls-3" d="M883.86,1020.17c-.53-.08-1.02-.15-1.46-.22q-4.5-.67-5.16-5.16c-.07-.44-.14-.93-.22-1.46-.03-.17-.17-.3-.35-.3s-.32.13-.35.3c-.08.53-.15,1.02-.22,1.46q-.67,4.5-5.17,5.16c-.44.07-.93.14-1.46.22-.17.03-.3.17-.3.35s.13.32.3.35c.53.08,1.02.15,1.46.22q4.5.67,5.17,5.16c.07.44.14.93.22,1.46.03.17.17.3.35.3s.32-.13.35-.3c.08-.53.15-1.02.22-1.46q.67-4.5,5.16-5.16c.44-.07.93-.14,1.46-.22.17-.03.3-.17.3-.35s-.13-.32-.3-.35Z"/><path class="cls-3" d="M900.45,809.41c-.33-.05-.64-.1-.91-.14q-2.81-.42-3.23-3.23c-.04-.28-.09-.58-.14-.91-.02-.11-.11-.19-.22-.19s-.2.08-.22.19c-.05.33-.1.64-.14.91q-.42,2.81-3.23,3.23c-.28.04-.58.09-.91.14-.11.02-.19.11-.19.22s.08.2.19.22c.33.05.64.1.91.14q2.81.42,3.23,3.23c.04.28.09.58.14.91.02.11.11.19.22.19s.2-.08.22-.19c.05-.33.1-.64.14-.91q.42-2.81,3.23-3.23c.28-.04.58-.09.91-.14.11-.02.19-.11.19-.22s-.08-.2-.19-.22Z"/><path class="cls-3" d="M751.25,800.88c-.45-.07-.87-.13-1.25-.19q-3.83-.57-4.4-4.4c-.06-.38-.12-.79-.19-1.25-.02-.15-.15-.25-.29-.25s-.27.11-.29.25c-.07.45-.13.87-.19,1.25q-.57,3.83-4.4,4.4c-.38.06-.79.12-1.25.19-.15.02-.25.15-.25.29s.11.27.25.29c.45.07.87.13,1.25.19q3.83.57,4.4,4.4c.06.38.12.79.19,1.24.02.15.15.25.29.25s.27-.11.29-.25c.07-.45.13-.87.19-1.24q.57-3.83,4.4-4.4c.38-.06.79-.12,1.25-.19.14-.02.25-.15.25-.29s-.11-.27-.25-.29Z"/><path class="cls-3" d="M724.99,954.43c-.18-.03-.35-.05-.5-.08q-1.55-.23-1.78-1.78c-.02-.15-.05-.32-.08-.5,0-.06-.06-.1-.12-.1s-.11.04-.12.1c-.03.18-.05.35-.08.5q-.23,1.55-1.78,1.78c-.15.02-.32.05-.5.08-.06,0-.1.06-.1.12s.04.11.1.12c.18.03.35.05.5.08q1.55.23,1.78,1.78c.02.15.05.32.08.5,0,.06.06.1.12.1s.11-.04.12-.1c.03-.18.05-.35.08-.5q.23-1.55,1.78-1.78c.15-.02.32-.05.5-.08.06,0,.1-.06.1-.12s-.04-.11-.1-.12Z"/><path class="cls-3" d="M930.95,987.66c-.31-.05-.59-.09-.84-.13q-2.6-.39-2.98-2.98c-.04-.26-.08-.54-.13-.84-.02-.1-.1-.17-.2-.17s-.18.07-.2.17c-.05.31-.09.59-.13.84q-.39,2.6-2.98,2.98c-.26.04-.54.08-.84.13-.1.02-.17.1-.17.2s.07.18.17.2c.31.05.59.09.84.13q2.6.39,2.98,2.98c.04.26.08.54.13.84.02.1.1.17.2.17s.18-.07.2-.17c.05-.31.09-.59.13-.84q.39-2.6,2.98-2.98c.26-.04.54-.08.84-.13.1-.02.17-.1.17-.2s-.07-.18-.17-.2Z"/><path class="cls-3" d="M714.52,891.25c-.22-.03-.41-.06-.59-.09q-1.82-.27-2.09-2.09c-.03-.18-.06-.38-.09-.59-.01-.07-.07-.12-.14-.12s-.13.05-.14.12c-.03.21-.06.41-.09.59q-.27,1.82-2.09,2.09c-.18.03-.38.06-.59.09-.07.01-.12.07-.12.14s.05.13.12.14c.22.03.41.06.59.09q1.82.27,2.09,2.09c.03.18.06.38.09.59.01.07.07.12.14.12s.13-.05.14-.12c.03-.21.06-.41.09-.59q.27-1.82,2.09-2.09c.18-.03.38-.06.59-.09.07-.01.12-.07.12-.14s-.05-.13-.12-.14Z"/><path class="cls-3" d="M737.26,902.24c-.19-.03-.36-.05-.52-.08q-1.6-.24-1.84-1.84c-.02-.16-.05-.33-.08-.52,0-.06-.06-.11-.12-.11s-.11.04-.12.11c-.03.19-.06.36-.08.52q-.24,1.6-1.84,1.84c-.16.02-.33.05-.52.08-.06,0-.11.06-.11.12s.04.11.11.12c.19.03.36.06.52.08q1.6.24,1.84,1.84c.02.16.05.33.08.52,0,.06.06.11.12.11s.11-.04.12-.11c.03-.19.05-.36.08-.52q.24-1.6,1.84-1.84c.16-.02.33-.05.52-.08.06,0,.11-.06.11-.12s-.04-.11-.11-.12Z"/><path class="cls-3" d="M943.56,940.38c-.11-.02-.22-.03-.31-.05q-.96-.14-1.1-1.1c-.01-.09-.03-.2-.05-.31,0-.04-.04-.06-.07-.06s-.07.03-.07.06c-.02.11-.03.22-.05.31q-.14.96-1.1,1.1c-.09.01-.2.03-.31.05-.04,0-.06.04-.06.07s.03.07.06.07c.11.02.22.03.31.05q.96.14,1.1,1.1c.01.09.03.2.05.31,0,.04.04.06.07.06s.07-.03.07-.06c.02-.11.03-.22.05-.31q.14-.96,1.1-1.1c.09-.01.2-.03.31-.05.04,0,.06-.04.06-.07s-.03-.07-.06-.07Z"/><path class="cls-3" d="M900.05,972.91c-.19-.03-.36-.05-.52-.08q-1.6-.24-1.84-1.84c-.02-.16-.05-.33-.08-.52,0-.06-.06-.11-.12-.11s-.11.04-.12.11c-.03.19-.06.36-.08.52q-.24,1.6-1.84,1.84c-.16.02-.33.05-.52.08-.06,0-.1.06-.1.12s.04.11.1.12c.19.03.36.06.52.08q1.6.24,1.84,1.84c.02.16.05.33.08.52,0,.06.06.11.12.11s.11-.04.12-.11c.03-.19.05-.36.08-.52q.24-1.6,1.84-1.84c.16-.02.33-.05.52-.08.06,0,.11-.06.11-.12s-.04-.11-.11-.12Z"/><path class="cls-3" d="M792.6,1007.61c-.13-.02-.25-.04-.36-.05q-1.12-.17-1.29-1.29c-.02-.11-.03-.23-.06-.36,0-.04-.04-.07-.09-.07s-.08.03-.09.07c-.02.13-.04.25-.05.36q-.17,1.12-1.29,1.29c-.11.02-.23.03-.36.05-.04,0-.07.04-.07.09s.03.08.07.09c.13.02.25.04.36.05q1.12.17,1.29,1.29c.02.11.03.23.05.36,0,.04.04.07.09.07s.08-.03.09-.07c.02-.13.04-.25.06-.36q.17-1.12,1.29-1.29c.11-.02.23-.03.36-.05.04,0,.07-.04.07-.09s-.03-.08-.07-.09Z"/><path class="cls-3" d="M755.28,989.46c-.11-.02-.22-.03-.31-.05q-.96-.14-1.1-1.1c-.01-.09-.03-.2-.05-.31,0-.04-.04-.06-.07-.06s-.07.03-.07.06c-.02.11-.03.22-.05.31q-.14.96-1.1,1.1c-.09.01-.2.03-.31.05-.04,0-.06.04-.06.07s.03.07.06.07c.11.02.22.03.31.05q.96.14,1.1,1.1c.01.09.03.2.05.31,0,.04.04.06.07.06s.07-.03.07-.06c.02-.11.03-.22.05-.31q.14-.96,1.1-1.1c.09-.01.2-.03.31-.05.04,0,.06-.04.06-.07s-.03-.07-.06-.07Z"/><circle class="cls-2" cx="832.37" cy="891.16" r="114.05"/><circle class="cls-1" cx="842.02" cy="897.3" r="114.05"/><circle class="cls-1" cx="818.33" cy="902.56" r="114.05" transform="translate(-398.52 843) rotate(-45)"/><path class="cls-3" d="M752.24,823.31c-.24-.04-.46-.07-.66-.1q-2.05-.3-2.35-2.35c-.03-.2-.06-.42-.1-.66-.01-.08-.08-.13-.16-.13s-.15.06-.16.13c-.04.24-.07.46-.1.66q-.3,2.05-2.35,2.35c-.2.03-.42.06-.66.1-.08.01-.13.08-.13.16s.06.15.13.16c.24.04.46.07.66.1q2.05.3,2.35,2.35c.03.2.06.42.1.66.01.08.08.13.16.13s.15-.06.16-.13c.04-.24.07-.46.1-.66q.3-2.05,2.35-2.35c.2-.03.42-.06.66-.1.08-.01.13-.08.13-.16s-.06-.15-.13-.16Z"/><path class="cls-3" d="M908.34,796.49c-.19-.03-.36-.06-.52-.08q-1.6-.24-1.84-1.84c-.02-.16-.05-.33-.08-.52,0-.06-.06-.11-.12-.11s-.11.04-.12.11c-.03.19-.06.36-.08.52q-.24,1.6-1.84,1.84c-.16.02-.33.05-.52.08-.06,0-.11.06-.11.12s.04.11.11.12c.19.03.36.05.52.08q1.6.24,1.84,1.84c.02.16.05.33.08.52,0,.06.06.11.12.11s.11-.04.12-.11c.03-.19.05-.36.08-.52q.24-1.6,1.84-1.84c.16-.02.33-.05.52-.08.06,0,.11-.06.11-.12s-.04-.11-.11-.12Z"/><path class="cls-3" d="M704.22,922.42c-.19-.03-.36-.05-.52-.08q-1.6-.24-1.84-1.84c-.02-.16-.05-.33-.08-.52,0-.06-.06-.11-.12-.11s-.11.04-.12.11c-.03.19-.06.36-.08.52q-.24,1.6-1.84,1.84c-.16.02-.33.05-.52.08-.06,0-.11.06-.11.12s.04.11.11.12c.19.03.36.06.52.08q1.6.24,1.84,1.84c.02.16.05.33.08.52,0,.06.06.11.12.11s.11-.04.12-.11c.03-.19.05-.36.08-.52q.24-1.6,1.84-1.84c.16-.02.33-.05.52-.08.06,0,.1-.06.1-.12s-.04-.11-.1-.12Z"/><path class="cls-3" d="M944.5,880.81c-.19-.03-.36-.06-.52-.08q-1.6-.24-1.84-1.84c-.02-.16-.05-.33-.08-.52,0-.06-.06-.11-.12-.11s-.11.04-.12.11c-.03.19-.06.36-.08.52q-.24,1.6-1.84,1.84c-.16.02-.33.05-.52.08-.06,0-.1.06-.1.12s.04.11.1.12c.19.03.36.05.52.08q1.6.24,1.84,1.84c.02.16.05.33.08.52,0,.06.06.11.12.11s.11-.04.12-.11c.03-.19.05-.36.08-.52q.24-1.6,1.84-1.84c.16-.02.33-.05.52-.08.06,0,.11-.06.11-.12s-.04-.11-.11-.12Z"/><path class="cls-3" d="M794.29,778.54c-.19-.03-.36-.06-.52-.08q-1.6-.24-1.84-1.84c-.02-.16-.05-.33-.08-.52,0-.06-.06-.11-.12-.11s-.11.04-.12.11c-.03.19-.06.36-.08.52q-.24,1.6-1.84,1.84c-.16.02-.33.05-.52.08-.06,0-.11.06-.11.12s.04.11.11.12c.19.03.36.06.52.08q1.6.24,1.84,1.84c.02.16.05.33.08.52,0,.06.06.11.12.11s.11-.04.12-.11c.03-.19.05-.36.08-.52q.24-1.6,1.84-1.84c.16-.02.33-.05.52-.08.06,0,.1-.06.1-.12s-.04-.11-.1-.12Z"/><path class="cls-3" d="M798.66,993.39c-.19-.03-.36-.05-.52-.08q-1.6-.24-1.84-1.84c-.02-.16-.05-.33-.08-.52,0-.06-.06-.11-.12-.11s-.11.04-.12.11c-.03.19-.06.36-.08.52q-.24,1.6-1.84,1.84c-.16.02-.33.05-.52.08-.06,0-.1.06-.1.12s.04.11.1.12c.19.03.36.06.52.08q1.6.24,1.84,1.84c.02.16.05.33.08.52,0,.06.06.11.12.11s.11-.04.12-.11c.03-.19.05-.36.08-.52q.24-1.6,1.84-1.84c.16-.02.33-.05.52-.08.06,0,.1-.06.1-.12s-.04-.11-.1-.12Z"/><path class="cls-3" d="M856.95,1019.47c-.24-.04-.45-.07-.65-.1q-2-.3-2.29-2.29c-.03-.2-.06-.41-.1-.65-.01-.08-.08-.13-.15-.13s-.14.06-.15.13c-.04.24-.07.45-.1.65q-.3,2-2.29,2.29c-.2.03-.41.06-.65.1-.08.01-.13.08-.13.15s.06.14.13.15c.24.04.45.07.65.1q2,.3,2.29,2.29c.03.2.06.41.1.65.01.08.08.13.15.13s.14-.06.15-.13c.04-.24.07-.45.1-.65q.3-2,2.29-2.29c.2-.03.41-.06.65-.1.08-.01.13-.08.13-.15s-.06-.14-.13-.15Z"/><path class="cls-3" d="M965.16,912.44c-.24-.04-.45-.07-.65-.1q-2-.3-2.29-2.29c-.03-.2-.06-.41-.1-.65-.01-.08-.08-.13-.15-.13s-.14.06-.15.13c-.04.24-.07.45-.1.65q-.3,2-2.29,2.29c-.2.03-.41.06-.65.1-.08.01-.13.08-.13.15s.06.14.13.15c.24.04.45.07.65.1q2,.3,2.29,2.29c.03.2.06.41.1.65.01.08.08.13.15.13s.14-.06.15-.13c.04-.24.07-.45.1-.65q.3-2,2.29-2.29c.2-.03.41-.06.65-.1.08-.01.13-.08.13-.15s-.06-.14-.13-.15Z"/><path class="cls-3" d="M962.54,928.73c-.33-.05-.64-.1-.91-.14q-2.81-.42-3.23-3.23c-.04-.28-.09-.58-.14-.91-.02-.11-.11-.19-.22-.19s-.2.08-.22.19c-.05.33-.1.64-.14.91q-.42,2.81-3.23,3.23c-.28.04-.58.09-.91.14-.11.02-.18.11-.18.22s.08.2.18.22c.33.05.64.1.91.14q2.81.42,3.23,3.23c.04.28.09.58.14.91.02.11.11.19.22.19s.2-.08.22-.19c.05-.33.1-.64.14-.91q.42-2.81,3.23-3.23c.28-.04.58-.09.91-.14.11-.02.18-.11.18-.22s-.08-.2-.18-.22Z"/><path class="cls-3" d="M785.94,781.49c-.3-.05-.57-.09-.82-.12q-2.53-.38-2.91-2.91c-.04-.25-.08-.52-.12-.82-.01-.1-.1-.17-.19-.17s-.18.07-.19.17c-.05.3-.09.57-.12.82q-.38,2.53-2.91,2.91c-.25.04-.52.08-.82.12-.1.01-.17.1-.17.19s.07.18.17.19c.3.05.57.09.82.12q2.53.38,2.91,2.91c.04.25.08.52.12.82.01.1.1.17.19.17s.18-.07.19-.17c.05-.3.09-.57.12-.82q.38-2.53,2.91-2.91c.25-.04.52-.08.82-.12.1-.01.17-.1.17-.19s-.07-.18-.17-.19Z"/><path class="cls-3" d="M710.43,867.63l-.12-3.56c0-.2-.09-.36-.21-.38-.12-.01-.23.15-.24.38l-.14,3.56s0,.06,0,.08c0,.07.01.13.02.19-.01.06-.02.12-.03.19,0,.03,0,.06,0,.08l.12,3.56c0,.22.11.39.24.38.11-.01.2-.18.21-.38l.14-3.56c0-.1,0-.19-.02-.27.02-.08.03-.18.03-.27Z"/><path class="cls-3" d="M710.13,867.46l-2.6-2.43c-.15-.14-.32-.19-.41-.12-.1.08-.05.27.1.44l2.42,2.61s.04.04.06.06c.05.05.1.08.15.12.03.05.07.1.12.15.02.02.04.04.06.06l2.6,2.43c.16.15.36.2.44.1.07-.09.02-.27-.12-.41l-2.42-2.61c-.07-.07-.14-.13-.21-.18-.05-.07-.1-.15-.18-.21Z"/><path class="cls-3" d="M709.8,867.55l-3.56.12c-.2,0-.36.09-.38.21-.01.12.15.23.38.24l3.56.14s.06,0,.08,0c.07,0,.13-.01.19-.02.06.01.12.02.19.03.03,0,.06,0,.08,0l3.56-.12c.22,0,.39-.11.38-.24-.01-.11-.18-.2-.38-.21l-3.56-.14c-.1,0-.19,0-.27.02-.08-.02-.18-.03-.27-.03Z"/><path class="cls-3" d="M709.63,867.85l-2.43,2.6c-.14.15-.19.32-.12.41.08.1.27.05.44-.1l2.61-2.42s.04-.04.06-.06c.05-.05.08-.1.12-.15.05-.03.1-.07.15-.12.02-.02.04-.04.06-.06l2.43-2.6c.15-.16.2-.36.1-.44-.09-.07-.27-.02-.41.12l-2.61,2.42c-.07.07-.13.14-.18.21-.07.05-.15.1-.21.18Z"/><path class="cls-3" d="M876.4,810.65l-.06-1.89c0-.11-.05-.19-.11-.2-.07,0-.12.08-.13.2l-.07,1.89s0,.03,0,.04c0,.04,0,.07.01.1,0,.03-.01.07-.01.1,0,.01,0,.03,0,.04l.06,1.89c0,.12.06.21.13.2.06,0,.11-.09.11-.2l.07-1.89c0-.05,0-.1-.01-.15,0-.04.02-.09.01-.15Z"/><path class="cls-3" d="M876.24,810.56l-1.38-1.29c-.08-.07-.17-.1-.22-.06-.05.04-.03.14.05.23l1.29,1.39s.02.02.03.03c.03.02.05.04.08.06.02.03.04.05.06.08,0,.01.02.02.03.03l1.38,1.29c.09.08.19.1.23.05.04-.05,0-.14-.06-.22l-1.29-1.39s-.07-.07-.11-.09c-.02-.04-.06-.08-.09-.11Z"/><path class="cls-3" d="M876.06,810.61l-1.89.06c-.11,0-.19.05-.2.11,0,.07.08.12.2.13l1.89.07s.03,0,.04,0c.04,0,.07,0,.1-.01.03,0,.07.01.1.01.01,0,.03,0,.04,0l1.89-.06c.12,0,.21-.06.2-.13,0-.06-.09-.11-.2-.11l-1.89-.07c-.05,0-.1,0-.15.01-.05,0-.09-.02-.15-.01Z"/><path class="cls-3" d="M875.97,810.76l-1.29,1.38c-.07.08-.1.17-.06.22.04.05.14.03.23-.05l1.39-1.29s.02-.02.03-.03c.02-.03.04-.05.06-.08.03-.02.05-.04.08-.06.01,0,.02-.02.03-.03l1.29-1.38c.08-.09.1-.19.05-.23-.05-.04-.14,0-.22.06l-1.39,1.29s-.07.07-.09.11c-.04.02-.08.06-.11.09Z"/><path class="cls-3" d="M926.69,925.58c-.24-.04-.46-.07-.66-.1q-2.03-.3-2.33-2.33c-.03-.2-.06-.42-.1-.66-.01-.08-.08-.13-.16-.13s-.14.06-.16.13c-.04.24-.07.46-.1.66q-.3,2.03-2.33,2.33c-.2.03-.42.06-.66.1-.08.01-.13.08-.13.16s.06.14.13.16c.24.04.46.07.66.1q2.03.3,2.33,2.33c.03.2.06.42.1.66.01.08.08.13.16.13s.14-.06.16-.13c.04-.24.07-.46.1-.66q.3-2.03,2.33-2.33c.2-.03.42-.06.66-.1.08-.01.13-.08.13-.16s-.06-.14-.13-.16Z"/><path class="cls-3" d="M744.12,933.45c-.24-.04-.46-.07-.66-.1q-2.03-.3-2.33-2.33c-.03-.2-.06-.42-.1-.66-.01-.08-.08-.13-.16-.13s-.14.06-.16.13c-.04.24-.07.46-.1.66q-.3,2.03-2.33,2.33c-.2.03-.42.06-.66.1-.08.01-.13.08-.13.16s.06.14.13.16c.24.04.46.07.66.1q2.03.3,2.33,2.33c.03.2.06.42.1.66.01.08.08.13.16.13s.14-.06.16-.13c.04-.24.07-.46.1-.66q.3-2.03,2.33-2.33c.2-.03.42-.06.66-.1.08-.01.13-.08.13-.16s-.06-.14-.13-.16Z"/><path class="cls-3" d="M924.81,968.74c-.14-.02-.27-.04-.38-.06q-1.17-.17-1.35-1.35c-.02-.12-.04-.24-.06-.38,0-.04-.05-.08-.09-.08s-.08.03-.09.08c-.02.14-.04.27-.06.38q-.17,1.17-1.35,1.35c-.12.02-.24.04-.38.06-.04,0-.08.05-.08.09s.03.08.08.09c.14.02.27.04.38.06q1.17.17,1.35,1.35c.02.12.04.24.06.38,0,.04.05.08.09.08s.08-.03.09-.08c.02-.14.04-.27.06-.38q.17-1.17,1.35-1.35c.12-.02.24-.04.38-.06.04,0,.08-.05.08-.09s-.03-.08-.08-.09Z"/><path class="cls-3" d="M752.23,837.26c-.09-.01-.16-.02-.23-.04q-.72-.11-.83-.83c-.01-.07-.02-.15-.04-.23,0-.03-.03-.05-.06-.05s-.05.02-.06.05c-.01.09-.02.16-.04.23q-.11.72-.83.83c-.07.01-.15.02-.23.04-.03,0-.05.03-.05.06s.02.05.05.06c.09.01.16.02.23.04q.72.11.83.83c.01.07.02.15.04.23,0,.03.03.05.06.05s.05-.02.06-.05c.01-.09.02-.16.04-.23q.11-.72.83-.83c.07-.01.15-.02.23-.04.03,0,.05-.03.05-.06s-.02-.05-.05-.06Z"/><path class="cls-3" d="M728.42,947.8c-.11-.02-.2-.03-.29-.04q-.9-.13-1.04-1.04c-.01-.09-.03-.19-.04-.29,0-.03-.03-.06-.07-.06s-.06.03-.07.06c-.02.11-.03.2-.04.29q-.13.9-1.04,1.04c-.09.01-.19.03-.29.04-.03,0-.06.03-.06.07s.03.06.06.07c.11.02.2.03.29.04q.9.13,1.04,1.04c.01.09.03.19.04.29,0,.03.03.06.07.06s.06-.03.07-.06c.02-.11.03-.2.04-.29q.13-.9,1.04-1.04c.09-.01.19-.03.29-.04.03,0,.06-.03.06-.07s-.03-.06-.06-.07Z"/><path class="cls-3" d="M888.65,805.54l-.05-1.47c0-.08-.04-.15-.09-.16-.05,0-.1.06-.1.16l-.06,1.47s0,.02,0,.03c0,.03,0,.05.01.08,0,.02,0,.05-.01.08,0,.01,0,.02,0,.03l.05,1.47c0,.09.05.16.1.16.05,0,.08-.07.09-.16l.06-1.47s0-.08,0-.11c0-.04.01-.07.01-.11Z"/><path class="cls-3" d="M888.52,805.47l-1.08-1.01c-.06-.06-.13-.08-.17-.05-.04.03-.02.11.04.18l1,1.08s.02.02.02.02c.02.02.04.03.06.05.01.02.03.04.05.06,0,0,.02.02.02.02l1.08,1.01c.07.06.15.08.18.04.03-.04,0-.11-.05-.17l-1-1.08s-.06-.05-.09-.07c-.02-.03-.04-.06-.07-.09Z"/><path class="cls-3" d="M888.39,805.5l-1.47.05c-.08,0-.15.04-.16.09,0,.05.06.1.16.1l1.47.06s.02,0,.03,0c.03,0,.05,0,.08-.01.02,0,.05,0,.08.01.01,0,.02,0,.03,0l1.47-.05c.09,0,.16-.05.16-.1,0-.05-.07-.08-.16-.09l-1.47-.06s-.08,0-.11,0c-.03,0-.07-.01-.11-.01Z"/><path class="cls-3" d="M888.32,805.63l-1.01,1.08c-.06.06-.08.13-.05.17.03.04.11.02.18-.04l1.08-1s.02-.02.02-.02c.02-.02.03-.04.05-.06.02-.01.04-.03.06-.05,0,0,.02-.02.02-.02l1.01-1.08c.06-.07.08-.15.04-.18-.04-.03-.11,0-.17.05l-1.08,1s-.05.06-.07.09c-.03.02-.06.04-.09.07Z"/><path class="cls-3" d="M941.63,888.23c-.31-.05-.6-.09-.86-.13q-2.65-.39-3.04-3.04c-.04-.26-.08-.55-.13-.86-.02-.1-.1-.17-.2-.17s-.19.07-.2.17c-.05.31-.09.6-.13.86q-.39,2.65-3.05,3.04c-.26.04-.55.08-.86.13-.1.02-.17.1-.17.2s.07.19.17.2c.31.05.6.09.86.13q2.65.39,3.05,3.04c.04.26.08.55.13.86.02.1.1.17.2.17s.19-.07.2-.17c.05-.31.09-.6.13-.86q.39-2.65,3.04-3.04c.26-.04.55-.08.86-.13.1-.02.17-.1.17-.2s-.07-.19-.17-.2Z"/><path class="cls-3" d="M705.38,874.86c-.19-.03-.36-.05-.51-.08q-1.58-.23-1.81-1.81c-.02-.16-.05-.33-.08-.51,0-.06-.06-.1-.12-.1s-.11.04-.12.1c-.03.19-.05.36-.08.51q-.23,1.58-1.81,1.81c-.16.02-.33.05-.51.08-.06,0-.1.06-.1.12s.04.11.1.12c.19.03.36.05.51.08q1.58.23,1.81,1.81c.02.16.05.33.08.51,0,.06.06.1.12.1s.11-.04.12-.1c.03-.19.05-.36.08-.51q.23-1.58,1.81-1.81c.16-.02.33-.05.51-.08.06,0,.1-.06.1-.12s-.04-.11-.1-.12Z"/><path class="cls-3" d="M882.67,987.08c-.11-.02-.21-.03-.3-.04q-.91-.14-1.05-1.05c-.01-.09-.03-.19-.04-.3,0-.03-.04-.06-.07-.06s-.06.03-.07.06c-.02.11-.03.21-.04.3q-.14.91-1.05,1.05c-.09.01-.19.03-.3.04-.03,0-.06.04-.06.07s.03.06.06.07c.11.02.21.03.3.04q.91.14,1.05,1.05c.01.09.03.19.04.3,0,.03.04.06.07.06s.06-.03.07-.06c.02-.11.03-.21.04-.3q.14-.91,1.05-1.05c.09-.01.19-.03.3-.04.03,0,.06-.04.06-.07s-.03-.06-.06-.07Z"/><path class="cls-3" d="M869.6,795.07c-.07-.01-.13-.02-.18-.03q-.56-.08-.64-.64c0-.06-.02-.12-.03-.18,0-.02-.02-.04-.04-.04s-.04.02-.04.04c-.01.07-.02.13-.03.18q-.08.56-.64.64c-.06,0-.12.02-.18.03-.02,0-.04.02-.04.04s.02.04.04.04c.07.01.13.02.18.03q.56.08.64.64c0,.06.02.12.03.18,0,.02.02.04.04.04s.04-.02.04-.04c.01-.07.02-.13.03-.18q.08-.56.64-.64c.06,0,.12-.02.18-.03.02,0,.04-.02.04-.04s-.02-.04-.04-.04Z"/><path class="cls-3" d="M804.52,994.72c-.08-.01-.16-.02-.23-.03q-.7-.1-.81-.81c-.01-.07-.02-.14-.03-.23,0-.03-.03-.05-.05-.05s-.05.02-.05.05c-.01.08-.02.16-.03.23q-.1.7-.81.81c-.07.01-.14.02-.23.03-.03,0-.05.03-.05.05s.02.05.05.05c.08.01.16.02.23.03q.7.1.81.81c.01.07.02.14.03.23,0,.03.03.05.05.05s.05-.02.05-.05c.01-.08.02-.16.03-.23q.1-.7.81-.81c.07-.01.14-.02.23-.03.03,0,.05-.03.05-.05s-.02-.05-.05-.05Z"/><polygon class="cls-3" points="798.56 939.97 784.98 938.8 793.76 928.38 783.33 937.15 782.17 923.57 781 937.15 770.57 928.38 779.35 938.8 765.77 939.97 779.35 941.14 770.57 951.56 781 942.79 782.17 956.37 783.33 942.79 793.76 951.56 784.98 941.14 798.56 939.97"/><path class="cls-3" d="M768.07,935.98c.86.35,1.84-.06,2.2-.91.35-.86-.06-1.84-.91-2.2-.86-.35-1.84.06-2.2.91-.35.86.06,1.84.91,2.2Z"/><path class="cls-3" d="M777.21,928.09h0c.86-.36,1.26-1.34.91-2.2-.36-.86-1.34-1.26-2.2-.91h0c-.86.36-1.26,1.34-.91,2.2.36.86,1.34,1.26,2.2.91Z"/><path class="cls-3" d="M794.04,935.01s0,.01.01.02c0,0,0,.01,0,.02h0c.36.86,1.34,1.27,2.2.91.86-.36,1.27-1.34.91-2.2h0s0-.01-.01-.02c0,0,0-.02,0-.03h0c-.36-.86-1.34-1.26-2.2-.9-.86.36-1.26,1.34-.9,2.2h0Z"/><path class="cls-3" d="M787.06,928.07c.86.35,1.84-.06,2.2-.92.35-.86-.06-1.84-.92-2.2-.86-.35-1.84.06-2.2.92-.35.86.06,1.84.92,2.2Z"/><path class="cls-3" d="M787.1,951.86h0c-.86.36-1.27,1.34-.91,2.2s1.34,1.27,2.2.91h0c.86-.36,1.27-1.34.91-2.2-.36-.86-1.34-1.27-2.2-.91Z"/><path class="cls-3" d="M768.08,944.01c-.86.36-1.26,1.34-.91,2.2.36.86,1.34,1.26,2.2.91s1.26-1.34.91-2.2c-.36-.86-1.34-1.26-2.2-.91Z"/><path class="cls-3" d="M796.26,943.98c-.86-.36-1.84.05-2.2.91h0c-.36.86.05,1.84.91,2.2.86.36,1.84-.05,2.2-.91h0c.36-.86-.05-1.84-.91-2.2Z"/><path class="cls-3" d="M777.25,951.87h0c-.86-.35-1.84.05-2.2.91-.35.86.05,1.84.91,2.2h0c.86.35,1.84-.05,2.2-.91.35-.86-.05-1.84-.91-2.2Z"/><path class="cls-3" d="M943.99,631.44c-.31-.05-.59-.09-.85-.13q-2.62-.39-3-3c-.04-.26-.08-.54-.13-.85-.02-.1-.1-.17-.2-.17s-.19.07-.2.17c-.05.31-.09.59-.13.85q-.39,2.62-3,3c-.26.04-.54.08-.85.13-.1.02-.17.1-.17.2s.07.19.17.2c.31.05.59.09.85.13q2.62.39,3,3c.04.26.08.54.13.85.02.1.1.17.2.17s.19-.07.2-.17c.05-.31.09-.59.13-.85q.39-2.62,3-3c.26-.04.54-.08.85-.13.1-.02.17-.1.17-.2s-.07-.19-.17-.2Z"/><path class="cls-3" d="M1048.64,565.47l-.19-5.61c-.01-.31-.15-.57-.33-.6-.19-.02-.36.24-.38.59l-.22,5.6s0,.09,0,.13c0,.11.02.21.04.3-.02.09-.04.19-.04.3,0,.04,0,.09,0,.13l.19,5.61c.01.35.18.62.37.6.18-.02.32-.28.33-.59l.22-5.6c0-.15,0-.3-.04-.43.03-.13.04-.28.04-.43Z"/><path class="cls-3" d="M1048.17,565.2l-4.1-3.83c-.23-.22-.51-.3-.65-.19-.15.12-.09.43.15.69l3.81,4.12s.06.06.09.09c.08.07.16.13.24.18.05.08.11.16.18.24.03.03.06.06.09.09l4.1,3.83c.26.24.56.31.69.16.11-.14.03-.42-.19-.65l-3.81-4.12c-.1-.11-.22-.2-.33-.28-.07-.12-.17-.23-.28-.33Z"/><path class="cls-3" d="M1047.65,565.34l-5.61.19c-.31.01-.57.15-.6.33-.02.19.24.36.59.38l5.6.22s.09,0,.13,0c.11,0,.21-.02.3-.04.09.02.19.04.3.04.04,0,.09,0,.13,0l5.61-.19c.35-.01.62-.18.6-.37-.02-.18-.28-.32-.59-.33l-5.6-.22c-.15,0-.3,0-.43.04-.13-.03-.28-.04-.43-.04Z"/><path class="cls-3" d="M1047.39,565.81l-3.83,4.1c-.22.23-.3.51-.19.65.12.15.43.09.69-.15l4.12-3.81s.06-.06.09-.09c.07-.08.13-.16.18-.24.08-.05.16-.11.24-.18.03-.03.06-.06.09-.09l3.83-4.1c.24-.26.31-.56.16-.69-.14-.11-.42-.03-.65.19l-4.12,3.81c-.11.1-.2.22-.28.33-.12.07-.23.17-.33.28Z"/><path class="cls-3" d="M1069.78,562.28c-.18-.03-.35-.05-.51-.08q-1.56-.23-1.8-1.8c-.02-.15-.05-.32-.08-.51,0-.06-.06-.1-.12-.1s-.11.04-.12.1c-.03.18-.05.35-.08.51q-.23,1.56-1.8,1.8c-.15.02-.32.05-.51.08-.06,0-.1.06-.1.12s.04.11.1.12c.18.03.35.05.51.08q1.56.23,1.8,1.8c.02.15.05.32.08.51,0,.06.06.1.12.1s.11-.04.12-.1c.03-.18.05-.35.08-.51q.23-1.56,1.8-1.8c.15-.02.32-.05.51-.08.06,0,.1-.06.1-.12s-.04-.11-.1-.12Z"/><path class="cls-3" d="M1038.63,628.59l-.08-2.44c0-.14-.06-.25-.14-.26-.08-.01-.16.11-.16.26l-.09,2.44s0,.04,0,.06c0,.05,0,.09.02.13,0,.04-.02.08-.02.13,0,.02,0,.04,0,.06l.08,2.44c0,.15.08.27.16.26.08,0,.14-.12.14-.26l.09-2.44c0-.07,0-.13-.02-.19.01-.06.02-.12.02-.19Z"/><path class="cls-3" d="M1038.43,628.48l-1.78-1.67c-.1-.09-.22-.13-.28-.08-.07.05-.04.19.07.3l1.66,1.79s.03.03.04.04c.03.03.07.06.1.08.02.04.05.07.08.1.01.01.03.03.04.04l1.78,1.67c.11.1.25.14.3.07.05-.06.01-.18-.08-.28l-1.66-1.79s-.09-.09-.14-.12c-.03-.05-.07-.1-.12-.15Z"/><path class="cls-3" d="M1038.2,628.54l-2.44.08c-.14,0-.25.06-.26.14-.01.08.11.16.26.16l2.44.09s.04,0,.06,0c.05,0,.09,0,.13-.02.04,0,.08.02.13.02.02,0,.04,0,.06,0l2.44-.08c.15,0,.27-.08.26-.16,0-.08-.12-.14-.26-.14l-2.44-.09c-.07,0-.13,0-.19.02-.06-.01-.12-.02-.19-.02Z"/><path class="cls-3" d="M1038.09,628.74l-1.67,1.78c-.09.1-.13.22-.08.28.05.07.19.04.3-.07l1.79-1.66s.03-.03.04-.04c.03-.03.06-.07.08-.1.04-.02.07-.05.1-.08.01-.01.03-.03.04-.04l1.67-1.78c.1-.11.14-.25.07-.3-.06-.05-.18-.01-.28.08l-1.79,1.66s-.09.09-.12.14c-.05.03-.1.07-.15.12Z"/><path class="cls-3" d="M1049.96,651.87c-.31-.05-.59-.09-.85-.13q-2.62-.39-3-3c-.04-.26-.08-.54-.13-.85-.02-.1-.1-.17-.2-.17s-.19.07-.2.17c-.05.31-.09.59-.13.85q-.39,2.62-3,3c-.26.04-.54.08-.85.13-.1.02-.17.1-.17.2s.07.19.17.2c.31.05.59.09.85.13q2.62.39,3,3c.04.26.08.54.13.85.02.1.1.17.2.17s.19-.07.2-.17c.05-.31.09-.59.13-.85q.39-2.62,3-3c.26-.04.54-.08.85-.13.1-.02.17-.1.17-.2s-.07-.19-.17-.2Z"/><path class="cls-3" d="M961.98,655.58l-.19-5.61c-.01-.31-.15-.57-.33-.6-.19-.02-.36.24-.38.59l-.22,5.6s0,.09,0,.13c0,.11.02.21.04.3-.02.09-.04.19-.04.3,0,.04,0,.09,0,.13l.19,5.61c.01.35.18.62.37.6.18-.02.32-.28.33-.59l.22-5.6c0-.15,0-.3-.04-.43.03-.13.04-.28.04-.43Z"/><path class="cls-3" d="M961.52,655.31l-4.1-3.83c-.23-.22-.51-.3-.65-.19-.15.12-.09.43.15.69l3.81,4.12s.06.06.09.09c.08.07.16.13.24.18.05.08.11.16.18.24.03.03.06.06.09.09l4.1,3.83c.26.24.56.31.69.16.11-.14.03-.42-.19-.65l-3.81-4.12c-.1-.11-.22-.2-.33-.28-.07-.12-.17-.23-.28-.33Z"/><path class="cls-3" d="M961,655.46l-5.61.19c-.31.01-.57.15-.6.33-.02.19.24.36.59.38l5.6.22s.09,0,.13,0c.11,0,.21-.02.3-.04.09.02.19.04.3.04.04,0,.09,0,.13,0l5.61-.19c.35-.01.62-.18.6-.37-.02-.18-.28-.32-.59-.33l-5.6-.22c-.15,0-.3,0-.43.04-.13-.03-.28-.04-.43-.04Z"/><path class="cls-3" d="M960.73,655.92l-3.83,4.1c-.22.23-.3.51-.19.65.12.15.43.09.69-.15l4.12-3.81s.06-.06.09-.09c.07-.08.13-.16.18-.24.08-.05.16-.11.24-.18.03-.03.06-.06.09-.09l3.83-4.1c.24-.26.31-.56.16-.69-.14-.11-.42-.03-.65.19l-4.12,3.81c-.11.1-.2.22-.28.33-.12.07-.23.17-.33.28Z"/><path class="cls-3" d="M942.61,587.52c-.22-.03-.41-.06-.6-.09q-1.83-.27-2.11-2.1c-.03-.18-.06-.38-.09-.6-.01-.07-.07-.12-.14-.12s-.13.05-.14.12c-.03.22-.06.41-.09.6q-.27,1.83-2.11,2.11c-.18.03-.38.06-.6.09-.07.01-.12.07-.12.14s.05.13.12.14c.22.03.41.06.6.09q1.83.27,2.11,2.11c.03.18.06.38.09.6.01.07.07.12.14.12s.13-.05.14-.12c.03-.22.06-.41.09-.6q.27-1.83,2.11-2.11c.18-.03.38-.06.6-.09.07-.01.12-.07.12-.14s-.05-.13-.12-.14Z"/><path class="cls-3" d="M1050,538.11l-.09-2.7c0-.15-.07-.28-.16-.29-.09-.01-.18.12-.18.29l-.1,2.7s0,.04,0,.06c0,.05,0,.1.02.14-.01.05-.02.09-.02.14,0,.02,0,.04,0,.06l.09,2.7c0,.17.09.3.18.29.09,0,.15-.13.16-.29l.1-2.7c0-.07,0-.14-.02-.21.01-.06.02-.13.02-.21Z"/><path class="cls-3" d="M1049.77,537.98l-1.97-1.85c-.11-.1-.25-.14-.31-.09-.07.06-.04.21.07.33l1.84,1.98s.03.03.04.04c.04.04.08.06.12.09.03.04.05.08.09.12.01.01.03.03.04.04l1.97,1.85c.12.12.27.15.33.08.05-.07.01-.2-.09-.32l-1.84-1.98c-.05-.05-.1-.1-.16-.13-.04-.06-.08-.11-.13-.16Z"/><path class="cls-3" d="M1049.52,538.05l-2.7.09c-.15,0-.28.07-.29.16-.01.09.12.18.29.18l2.7.1s.04,0,.06,0c.05,0,.1,0,.14-.02.05.01.09.02.14.02.02,0,.04,0,.06,0l2.7-.09c.17,0,.3-.09.29-.18-.01-.09-.13-.15-.29-.16l-2.7-.1c-.07,0-.14,0-.21.02-.06-.01-.13-.02-.21-.02Z"/><path class="cls-3" d="M1049.39,538.28l-1.85,1.97c-.1.11-.14.25-.09.31.06.07.21.04.33-.07l1.98-1.84s.03-.03.04-.04c.04-.04.06-.08.09-.12.04-.03.08-.05.12-.09.01-.01.03-.03.04-.04l1.85-1.97c.12-.12.15-.27.08-.33-.07-.05-.2-.01-.32.09l-1.98,1.84c-.05.05-.1.1-.13.16-.06.04-.11.08-.16.13Z"/><path class="cls-3" d="M960.66,545.92c-.31-.05-.59-.09-.85-.13q-2.62-.39-3-3c-.04-.26-.08-.54-.13-.85-.02-.1-.1-.17-.2-.17s-.19.07-.2.17c-.05.31-.09.59-.13.85q-.39,2.62-3,3c-.26.04-.54.08-.85.13-.1.02-.17.1-.17.2s.07.19.17.2c.31.05.59.09.85.13q2.62.39,3,3c.04.26.08.54.13.85.02.1.1.17.2.17s.19-.07.2-.17c.05-.31.09-.59.13-.85q.39-2.62,3-3c.26-.04.54-.08.85-.13.1-.02.17-.1.17-.2s-.07-.19-.17-.2Z"/><path class="cls-3" d="M941.78,544.92c-.18-.03-.35-.05-.51-.08q-1.56-.23-1.8-1.8c-.02-.15-.05-.32-.08-.51,0-.06-.06-.1-.12-.1s-.11.04-.12.1c-.03.18-.05.35-.08.51q-.23,1.56-1.8,1.8c-.15.02-.32.05-.51.08-.06,0-.1.06-.1.12s.04.11.1.12c.18.03.35.05.51.08q1.56.23,1.8,1.8c.02.15.05.32.08.51,0,.06.06.1.12.1s.11-.04.12-.1c.03-.18.05-.35.08-.51q.23-1.56,1.8-1.8c.15-.02.32-.05.51-.08.06,0,.1-.06.1-.12s-.04-.11-.1-.12Z"/><path class="cls-3" d="M1027.52,664.01c-.31-.05-.59-.09-.85-.13q-2.62-.39-3-3c-.04-.26-.08-.54-.13-.85-.02-.1-.1-.17-.2-.17s-.19.07-.2.17c-.05.31-.09.59-.13.85q-.39,2.62-3,3c-.26.04-.54.08-.85.13-.1.02-.17.1-.17.2s.07.19.17.2c.31.05.59.09.85.13q2.62.39,3,3c.04.26.08.54.13.85.02.1.1.17.2.17s.19-.07.2-.17c.05-.31.09-.59.13-.85q.39-2.62,3-3c.26-.04.54-.08.85-.13.1-.02.17-.1.17-.2s-.07-.19-.17-.2Z"/><path class="cls-3" d="M1037.17,541.43c-.19-.03-.37-.06-.53-.08q-1.64-.24-1.88-1.88c-.02-.16-.05-.34-.08-.53,0-.06-.06-.11-.13-.11s-.12.05-.13.11c-.03.19-.06.37-.08.53q-.24,1.64-1.88,1.88c-.16.02-.34.05-.53.08-.06,0-.11.06-.11.13s.05.12.11.13c.19.03.37.06.53.08q1.64.24,1.88,1.88c.02.16.05.34.08.53,0,.06.06.11.13.11s.12-.05.13-.11c.03-.19.06-.37.08-.53q.24-1.64,1.88-1.88c.16-.02.34-.05.53-.08.06,0,.11-.06.11-.13s-.05-.12-.11-.13Z"/><path class="cls-3" d="M950.39,536.47c-.26-.04-.5-.08-.72-.11q-2.23-.33-2.56-2.56c-.03-.22-.07-.46-.11-.72-.01-.08-.09-.15-.17-.15s-.16.06-.17.15c-.04.26-.08.5-.11.72q-.33,2.23-2.56,2.56c-.22.03-.46.07-.72.11-.08.01-.15.09-.15.17s.06.16.15.17c.26.04.5.08.72.11q2.23.33,2.56,2.56c.03.22.07.46.11.72.01.08.09.15.17.15s.16-.06.17-.15c.04-.26.08-.5.11-.72q.33-2.23,2.56-2.56c.22-.03.46-.07.72-.11.08-.01.15-.09.15-.17s-.06-.16-.15-.17Z"/><path class="cls-3" d="M935.12,625.78c-.11-.02-.2-.03-.29-.04q-.9-.13-1.04-1.04c-.01-.09-.03-.19-.04-.29,0-.03-.03-.06-.07-.06s-.06.03-.07.06c-.02.11-.03.2-.04.29q-.13.9-1.04,1.04c-.09.01-.19.03-.29.04-.03,0-.06.03-.06.07s.03.06.06.07c.11.02.2.03.29.04q.9.13,1.04,1.04c.01.09.03.19.04.29,0,.03.03.06.07.06s.06-.03.07-.06c.02-.11.03-.2.04-.29q.13-.9,1.04-1.04c.09-.01.19-.03.29-.04.03,0,.06-.03.06-.07s-.03-.06-.06-.07Z"/><path class="cls-3" d="M1054.91,645.11c-.18-.03-.34-.05-.49-.07q-1.51-.22-1.74-1.74c-.02-.15-.05-.31-.07-.49,0-.06-.06-.1-.12-.1s-.11.04-.12.1c-.03.18-.05.34-.07.49q-.22,1.51-1.74,1.74c-.15.02-.31.05-.49.07-.06,0-.1.06-.1.12s.04.11.1.12c.18.03.34.05.49.07q1.51.22,1.74,1.74c.02.15.05.31.07.49,0,.06.06.1.12.1s.11-.04.12-.1c.03-.18.05-.34.07-.49q.22-1.51,1.74-1.74c.15-.02.31-.05.49-.07.06,0,.1-.06.1-.12s-.04-.11-.1-.12Z"/><path class="cls-3" d="M929.03,589.03c-.13-.02-.24-.04-.34-.05q-1.06-.16-1.22-1.22c-.02-.1-.03-.22-.05-.34,0-.04-.04-.07-.08-.07s-.08.03-.08.07c-.02.12-.04.24-.05.34q-.16,1.06-1.22,1.22c-.1.02-.22.03-.34.05-.04,0-.07.04-.07.08s.03.08.07.08c.13.02.24.04.34.05q1.06.16,1.22,1.22c.02.1.03.22.05.34,0,.04.04.07.08.07s.08-.03.08-.07c.02-.12.04-.24.05-.34q.16-1.06,1.22-1.22c.1-.02.22-.03.34-.05.04,0,.07-.04.07-.08s-.03-.08-.07-.08Z"/><path class="cls-3" d="M942.25,595.42c-.11-.02-.21-.03-.3-.05q-.93-.14-1.07-1.07c-.01-.09-.03-.19-.05-.3,0-.04-.04-.06-.07-.06s-.07.03-.07.06c-.02.11-.03.21-.05.3q-.14.93-1.07,1.07c-.09.01-.19.03-.3.05-.04,0-.06.04-.06.07s.03.07.06.07c.11.02.21.03.3.05q.93.14,1.07,1.07c.01.09.03.19.05.3,0,.04.04.06.07.06s.07-.03.07-.06c.02-.11.03-.21.05-.3q.14-.93,1.07-1.07c.09-.01.19-.03.3-.05.04,0,.06-.04.06-.07s-.03-.07-.06-.07Z"/><path class="cls-3" d="M1062.24,617.61c-.07-.01-.13-.02-.18-.03q-.56-.08-.64-.64c0-.05-.02-.11-.03-.18,0-.02-.02-.04-.04-.04s-.04.02-.04.04c-.01.07-.02.13-.03.18q-.08.56-.64.64c-.05,0-.11.02-.18.03-.02,0-.04.02-.04.04s.02.04.04.04c.07.01.13.02.18.03q.56.08.64.64c0,.05.02.11.03.18,0,.02.02.04.04.04s.04-.02.04-.04c.01-.07.02-.13.03-.18q.08-.56.64-.64c.05,0,.11-.02.18-.03.02,0,.04-.02.04-.04s-.02-.04-.04-.04Z"/><path class="cls-3" d="M1036.93,636.53c-.11-.02-.21-.03-.3-.05q-.93-.14-1.07-1.07c-.01-.09-.03-.19-.05-.3,0-.04-.04-.06-.07-.06s-.07.03-.07.06c-.02.11-.03.21-.05.3q-.14.93-1.07,1.07c-.09.01-.19.03-.3.05-.04,0-.06.04-.06.07s.03.07.06.07c.11.02.21.03.3.05q.93.14,1.07,1.07c.01.09.03.19.05.3,0,.04.04.06.07.06s.07-.03.07-.06c.02-.11.03-.21.05-.3q.14-.93,1.07-1.07c.09-.01.19-.03.3-.05.04,0,.06-.04.06-.07s-.03-.07-.06-.07Z"/><path class="cls-3" d="M974.44,656.71c-.08-.01-.15-.02-.21-.03q-.65-.1-.75-.75c0-.06-.02-.13-.03-.21,0-.02-.03-.04-.05-.04s-.05.02-.05.04c-.01.08-.02.15-.03.21q-.1.65-.75.75c-.06,0-.13.02-.21.03-.02,0-.04.03-.04.05s.02.05.04.05c.08.01.15.02.21.03q.65.1.75.75c0,.06.02.13.03.21,0,.02.03.04.05.04s.05-.02.05-.04c.01-.08.02-.15.03-.21q.1-.65.75-.75c.06,0,.13-.02.21-.03.02,0,.04-.03.04-.05s-.02-.05-.04-.05Z"/><path class="cls-3" d="M952.73,646.16c-.07-.01-.13-.02-.18-.03q-.56-.08-.64-.64c0-.05-.02-.11-.03-.18,0-.02-.02-.04-.04-.04s-.04.02-.04.04c-.01.07-.02.13-.03.18q-.08.56-.64.64c-.05,0-.11.02-.18.03-.02,0-.04.02-.04.04s.02.04.04.04c.07.01.13.02.18.03q.56.08.64.64c0,.05.02.11.03.18,0,.02.02.04.04.04s.04-.02.04-.04c.01-.07.02-.13.03-.18q.08-.56.64-.64c.05,0,.11-.02.18-.03.02,0,.04-.02.04-.04s-.02-.04-.04-.04Z"/><circle class="cls-2" cx="997.57" cy="588.98" r="66.33"/><circle class="cls-1" cx="1003.18" cy="592.55" r="66.33"/><circle class="cls-1" cx="989.41" cy="595.61" r="66.33" transform="translate(-131.37 874.07) rotate(-45)"/><path class="cls-3" d="M950.97,549.52c-.14-.02-.27-.04-.39-.06q-1.19-.18-1.37-1.37c-.02-.12-.04-.25-.06-.39,0-.05-.05-.08-.09-.08s-.08.03-.09.08c-.02.14-.04.27-.06.39q-.18,1.19-1.37,1.37c-.12.02-.25.04-.39.06-.05,0-.08.05-.08.09s.03.08.08.09c.14.02.27.04.39.06q1.19.18,1.37,1.37c.02.12.04.25.06.39,0,.05.05.08.09.08s.08-.03.09-.08c.02-.14.04-.27.06-.39q.18-1.19,1.37-1.37c.12-.02.25-.04.39-.06.05,0,.08-.05.08-.09s-.03-.08-.08-.09Z"/><path class="cls-3" d="M1041.76,533.92c-.11-.02-.21-.03-.3-.05q-.93-.14-1.07-1.07c-.01-.09-.03-.19-.05-.3,0-.04-.04-.06-.07-.06s-.07.03-.07.06c-.02.11-.03.21-.05.3q-.14.93-1.07,1.07c-.09.01-.19.03-.3.05-.04,0-.06.04-.06.07s.03.07.06.07c.11.02.21.03.3.05q.93.14,1.07,1.07c.01.09.03.19.05.3,0,.04.04.06.07.06s.07-.03.07-.06c.02-.11.03-.21.05-.3q.14-.93,1.07-1.07c.09-.01.19-.03.3-.05.04,0,.06-.04.06-.07s-.03-.07-.06-.07Z"/><path class="cls-3" d="M923.03,607.16c-.11-.02-.21-.03-.3-.05q-.93-.14-1.07-1.07c-.01-.09-.03-.19-.05-.3,0-.04-.04-.06-.07-.06s-.07.03-.07.06c-.02.11-.03.21-.05.3q-.14.93-1.07,1.07c-.09.01-.19.03-.3.05-.04,0-.06.04-.06.07s.03.07.06.07c.11.02.21.03.3.05q.93.14,1.07,1.07c.01.09.03.19.05.3,0,.04.04.06.07.06s.07-.03.07-.06c.02-.11.03-.21.05-.3q.14-.93,1.07-1.07c.09-.01.19-.03.3-.05.04,0,.06-.04.06-.07s-.03-.07-.06-.07Z"/><path class="cls-3" d="M1062.79,582.96c-.11-.02-.21-.03-.3-.05q-.93-.14-1.07-1.07c-.01-.09-.03-.19-.05-.3,0-.04-.04-.06-.07-.06s-.07.03-.07.06c-.02.11-.03.21-.05.3q-.14.93-1.07,1.07c-.09.01-.19.03-.3.05-.04,0-.06.04-.06.07s.03.07.06.07c.11.02.21.03.3.05q.93.14,1.07,1.07c.01.09.03.19.05.3,0,.04.04.06.07.06s.07-.03.07-.06c.02-.11.03-.21.05-.3q.14-.93,1.07-1.07c.09-.01.19-.03.3-.05.04,0,.06-.04.06-.07s-.03-.07-.06-.07Z"/><path class="cls-3" d="M975.42,523.48c-.11-.02-.21-.03-.3-.05q-.93-.14-1.07-1.07c-.01-.09-.03-.19-.05-.3,0-.04-.04-.06-.07-.06s-.07.03-.07.06c-.02.11-.03.21-.05.3q-.14.93-1.07,1.07c-.09.01-.19.03-.3.05-.04,0-.06.04-.06.07s.03.07.06.07c.11.02.21.03.3.05q.93.14,1.07,1.07c.01.09.03.19.05.3,0,.04.04.06.07.06s.07-.03.07-.06c.02-.11.03-.21.05-.3q.14-.93,1.07-1.07c.09-.01.19-.03.3-.05.04,0,.06-.04.06-.07s-.03-.07-.06-.07Z"/><path class="cls-3" d="M977.97,648.44c-.11-.02-.21-.03-.3-.05q-.93-.14-1.07-1.07c-.01-.09-.03-.19-.05-.3,0-.04-.04-.06-.07-.06s-.07.03-.07.06c-.02.11-.03.21-.05.3q-.14.93-1.07,1.07c-.09.01-.19.03-.3.05-.04,0-.06.04-.06.07s.03.07.06.07c.11.02.21.03.3.05q.93.14,1.07,1.07c.01.09.03.19.05.3,0,.04.04.06.07.06s.07-.03.07-.06c.02-.11.03-.21.05-.3q.14-.93,1.07-1.07c.09-.01.19-.03.3-.05.04,0,.06-.04.06-.07s-.03-.07-.06-.07Z"/><path class="cls-3" d="M1011.87,663.61c-.14-.02-.26-.04-.38-.06q-1.16-.17-1.33-1.33c-.02-.11-.04-.24-.06-.38,0-.04-.04-.08-.09-.08s-.08.03-.09.08c-.02.14-.04.26-.06.38q-.17,1.16-1.33,1.33c-.11.02-.24.04-.38.06-.04,0-.08.04-.08.09s.03.08.08.09c.14.02.26.04.38.06q1.16.17,1.33,1.33c.02.11.04.24.06.38,0,.04.04.08.09.08s.08-.03.09-.08c.02-.14.04-.26.06-.38q.17-1.16,1.33-1.33c.11-.02.24-.04.38-.06.04,0,.08-.04.08-.09s-.03-.08-.08-.09Z"/><path class="cls-3" d="M1074.8,601.36c-.14-.02-.26-.04-.38-.06q-1.16-.17-1.33-1.33c-.02-.11-.04-.24-.06-.38,0-.04-.04-.08-.09-.08s-.08.03-.09.08c-.02.14-.04.26-.06.38q-.17,1.16-1.33,1.33c-.11.02-.24.04-.38.06-.04,0-.08.04-.08.09s.03.08.08.09c.14.02.26.04.38.06q1.16.17,1.33,1.33c.02.11.04.24.06.38,0,.04.04.08.09.08s.08-.03.09-.08c.02-.14.04-.26.06-.38q.17-1.16,1.33-1.33c.11-.02.24-.04.38-.06.04,0,.08-.04.08-.09s-.03-.08-.08-.09Z"/><path class="cls-3" d="M1073.28,610.83c-.19-.03-.37-.06-.53-.08q-1.64-.24-1.88-1.88c-.02-.16-.05-.34-.08-.53,0-.06-.06-.11-.13-.11s-.12.05-.13.11c-.03.19-.06.37-.08.53q-.24,1.64-1.88,1.88c-.16.02-.34.05-.53.08-.06,0-.11.06-.11.13s.05.12.11.13c.19.03.37.06.53.08q1.64.24,1.88,1.88c.02.16.05.34.08.53,0,.06.06.11.13.11s.12-.05.13-.11c.03-.19.06-.37.08-.53q.24-1.64,1.88-1.88c.16-.02.34-.05.53-.08.06,0,.11-.06.11-.13s-.05-.12-.11-.13Z"/><path class="cls-3" d="M970.56,525.19c-.17-.03-.33-.05-.48-.07q-1.47-.22-1.69-1.69c-.02-.15-.05-.3-.07-.48,0-.06-.06-.1-.11-.1s-.1.04-.11.1c-.03.17-.05.33-.07.48q-.22,1.47-1.69,1.69c-.15.02-.3.05-.48.07-.06,0-.1.06-.1.11s.04.1.1.11c.17.03.33.05.48.07q1.47.22,1.69,1.69c.02.15.05.3.07.48,0,.06.06.1.11.1s.1-.04.11-.1c.03-.17.05-.33.07-.48q.22-1.47,1.69-1.69c.15-.02.3-.05.48-.07.06,0,.1-.06.1-.11s-.04-.1-.1-.11Z"/><path class="cls-3" d="M926.65,575.3l-.07-2.07c0-.12-.06-.21-.12-.22-.07,0-.13.09-.14.22l-.08,2.07s0,.03,0,.05c0,.04,0,.08.01.11,0,.03-.01.07-.01.11,0,.02,0,.03,0,.05l.07,2.07c0,.13.07.23.14.22.07,0,.12-.1.12-.22l.08-2.07c0-.06,0-.11-.01-.16.01-.05.02-.1.01-.16Z"/><path class="cls-3" d="M926.48,575.2l-1.51-1.41c-.08-.08-.19-.11-.24-.07-.06.04-.03.16.06.25l1.41,1.52s.02.02.03.03c.03.03.06.05.09.07.02.03.04.06.07.09.01.01.02.02.03.03l1.51,1.41c.09.09.21.11.25.06.04-.05.01-.16-.07-.24l-1.41-1.52s-.08-.08-.12-.1c-.03-.04-.06-.08-.1-.12Z"/><path class="cls-3" d="M926.28,575.25l-2.07.07c-.12,0-.21.06-.22.12,0,.07.09.13.22.14l2.07.08s.03,0,.05,0c.04,0,.08,0,.11-.01.03,0,.07.01.11.01.02,0,.03,0,.05,0l2.07-.07c.13,0,.23-.07.22-.14,0-.07-.1-.12-.22-.12l-2.07-.08c-.06,0-.11,0-.16.01-.05-.01-.1-.02-.16-.01Z"/><path class="cls-3" d="M926.18,575.42l-1.41,1.51c-.08.08-.11.19-.07.24.04.06.16.03.25-.06l1.52-1.41s.02-.02.03-.03c.03-.03.05-.06.07-.09.03-.02.06-.04.09-.07.01-.01.02-.02.03-.03l1.41-1.51c.09-.09.11-.21.06-.25-.05-.04-.16-.01-.24.07l-1.52,1.41s-.08.08-.1.12c-.04.03-.08.06-.12.1Z"/><path class="cls-3" d="M1023.18,542.15l-.04-1.1c0-.06-.03-.11-.06-.12-.04,0-.07.05-.07.12l-.04,1.1s0,.02,0,.03c0,.02,0,.04,0,.06,0,.02,0,.04,0,.06,0,0,0,.02,0,.03l.04,1.1c0,.07.04.12.07.12.04,0,.06-.05.06-.12l.04-1.1s0-.06,0-.08c0-.03,0-.05,0-.08Z"/><path class="cls-3" d="M1023.09,542.1l-.8-.75s-.1-.06-.13-.04c-.03.02-.02.08.03.13l.75.81s.01.01.02.02c.02.01.03.03.05.04.01.02.02.03.04.05,0,0,.01.01.02.02l.8.75c.05.05.11.06.13.03.02-.03,0-.08-.04-.13l-.75-.81s-.04-.04-.07-.05c-.01-.02-.03-.04-.05-.07Z"/><path class="cls-3" d="M1022.98,542.13l-1.1.04c-.06,0-.11.03-.12.06,0,.04.05.07.12.07l1.1.04s.02,0,.03,0c.02,0,.04,0,.06,0,.02,0,.04,0,.06,0,0,0,.02,0,.03,0l1.1-.04c.07,0,.12-.04.12-.07,0-.04-.05-.06-.12-.06l-1.1-.04s-.06,0-.08,0c-.03,0-.05,0-.08,0Z"/><path class="cls-3" d="M1022.93,542.22l-.75.8s-.06.1-.04.13c.02.03.08.02.13-.03l.81-.75s.01-.01.02-.02c.01-.02.03-.03.04-.05.02-.01.03-.02.05-.04,0,0,.01-.01.02-.02l.75-.8c.05-.05.06-.11.03-.13-.03-.02-.08,0-.13.04l-.81.75s-.04.04-.05.07c-.02.01-.04.03-.07.05Z"/><path class="cls-3" d="M1052.43,609c-.14-.02-.27-.04-.38-.06q-1.18-.18-1.36-1.36c-.02-.12-.04-.24-.06-.38,0-.04-.05-.08-.09-.08s-.08.03-.09.08c-.02.14-.04.27-.06.38q-.18,1.18-1.36,1.36c-.12.02-.24.04-.38.06-.04,0-.08.05-.08.09s.03.08.08.09c.14.02.27.04.38.06q1.18.18,1.36,1.36c.02.12.04.24.06.38,0,.04.05.08.09.08s.08-.03.09-.08c.02-.14.04-.27.06-.38q.18-1.18,1.36-1.36c.12-.02.24-.04.38-.06.04,0,.08-.05.08-.09s-.03-.08-.08-.09Z"/><path class="cls-3" d="M946.24,613.58c-.14-.02-.27-.04-.38-.06q-1.18-.18-1.36-1.36c-.02-.12-.04-.24-.06-.38,0-.04-.05-.08-.09-.08s-.08.03-.09.08c-.02.14-.04.27-.06.38q-.18,1.18-1.36,1.36c-.12.02-.24.04-.38.06-.04,0-.08.05-.08.09s.03.08.08.09c.14.02.27.04.38.06q1.18.18,1.36,1.36c.02.12.04.24.06.38,0,.04.05.08.09.08s.08-.03.09-.08c.02-.14.04-.27.06-.38q.18-1.18,1.36-1.36c.12-.02.24-.04.38-.06.04,0,.08-.05.08-.09s-.03-.08-.08-.09Z"/><path class="cls-3" d="M1051.34,634.1c-.08-.01-.15-.02-.22-.03q-.68-.1-.78-.78c-.01-.07-.02-.14-.03-.22,0-.03-.03-.04-.05-.04s-.05.02-.05.04c-.01.08-.02.15-.03.22q-.1.68-.78.78c-.07,0-.14.02-.22.03-.03,0-.04.03-.04.05s.02.05.04.05c.08.01.15.02.22.03q.68.1.78.78c0,.07.02.14.03.22,0,.03.03.04.05.04s.05-.02.05-.04c.01-.08.02-.15.03-.22q.1-.68.78-.78c.07,0,.14-.02.22-.03.03,0,.04-.03.04-.05s-.02-.05-.04-.05Z"/><path class="cls-3" d="M950.96,557.63s-.09-.01-.14-.02q-.42-.06-.48-.48s-.01-.09-.02-.14c0-.02-.02-.03-.03-.03s-.03.01-.03.03c0,.05-.01.09-.02.14q-.06.42-.48.48s-.09.01-.14.02c-.02,0-.03.02-.03.03s.01.03.03.03c.05,0,.09.01.14.02q.42.06.48.48s.01.09.02.14c0,.02.02.03.03.03s.03-.01.03-.03c0-.05.01-.09.02-.14q.06-.42.48-.48s.09-.01.14-.02c.02,0,.03-.02.03-.03s-.01-.03-.03-.03Z"/><path class="cls-3" d="M937.11,621.92c-.06,0-.12-.02-.17-.03q-.52-.08-.6-.6c0-.05-.02-.11-.03-.17,0-.02-.02-.03-.04-.03s-.04.01-.04.03c0,.06-.02.12-.03.17q-.08.52-.6.6c-.05,0-.11.02-.17.03-.02,0-.03.02-.03.04s.01.04.03.04c.06,0,.12.02.17.03q.52.08.6.6c0,.05.02.11.03.17,0,.02.02.03.04.03s.04-.01.04-.03c0-.06.02-.12.03-.17q.08-.52.6-.6c.05,0,.11-.02.17-.03.02,0,.03-.02.03-.04s-.01-.04-.03-.04Z"/><path class="cls-3" d="M1030.3,539.18l-.03-.86s-.02-.09-.05-.09c-.03,0-.06.04-.06.09l-.03.86s0,.01,0,.02c0,.02,0,.03,0,.05,0,.01,0,.03,0,.05,0,0,0,.01,0,.02l.03.86c0,.05.03.09.06.09.03,0,.05-.04.05-.09l.03-.86s0-.05,0-.07c0-.02,0-.04,0-.07Z"/><path class="cls-3" d="M1030.23,539.14l-.63-.59s-.08-.05-.1-.03c-.02.02-.01.07.02.1l.58.63s0,0,.01.01c.01.01.02.02.04.03,0,.01.02.02.03.04,0,0,0,0,.01.01l.63.59s.09.05.1.02c.02-.02,0-.06-.03-.1l-.58-.63s-.03-.03-.05-.04c-.01-.02-.03-.03-.04-.05Z"/><path class="cls-3" d="M1030.15,539.16l-.86.03s-.09.02-.09.05c0,.03.04.06.09.06l.86.03s.01,0,.02,0c.02,0,.03,0,.05,0,.01,0,.03,0,.05,0,0,0,.01,0,.02,0l.86-.03c.05,0,.09-.03.09-.06,0-.03-.04-.05-.09-.05l-.86-.03s-.05,0-.07,0c-.02,0-.04,0-.07,0Z"/><path class="cls-3" d="M1030.11,539.23l-.59.63s-.05.08-.03.1c.02.02.07.01.1-.02l.63-.58s0,0,.01-.01c.01-.01.02-.02.03-.04.01,0,.02-.02.04-.03,0,0,0,0,.01-.01l.59-.63s.05-.09.02-.1c-.02-.02-.06,0-.1.03l-.63.58s-.03.03-.04.05c-.02.01-.03.03-.05.04Z"/><path class="cls-3" d="M1061.12,587.27c-.18-.03-.35-.05-.5-.08q-1.54-.23-1.77-1.77c-.02-.15-.05-.32-.08-.5,0-.06-.06-.1-.12-.1s-.11.04-.12.1c-.03.18-.05.35-.08.5q-.23,1.54-1.77,1.77c-.15.02-.32.05-.5.08-.06,0-.1.06-.1.12s.04.11.1.12c.18.03.35.05.5.08q1.54.23,1.77,1.77c.02.15.05.32.08.5,0,.06.06.1.12.1s.11-.04.12-.1c.03-.18.05-.35.08-.5q.23-1.54,1.77-1.77c.15-.02.32-.05.5-.08.06,0,.1-.06.1-.12s-.04-.11-.1-.12Z"/><path class="cls-3" d="M923.71,579.5c-.11-.02-.21-.03-.3-.05q-.92-.14-1.05-1.05c-.01-.09-.03-.19-.04-.3,0-.03-.04-.06-.07-.06s-.07.03-.07.06c-.02.11-.03.21-.05.3q-.14.92-1.05,1.05c-.09.01-.19.03-.3.05-.03,0-.06.04-.06.07s.03.07.06.07c.11.02.21.03.3.05q.92.14,1.05,1.05c.01.09.03.19.05.3,0,.03.04.06.07.06s.07-.03.07-.06c.02-.11.03-.21.04-.3q.14-.92,1.05-1.05c.09-.01.19-.03.3-.05.03,0,.06-.04.06-.07s-.03-.07-.06-.07Z"/><path class="cls-3" d="M1026.83,644.77c-.06,0-.12-.02-.17-.03q-.53-.08-.61-.61c0-.05-.02-.11-.03-.17,0-.02-.02-.03-.04-.03s-.04.01-.04.03c0,.06-.02.12-.03.17q-.08.53-.61.61c-.05,0-.11.02-.17.03-.02,0-.03.02-.03.04s.01.04.03.04c.06,0,.12.02.17.03q.53.08.61.61c0,.05.02.11.03.17,0,.02.02.03.04.03s.04-.01.04-.03c0-.06.02-.12.03-.17q.08-.53.61-.61c.05,0,.11-.02.17-.03.02,0,.03-.02.03-.04s-.01-.04-.03-.04Z"/><path class="cls-3" d="M1019.23,533.09s-.07-.01-.11-.02q-.33-.05-.37-.37s0-.07-.02-.11c0-.01-.01-.02-.03-.02s-.02,0-.03.02c0,.04-.01.07-.02.11q-.05.33-.37.37s-.07,0-.11.02c-.01,0-.02.01-.02.03s0,.02.02.03c.04,0,.07.01.11.02q.33.05.37.37s0,.07.02.11c0,.01.01.02.03.02s.02,0,.03-.02c0-.04.01-.07.02-.11q.05-.33.37-.37s.07,0,.11-.02c.01,0,.02-.01.02-.03s0-.02-.02-.03Z"/><path class="cls-3" d="M981.38,649.21s-.09-.01-.13-.02q-.41-.06-.47-.47s-.01-.08-.02-.13c0-.02-.02-.03-.03-.03s-.03.01-.03.03c0,.05-.01.09-.02.13q-.06.41-.47.47s-.08.01-.13.02c-.02,0-.03.02-.03.03s.01.03.03.03c.05,0,.09.01.13.02q.41.06.47.47s.01.08.02.13c0,.02.02.03.03.03s.03-.01.03-.03c0-.05.01-.09.02-.13q.06-.41.47-.47s.08-.01.13-.02c.02,0,.03-.02.03-.03s-.01-.03-.03-.03Z"/><polygon class="cls-3" points="1033.91 609.37 1026.01 608.69 1031.11 602.63 1025.05 607.73 1024.37 599.83 1023.69 607.73 1017.63 602.63 1022.73 608.69 1014.83 609.37 1022.73 610.05 1017.63 616.11 1023.69 611.01 1024.37 618.91 1025.05 611.01 1031.11 616.11 1026.01 610.05 1033.91 609.37"/><path class="cls-3" d="M1016.17,607.05c.5.21,1.07-.03,1.28-.53.21-.5-.03-1.07-.53-1.28-.5-.21-1.07.03-1.28.53-.21.5.03,1.07.53,1.28Z"/><path class="cls-3" d="M1021.49,602.46h0c.5-.21.73-.78.53-1.28-.21-.5-.78-.73-1.28-.53h0c-.5.21-.73.78-.53,1.28.21.5.78.73,1.28.53Z"/><path class="cls-3" d="M1031.28,606.48s0,0,0,.01c0,0,0,0,0,.01h0c.21.5.78.74,1.28.53.5-.21.74-.78.53-1.28h0s0,0,0-.01c0,0,0-.01,0-.02h0c-.21-.5-.78-.73-1.28-.53-.5.21-.73.78-.53,1.28h0Z"/><path class="cls-3" d="M1027.22,602.45c.5.21,1.07-.03,1.28-.53.21-.5-.03-1.07-.53-1.28-.5-.21-1.07.03-1.28.53-.21.5.03,1.07.53,1.28Z"/><path class="cls-3" d="M1027.24,616.28h0c-.5.21-.74.78-.53,1.28s.78.74,1.28.53h0c.5-.21.74-.78.53-1.28-.21-.5-.78-.74-1.28-.53Z"/><path class="cls-3" d="M1016.18,611.72c-.5.21-.74.78-.53,1.28.21.5.78.74,1.28.53s.74-.78.53-1.28c-.21-.5-.78-.74-1.28-.53Z"/><path class="cls-3" d="M1032.57,611.7c-.5-.21-1.07.03-1.28.53h0c-.21.5.03,1.07.53,1.28.5.21,1.07-.03,1.28-.53h0c.21-.5-.03-1.07-.53-1.28Z"/><path class="cls-3" d="M1021.51,616.29h0c-.5-.21-1.07.03-1.28.53-.21.5.03,1.07.53,1.28h0c.5.21,1.07-.03,1.28-.53.21-.5-.03-1.07-.53-1.28Z"/></g></svg>