<?xml version="1.0" encoding="UTF-8"?><svg id="_レイヤー_2" xmlns="http://www.w3.org/2000/svg" viewBox="0 0 387.71 23.06"><defs><style>.cls-1{stroke-miterlimit:10;}.cls-1,.cls-2{fill:none;stroke:#b19552;}.cls-2{stroke-dasharray:0 3;stroke-linecap:round;stroke-linejoin:round;}.cls-3{fill:#b19552;}</style></defs><g id="_飾り"><path class="cls-3" d="M371.65,4.34l-4.88.57,3.41,3.53-.97,4.81,4.41-2.16,4.28,2.41-.69-4.86,3.61-3.32-4.84-.85-2.04-4.46-2.3,4.34ZM374.01,6.54l.14-5.01,1.39,3.02-1.53,1.98ZM379.48,5.94l-2.62,2.41-2.52-.9,5.13-1.51ZM373.21,7.79l-3.29,4.27.71-3.51,2.58-.76ZM373.74,10.64l.08-2.77,3.12,4.57-3.2-1.8ZM371.55,4.8l1.4,2.06-4.69-1.67,3.28-.38Z"/><path class="cls-3" d="M12.65,4.34l-4.88.57,3.41,3.53-.97,4.81,4.41-2.16,4.28,2.41-.69-4.86,3.61-3.32-4.84-.85L14.95,0l-2.3,4.34ZM15.01,6.54l.14-5.01,1.39,3.02-1.53,1.98ZM20.48,5.94l-2.62,2.41-2.52-.9,5.13-1.51ZM14.21,7.79l-3.29,4.27.71-3.51,2.58-.76ZM14.74,10.64l.08-2.77,3.12,4.57-3.2-1.8ZM12.55,4.8l1.4,2.06-4.69-1.67,3.28-.38Z"/><polygon class="cls-3" points="0 18.39 4.63 21.25 9.25 18.39 4.63 15.53 0 18.39"/><polygon class="cls-3" points="19.23 21.49 21.75 23.06 24.27 21.49 21.75 19.93 19.23 21.49"/><polygon class="cls-3" points="387.71 18.19 383.08 15.33 378.46 18.19 383.08 21.06 387.71 18.19"/><polyline class="cls-1" points="383.62 18.19 197 18.29 192.71 18.29 4.09 18.39"/><polygon class="cls-3" points="368.48 21.09 365.96 19.53 363.44 21.09 365.96 22.65 368.48 21.09"/><polyline class="cls-2" points="361.67 21.09 197.04 21.29 192.67 21.29 26.04 21.49"/></g></svg>